<svg width="170" height="231" fill="none" xmlns="http://www.w3.org/2000/svg"><path d="M87.023 11.755c-1.188-.157-1.688.197-1.502 1.062a.795.795 0 0 1-.038.473.479.479 0 0 1-.284.278l-3.487 1.202a.697.697 0 0 1-.252.037.653.653 0 0 1-.242-.057.59.59 0 0 1-.195-.141.548.548 0 0 1-.116-.204c-.072-.222-.046-.454.075-.697.093-.186.275-.347.547-.483 1.36-.68 1.28-.987-.236-.923-.25.007-.479.082-.686.226-1.631 1.144-2.79 2.718-3.477 4.72-.772 2.254-1.76 2.35-2.96.29-1.038-1.774-2.744-2.925-5.119-3.455m11.802 15.643-3.798-2.35a.397.397 0 0 0-.343-.034.35.35 0 0 0-.14.098.333.333 0 0 0-.075.151c-.6 2.826.569 4.507 3.509 5.043" stroke="#A86975" stroke-width="2.146"/><path d="M79.555 35.853c-.143.572-.515.944-1.116 1.116" stroke="#F77E74" stroke-width="2.146"/><path d="M78.44 36.969a49.033 49.033 0 0 1-15.333-.848" stroke="#F7897F" stroke-width="2.146"/><path d="M74.373 58.384c-.243.394-.333.84-.268 1.341" stroke="#F37976" stroke-width="2.146"/><path d="M74.105 59.726c-1.038-5.773-.651-11.756 1.158-17.95a.902.902 0 0 0-.176-.847.925.925 0 0 0-.81-.323c-3.491.408-6.757.293-9.797-.343-.307-.065-.615-.222-.922-.472-1.474-1.18-2.75-.773-3.83 1.223-4.686 8.69-8.083 16.988-10.193 24.892-.158.572-.447 1.03-.87 1.373" stroke="#F95A51" stroke-width="2.146"/><path d="m48.666 67.279-.537-.086" stroke="#CA506F" stroke-width="2.146"/><path d="M48.13 67.193c3.21-10 7.302-19.62 12.273-28.862.165-.307.544-.493 1.138-.558" stroke="#F95A51" stroke-width="2.146"/><path d="M109.018 58.964a8.486 8.486 0 0 0-3.745 0 67.96 67.96 0 0 0-18.583 7.135c-1.452.815-2.414 1.566-2.886 2.253" stroke="#CA4664" stroke-width="2.146"/><path d="M83.804 68.352a16.808 16.808 0 0 0-5.858 4.517" stroke="#AA3A47" stroke-width="2.146"/><path d="M77.946 72.869a50.708 50.708 0 0 1-3.573-14.485" stroke="#F36F6C" stroke-width="2.146"/><path d="M74.373 58.384c-1.13-7.689.225-14.828 4.066-21.415" stroke="#F95A51" stroke-width="2.146"/><path d="m77.946 72.869-.354 1.609" stroke="#A4596D" stroke-width="2.146"/><path d="m48.13 67.193-8.81-5.322" stroke="#CA4664" stroke-width="2.146"/><path d="M39.32 61.871c-2.324-1.395-4.856-1.931-7.596-1.61" stroke="#AA3A47" stroke-width="2.146"/><path d="M48.086 69.918a43.121 43.121 0 0 0-11.222-4.066" stroke="#C87592" stroke-width="2.146"/><path d="M74.105 59.726c.436 3.64 1.344 8.11 2.725 13.411.171.672.425 1.12.761 1.341" stroke="#F36F6C" stroke-width="2.146"/><path d="M77.592 74.478c.965 1.001 2.41 1.449 4.334 1.341 2.547-.143 4.5-.59 5.858-1.341" stroke="#AA3A47" stroke-width="2.146"/><path d="m96.679 109.122-1.341-.085" stroke="#8D7878" stroke-width="2.146"/><path d="M95.338 109.037 89.34 97.106c-.543-1.087-.772-1.023-.687.193l.204 2.929" stroke="#AA3A47" stroke-width="2.146"/><path d="m88.857 100.228.14 7.843a1.89 1.89 0 0 1-.13.719c-.088.228-.22.433-.385.603-.165.17-.362.3-.576.383a1.517 1.517 0 0 1-.669.098c-13.097-1.066-25.954-.959-38.571.321" stroke="#8D7878" stroke-width="2.146"/><path d="M48.666 110.195c-2.461.151-4.592 1.03-6.395 2.64" stroke="#AA3A47" stroke-width="2.146"/><path d="m44.331 93.79 3.755-23.872" stroke="#F77E74" stroke-width="2.146"/><path d="M48.086 69.918c.487-.808.68-1.688.58-2.64" stroke="#CA4664" stroke-width="2.146"/><path d="M100.209 86.012c-5-2.926-9.141-6.77-12.425-11.534" stroke="#F77E74" stroke-width="2.146"/><path d="m87.784 74.478-1.34-2.146" stroke="#A86975" stroke-width="2.146"/><path d="M86.443 72.332c6.309-6.48 13.834-10.937 22.574-13.369" stroke="#C87592" stroke-width="2.146"/><path d="M109.018 58.964a4.237 4.237 0 0 1 1.566-.58" stroke="#F77E74" stroke-width="2.146"/><path d="m86.443 72.332-2.639-3.98M39.32 61.871a9.924 9.924 0 0 0-2.456 3.98" stroke="#7B3065" stroke-width="2.146"/><path d="m36.864 65.852-1.835 2.993" stroke="#A86975" stroke-width="2.146"/><path d="m74.19 205.911-5.675-1.921" stroke="#8BA7A6" stroke-width="2.146"/><path d="M68.515 203.99c-.143-.422-.501-.765-1.073-1.03-3.527-1.638-6.731-4.052-9.614-7.242" stroke="#5E6E96" stroke-width="2.146"/><path d="M57.828 195.718c-3.047-5.278-5.007-8.519-5.88-9.72-1.115-1.553-2.76-2.872-4.935-3.959" stroke="#3E6279" stroke-width="2.146"/><path d="M47.013 182.038c-.214-.551-.164-1.055.15-1.513 6.38-9.291 12.758-18.586 19.13-27.885a.472.472 0 0 0 .097-.225.518.518 0 0 0-.043-.268.142.142 0 0 0-.077-.068.203.203 0 0 0-.118-.004.35.35 0 0 0-.128.059.445.445 0 0 0-.106.109l-3.262 4.517c-1.087 1.509-1.505 1.345-1.255-.493.751-5.58.98-11.062.687-16.448-.265-5.036-.486-9.088-.665-12.156a80.425 80.425 0 0 0-1.631-12.114c-.072-.329-.172-.397-.3-.204a.553.553 0 0 0-.076.365c.222 1.931.662 7.589 1.32 16.974.594 8.404.63 15.718.107 21.941-.222 2.632-.822 4.896-1.802 6.792-.937 1.802-2.182 3.826-3.734 6.072-4.957 7.146-8.219 11.724-9.785 13.734a1.18 1.18 0 0 0-.225.439c-.033.141-.018.259.043.333.121.129.336.158.643.086" stroke="#31AFB5" stroke-width="2.146"/><path d="M45.983 182.081c-1.552.544-2.496 1.581-2.832 3.112-.057.257-.025.833.096 1.727a3.473 3.473 0 0 1-.214 1.781" stroke="#3E6279" stroke-width="2.146"/><path d="m35.029 193.572-3.305-2.682" stroke="#8BA7A6" stroke-width="2.146"/><path d="M31.724 190.89c.286-.515.226-.948-.182-1.298a12.259 12.259 0 0 1-.676-.601 33.357 33.357 0 0 1-5.536-9.678" stroke="#5E6E96" stroke-width="2.146"/><path d="m48.623 116.858.043-6.663m46.672-1.158-1.084.461a.628.628 0 0 1-.447.013.932.932 0 0 1-.422-.292 21.334 21.334 0 0 1-4.528-8.991" stroke="#3E6279" stroke-width="2.146"/><path d="M154.08 36.615c-.293 1.466-.94 2.353-1.942 2.66-1.867.566-2.829-.218-2.886-2.35-.028-.993-.118-1.633-.268-1.92" stroke="#C87592" stroke-width="2.146"/><path d="M115.455 88.115c10.064-3.398 18.984-9.306 26.759-17.725 5.758-6.237 10.507-12.295 14.248-18.175 1.345-2.117 2.024-4.052 2.039-5.805.021-2.188-.533-4.273-1.663-6.255-.05-.085-.315-.711-.794-1.877-.337-.844-.991-1.399-1.964-1.663" stroke="#FABE68" stroke-width="2.146"/><path d="M154.08 36.614c0-.972.072-1.93.215-2.875.3-1.974-.487-2.983-2.361-3.026" stroke="#CD8658" stroke-width="2.146"/><path d="M165.657 13.322v1.073m-.311 5.053a47.45 47.45 0 0 0-9.238.193c-.079.007-.715.04-1.91.096-2.153.1-3.247 1.36-3.283 3.777a479.247 479.247 0 0 0-.053 7.2" stroke="#E1A449" stroke-width="2.146"/><path d="M150.861 30.713c-1.959.615-2.585 2.046-1.877 4.292" stroke="#CD8658" stroke-width="2.146"/><path d="M148.984 35.005c-1.059.28-1.767.937-2.125 1.974a22.695 22.695 0 0 1-3.304 6.245c-1.123 1.51-2.804 3.104-5.043 4.785a84.73 84.73 0 0 1-22.789 12.21" stroke="#FABE68" stroke-width="2.146"/><path d="m25.33 179.313-3.756 2.768" stroke="#7B3065" stroke-width="2.146"/><path d="M72.495 208.861a76.324 76.324 0 0 0-16.587-4.334" stroke="#ADAFC9" stroke-width="2.146"/><path d="M57.828 195.718c-.865.952-1.119 2.035-.761 3.251a.755.755 0 0 1-.002.406c-.037.148-.11.299-.213.442-.143.2-.204.443-.182.729" stroke="#7B3065" stroke-width="2.146"/><path d="m68.515 203.99-11.76-3.176" stroke="#C87592" stroke-width="2.146"/><path d="m47.013 182.039-1.03.042" stroke="#4E7184" stroke-width="2.146"/><path d="m29.353 197.102-9.967-12.649" stroke="#ADAFC9" stroke-width="2.146"/><path d="M31.724 190.89a68.958 68.958 0 0 1-10.107-8.315" stroke="#C87592" stroke-width="2.146"/><path d="m165.614 21.143-11.47-.021c-1.516 0-2.267.804-2.253 2.414l.043 7.177" stroke="#E1A449" stroke-width="2.146"/><path d="M151.934 30.713h-1.072" stroke="#AF5B73" stroke-width="2.146"/><path d="m71.959 209.934-.773.118c-.429.072-.776.075-1.04.011l-15-3.616m-26.823-8.851-10.236-12.114m52.531 26.33a69.276 69.276 0 0 0-13.637-3.67.722.722 0 0 0-.398.064 1.616 1.616 0 0 0-.439.29c-.308.279-.73.222-1.266-.171m-27.938-9.882a269.513 269.513 0 0 0-7.04-8.562c-.936-1.087-1.72-1.72-2.349-1.899" stroke="#B3D8F8" stroke-width="2.146"/><path d="M69.899 213.153c-.73.257-1.467.34-2.21.247-.995-.122-1.706-.176-2.136-.161-3.283.15-6.03-.884-8.24-3.101-.808-.815-1.634-1.255-2.478-1.32m-37.284-20.836c.179 3.198 1.363 5.873 3.551 8.026.272.272.812.912 1.62 1.92a5.378 5.378 0 0 0 2.071 1.588" stroke="#616A9C" stroke-width="2.146"/><path d="M9.772 194.066a8.618 8.618 0 0 0 4.56 1.867c1.66.171 3.18.704 4.56 1.598.15.093.297.165.44.215 1.008.315 1.109.107.3-.622-1.48-1.338-3.068-1.985-4.763-1.942-1.674.043-3.105-.508-4.292-1.653" stroke="#AD92A4" stroke-width="2.146"/><path d="M10.577 193.529c-.587-.086-.855.093-.805.537" stroke="#CBBEC9" stroke-width="2.146"/><path d="M125.648 197.639c-1.317 6.409 1.008 8.63 6.974 6.663 1.759-.58 2.564-.222 2.414 1.072a8.138 8.138 0 0 0 .032 2.168c.079.5.15 1.209.214 2.124.108 1.559.93 2.217 2.468 1.974 1.359-.214 2.253-.322 2.682-.322a32.484 32.484 0 0 0 13.605-2.725" stroke="#CD8658" stroke-width="2.146"/><path d="M154.037 208.593c.079.551-.1.998-.536 1.341" stroke="#9B3C82" stroke-width="2.146"/><path d="M153.501 209.935a76.682 76.682 0 0 1-17.392 2.188" stroke="#CD8658" stroke-width="2.146"/><path d="M136.109 212.123c.436 4.228 2.289 6.742 5.558 7.543 2.768.679 5.332.075 7.692-1.813 2.339-1.867 3.72-4.507 4.142-7.918m.579-12.296a24.406 24.406 0 0 1-.043 10.954" stroke="#CD8658" stroke-width="2.146"/><path d="M161.022 18.407c.872.165 1.598.168 2.178.01 1.252-.335 1.362-.715.332-1.137a2.296 2.296 0 0 0-.826-.139c-7.446-.079-15.21-.1-23.293-.064a1.073 1.073 0 0 1-1.083-.998c-.201-2.99-.408-3.54-.623-1.652-.286 2.474.705 3.655 2.972 3.54.98-.05 1.509-.075 1.588-.075 5.551.1 11.098.183 16.641.247.501.007 1.205.096 2.114.268Z" stroke="#FEDA57" stroke-width="2.146"/><path d="M83.214 16.84c1.273.13 2.163-.15 2.671-.836a.408.408 0 0 0 .05-.386.384.384 0 0 0-.297-.237c-.794-.128-1.648.215-2.564 1.03-.279.243-.232.387.14.43Z" stroke="#845E5D" stroke-opacity=".988" stroke-width="2.146"/><path d="M71.809 19.437c-1.581-1.974-2.776-3.1-3.584-3.38-1.08-.371-1.087-.325-.021.14 1.53.672 2.575 1.799 3.133 3.38.2.565.371.715.515.45a.55.55 0 0 0 .066-.303.533.533 0 0 0-.11-.287Z" stroke="#DB9383" stroke-width="2.146"/><path d="M79.951 23.878c.288-.039.564-.14.813-.3.25-.16.466-.373.639-.628.172-.256.297-.549.367-.861.07-.313.083-.64.04-.963a2.64 2.64 0 0 0-.877-1.65c-.473-.405-1.065-.588-1.646-.51a2.005 2.005 0 0 0-.813.3c-.249.16-.466.373-.638.629a2.518 2.518 0 0 0-.367.86c-.07.314-.084.64-.04.963a2.64 2.64 0 0 0 .876 1.65c.473.405 1.066.589 1.646.51Z" stroke="#F09E9A" stroke-width="2.146"/><path d="M84.469 21.604c-.436-1.015-.772-1.198-1.008-.547a1.13 1.13 0 0 0-.051.499c.02.17.078.337.169.488.586 1.002 1.452 1.38 2.596 1.137.4-.078.411-.207.032-.386l-1.03-.483a1.412 1.412 0 0 1-.708-.708Z" stroke="#C5959B" stroke-width="2.146"/><path d="M110.262 65.702a1.062 1.062 0 0 0 .118 1.309c.107.107.222-.032.343-.419a7.23 7.23 0 0 1 1.599-2.8c.279-.3.46-.616.515-.901.222-1.152-.637-.215-2.575 2.81Z" stroke="#DB9383" stroke-width="2.146"/><path d="M8.7 202.96c-2.354-.257-3.824-1.523-4.41-3.798-.13-.5-.304-.586-.526-.257a.545.545 0 0 0-.09.288.703.703 0 0 0 .069.323 7.816 7.816 0 0 0 3.53 3.798c.278.151.529.194.75.129a1.31 1.31 0 0 0 .676-.483Zm49.204 13.519a21.29 21.29 0 0 1-3.777 2.758c-.487.278-.197.382.869.311a2.202 2.202 0 0 0 1.395-.655c2.06-2.153 4.045-3.262 5.954-3.326.287-.007.455-.107.505-.3a.289.289 0 0 0-.004-.164.37.37 0 0 0-.095-.15.516.516 0 0 0-.167-.106.6.6 0 0 0-.206-.042c-1.71-.05-3.201.508-4.474 1.674Z" stroke="#AD92A4" stroke-width="2.146"/><path d="M59.245 225.191c-1.245-.858-2.518-1.098-3.82-.718-.83.243-1.423.747-1.781 1.512-.615 1.324.043 2.114 1.974 2.372 1.631.221 2.861.014 3.691-.623a1.572 1.572 0 0 0 .612-1.287 1.578 1.578 0 0 0-.676-1.256Z" stroke="#CBBEC9" stroke-width="2.146"/><path d="M57.045 225.159c-1.552-.179-2.428.268-2.629 1.341a.658.658 0 0 0 .073.452.76.76 0 0 0 .357.321c.93.4 1.913.547 2.95.439.352-.034.673-.195.901-.45 1.059-1.159.508-1.86-1.652-2.103Z" stroke="#CBBEC9" stroke-width="2.146"/><path d="M87.023 11.755c-1.188-.157-1.688.197-1.502 1.062a.795.795 0 0 1-.038.473.479.479 0 0 1-.284.278l-3.487 1.202a.697.697 0 0 1-.252.037.653.653 0 0 1-.242-.057.59.59 0 0 1-.195-.141.548.548 0 0 1-.116-.204c-.072-.222-.046-.454.075-.697.093-.186.275-.347.547-.483 1.36-.68 1.28-.987-.236-.923-.25.007-.479.082-.686.226-1.631 1.144-2.79 2.718-3.477 4.72-.772 2.254-1.76 2.35-2.96.29-1.038-1.774-2.744-2.925-5.119-3.455 1.316-.214 1.763-1.094 1.341-2.64-.164-.614-.36-1.862-.59-3.744-.178-1.48-.032-2.7.44-3.658 1.316-2.704 3.616-3.43 6.9-2.178.15.056.312.07.472.042a.952.952 0 0 0 .44-.203C81.457-1.031 84.04-.473 85.8 3.376a.693.693 0 0 0 .309.317.71.71 0 0 0 .442.069c2.675-.48 4.341.35 5 2.489.436 1.43.239 2.682-.59 3.755-.873 1.145-2.186 1.728-3.938 1.75Z" fill="#5B2448"/><path d="M165.657 13.322v1.073l-.311 5.053a47.456 47.456 0 0 0-9.238.193c-.079.007-.715.04-1.91.097-2.153.1-3.247 1.359-3.283 3.776a479.235 479.235 0 0 0-.054 7.2c-1.96.615-2.585 2.045-1.877 4.291-1.059.28-1.767.937-2.125 1.974a22.695 22.695 0 0 1-3.304 6.245c-1.123 1.51-2.804 3.104-5.043 4.785a84.733 84.733 0 0 1-22.789 12.21V13.118a.6.6 0 0 1 .601-.601h20.6a.758.758 0 0 0 .726-.55.735.735 0 0 0 .014-.32c-.343-1.938.44-2.85 2.35-2.735 1.166.071 1.781.107 1.845.107a427.774 427.774 0 0 1 22.671.258.66.66 0 0 1 .415.167c.114.102.187.24.208.39l.504 3.488Zm-4.635 5.085c.873.165 1.599.168 2.178.011 1.252-.336 1.363-.715.332-1.137a2.296 2.296 0 0 0-.826-.14c-7.446-.078-15.21-.1-23.293-.064a1.073 1.073 0 0 1-1.083-.998c-.201-2.99-.408-3.54-.623-1.652-.286 2.475.705 3.655 2.972 3.54.98-.05 1.51-.075 1.588-.075 5.551.1 11.098.183 16.641.247.501.007 1.205.097 2.114.268Z" fill="#fff"/><path d="M87.023 11.755c-.365 2.36.203 4.342 1.706 5.944a.647.647 0 0 1 .166.394.686.686 0 0 1-.113.422c-1.001 1.473-.822 2.91.537 4.313 2.69 2.782 2.37 5.067-.955 6.856-1.645.886-4.149.9-7.51.043l-3.799-2.35a.397.397 0 0 0-.343-.035.35.35 0 0 0-.14.098.335.335 0 0 0-.075.151c-.6 2.826.569 4.507 3.509 5.043l-.45 3.219c-.144.572-.516.944-1.117 1.116a49.033 49.033 0 0 1-15.332-.848c2.525-3.77 4.664-7.89 6.416-12.36a.48.48 0 0 0-.268-.633c-1.323-.53-2.35-1.363-3.08-2.5-.757-1.18-1.04-2.4-.847-3.659.28-1.745 1.52-2.707 3.723-2.886 2.375.53 4.08 1.681 5.118 3.455 1.202 2.06 2.189 1.964 2.961-.29.687-2.002 1.846-3.576 3.477-4.72.207-.144.436-.219.686-.226 1.517-.064 1.595.243.236.923-.272.136-.454.297-.547.483-.122.243-.147.475-.075.697a.548.548 0 0 0 .116.204c.054.059.12.107.195.14a.652.652 0 0 0 .242.058.697.697 0 0 0 .252-.037l3.487-1.202a.478.478 0 0 0 .284-.278.794.794 0 0 0 .037-.473c-.185-.865.315-1.22 1.503-1.062Zm-3.81 5.086c1.274.128 2.164-.15 2.672-.837a.407.407 0 0 0 .05-.386.384.384 0 0 0-.297-.236c-.793-.13-1.648.214-2.564 1.03-.279.243-.232.386.14.429ZM71.81 19.437c-1.581-1.974-2.776-3.1-3.584-3.38-1.08-.371-1.087-.325-.021.14 1.53.672 2.575 1.799 3.133 3.38.2.565.371.715.514.45a.534.534 0 0 0-.043-.59Zm8.142 4.441c.288-.039.564-.14.813-.3.25-.16.466-.373.639-.629a2.53 2.53 0 0 0 .367-.86c.07-.313.083-.64.04-.963a2.64 2.64 0 0 0-.877-1.65c-.473-.405-1.065-.589-1.646-.51a2 2 0 0 0-.813.3c-.249.16-.466.373-.638.629a2.517 2.517 0 0 0-.367.86c-.07.314-.083.64-.04.963.088.652.403 1.245.876 1.65.473.405 1.066.589 1.646.51Zm4.518-2.273c-.436-1.016-.772-1.199-1.008-.548a1.13 1.13 0 0 0-.051.499c.02.17.078.337.169.488.586 1.002 1.452 1.38 2.596 1.138.4-.079.411-.208.032-.387l-1.03-.482a1.412 1.412 0 0 1-.708-.708Z" fill="#F4ADA2"/><path d="M158.908 18.139c-5.543-.064-11.09-.147-16.641-.247-.079 0-.608.025-1.588.075-2.267.115-3.258-1.066-2.972-3.54.215-1.889.422-1.338.623 1.652a1.074 1.074 0 0 0 1.083.998c8.083-.036 15.847-.015 23.293.064.308 0 .583.047.826.14 1.03.422.92.8-.332 1.137-.58.157-1.306.154-2.178-.01-.909-.173-1.613-.262-2.114-.27Z" fill="#21A0AA"/><path d="m165.657 13.322 3.712 1.03c-.472.157-.611.411-.418.762.179.314.279.525.3.633.68 3.097-.532 4.896-3.637 5.396l-11.469-.021c-1.517 0-2.268.805-2.253 2.414l.042 7.178h-1.072c0-2.403.017-4.803.053-7.2.036-2.417 1.13-3.676 3.283-3.776 1.195-.057 1.831-.09 1.91-.097a47.45 47.45 0 0 1 9.238-.193c.286.35.622.54 1.009.569.321.021.633-.118.933-.419 1.202-1.194 1.491-2.653.869-4.377a.985.985 0 0 0-.281-.421.78.78 0 0 0-.427-.19l-1.792-.215v-1.073Z" fill="#000"/><path d="M83.214 16.841c-.372-.043-.419-.186-.14-.43.916-.815 1.77-1.158 2.564-1.03a.376.376 0 0 1 .297.238.4.4 0 0 1-.05.385c-.508.687-1.398.966-2.671.837Z" fill="#100D17" fill-opacity=".973"/><path d="M71.809 19.437a.533.533 0 0 1 .109.287.55.55 0 0 1-.066.303c-.144.265-.315.115-.515-.45-.558-1.581-1.603-2.708-3.133-3.38-1.066-.465-1.059-.511.021-.14.808.28 2.003 1.406 3.584 3.38Z" fill="#C27964"/><path d="M77.429 21.718c.183 1.357 1.313 2.324 2.522 2.16 1.21-.163 2.042-1.395 1.859-2.752-.184-1.356-1.313-2.324-2.523-2.16-1.21.164-2.041 1.396-1.858 2.752Z" fill="#EC8E91"/><path d="m85.177 22.312 1.03.483c.38.18.369.308-.032.386-1.144.244-2.01-.135-2.596-1.137a1.238 1.238 0 0 1-.169-.488 1.13 1.13 0 0 1 .05-.499c.237-.65.573-.468 1.01.547.138.312.39.564.707.708Z" fill="#967D93"/><path d="m165.614 21.143.043 1.566a1.71 1.71 0 0 0 0 .805v67.594c-.379.623-.393 1.248-.043 1.878.794 1.43.079 2.146-2.146 2.146h-19.441a.915.915 0 0 0-.63.248.828.828 0 0 0-.261.6l-.01 6.126c-.079.565.01 1.101.268 1.609l-.043 7.822-.343 7.66a.603.603 0 0 1-.159.388.488.488 0 0 1-.356.159l-25.965.065a.806.806 0 0 1-.577-.245.848.848 0 0 1-.238-.592l-.258-30.857c10.064-3.398 18.984-9.306 26.759-17.725 5.758-6.237 10.507-12.296 14.248-18.175 1.345-2.117 2.024-4.052 2.039-5.805.021-2.188-.533-4.273-1.663-6.255-.05-.086-.315-.712-.794-1.877-.337-.844-.991-1.399-1.964-1.663 0-.973.072-1.932.215-2.876.3-1.974-.487-2.983-2.361-3.025l-.043-7.178c-.014-1.61.737-2.414 2.254-2.414l11.469.021Z" fill="#fff"/><path d="m80.853 29.726-.847 2.908c-2.94-.536-4.11-2.217-3.509-5.043a.335.335 0 0 1 .075-.15.349.349 0 0 1 .14-.099.397.397 0 0 1 .343.034l3.799 2.35Z" fill="#5B2448"/><path d="M150.862 30.713h1.073c1.874.043 2.66 1.052 2.36 3.026a19.176 19.176 0 0 0-.215 2.875c-.293 1.467-.94 2.354-1.942 2.661-1.866.565-2.828-.218-2.886-2.35-.028-.994-.118-1.634-.268-1.92-.708-2.246-.082-3.677 1.878-4.292Z" fill="#000"/><path d="M148.984 35.005c.15.286.24.927.268 1.92.057 2.132 1.019 2.916 2.886 2.35 1.002-.307 1.649-1.194 1.942-2.66.973.264 1.628.819 1.964 1.663.479 1.166.744 1.792.794 1.877 1.13 1.982 1.684 4.067 1.663 6.255-.015 1.753-.694 3.688-2.039 5.805-3.741 5.88-8.49 11.938-14.248 18.175-7.775 8.42-16.695 14.327-26.759 17.725-5.293.794-10.375.093-15.246-2.103a38.56 38.56 0 0 1-12.425-11.534l-1.34-2.146c6.308-6.48 13.833-10.936 22.574-13.368a4.239 4.239 0 0 1 1.566-.58 49.42 49.42 0 0 1 1.631 1.846c.551.665 1.069 1.033 1.556 1.105.794.121 1.445-.25 1.952-1.116a84.715 84.715 0 0 0 22.789-12.21c2.239-1.68 3.92-3.276 5.043-4.785a22.725 22.725 0 0 0 3.305-6.244c.357-1.038 1.065-1.696 2.124-1.975Zm-38.722 30.697a1.044 1.044 0 0 0-.169.672c.021.238.123.462.287.637.108.107.222-.033.344-.419a7.224 7.224 0 0 1 1.598-2.8c.279-.3.46-.616.515-.901.222-1.152-.636-.215-2.575 2.81Z" fill="#F4ADA2"/><path d="M110.584 58.384a4.24 4.24 0 0 0-1.566.58 8.486 8.486 0 0 0-3.745 0 67.957 67.957 0 0 0-18.583 7.134c-1.452.816-2.414 1.567-2.886 2.253a16.81 16.81 0 0 0-5.858 4.517 50.708 50.708 0 0 1-3.573-14.484c-1.13-7.69.225-14.828 4.066-21.416.601-.171.973-.543 1.116-1.115 5.63-.98 10.643.518 15.042 4.495 6.266 5.658 11.595 11.67 15.987 18.036Z" fill="#F16D22"/><path d="M63.107 36.121a49.033 49.033 0 0 0 15.332.848c-3.84 6.587-5.196 13.726-4.066 21.415-.243.394-.333.84-.268 1.341-1.037-5.772-.651-11.755 1.159-17.95a.903.903 0 0 0-.176-.846.924.924 0 0 0-.811-.323c-3.491.408-6.756.293-9.796-.343-.308-.065-.615-.222-.923-.472-1.474-1.18-2.75-.773-3.83 1.223-4.685 8.69-8.083 16.987-10.193 24.891-.157.573-.447 1.03-.87 1.374l-.536-.086A171.49 171.49 0 0 1 60.404 38.33c.164-.307.543-.493 1.137-.558.751-.3 1.273-.85 1.566-1.652Z" fill="#F9645B"/><path d="M61.54 37.773c-.593.065-.972.25-1.136.558a171.489 171.489 0 0 0-12.275 28.862l-8.808-5.322c-2.325-1.395-4.857-1.931-7.597-1.61 6.28-8.89 13.916-15.932 22.907-21.125 1.974-1.137 4.278-1.592 6.91-1.363Z" fill="#F16D22"/><path d="M74.105 59.726c.436 3.64 1.344 8.11 2.725 13.411.172.672.426 1.12.762 1.341.965 1.002 2.41 1.449 4.334 1.341 2.547-.143 4.5-.59 5.858-1.34a38.56 38.56 0 0 0 12.425 11.533l3.916 19.731c.058.3-.001.612-.165.875a1.296 1.296 0 0 1-.725.552l-6.556 1.953-1.341-.086-5.998-11.93c-.543-1.088-.772-1.024-.686.192l.204 2.929.139 7.843c.004.247-.04.492-.129.72-.088.227-.22.432-.385.602-.166.17-.362.3-.577.383a1.517 1.517 0 0 1-.669.098c-13.096-1.066-25.954-.959-38.571.322-2.46.15-4.592 1.03-6.395 2.639l2.06-19.044 3.755-23.873c.487-.808.68-1.688.58-2.64.422-.342.712-.8.869-1.372 2.11-7.904 5.508-16.202 10.193-24.892 1.08-1.996 2.356-2.404 3.83-1.223.308.25.615.407.923.472 3.04.636 6.305.75 9.796.343a.933.933 0 0 1 .81.323.91.91 0 0 1 .177.847c-1.81 6.194-2.196 12.177-1.16 17.95Z" fill="#F16D22"/><path d="M74.373 58.384a50.711 50.711 0 0 0 3.573 14.485l-.354 1.61c-.337-.223-.59-.67-.762-1.342-1.38-5.3-2.289-9.77-2.725-13.412-.065-.5.025-.947.268-1.34Z" fill="#EC8E91"/><path d="M109.018 58.964c-8.741 2.432-16.266 6.888-22.575 13.368l-2.639-3.98c.472-.687 1.434-1.438 2.886-2.254a67.96 67.96 0 0 1 18.583-7.134 8.486 8.486 0 0 1 3.745 0Z" fill="#9B3C59"/><path d="M31.724 60.262c2.74-.322 5.272.215 7.597 1.61a9.923 9.923 0 0 0-2.457 3.98l-1.835 2.993c-2.232-1.61-3.655-3.33-4.27-5.16-.344-1.038-.022-2.178.965-3.423Z" fill="#5B2448"/><path d="m39.32 61.871 8.81 5.322.536.086c.1.95-.093 1.83-.58 2.639a43.125 43.125 0 0 0-11.222-4.066 9.924 9.924 0 0 1 2.457-3.98Z" fill="#9B3C59"/><path d="M110.262 65.701c1.938-3.025 2.797-3.962 2.575-2.81-.055.285-.236.601-.515.9a7.23 7.23 0 0 0-1.599 2.8c-.121.387-.236.527-.343.42a1.062 1.062 0 0 1-.118-1.31Z" fill="#C27964"/><path d="M36.864 65.852a43.12 43.12 0 0 1 11.222 4.066L44.331 93.79a37.212 37.212 0 0 1-8.476-8.733c-1.788-2.575-2.7-5.175-2.736-7.8-.036-2.876.6-5.68 1.91-8.412l1.835-2.993Z" fill="#F4ADA2"/><path d="m83.804 68.352 2.64 3.98 1.34 2.146c-1.359.751-3.311 1.198-5.858 1.341-1.924.107-3.369-.34-4.334-1.341l.354-1.61a16.809 16.809 0 0 1 5.858-4.516Zm11.534 40.685-1.084.461a.628.628 0 0 1-.447.013.932.932 0 0 1-.422-.292 21.335 21.335 0 0 1-4.528-8.991l-.204-2.93c-.085-1.215.144-1.28.687-.192l5.998 11.931Z" fill="#5B2448"/><path d="M88.858 100.228a21.334 21.334 0 0 0 4.527 8.991.931.931 0 0 0 .422.292c.157.05.314.046.447-.013l1.084-.461 1.341.086c-.129 5.414-.25 10.832-.365 16.254-.15 7.046-.411 12.45-.783 16.212-1.438 14.656-4.653 28.654-9.646 41.994-2.79 7.453-6.687 14.896-11.694 22.328l-5.676-1.921c-.143-.422-.5-.765-1.073-1.03-3.526-1.638-6.73-4.052-9.613-7.242-3.047-5.279-5.007-8.519-5.88-9.721-1.116-1.552-2.76-2.872-4.935-3.959-.215-.551-.165-1.055.15-1.513a37015 37015 0 0 0 19.13-27.885.468.468 0 0 0 .097-.225.517.517 0 0 0-.043-.268.142.142 0 0 0-.078-.068.203.203 0 0 0-.118-.004.35.35 0 0 0-.128.059.445.445 0 0 0-.106.109l-3.261 4.517c-1.087 1.509-1.506 1.345-1.255-.493.75-5.58.98-11.062.686-16.448-.264-5.036-.486-9.088-.665-12.156a80.43 80.43 0 0 0-1.63-12.114c-.072-.329-.173-.397-.301-.204a.553.553 0 0 0-.075.365c.221 1.932.661 7.589 1.32 16.974.593 8.404.629 15.718.107 21.941-.222 2.632-.823 4.896-1.803 6.792-.937 1.802-2.181 3.826-3.734 6.072-4.957 7.146-8.218 11.724-9.785 13.734a1.18 1.18 0 0 0-.225.439c-.033.141-.018.259.043.333.121.129.336.158.644.086-1.553.544-2.497 1.581-2.833 3.112-.057.257-.025.833.097 1.727a3.472 3.472 0 0 1-.215 1.781l-8.004 4.871-3.305-2.682c.287-.515.226-.948-.182-1.298a12.324 12.324 0 0 1-.676-.601 33.356 33.356 0 0 1-5.536-9.678 40.636 40.636 0 0 0-2.983-9.485c-.894-1.952-2.257-3.476-4.088-4.57-1.352-.809-2.75-.862-4.195-.161 1.095-1.438 2.861-2.965 5.3-4.582a111.344 111.344 0 0 1 15.15-8.454c4.535-2.089 8.29-4.056 11.266-5.901 1.817-1.123 2.936-2.847 3.358-5.172.5-2.746.68-5.515.537-8.304a532.726 532.726 0 0 0-1.052-15.826l.043-6.663c12.617-1.28 25.475-1.387 38.571-.321.227.018.455-.015.67-.098.214-.083.41-.213.576-.383.165-.17.297-.375.385-.603.089-.227.133-.472.129-.719l-.14-7.843Z" fill="#F7CF3D"/><path d="m48.666 110.196-.043 6.663a37 37 0 0 0-3.98-1.342c-1.138-.314-1.928-1.208-2.372-2.682 1.803-1.609 3.934-2.489 6.395-2.639Z" fill="#5B2448"/><path d="m47.013 182.038-1.03.043c-.307.072-.522.043-.643-.086-.061-.074-.077-.192-.043-.333a1.18 1.18 0 0 1 .225-.439c1.566-2.01 4.828-6.588 9.785-13.734 1.552-2.246 2.797-4.27 3.734-6.072.98-1.896 1.58-4.16 1.802-6.792.522-6.223.487-13.537-.107-21.941-.658-9.385-1.098-15.043-1.32-16.974a.553.553 0 0 1 .075-.365c.13-.193.23-.125.3.204a80.425 80.425 0 0 1 1.632 12.114c.178 3.068.4 7.12.665 12.156.293 5.386.064 10.868-.687 16.448-.25 1.838.168 2.002 1.255.493l3.262-4.517a.445.445 0 0 1 .106-.109.35.35 0 0 1 .128-.059.203.203 0 0 1 .118.004.142.142 0 0 1 .077.068c.036.071.05.161.043.268a.472.472 0 0 1-.096.225 37015 37015 0 0 1-19.13 27.885c-.315.458-.365.962-.15 1.513Z" fill="#41BEC0"/><path d="m25.33 179.313-3.756 2.768a33.766 33.766 0 0 1-8.154-10.15c-1.287-2.439-1.073-4.717.644-6.834 1.445-.701 2.843-.648 4.195.161 1.831 1.094 3.194 2.618 4.088 4.57a40.636 40.636 0 0 1 2.983 9.485Z" fill="#5B2448"/><path d="M25.33 179.313a33.354 33.354 0 0 0 5.536 9.678c.057.064.282.264.676.601.408.35.468.783.182 1.298a68.952 68.952 0 0 1-10.107-8.315l-.043-.494 3.756-2.768Z" fill="#9B3C59"/><path d="m45.983 182.081 1.03-.042c2.175 1.087 3.82 2.406 4.936 3.959.873 1.201 2.832 4.442 5.88 9.72-.866.952-1.12 2.035-.762 3.251a.757.757 0 0 1-.001.406c-.038.148-.111.3-.214.442-.143.2-.204.443-.182.729-5.05-2.224-9.12-5.589-12.21-10.096a30.752 30.752 0 0 1-.43-.922c-.185-.408-.518-.684-.997-.827.229-.586.3-1.18.215-1.781-.122-.894-.154-1.47-.097-1.727.336-1.531 1.28-2.568 2.832-3.112Z" fill="#5B2448"/><path d="M21.617 182.575a68.958 68.958 0 0 0 10.107 8.315l3.305 2.682-5.676 3.53-9.967-12.65 2.231-1.877Z" fill="#F4ADA2"/><path d="m19.386 184.453 9.967 12.649a1.502 1.502 0 0 1-1.03.494l-10.236-12.113 1.299-1.03Z" fill="#66B0F0"/><path d="m18.087 185.482 10.236 12.114c-.279.572-.74.854-1.384.847a269.647 269.647 0 0 0-7.038-8.562c-.937-1.087-1.72-1.72-2.35-1.899-.48-.236-.762-.608-.848-1.116l1.384-1.384Z" fill="#fff"/><path d="M16.703 186.867c.086.508.369.879.848 1.116.179 3.197 1.363 5.872 3.551 8.025.272.272.812.912 1.62 1.921a5.385 5.385 0 0 0 2.071 1.587l1.878 3.938a28.172 28.172 0 0 0-5.526-.44 2.78 2.78 0 0 0-1.094.236c-2.218.987-1.956 1.47.783 1.449a19.919 19.919 0 0 1 7.671 1.48v1.073c-2.353-.794-4.731-.983-7.134-.568a1.23 1.23 0 0 0-.487.192 1.077 1.077 0 0 0-.34.365c-.522.93-.193 1.256.987.977.451-.107.845-.147 1.18-.118 2.433.214 4.81.737 7.136 1.566v1.341l-6.138-.815a.912.912 0 0 0-.47.071 1.407 1.407 0 0 0-.452.315c-1.102 1.13-.612 1.542 1.47 1.234 1.208-.179 3.43.358 6.662 1.609.53 3.884.097 7.625-1.298 11.223l-.01-1.234a.691.691 0 0 0-.162-.423.873.873 0 0 0-.407-.274c-3.798-1.223-6.892-3.448-9.28-6.674-.83-1.123-2.268-3.733-4.314-7.832a2.172 2.172 0 0 0-.687-.783 9.657 9.657 0 0 1-2.79-3.069c-.17-.293-.532-1.641-1.083-4.045-.636-2.789-2.618-4.245-5.944-4.366l3.176-2.64 1.652.762a8.618 8.618 0 0 0 4.56 1.867c1.66.172 3.18.704 4.56 1.599.15.093.297.164.44.214 1.008.315 1.109.107.3-.622-1.48-1.338-3.068-1.985-4.763-1.942-1.674.043-3.105-.508-4.292-1.652a2.117 2.117 0 0 0-1.341-1.073l7.467-5.59Z" fill="#5B2448"/><path d="M17.551 187.982c.63.179 1.413.812 2.35 1.899a269.513 269.513 0 0 1 7.038 8.562l-2.146 1.073a5.378 5.378 0 0 1-2.07-1.588c-.809-1.008-1.349-1.648-1.62-1.92-2.19-2.153-3.373-4.828-3.552-8.026Z" fill="#66B0F0"/><path d="M9.236 192.457c.594.164 1.04.522 1.341 1.072-.586-.085-.855.093-.805.537l-1.652-.762c.28-.379.651-.661 1.116-.847Z" fill="#967D93"/><path d="M10.577 193.529c1.187 1.145 2.618 1.695 4.292 1.652 1.695-.042 3.283.605 4.763 1.942.809.73.708.937-.3.623a2.253 2.253 0 0 1-.44-.215 10.192 10.192 0 0 0-4.56-1.598 8.626 8.626 0 0 1-4.56-1.867c-.05-.444.218-.623.805-.537Z" fill="#fff"/><path d="M57.828 195.718c2.883 3.19 6.087 5.604 9.614 7.242.572.265.93.608 1.073 1.03l-11.76-3.175-.085-.269c-.022-.286.04-.529.182-.729.103-.143.176-.294.214-.442a.755.755 0 0 0 0-.406c-.357-1.216-.103-2.299.762-3.251Z" fill="#9B3C59"/><path d="M4.944 195.943c3.326.122 5.308 1.578 5.944 4.367.55 2.403.912 3.752 1.084 4.045a9.655 9.655 0 0 0 2.79 3.069c.3.214.529.475.686.783 2.046 4.098 3.483 6.709 4.313 7.832 2.39 3.226 5.483 5.451 9.28 6.674a.874.874 0 0 1 .409.274.692.692 0 0 1 .16.423l.011 1.234c-3.133-.415-5.83-1.727-8.09-3.938a2617.02 2617.02 0 0 1-12.724-12.553c-.708-.701-1.924-2.113-3.648-4.238a29.183 29.183 0 0 0-3.96-4.023c-.958-.801-.83-1.341.387-1.62 1.094-.251 2.214-1.027 3.358-2.329ZM8.7 202.96c-2.353-.257-3.823-1.523-4.41-3.798-.128-.501-.303-.586-.525-.257a.545.545 0 0 0-.09.288.703.703 0 0 0 .068.323 7.816 7.816 0 0 0 3.53 3.798c.28.151.53.193.751.129.265-.079.49-.24.676-.483.687-.272.955-.719.805-1.341-.493-2.017-1.788-3.44-3.884-4.27-1.209-.479-1.448-.326-.719.461.175.196.433.346.74.429 2.375.644 3.395 2.218 3.058 4.721Z" fill="#fff"/><path d="M8.7 202.96c.335-2.503-.684-4.077-3.059-4.721a1.512 1.512 0 0 1-.74-.429c-.73-.787-.49-.94.719-.461 2.096.829 3.39 2.253 3.884 4.27.15.622-.118 1.069-.805 1.341Z" fill="#5B2448"/><path d="M125.648 197.638c-1.316 6.409 1.008 8.63 6.974 6.663 1.759-.579 2.564-.221 2.414 1.073a8.139 8.139 0 0 0 .032 2.168c.079.5.15 1.208.215 2.124.107 1.559.93 2.217 2.467 1.974 1.359-.214 2.254-.322 2.683-.322a32.492 32.492 0 0 0 13.604-2.725c.079.551-.1.998-.536 1.341a76.627 76.627 0 0 1-17.392 2.189c-6.473-.064-12.653-1.377-18.54-3.938-.136-.064-.397-.243-.783-.536-.458-.358-.827-.222-1.106.408l-.536-1.61.268-1.073c-.179-1.981-.969-3.694-2.371-5.139v-.451c.758-1.638 2.031-2.399 3.82-2.285a54.43 54.43 0 0 0 1.491.097c2.432-.015 4.864 0 7.296.042Z" fill="#9B3C82"/><path d="M125.648 197.639h28.432a24.406 24.406 0 0 1-.043 10.954 32.476 32.476 0 0 1-13.604 2.725c-.429 0-1.324.108-2.683.322-1.537.243-2.36-.415-2.467-1.974-.065-.915-.136-1.624-.215-2.124a8.138 8.138 0 0 1-.032-2.168c.15-1.294-.655-1.652-2.414-1.072-5.966 1.967-8.29-.254-6.974-6.663Z" fill="#fff"/><path d="M154.08 197.639a14.948 14.948 0 0 1 6.17.493c1.03.308 1.813 1.044 2.349 2.21.186.415.161.612-.075.59-.1-.014-.211-.078-.332-.193-.63-.636-1.063-.518-1.299.354a2.093 2.093 0 0 1-.504.891c-.629.665-.944 1.448-.944 2.35a39.46 39.46 0 0 1 0 1.427c-.58 6.194-1.148 12.388-1.706 18.583-.157 1.759-.569 2.954-1.234 3.583-.923.88-2.267 1.32-4.034 1.32h-30.042c-1.924 0-3.351-.497-4.281-1.492-.629-.665-1.033-1.949-1.212-3.851a618.818 618.818 0 0 1-1.256-15.847c.279-.63.648-.766 1.106-.408.386.293.647.472.783.536 5.887 2.561 12.067 3.874 18.54 3.938.436 4.227 2.289 6.741 5.558 7.543 2.768.679 5.332.075 7.692-1.814 2.339-1.867 3.72-4.506 4.142-7.918.436-.343.615-.79.536-1.341.844-3.648.859-7.299.043-10.954Z" fill="#9B3C82"/><path d="M8.7 202.96a1.31 1.31 0 0 1-.677.483c-.221.065-.472.022-.75-.129a7.816 7.816 0 0 1-3.53-3.798.703.703 0 0 1-.07-.323.545.545 0 0 1 .091-.288c.222-.329.397-.243.526.257.586 2.275 2.056 3.541 4.41 3.798Z" fill="#5B2448"/><path d="m56.756 200.814 11.759 3.176 5.675 1.921-1.695 2.95a76.324 76.324 0 0 0-16.587-4.334l.848-3.713Z" fill="#F4ADA2"/><path d="M26.67 203.454c1.188.522 1.8 1.431 1.835 2.725a19.919 19.919 0 0 0-7.67-1.48c-2.74.021-3.002-.462-.784-1.449a2.78 2.78 0 0 1 1.094-.236 28.174 28.174 0 0 1 5.526.44Z" fill="#FFCF2D"/><path d="M55.908 204.527a76.325 76.325 0 0 1 16.587 4.334l-.536 1.073-.773.118c-.429.072-.776.075-1.04.011l-15-3.616a4.817 4.817 0 0 1 .762-1.92Z" fill="#66B0F0"/><path d="M28.506 207.252c1.051.479 1.498 1.284 1.34 2.414a28.59 28.59 0 0 0-7.134-1.566c-.336-.029-.73.01-1.18.118-1.18.279-1.51-.047-.988-.977.08-.144.197-.269.34-.365.143-.097.31-.163.487-.193 2.403-.415 4.781-.225 7.135.569Z" fill="#FFCF2D"/><path d="m55.146 206.447 15 3.616c.264.064.611.061 1.04-.011l.773-.118a5.424 5.424 0 0 1-1.341 1.878 69.276 69.276 0 0 0-13.637-3.67.74.74 0 0 0-.398.064 1.598 1.598 0 0 0-.439.291c-.308.279-.73.221-1.266-.172l.268-1.878Z" fill="#fff"/><path d="m70.618 211.812-.72 1.341a4.782 4.782 0 0 1-2.21.247c-.994-.122-1.705-.176-2.135-.161-3.283.15-6.03-.884-8.24-3.101-.808-.815-1.634-1.255-2.478-1.32l.043-.493c.536.393.958.45 1.266.171.142-.128.293-.228.439-.29a.722.722 0 0 1 .398-.064 69.272 69.272 0 0 1 13.637 3.67Z" fill="#66B0F0"/><path d="M54.835 208.818c.844.065 1.67.505 2.478 1.32 2.21 2.217 4.957 3.251 8.24 3.101.43-.015 1.141.039 2.136.161.744.093 1.48.01 2.21-.247l2.95 1.073a23.912 23.912 0 0 0-5.246 4.474 2.17 2.17 0 0 0-.504.966c-.294 1.301.053 1.595 1.04.879.236-.171.494-.443.773-.815 1.473-1.981 3.426-3.319 5.858-4.013.48-.136.733-.454.762-.955.3.48.733.762 1.298.848-2.61 1.094-4.642 2.825-6.094 5.193-.097.157-.16.327-.184.496a.992.992 0 0 0 .044.48c.243.687.644.694 1.202.022 1.831-2.189 3.748-3.688 5.75-4.496.058-.021.298-.068.72-.139.379-.058.615-.308.708-.751l1.61.987c-2.254.736-4.06 2.07-5.42 4.002-.815 1.158-.768 1.684.14 1.577.297-.034.615-.214.89-.504a15.484 15.484 0 0 1 6.31-3.959 17.815 17.815 0 0 1 5.815 6.705c-3.37 2.017-6.928 2.858-10.676 2.522-1.137-.1-2.718-.483-4.742-1.148a177.134 177.134 0 0 0-4.678-1.481 1.996 1.996 0 0 0-1.04-.021c-2.447.6-4.707.128-6.782-1.417-2.36-1.745-4.602-1.952-6.727-.622-1.101.687-1.806 1.656-2.113 2.908-.308 1.244-.276 2.517.096 3.819v.268a49.891 49.891 0 0 1-17.156-.16c-.472-.086-.819-.244-1.04-.473-.53-.557-.09-.947 1.32-1.169a53.373 53.373 0 0 1 15.17-.215.597.597 0 0 0 .655-.45c1.065-4.213 1.691-7.035 1.877-8.466a57.162 57.162 0 0 1 2.35-10.3Zm3.069 7.661a21.235 21.235 0 0 1-3.777 2.757c-.486.279-.197.383.869.312a2.202 2.202 0 0 0 1.395-.655c2.06-2.153 4.045-3.262 5.954-3.326.287-.007.455-.107.505-.3a.289.289 0 0 0-.004-.164.37.37 0 0 0-.095-.15.517.517 0 0 0-.167-.106.6.6 0 0 0-.206-.042c-1.71-.05-3.201.508-4.474 1.674Z" fill="#5B2448"/><path d="M153.501 209.934c-.422 3.412-1.803 6.051-4.142 7.918-2.36 1.889-4.924 2.493-7.692 1.813-3.269-.801-5.122-3.315-5.558-7.542a76.683 76.683 0 0 0 17.392-2.189Z" fill="#fff"/><path d="M29.847 211.007c.837.594 1.194 1.398 1.073 2.414-3.233-1.252-5.454-1.788-6.663-1.609-2.082.307-2.572-.104-1.47-1.234.136-.14.291-.248.452-.315a.902.902 0 0 1 .47-.071l6.138.815Zm43.003 3.219c1.03-.25 1.924-.071 2.682.537-.029.5-.283.819-.762.955-2.432.693-4.385 2.031-5.858 4.012-.28.372-.537.644-.773.816-.987.715-1.334.422-1.04-.88.078-.351.246-.672.504-.966a23.915 23.915 0 0 1 5.246-4.474Z" fill="#FFCF2D"/><path d="M57.904 216.479c1.273-1.166 2.764-1.724 4.474-1.674a.6.6 0 0 1 .206.042.517.517 0 0 1 .167.106.37.37 0 0 1 .095.15c.017.054.019.11.004.164-.05.193-.218.293-.504.3-1.91.064-3.895 1.173-5.955 3.326-.374.381-.87.613-1.395.655-1.066.071-1.355-.033-.869-.311a21.29 21.29 0 0 0 3.777-2.758Z" fill="#fff"/><path d="M76.83 215.61c.873-.186 1.588.082 2.146.805-.093.443-.33.693-.708.751-.422.071-.662.118-.72.139-2.002.808-3.919 2.307-5.75 4.496-.558.672-.959.665-1.202-.022a.992.992 0 0 1-.044-.48c.024-.169.087-.339.184-.496 1.452-2.368 3.483-4.099 6.094-5.193Zm3.755 1.792c.866-.036 1.506.336 1.92 1.116a15.483 15.483 0 0 0-6.308 3.959c-.276.29-.594.47-.89.504-.909.107-.956-.418-.14-1.577 1.359-1.932 3.165-3.265 5.418-4.002Z" fill="#FFCF2D"/><path d="M88.32 225.223c.773.895.609 1.61-.493 2.146-3.676 1.788-7.074 2.607-10.192 2.457l-25.976-.043c-.372-1.301-.404-2.575-.096-3.819.307-1.252 1.012-2.221 2.113-2.908 2.125-1.33 4.367-1.123 6.727.622 2.075 1.545 4.335 2.017 6.781 1.417a1.996 1.996 0 0 1 1.041.021c1.567.472 3.126.966 4.678 1.481 2.024.665 3.605 1.048 4.742 1.148 3.748.336 7.307-.505 10.676-2.522Zm-29.075-.032c-1.245-.858-2.518-1.098-3.82-.719-.83.244-1.423.748-1.78 1.513-.616 1.323.042 2.114 1.973 2.371 1.631.222 2.861.015 3.691-.622a1.572 1.572 0 0 0 .612-1.288 1.576 1.576 0 0 0-.676-1.255Z" fill="#fff"/><path d="M59.245 225.191a1.583 1.583 0 0 1 .676 1.256 1.573 1.573 0 0 1-.612 1.287c-.83.637-2.06.844-3.69.623-1.932-.258-2.59-1.048-1.975-2.372.358-.765.951-1.269 1.781-1.512 1.302-.38 2.575-.14 3.82.718Zm-2.2-.032c-1.552-.179-2.428.268-2.629 1.341a.658.658 0 0 0 .073.452c.078.14.204.254.357.321.93.4 1.913.547 2.95.44a1.39 1.39 0 0 0 .901-.451c1.06-1.159.508-1.86-1.652-2.103Z" fill="#967D93"/><path d="M57.045 225.159c2.16.243 2.711.944 1.653 2.103-.228.255-.55.416-.902.45a5.82 5.82 0 0 1-2.95-.439.762.762 0 0 1-.357-.321.658.658 0 0 1-.072-.452c.2-1.073 1.076-1.52 2.628-1.341Z" fill="#fff"/><path d="M162.109 200.272c-3.121 5.674-6.809 11.633-23.267 11.633-15.049 0-22.132 0-25.253-11.917" stroke="#000" stroke-width="1.135" stroke-linecap="round"/></svg>