<svg width="226" height="175" fill="none" xmlns="http://www.w3.org/2000/svg"><g clip-path="url(#a)"><path d="m114.75 24.256-8.5 2.75" stroke="#FABE68" stroke-width="2"/><path d="m106.25 27.006-4.5 1.5" stroke="#AD7A3B" stroke-width="2"/><path d="M101.75 28.506c-.447-.16-.793-.09-1.04.21" stroke="#FABE68" stroke-width="2"/><path d="M100.71 28.716 87 32.676" stroke="#AD7A3B" stroke-width="2"/><path d="M113 51.256a22.826 22.826 0 0 1-6.89-1c-1.147-.36-1.497.02-1.05 1.14 1.553 3.9 4.52 5.59 8.9 5.07" stroke="#A86975" stroke-width="2"/><path d="M116 61.926c2.813 4.827 4.08 10.007 3.8 15.54-.033.62-.163 1.09-.39 1.41-.373.527-.87.744-1.49.65-.513-.073-1.037-.416-1.57-1.03a28.75 28.75 0 0 1-4.13-6.09.75.75 0 0 0-.314-.324.524.524 0 0 0-.396-.046c-.467.147-.74.537-.82 1.17a33.291 33.291 0 0 1-1.84 7.57c-.547 1.454-1.167 2.424-1.86 2.91-1.153.814-2.497.654-4.03-.48-1.607-1.193-2.78-2.42-3.52-3.68-3.287-5.553-5.53-11.74-6.73-18.56" stroke="#F77E74" stroke-width="2"/><path d="M88 35.426c2.933.627 5.383 1.514 7.35 2.66 1.633.96 2.587.504 2.86-1.37.427-2.893 1.26-5.56 2.5-8m1.04-.21c-.453 1.234-.31 1.937.43 2.11.137.03.288.017.439-.039a1.16 1.16 0 0 0 .421-.28l3.21-3.29" stroke="#A86975" stroke-width="2"/><path d="M169.25 96.757c-.4-.12-.88-.03-1.44.27-9.56 5.16-16.9 9.306-22.02 12.44" stroke="#CA4664" stroke-width="2"/><path d="M145.79 109.466c-.28-.64-.69-1.993-1.23-4.06a118.443 118.443 0 0 0-14.76-34.02c-1.107-1.746-1.29-1.653-.55.28.26.687.717 1.51 1.37 2.47.733 1.08 1.24 1.867 1.52 2.36 5.94 10.413 10.123 21.09 12.55 32.03.16.74.36 1.22.6 1.44" stroke="#FC8D85" stroke-width="2"/><path d="m145.29 109.966 1 7.5" stroke="#CA4664" stroke-width="2"/><path d="m51.5 154.256 36.16 12.01a.855.855 0 0 0 .656-.048.876.876 0 0 0 .434-.502l9.5-27.71" stroke="#B0809B" stroke-width="2"/><path d="M98.25 138.006c1.2-.9 1.937-2.08 2.21-3.54" stroke="#F77E74" stroke-width="2"/><path d="m100.46 134.466.29-1.21" stroke="#D35368" stroke-width="2"/><path d="M100.75 133.256c1.747-1.06 2.567-2.573 2.46-4.54" stroke="#F77E74" stroke-width="2"/><path d="m103.21 128.716.29-1.21" stroke="#CA4664" stroke-width="2"/><path d="M103.5 127.506c1.373-1.333 1.957-2.943 1.75-4.83" stroke="#F77E74" stroke-width="2"/><path d="M105.25 122.676c-.16-.28-.173-.6-.04-.96" stroke="#CA4664" stroke-width="2"/><path d="M105.21 121.716c2.013-2.16 2.29-4.493.83-7" stroke="#F77E74" stroke-width="2"/><path d="m106.04 114.716 3.94-11.93a1.403 1.403 0 0 0-.049-1.017 1.206 1.206 0 0 0-.711-.653l-15.18-4.9" stroke="#B0809B" stroke-width="2"/><path d="m94.04 96.216 2.32-7.1a1.093 1.093 0 0 0-.049-.798.973.973 0 0 0-.571-.512l-15.53-5.18a.77.77 0 0 0-.603.061.91.91 0 0 0-.417.49l-2.48 6.79" stroke="#FC8F3A" stroke-width="2"/><path d="m76.71 89.966-15.15-4.9a1.105 1.105 0 0 0-.84.062c-.263.131-.464.36-.56.638l-6.91 19.74" stroke="#B0809B" stroke-width="2"/><path d="M53.25 105.506a205.14 205.14 0 0 0-29-12.25" stroke="#CA4664" stroke-width="2"/><path d="m24.25 93.256-9.46-4.04" stroke="#F77E74" stroke-width="2"/><path d="M24.25 93.256c8.573 4.314 16.877 9.437 24.91 15.37 1.227.907 1.09 1.227-.41.96-3.653-.66-7.22-.783-10.7-.37-.227.027-.223.054.01.08l13.65 1.42m53.5 11c-1.333 1.154-3.236 1.904-5.71 2.25-.846.12-1.006.33-.48.63.14.08.3.114.48.1 2.08-.206 3.997-.88 5.75-2.02m-1.75 4.83c-1.513 1.107-3.18 1.554-5 1.34-.336-.038-.632.001-.84.11-.507.287-.373.52.4.7 1.447.334 3.164.02 5.15-.94" stroke="#C87592" stroke-width="2"/><path d="m100.75 133.256-4.18.76a1.363 1.363 0 0 0-.486.183c-.13.084-.21.185-.234.287-.087.374.213.524.9.45 1.24-.14 2.477-.296 3.71-.47" stroke="#D18296" stroke-width="2"/><path d="M98.25 138.006c-2.66 1.48-5.077 2.467-7.25 2.96-16.387 3.714-33.553 5.727-51.5 6.04" stroke="#ADAFC9" stroke-width="2"/><path d="m149.79 137.966-3.5-20.5" stroke="#F77E74" stroke-width="2"/><path d="M146.29 117.466a182.386 182.386 0 0 1 22.96-20.71" stroke="#C87592" stroke-width="2"/><path d="M169.25 96.756c1.4-1.14 2.97-1.903 4.71-2.29" stroke="#F77E74" stroke-width="2"/><path d="M175 95.256c-1.687 4.167-2.287 8.49-1.8 12.97.047.42.217.697.51.83.051.023.106.03.161.021a.313.313 0 0 0 .154-.077.406.406 0 0 0 .105-.153.444.444 0 0 0 .03-.191c-.28-4.526.07-9.006 1.05-13.44" stroke="#D18296" stroke-width="2"/><path d="M145.79 109.466c-.1.234-.267.4-.5.5" stroke="#CD83A3" stroke-width="2"/><path d="m94.04 96.216-1.12 3.33a1.671 1.671 0 0 1-.295.535c-.13.157-.287.286-.462.381a1.448 1.448 0 0 1-.556.171 1.357 1.357 0 0 1-.567-.067l-14.78-5.01a1.138 1.138 0 0 1-.676-.672 1.661 1.661 0 0 1-.034-1.088l1.16-3.83" stroke="#B3C08F" stroke-width="2"/><path d="M106.04 114.716c-1.887 1.74-4.663 2.444-8.33 2.11a1.286 1.286 0 0 1-.574-.195 1.363 1.363 0 0 1-.432-.442c-.11-.18-.18-.385-.206-.6a1.553 1.553 0 0 1 .062-.643l2.28-7.37c.693-2.26-.02-2.786-2.14-1.58a54.675 54.675 0 0 0-4.65 2.96c-5.453 3.854-11.553 5.754-18.3 5.7a66.394 66.394 0 0 1-22.04-3.94" stroke="#ADAFC9" stroke-width="2"/><path d="m51.71 110.716 1.54-5.21" stroke="#8176B9" stroke-width="2"/><path d="M213.54 32.716a4.283 4.283 0 0 1-1.08 1.5" stroke="#8BA7A6" stroke-width="2"/><path d="M212.46 34.216h-1.42" stroke="#5E6E96" stroke-width="2"/><path d="m211.04 34.216-2.05-3.86a1.033 1.033 0 0 0-.641-.499 1.154 1.154 0 0 0-.839.1l-8.86 4.77a1.044 1.044 0 0 0-.503.642c-.077.276-.043.577.093.837l2.7 5.09c.152.284.396.504.68.612.284.109.586.097.84-.032l7.79-3.95" stroke="#90B86C" stroke-width="2"/><path d="M210.25 37.926c1.273.094 2.17.294 2.69.6.907.54.997 1.27.27 2.19" stroke="#5E6E96" stroke-width="2"/><path d="M213.21 40.716c-.52-.58-1.007-.746-1.46-.5a622.733 622.733 0 0 0-7.49 4.07c-.353.194-.583.427-.69.7-.193.5-.04.86.46 1.08a.992.992 0 0 0 .434.081c.16-.003.329-.037.496-.1a34.395 34.395 0 0 0 8.33-4.58" stroke="#68BED0" stroke-width="2"/><path d="m213.29 41.466 3.25 2" stroke="#5E6E96" stroke-width="2"/><path d="M216.54 43.466c-.4.687-.4 1.354 0 2" stroke="#8BA7A6" stroke-width="2"/><path d="M216.54 45.466c.073.774.457 1.15 1.15 1.13a.767.767 0 0 1 .416.107.52.52 0 0 1 .234.293l.37 1.22" stroke="#5E6E96" stroke-width="2"/><path d="M218.71 48.216c.6 2 1.947 2.597 4.04 1.79m-1.04 10.46-9.48 4.55a.677.677 0 0 1-.424.059.607.607 0 0 1-.356-.209 91.997 91.997 0 0 1-2.33-3.07c-.673-.926-1.2-2.08-1.58-3.46-.34-1.24-.747-2.46-1.22-3.66a94.369 94.369 0 0 1-1.34-3.6c-1.88-5.513-4.873-10.37-8.98-14.57" stroke="#8BA7A6" stroke-width="2"/><path d="M222.96 44.966c-1.007-.033-2.057.237-3.15.81-1.08.573-2.17.47-3.27-.31m0-2c.973-1.086 2.15-1.803 3.53-2.15.159-.042.302-.11.416-.195a.677.677 0 0 0 .234-.295c.133-.373-.16-.443-.88-.21-1.36.434-2.727.84-4.1 1.22a1.127 1.127 0 0 1-.486.024.967.967 0 0 1-.424-.184c-1.013-.8-1.123-1.703-.33-2.71.747-.953 1.9-1.676 3.46-2.17a.515.515 0 0 0 .18-.101.456.456 0 0 0 .118-.16.367.367 0 0 0 .029-.18.31.31 0 0 0-.067-.159c-.22-.273-.543-.266-.97.02-2 1.354-3.333 1.937-4 1.75-2.247-.626-2.51-1.876-.79-3.75" stroke="#C87592" stroke-width="2"/><path d="m213.29 41.466-.08-.75" stroke="#A58CBC" stroke-width="2"/><path d="m211.04 34.216-.79 3.71" stroke="#CD8658" stroke-width="2"/><path d="M222.96 45.466c-1.907.187-3.323 1.104-4.25 2.75" stroke="#C87592" stroke-width="2"/><path d="M214.991 44.042a.916.916 0 0 0-1.239-.397l-7.933 4.077a.912.912 0 0 0-.456.537.926.926 0 0 0 .058.702l.128.249a.922.922 0 0 0 1.239.398l7.933-4.078a.926.926 0 0 0 .456-.537.917.917 0 0 0-.058-.702l-.128-.249Z" stroke="#47C0C3" stroke-width="2"/><path d="M220.5 54.796a6.062 6.062 0 0 0-6.06-6.06 6.06 6.06 0 1 0 6.06 6.06Z" stroke="#3E6279" stroke-width="2"/><path d="M114.81 30.656c-.873-.733-.98-1.323-.32-1.77a1.92 1.92 0 0 0 .4-.345.892.892 0 0 0 .2-.355c.353-1.373-.7-1.413-3.16-.12-.92.48-.907.934.04 1.36 1.773.8 2.717 2.04 2.83 3.72.027.354.15.407.37.16.807-.9.687-1.783-.36-2.65Zm-5.11-.01c.033-.56-.21-.977-.73-1.25a.742.742 0 0 0-.431-.07.895.895 0 0 0-.429.18l-3.72 2.89c-.28.22-.25.373.09.46 1.773.427 3.31.057 4.61-1.11.38-.34.583-.706.61-1.1Z" stroke="#A86975" stroke-width="2"/><path d="M108.05 39.546a3.69 3.69 0 1 0-7.38.001 3.69 3.69 0 0 0 7.38 0Z" stroke="#F09E9A" stroke-width="2"/><path d="M113.33 38.156a3.21 3.21 0 0 1-1.47-.72c-1.073-.947-1.273-.92-.6.08 1.353 1.994 2.947 2.23 4.78.71.967-.813 1.01-.977.13-.49a4.038 4.038 0 0 1-2.84.42Zm-20.12 3.411c-2.293-1.82-4.43-2.537-6.41-2.15a.898.898 0 0 0-.443.21.572.572 0 0 0-.197.37c-.04.413.343.506 1.15.28 1.893-.52 3.71.123 5.45 1.93 1.053 1.093 1.41 1.166 1.07.22a1.95 1.95 0 0 0-.62-.86Z" stroke="#D18296" stroke-width="2"/><path d="M116.99 78.427c.913 1.16 1.6 1.04 2.06-.36.333-1.02.423-2.11.27-3.27a34.664 34.664 0 0 0-3.13-10.51c-.367-.767-.74-.774-1.12-.02-.667 1.313-1.853 2.5-3.56 3.56a.603.603 0 0 0-.23.74c1.567 3.693 3.47 6.98 5.71 9.86Zm-13.42-9.841c-3.007-.247-5.737-1.357-8.19-3.33-.58-.467-.793-.333-.64.4 1.233 5.86 3.613 11.163 7.14 15.91 1.32 1.787 2.687 2.373 4.1 1.76.94-.413 1.673-1.367 2.2-2.86 1.287-3.68 1.8-7.49 1.54-11.43a.503.503 0 0 0-.171-.346.499.499 0 0 0-.369-.114c-1.867.16-3.737.163-5.61.01Z" stroke="#F77E74" stroke-width="2"/><path d="M212.94 52.276c.127.894.96 2.54 2.5 4.94a.612.612 0 0 0 .153.167.373.373 0 0 0 .177.073c.207.02.233-.106.08-.38-.867-1.58-1.65-3.2-2.35-4.86-.58-1.373-.767-1.353-.56.06Zm2.5-.5c.513.674 1.13 1.884 1.85 3.63a.828.828 0 0 0 .23.328c.097.08.205.123.31.122.3.007.317-.24.05-.74a79.544 79.544 0 0 0-2.05-3.6.483.483 0 0 0-.199-.19.297.297 0 0 0-.231-.02c-.173.06-.16.217.04.47Zm-3.8 4.82a3.57 3.57 0 0 0 1.43 1.94c.247.167.25-.43.01-1.79a3.064 3.064 0 0 0-.6-1.37c-1.327-1.72-1.607-1.313-.84 1.22Z" stroke="#692D57" stroke-width="2"/><path d="M111.74 74.956a296.49 296.49 0 0 0 4.09 18.74c.527 2.067 0 3.294-1.58 3.68-.346.087-.376.214-.09.38.607.347 1.137.31 1.59-.11.34-.32.527-.83.56-1.53.12-2.706-.296-5.693-1.25-8.96-.473-1.64-1.4-5.79-2.78-12.45-.113-.56-.266-.666-.46-.32-.09.148-.118.352-.08.57Z" stroke="#F77E74" stroke-width="2"/><path d="M111.17 84.856c.033.274.173.39.42.35a.614.614 0 0 0 .375-.215.866.866 0 0 0 .195-.445c.093-.673-.117-.816-.63-.43a.945.945 0 0 0-.291.343.695.695 0 0 0-.069.397Z" stroke="#FC8D85" stroke-width="2"/><path d="M113.75 91.386c-.92-1.093-1.183-.956-.79.41a.723.723 0 0 0 .172.318.49.49 0 0 0 .278.152.576.576 0 0 0 .39-.07.317.317 0 0 0 .115-.144.477.477 0 0 0 .031-.207.72.72 0 0 0-.059-.236.885.885 0 0 0-.137-.223Z" stroke="#F77E74" stroke-width="2"/><path d="m114.75 24.256-8.5 2.75-4.5 1.5c-.447-.16-.793-.09-1.04.21L87 32.676c-.94.154-1.86.38-2.76.68-.693.233-1.243.287-1.65.16-.787-.24-.997-.793-.63-1.66.142-.33.185-.661.12-.94a51.963 51.963 0 0 0-.98-3.73c-2.447-8.073-.62-14.867 5.48-20.38 4.113-3.72 8.7-5.473 13.76-5.26 3.893.167 7.387 1.457 10.48 3.87 3.087 2.413 5.36 5.587 6.82 9.52a.737.737 0 0 0 .254.33.936.936 0 0 0 .416.17l7.39 1.09c1.36.207 1.453.713.28 1.52-3.467 2.38-7.21 4.45-11.23 6.21Z" fill="#FFCF2D"/><path d="M213.54 32.716a4.256 4.256 0 0 1-1.08 1.5h-1.42l-2.05-3.86a1.033 1.033 0 0 0-.641-.498 1.154 1.154 0 0 0-.839.098l-8.86 4.77a1.044 1.044 0 0 0-.503.643c-.077.277-.043.578.093.837l2.7 5.09c.152.284.396.504.68.613.284.108.586.096.84-.033l7.79-3.95c1.274.094 2.17.294 2.69.6.907.54.997 1.27.27 2.19-.52-.58-1.006-.746-1.46-.5a631.917 631.917 0 0 0-7.49 4.07c-.353.194-.583.427-.69.7-.193.5-.04.86.46 1.08a.992.992 0 0 0 .434.081c.16-.003.329-.037.496-.1a34.373 34.373 0 0 0 8.33-4.58l3.25 2c-.4.686-.4 1.353 0 2 .074.773.457 1.15 1.15 1.13a.773.773 0 0 1 .417.106.519.519 0 0 1 .233.293l.37 1.22c.6 2 1.947 2.597 4.04 1.79l2.28 7.67a.723.723 0 0 1-.008.43.648.648 0 0 1-.252.33l-3.06 2.03-9.48 4.55a.677.677 0 0 1-.424.059.607.607 0 0 1-.356-.209 91.997 91.997 0 0 1-2.33-3.07c-.673-.926-1.2-2.08-1.58-3.46-.34-1.24-.746-2.46-1.22-3.66a96.1 96.1 0 0 1-1.34-3.6c-1.88-5.513-4.873-10.37-8.98-14.57.214-.373.23-.743.05-1.11-.273-.56-.413-.87-.42-.93-.113-.793.294-1.283 1.22-1.47a.77.77 0 0 0 .53-1.11 2232.116 2232.116 0 0 1-7.27-13.92c-.473-.913-.656-1.663-.55-2.25.18-1.053.98-1.41 2.4-1.07.148.035.289.104.413.202.124.098.229.224.307.368l8.09 15.06a.577.577 0 0 0 .308.27c.129.047.266.04.382-.02l6.73-3.35c.211-.106.446-.144.667-.106.221.039.413.15.543.316l4.14 5.33Zm1.451 11.327a.916.916 0 0 0-1.239-.398l-7.933 4.077a.912.912 0 0 0-.456.537.926.926 0 0 0 .058.702l.128.25a.922.922 0 0 0 1.239.397l7.933-4.077a.926.926 0 0 0 .456-.538.917.917 0 0 0-.058-.701l-.128-.25Zm5.509 10.753a6.058 6.058 0 0 0-6.06-6.06 6.061 6.061 0 1 0 6.06 6.06Z" fill="#21A0AA"/><path d="M114.75 24.256c1.6 4.58 4.497 8.587 8.69 12.02 1.213.994 1.857 2.277 1.93 3.85.06 1.194-.283 2.49-1.03 3.89-2.287 4.294-6.067 6.707-11.34 7.24a22.823 22.823 0 0 1-6.89-1c-1.147-.36-1.497.02-1.05 1.14 1.553 3.9 4.52 5.59 8.9 5.07.253 1.387.567 2.76.94 4.12 0 .02.03.284.09.79.053.48.39.664 1.01.55 2.813 4.827 4.08 10.007 3.8 15.54-.033.62-.163 1.09-.39 1.41-.373.527-.87.744-1.49.65-.513-.073-1.037-.416-1.57-1.03a28.746 28.746 0 0 1-4.13-6.09.751.751 0 0 0-.314-.324.525.525 0 0 0-.396-.046c-.467.147-.74.537-.82 1.17a33.291 33.291 0 0 1-1.84 7.57c-.547 1.454-1.167 2.424-1.86 2.91-1.153.814-2.497.654-4.03-.48-1.607-1.193-2.78-2.42-3.52-3.68-3.287-5.553-5.53-11.74-6.73-18.56.22-.413.4-1.58.54-3.5.207-2.893.347-5.79.42-8.69a.412.412 0 0 0-.141-.325.452.452 0 0 0-.349-.115c-2.9.26-5.407-.353-7.52-1.84-1.953-1.373-3.083-3.19-3.39-5.45-.447-3.246 1.463-5.12 5.73-5.62 2.933.627 5.383 1.514 7.35 2.66 1.633.96 2.587.504 2.86-1.37.427-2.893 1.26-5.56 2.5-8 .247-.3.593-.37 1.04-.21-.453 1.234-.31 1.937.43 2.11.137.03.288.017.439-.039a1.16 1.16 0 0 0 .421-.28l3.21-3.29 8.5-2.75Zm.06 6.4c-.873-.733-.98-1.323-.32-1.77a1.92 1.92 0 0 0 .4-.345.892.892 0 0 0 .2-.355c.353-1.373-.7-1.413-3.16-.12-.92.48-.907.934.04 1.36 1.773.8 2.717 2.04 2.83 3.72.027.354.15.407.37.16.807-.9.687-1.783-.36-2.65Zm-5.11-.01c.033-.56-.21-.976-.73-1.25a.74.74 0 0 0-.43-.07.895.895 0 0 0-.43.18l-3.72 2.89c-.28.22-.25.374.09.46 1.773.427 3.31.057 4.61-1.11.38-.34.583-.706.61-1.1Zm-1.65 8.9a3.69 3.69 0 1 0-7.38.001 3.69 3.69 0 0 0 7.38 0Zm5.28-1.39a3.209 3.209 0 0 1-1.47-.72c-1.073-.946-1.273-.92-.6.08 1.353 1.994 2.947 2.23 4.78.71.967-.813 1.01-.976.13-.49a4.037 4.037 0 0 1-2.84.42Zm-20.12 3.41c-2.293-1.82-4.43-2.536-6.41-2.15a.898.898 0 0 0-.443.21.572.572 0 0 0-.197.37c-.04.414.343.507 1.15.28 1.893-.52 3.71.124 5.45 1.93 1.053 1.094 1.41 1.167 1.07.22a1.95 1.95 0 0 0-.62-.86Zm23.78 36.86c.913 1.16 1.6 1.04 2.06-.36.333-1.02.423-2.11.27-3.27a34.664 34.664 0 0 0-3.13-10.51c-.367-.766-.74-.773-1.12-.02-.667 1.314-1.853 2.5-3.56 3.56a.597.597 0 0 0-.23.74c1.567 3.694 3.47 6.98 5.71 9.86Zm-13.42-9.84c-3.007-.246-5.737-1.356-8.19-3.33-.58-.466-.793-.333-.64.4 1.233 5.86 3.613 11.164 7.14 15.91 1.32 1.787 2.687 2.374 4.1 1.76.94-.413 1.673-1.366 2.2-2.86 1.287-3.68 1.8-7.49 1.54-11.43a.503.503 0 0 0-.171-.345.5.5 0 0 0-.369-.115c-1.867.16-3.737.164-5.61.01Z" fill="#F4ADA2"/><path d="m106.25 27.006-3.21 3.29a1.16 1.16 0 0 1-.421.281.777.777 0 0 1-.439.04c-.74-.174-.883-.877-.43-2.11l4.5-1.5Zm8.56 3.65c1.047.867 1.167 1.75.36 2.65-.22.247-.343.194-.37-.16-.113-1.68-1.057-2.92-2.83-3.72-.947-.426-.96-.88-.04-1.36 2.46-1.293 3.513-1.253 3.16.12a.892.892 0 0 1-.2.355 1.92 1.92 0 0 1-.4.345c-.66.447-.553 1.037.32 1.77Zm-14.1-1.94c-1.24 2.44-2.073 5.107-2.5 8-.273 1.874-1.227 2.33-2.86 1.37-1.967-1.146-4.417-2.033-7.35-2.66a4.394 4.394 0 0 0-1-2.75l13.71-3.96Zm8.38 3.03c-1.3 1.167-2.837 1.537-4.61 1.11-.34-.087-.37-.24-.09-.46l3.72-2.89a.895.895 0 0 1 .429-.18.742.742 0 0 1 .431.07c.52.273.763.69.73 1.25-.027.393-.23.76-.61 1.1Z" fill="#5B2448"/><path d="m211.04 34.216-.79 3.71-7.79 3.95a1.03 1.03 0 0 1-.84.032 1.309 1.309 0 0 1-.68-.612l-2.7-5.09c-.137-.26-.17-.56-.094-.837a1.05 1.05 0 0 1 .504-.643l8.86-4.77c.26-.138.561-.174.839-.099.277.075.507.254.641.5l2.05 3.86Z" fill="#FFCF2D"/><path d="M222.96 44.966c-1.007-.033-2.057.237-3.15.81-1.08.574-2.17.47-3.27-.31-.4-.646-.4-1.313 0-2 .973-1.086 2.15-1.803 3.53-2.15.159-.042.302-.11.416-.195a.677.677 0 0 0 .234-.295c.133-.373-.16-.443-.88-.21-1.36.434-2.727.84-4.1 1.22a1.129 1.129 0 0 1-.486.024.969.969 0 0 1-.424-.184c-1.013-.8-1.123-1.703-.33-2.71.747-.953 1.9-1.676 3.46-2.17a.514.514 0 0 0 .18-.101.454.454 0 0 0 .118-.159.368.368 0 0 0 .029-.18.31.31 0 0 0-.067-.16c-.22-.273-.543-.266-.97.02-2 1.354-3.333 1.937-4 1.75-2.247-.626-2.51-1.876-.79-3.75a4.283 4.283 0 0 0 1.08-1.5c1.833-1.153 3.577-1.083 5.23.21.853.667 1.03 1.547.53 2.64a.791.791 0 0 0-.047.563c.053.187.173.35.337.457 1.24.827 1.883 2.05 1.93 3.67a1.714 1.714 0 0 0 .55 1.2c1.36 1.26 1.657 2.43.89 3.51Z" fill="#F4ADA2"/><path d="M211.04 34.216h1.42c-1.72 1.874-1.457 3.124.79 3.75.667.187 2-.396 4-1.75.427-.286.75-.293.97-.02.037.046.06.1.067.16a.367.367 0 0 1-.029.18.456.456 0 0 1-.118.159.515.515 0 0 1-.18.101c-1.56.494-2.713 1.217-3.46 2.17-.793 1.007-.683 1.91.33 2.71a.967.967 0 0 0 .424.184c.158.028.324.02.486-.024 1.373-.38 2.74-.786 4.1-1.22.72-.233 1.013-.163.88.21a.677.677 0 0 1-.234.295 1.224 1.224 0 0 1-.416.195c-1.38.347-2.557 1.064-3.53 2.15l-3.25-2-.08-.75c.727-.92.637-1.65-.27-2.19-.52-.306-1.417-.506-2.69-.6l.79-3.71Z" fill="#9B3C82"/><path d="M196 36.507c4.107 4.2 7.1 9.056 8.98 14.57a94.369 94.369 0 0 0 1.34 3.6c.473 1.2.88 2.42 1.22 3.66.38 1.38.907 2.533 1.58 3.46.72.993 1.497 2.016 2.33 3.07a.607.607 0 0 0 .356.208.677.677 0 0 0 .424-.059l9.48-4.55a215.642 215.642 0 0 1-7.45 43.751c-3.227 11.613-8.25 21.676-15.07 30.19-4.593 5.733-10.833 9.196-18.72 10.39-11.18 1.706-21.407-.57-30.68-6.83l-3.5-20.5a182.3 182.3 0 0 1 22.96-20.71c1.4-1.14 2.97-1.904 4.71-2.29l1.04.79c-1.687 4.166-2.287 8.49-1.8 12.97.047.42.217.696.51.83a.27.27 0 0 0 .161.02.316.316 0 0 0 .153-.076.4.4 0 0 0 .106-.154.441.441 0 0 0 .03-.19c-.28-4.527.07-9.007 1.05-13.44a305.382 305.382 0 0 0 13.46-21.82 66.747 66.747 0 0 0 4.44-9.65c1.38-3.74 2.127-7.17 2.24-10.29.2-5.36-.923-10.54-3.37-15.54a1.328 1.328 0 0 1-.12-.93c.613-2.28 1.993-2.44 4.14-.48Z" fill="#F4ADA2"/><path d="M104.36 43.236a3.69 3.69 0 1 0 0-7.38 3.69 3.69 0 0 0 0 7.38Z" fill="#EC8E91"/><path d="M113.33 38.156a4.038 4.038 0 0 0 2.84-.42c.88-.486.837-.323-.13.49-1.833 1.52-3.427 1.284-4.78-.71-.673-1-.473-1.026.6-.08a3.21 3.21 0 0 0 1.47.72Zm-20.12 3.41c.281.222.496.52.62.86.34.947-.017.873-1.07-.22-1.74-1.807-3.557-2.45-5.45-1.93-.807.227-1.19.133-1.15-.28a.572.572 0 0 1 .197-.37.899.899 0 0 1 .443-.21c1.98-.387 4.117.33 6.41 2.15Z" fill="#AD578A"/><path d="m213.21 40.716.08.75a34.395 34.395 0 0 1-8.33 4.58 1.505 1.505 0 0 1-.496.101 1.004 1.004 0 0 1-.434-.08c-.5-.22-.653-.58-.46-1.08.107-.274.337-.507.69-.7a622.733 622.733 0 0 1 7.49-4.07c.453-.247.94-.08 1.46.5Z" fill="#AEDCF6"/><path d="m213.752 43.645-7.933 4.077a.92.92 0 0 0-.398 1.239l.128.249a.92.92 0 0 0 1.239.398l7.933-4.078a.92.92 0 0 0 .398-1.239l-.128-.248a.92.92 0 0 0-1.239-.398Z" fill="#6CE0DC"/><path d="M222.96 44.966a.806.806 0 0 1 0 .5c-1.907.187-3.323 1.103-4.25 2.75l-.37-1.22a.517.517 0 0 0-.234-.293.767.767 0 0 0-.416-.107c-.693.02-1.077-.356-1.15-1.13 1.1.78 2.19.883 3.27.31 1.093-.573 2.143-.843 3.15-.81Z" fill="#9B3C82"/><path d="M222.96 45.466c1.773 1.58 1.703 3.094-.21 4.54-2.093.807-3.44.21-4.04-1.79.927-1.646 2.343-2.563 4.25-2.75Z" fill="#F4ADA2"/><path d="M220.5 54.796a6.062 6.062 0 0 1-6.06 6.06 6.06 6.06 0 1 1 6.06-6.06Zm-7.56-2.52c.127.894.96 2.54 2.5 4.94a.611.611 0 0 0 .153.167.372.372 0 0 0 .177.073c.207.02.233-.106.08-.38-.867-1.58-1.65-3.2-2.35-4.86-.58-1.373-.767-1.353-.56.06Zm2.5-.5c.513.674 1.13 1.884 1.85 3.63a.828.828 0 0 0 .23.328c.097.08.205.123.31.122.3.007.317-.24.05-.74a79.544 79.544 0 0 0-2.05-3.6.49.49 0 0 0-.199-.19.296.296 0 0 0-.231-.02c-.173.06-.16.217.04.47Zm-3.8 4.82a3.57 3.57 0 0 0 1.43 1.94c.247.167.25-.43.01-1.79a3.064 3.064 0 0 0-.6-1.37c-1.327-1.72-1.607-1.313-.84 1.22ZM113 51.256l.96 5.21c-4.38.52-7.347-1.17-8.9-5.07-.447-1.12-.097-1.5 1.05-1.14a22.826 22.826 0 0 0 6.89 1Z" fill="#5B2448"/><path d="M212.94 52.276c-.207-1.413-.02-1.433.56-.06.7 1.66 1.483 3.28 2.35 4.86.153.274.127.4-.08.38a.373.373 0 0 1-.177-.073.612.612 0 0 1-.153-.167c-1.54-2.4-2.373-4.046-2.5-4.94Zm2.5-.5c-.2-.253-.213-.41-.04-.47a.297.297 0 0 1 .231.02.483.483 0 0 1 .199.19 79.544 79.544 0 0 1 2.05 3.6c.267.5.25.747-.05.74a.485.485 0 0 1-.31-.122.828.828 0 0 1-.23-.328c-.72-1.746-1.337-2.956-1.85-3.63Zm-3.8 4.82c-.767-2.533-.487-2.94.84-1.22.313.407.513.864.6 1.37.24 1.36.237 1.957-.01 1.79a3.57 3.57 0 0 1-1.43-1.94Z" fill="#773666"/><path d="M92.71 60.966c1.2 6.82 3.443 13.007 6.73 18.56.74 1.26 1.913 2.487 3.52 3.68 1.533 1.133 2.877 1.293 4.03.48.693-.487 1.313-1.457 1.86-2.91a33.292 33.292 0 0 0 1.84-7.57c.08-.633.353-1.023.82-1.17a.525.525 0 0 1 .396.046c.13.067.241.182.314.324a28.75 28.75 0 0 0 4.13 6.09c.533.613 1.057.957 1.57 1.03.62.093 1.117-.123 1.49-.65.227-.32.357-.79.39-1.41.28-5.533-.987-10.713-3.8-15.54 4.58-2.46 9.43-3.027 14.55-1.7 8.453 2.193 15.99 6.13 22.61 11.81a134.532 134.532 0 0 1 20.8 22.43 11.22 11.22 0 0 0-4.71 2.29c-.4-.12-.88-.03-1.44.27-9.56 5.16-16.9 9.307-22.02 12.44-.28-.64-.69-1.993-1.23-4.06a118.441 118.441 0 0 0-14.76-34.02c-1.107-1.747-1.29-1.653-.55.28.26.687.717 1.51 1.37 2.47.733 1.08 1.24 1.867 1.52 2.36 5.94 10.413 10.123 21.09 12.55 32.03.16.74.36 1.22.6 1.44l1 7.5 3.5 20.5c0 2.24.173 4.47.52 6.69a180.654 180.654 0 0 1 2.12 21.73.957.957 0 0 1-.188.61.979.979 0 0 1-.532.36c-18.22 4.827-36.54 7.167-54.96 7.02-16.073-.127-31.867-3.033-47.38-8.72a.775.775 0 0 1-.426-.388.89.89 0 0 1-.064-.602l2.62-10.41 36.16 12.01a.85.85 0 0 0 .656-.049.874.874 0 0 0 .434-.501l9.5-27.71c1.2-.9 1.937-2.08 2.21-3.54l.29-1.21c1.747-1.06 2.567-2.573 2.46-4.54l.29-1.21c1.373-1.333 1.957-2.943 1.75-4.83-.16-.28-.173-.6-.04-.96 2.013-2.16 2.29-4.493.83-7l3.94-11.93a1.406 1.406 0 0 0-.049-1.018 1.204 1.204 0 0 0-.711-.652l-15.18-4.9 2.32-7.1a1.093 1.093 0 0 0-.049-.798.972.972 0 0 0-.571-.512l-15.53-5.18a.77.77 0 0 0-.603.061.91.91 0 0 0-.417.49l-2.48 6.79-15.15-4.9a1.105 1.105 0 0 0-.84.06 1.125 1.125 0 0 0-.56.64l-6.91 19.739a205.025 205.025 0 0 0-29-12.25l-9.46-4.04c10.9-12.087 23.617-21.523 38.15-28.31 13.207-6.173 26.463-6.153 39.77.06Zm19.03 13.99a295.823 295.823 0 0 0 4.09 18.74c.527 2.067 0 3.293-1.58 3.68-.347.087-.377.213-.09.38.607.347 1.137.31 1.59-.11.34-.32.527-.83.56-1.53.12-2.707-.297-5.693-1.25-8.96-.473-1.64-1.4-5.79-2.78-12.45-.113-.56-.267-.667-.46-.32-.09.148-.118.352-.08.57Zm-.57 9.9c.033.273.173.39.42.35a.614.614 0 0 0 .375-.215.858.858 0 0 0 .195-.445c.093-.673-.117-.817-.63-.43a.945.945 0 0 0-.291.343.695.695 0 0 0-.069.397Zm2.58 6.53c-.92-1.093-1.183-.957-.79.41a.723.723 0 0 0 .172.318.49.49 0 0 0 .278.152.576.576 0 0 0 .39-.07.317.317 0 0 0 .115-.144.477.477 0 0 0 .031-.207.742.742 0 0 0-.058-.236.915.915 0 0 0-.138-.223Z" fill="#F16D22"/><path d="M116.99 78.426c-2.24-2.88-4.143-6.167-5.71-9.86a.603.603 0 0 1 .23-.74c1.707-1.06 2.893-2.247 3.56-3.56.38-.753.753-.747 1.12.02a34.664 34.664 0 0 1 3.13 10.51c.153 1.16.063 2.25-.27 3.27-.46 1.4-1.147 1.52-2.06.36Zm-13.42-9.84c1.873.153 3.743.15 5.61-.01a.488.488 0 0 1 .54.46c.26 3.94-.253 7.75-1.54 11.43-.527 1.493-1.26 2.447-2.2 2.86-1.413.613-2.78.027-4.1-1.76-3.527-4.747-5.907-10.05-7.14-15.91-.153-.733.06-.867.64-.4 2.453 1.973 5.183 3.083 8.19 3.33Z" fill="#F16D22"/><path d="M145.79 109.466c-.1.233-.267.4-.5.5-.24-.22-.44-.7-.6-1.44-2.427-10.94-6.61-21.617-12.55-32.03-.28-.493-.787-1.28-1.52-2.36-.653-.96-1.11-1.783-1.37-2.47-.74-1.933-.557-2.026.55-.28a118.443 118.443 0 0 1 14.76 34.02c.54 2.067.95 3.42 1.23 4.06Z" fill="#FECAC4"/><path d="M111.82 74.386c.194-.346.347-.24.46.32 1.38 6.66 2.307 10.81 2.78 12.45.954 3.267 1.37 6.254 1.25 8.96-.033.7-.22 1.21-.56 1.53-.453.42-.983.457-1.59.11-.286-.166-.256-.293.09-.38 1.58-.386 2.107-1.613 1.58-3.68a296.49 296.49 0 0 1-4.09-18.74c-.038-.218-.01-.422.08-.57Z" fill="#F4ADA2"/><path d="m94.04 96.216-1.12 3.33a1.671 1.671 0 0 1-.295.535c-.13.157-.287.286-.462.381a1.448 1.448 0 0 1-.556.171 1.357 1.357 0 0 1-.567-.067l-14.78-5.01a1.138 1.138 0 0 1-.676-.672 1.661 1.661 0 0 1-.034-1.088l1.16-3.83 2.48-6.79a.91.91 0 0 1 .417-.489.77.77 0 0 1 .603-.06l15.53 5.18a.97.97 0 0 1 .572.511c.116.246.133.532.048.798l-2.32 7.1Z" fill="#FFCF2D"/><path d="M111.53 84.116c.513-.386.723-.243.63.43a.866.866 0 0 1-.195.445.614.614 0 0 1-.375.215c-.247.04-.387-.076-.42-.35a.695.695 0 0 1 .069-.397.945.945 0 0 1 .291-.343Z" fill="#FECAC4"/><path d="m76.71 89.966-1.16 3.83c-.11.37-.099.76.034 1.088.132.328.375.57.676.672l14.78 5.01c.181.062.374.085.566.067.193-.018.383-.076.557-.171.175-.095.332-.224.462-.382.13-.157.23-.338.295-.534l1.12-3.33 15.18 4.9c.313.105.569.34.711.653.143.312.16.678.049 1.017l-3.94 11.93c-1.887 1.74-4.663 2.444-8.33 2.11a1.286 1.286 0 0 1-.574-.195 1.363 1.363 0 0 1-.432-.442c-.11-.18-.18-.385-.206-.6a1.553 1.553 0 0 1 .062-.643l2.28-7.37c.693-2.26-.02-2.786-2.14-1.58a54.675 54.675 0 0 0-4.65 2.96c-5.453 3.854-11.553 5.754-18.3 5.7a66.394 66.394 0 0 1-22.04-3.94l1.54-5.21 6.91-19.74c.096-.278.297-.507.56-.638.261-.131.563-.153.84-.062l15.15 4.9Z" fill="#21A0AA"/><path d="m14.79 89.216 9.46 4.04c8.574 4.314 16.877 9.437 24.91 15.37 1.227.907 1.09 1.227-.41.96-3.653-.66-7.22-.783-10.7-.37-.226.027-.223.054.01.08l13.65 1.42a66.394 66.394 0 0 0 22.04 3.94c6.747.054 12.847-1.846 18.3-5.7a54.706 54.706 0 0 1 4.65-2.96c2.12-1.206 2.834-.68 2.14 1.58l-2.28 7.37a1.553 1.553 0 0 0-.061.643c.025.215.095.42.205.6.11.181.258.331.432.442.174.11.37.177.574.195 3.667.334 6.443-.37 8.33-2.11 1.46 2.507 1.183 4.84-.83 7-1.333 1.154-3.237 1.904-5.71 2.25-.847.12-1.007.33-.48.63.14.08.3.114.48.1 2.08-.206 3.997-.88 5.75-2.02.207 1.887-.377 3.497-1.75 4.83-1.513 1.107-3.18 1.554-5 1.34-.336-.038-.633 0-.84.11-.507.287-.373.52.4.7 1.447.334 3.163.02 5.15-.94.107 1.967-.713 3.48-2.46 4.54l-4.18.76a1.363 1.363 0 0 0-.486.183c-.13.084-.21.185-.234.287-.087.374.214.524.9.45 1.24-.14 2.477-.296 3.71-.47-.273 1.46-1.01 2.64-2.21 3.54-2.66 1.48-5.076 2.467-7.25 2.96-16.386 3.714-33.553 5.727-51.5 6.04-5.253 0-9.753-.346-13.5-1.04-11.58-2.146-19.433-8.793-23.56-19.94-1.16-3.133-1.63-6.153-1.41-9.06.513-6.746 2.707-12.88 6.58-18.4 2.26-3.22 4.654-6.336 7.18-9.35Zm99.01 2.98a.576.576 0 0 1-.39.07.49.49 0 0 1-.278-.152.723.723 0 0 1-.172-.318c-.393-1.367-.13-1.503.79-.41a.885.885 0 0 1 .137.223.72.72 0 0 1 .059.236.477.477 0 0 1-.031.207.317.317 0 0 1-.115.144Z" fill="#F4ADA2"/><path d="M24.25 93.256a205.14 205.14 0 0 1 29 12.25l-1.54 5.21-13.65-1.42c-.233-.026-.237-.053-.01-.08 3.48-.413 7.047-.29 10.7.37 1.5.267 1.637-.053.41-.96-8.033-5.933-16.337-11.056-24.91-15.37Z" fill="#9B3C59"/><path d="m175 95.256.21-.04a48.184 48.184 0 0 0-1.05 13.44.444.444 0 0 1-.03.191.406.406 0 0 1-.105.153.313.313 0 0 1-.154.077.279.279 0 0 1-.161-.021c-.293-.133-.463-.41-.51-.83-.487-4.48.113-8.803 1.8-12.97Z" fill="#AD578A"/><path d="M169.25 96.757a182.3 182.3 0 0 0-22.96 20.71l-1-7.5c.233-.1.4-.267.5-.5 5.12-3.134 12.46-7.28 22.02-12.44.56-.3 1.04-.39 1.44-.27Z" fill="#9B3C59"/><path d="M105.21 121.716c-.134.36-.12.68.04.96a12.7 12.7 0 0 1-5.75 2.02.818.818 0 0 1-.48-.1c-.527-.3-.367-.51.48-.63 2.473-.346 4.376-1.096 5.71-2.25Zm-1.71 5.79-.29 1.21c-1.986.96-3.703 1.274-5.15.94-.773-.18-.907-.413-.4-.7.208-.109.504-.148.84-.11 1.82.214 3.487-.233 5-1.34Z" fill="#9B3C82"/><path d="m100.75 133.256-.29 1.21c-1.233.174-2.47.33-3.71.47-.687.074-.987-.076-.9-.45.023-.102.105-.203.234-.287.129-.084.299-.148.486-.183l4.18-.76Z" fill="#AD578A"/><path d="m98.25 138.006-9.5 27.71a.876.876 0 0 1-.434.502.855.855 0 0 1-.656.048l-36.16-12.01a248.862 248.862 0 0 0-11.25-3.79c-1.64-.506-1.89-1.66-.75-3.46 17.947-.313 35.113-2.326 51.5-6.04 2.173-.493 4.59-1.48 7.25-2.96Z" fill="#21A0AA"/></g><defs><clipPath id="a"><path fill="#fff" transform="translate(.5 .716)" d="M0 0h225v174H0z"/></clipPath></defs></svg>