<svg width="320" height="177" fill="none" xmlns="http://www.w3.org/2000/svg"><g clip-path="url(#a)"><path d="M114.238 5.58c-.085.39-.328.645-.727.764-1.351.404-2.693.96-4.025 1.67-.937.499-1.215 1.243-.834 2.232.599 1.58 1.838 1.9 3.717.964a38.23 38.23 0 0 1 4.488-1.884m3.239 7.82a112.9 112.9 0 0 1-4.866 2.255c-.918.4-1.524.922-1.819 1.57-.604 1.317-.038 2.168 1.698 2.554.228.05.466.034.685-.05l5.522-2.198" stroke="#CD8558" stroke-width="1.427"/><path d="M118.491 30.76c-1.908-.262-3.646-1.268-5.216-3.019-6.103-6.792-8.942-14.595-8.519-23.41.033-.732.45-1.733 1.249-3.003" stroke="#90B76C" stroke-width="1.427"/><path d="M112.069 34.092c-.047-.329-.211-.514-.492-.557-.39-.062-.616-.107-.678-.136-2.269-1.017-4.198-2.68-5.786-4.987-3.763-5.46-6.082-11.287-6.957-17.48-.347-2.47.069-4.976 1.249-7.52" stroke="#8ECED4" stroke-width="1.427"/><path d="M110.464 34.505a14.085 14.085 0 0 1-4.131-3.21 37.741 37.741 0 0 1-7.956-14.164c-1.35-4.414-1.603-8.67-.756-12.771" stroke="#8ECED4" stroke-width="1.427"/><path d="M84.421 29.989c.21-.343.2-.633-.028-.87-.271-.29-.424-.464-.457-.521l-1.12-2.177" stroke="#43A8CC" stroke-width="1.427"/><path d="M78.563 32.514c.053-1.294-.373-1.893-1.277-1.798-.447.048-.96.305-1.54.77a21.635 21.635 0 0 0-3.96 4.06" stroke="#ADAEC8" stroke-width="1.427"/><path d="M71.785 35.547c-.128-.18-.316-.25-.563-.207" stroke="#867DBA" stroke-width="1.427"/><path d="M73.39 30.553a17.337 17.337 0 0 1-2.168 4.787" stroke="#ADAEC8" stroke-width="1.427"/><path d="M71.222 35.34a72.585 72.585 0 0 0-2.22 2.619c-.266.328-.532.525-.799.592-.537.133-.84-.155-.906-.863-.27-3.002-.093-6.56.535-10.674" stroke="#CE7C94" stroke-width="1.427"/><path d="M71.785 35.547c-3.001 4.224-4.72 7.092-5.158 8.605-.238.818-.495 1.025-.771.62a.546.546 0 0 1-.094-.292.8.8 0 0 1 .066-.343c.49-1.17 1.03-2.314 1.62-3.431.613-1.161.396-1.694-.65-1.599a.476.476 0 0 0-.268.126.604.604 0 0 0-.167.274c-.286.96-.82 1.712-1.606 2.254-.495.343-.965.424-1.413.243-.494-.19-.872-.583-1.134-1.177-.18-.4-.385-.397-.614.007l-1.191 2.112c-.064.113-.11.227-.132.333a.565.565 0 0 0 .003.28 22.216 22.216 0 0 1 .992 8.955 1.422 1.422 0 0 1-.207.628c-.404.637-.673.609-.806-.086a2.12 2.12 0 0 1-.007-.678c.3-2.502.15-4.975-.45-7.42-.266-1.07-.92-1.9-1.962-2.49a.287.287 0 0 0-.413.178c-.405 1.518-1.266 2.124-2.583 1.82" stroke="#CE7C94" stroke-width="1.427"/><path d="M54.84 44.466c-.719-.471-.907-1.016-.564-1.634" stroke="#867DBA" stroke-width="1.427"/><path d="M70.001 101.724a142.582 142.582 0 0 0-2.012 8.419c-.11.533.012.666.364.4a.683.683 0 0 0 .221-.307 44.437 44.437 0 0 0 1.934-6.764 2.81 2.81 0 0 0-.207-1.748" stroke="#CE7C94" stroke-width="1.427"/><path d="M72.114 99.912c.409.128.715.375.92.742" stroke="#F77E74" stroke-width="1.427"/><path d="M73.034 100.654c4.852 9.513 8.588 19.026 11.209 28.54.98 3.562 1.703 7.665 2.169 12.308" stroke="#C87592" stroke-width="1.427"/><path d="M86.412 141.501a24.698 24.698 0 0 1-6.093 1.456" stroke="#A86975" stroke-width="1.427"/><path d="m51.629 47.677 3.21-3.211" stroke="#ADAEC8" stroke-width="1.427"/><path d="M67.654 27.014c.057.256.01.425-.143.506-.116.06-.217.13-.293.198a.417.417 0 0 0-.135.195 40.312 40.312 0 0 0-.906 7.812c-.038 2.06-.397 3.518-1.077 4.374-1.313 1.66-2.186 1.456-2.619-.613a26.665 26.665 0 0 1-.385-8.512 1.346 1.346 0 0 0-.022-.471c-.133-.51-.318-.564-.556-.164a1.086 1.086 0 0 0-.129.463 332.617 332.617 0 0 0-.642 8.72c-.042.708-.121 1.262-.235 1.662-.385 1.332-.973 1.586-1.763.763-.347-.361-.62-.873-.82-1.534a21.152 21.152 0 0 1-.863-6.97.487.487 0 0 0-.02-.163.409.409 0 0 0-.072-.138.3.3 0 0 0-.11-.086.24.24 0 0 0-.127-.02c-.185.019-.292.142-.32.37a19.123 19.123 0 0 0 .356 6.779c.38 1.622.188 2.678-.578 3.168-.704.447-1.344.273-1.92-.521" stroke="#CE7C94" stroke-width="1.427"/><path d="m54.276 42.832-.92-1.755" stroke="#ADAEC8" stroke-width="1.427"/><path d="M240.499 98.898a13.27 13.27 0 0 0-3.168 3.582c-6.878 11.307-11.164 23.541-12.857 36.703" stroke="#CA4664" stroke-width="1.427"/><path d="M224.474 139.183c-.366 3.553-.362 6.749.014 9.589.152 1.137.576 2.397 1.27 3.782.062.123.212.299.45.528.29.285.347.646.171 1.084" stroke="#AA3A47" stroke-width="1.427"/><path d="M212.344 156.485c.214 1.86.68 3.653 1.399 5.38" stroke="#9C807D" stroke-width="1.427"/><path d="m213.743 161.865 1.962 10.467m-109.907.385 1.07-11.238" stroke="#AA3A47" stroke-width="1.427"/><path d="m106.868 161.479.713-5.351" stroke="#9C807D" stroke-width="1.427"/><path d="M98.334 154.73c-.285-.162-.385-.385-.3-.671.1-.304.153-.48.158-.528.209-1.898.078-3.945-.393-6.143-.747-3.51-1.698-6.612-2.854-9.304" stroke="#AA3A47" stroke-width="1.427"/><path d="M94.945 138.084c-5.141-12.962-11.993-25.127-20.555-36.496-.395-.518-.847-.83-1.356-.934" stroke="#CA4664" stroke-width="1.427"/><path d="M94.945 138.084a23.527 23.527 0 0 1-8.533 3.418" stroke="#7B3065" stroke-width="1.427"/><path d="M106.868 161.479c-5.404.938-10.374 2.26-14.912 3.968-1.232.466-2.495 1.234-3.789 2.304" stroke="#4D6A7E" stroke-width="1.427"/><path d="M231.58 142.186c-.295.176-.637.172-1.027-.014a589.457 589.457 0 0 1-6.079-2.989" stroke="#7B3065" stroke-width="1.427"/><path d="M169.656 61.947c-4.238.428-8.117-.072-11.637-1.499-.723-.29-.868-.111-.436.535 1.613 2.417 3.863 3.867 6.75 4.353 3.016.504 5.028.742 6.036.713" stroke="#A86975" stroke-width="1.427"/><path d="M173.787 81.061c1.289 5.599.79 11.024-1.498 16.275-.975 2.25-2.364 3.727-4.167 4.431-1.636.642-3.102.411-4.395-.692-1.194-1.028-2.077-2.105-2.647-3.232-1.523-2.997-2.659-6.327-3.411-9.99-.047-.232-.095-.235-.143-.006-1.446 6.92-2.566 14.935-3.36 24.044-.376 4.296 1.355 6.905 5.194 7.827.214.053.385.143.514.272.452.451.366.685-.257.699a2.76 2.76 0 0 1-.635-.086c-4.243-1.08-6.205-3.924-5.886-8.533.528-7.611 1.515-14.7 2.961-21.27a4.48 4.48 0 0 0 .092-.627c.124-1.889-.097-2.025-.663-.407-1.432 4.1-3.606 7.708-6.522 10.824-1.003 1.065-2.007 1.605-3.011 1.619-1.331.014-2.461-.621-3.389-1.905a11.063 11.063 0 0 1-1.826-3.953c-.21-.865-.407-2.278-.592-4.238-.348-3.648.059-7.387 1.22-11.216.19-.628.532-.99 1.027-1.085" stroke="#F77E74" stroke-width="1.427"/><path d="m236.396 143.97-4.816-1.783" stroke="#A86975" stroke-width="1.427"/><path d="M231.58 142.186c-.999-15.302 1.974-29.731 8.919-43.288" stroke="#C87592" stroke-width="1.427"/><path d="M240.499 98.898a1.16 1.16 0 0 0 .385-.92" stroke="#F77E74" stroke-width="1.427"/><path d="m247.812 104.607-.214.72c-.09.314-.128.538-.114.671.209 2.497.711 4.93 1.506 7.299.078.236.219.43.399.549.599.41.795.172.585-.713l-2.012-8.555" stroke="#CE7C94" stroke-width="1.427"/><path d="M230.688 167.751c-1.251-1.032-2.514-1.8-3.788-2.305-4.077-1.607-8.463-2.801-13.157-3.581" stroke="#4D6A7E" stroke-width="1.427"/><path d="m169.299 30.552-3.903 1.163a.548.548 0 0 1-.319 0 .526.526 0 0 1-.259-.178c-.88-1.104-.737-2.12.428-3.047.176-.138.162-.17-.042-.1a19.447 19.447 0 0 0-6.986 4.196c-.185.166-.157.228.086.185.319-.062.635-.138.949-.228.571-.171.996-.219 1.277-.143.504.129.809.464.913 1.006.037.206-.019.444-.157.664l-3.51 5.48c-.633.989-1.227 1.165-1.784.528-.28-.32-.459-.762-.535-1.328-.171-1.289.031-2.537.607-3.745.204-.419.145-.483-.179-.193a.518.518 0 0 0-.114.15 22.175 22.175 0 0 0-2.661 10.395c-.019 1.56-.124 2.721-.314 3.482-.376 1.494-1.213 1.822-2.512.985-3.006-1.945-6.162-3.018-9.468-3.218" stroke="#A86975" stroke-width="1.427"/><path d="M246.892 33.407c.3 1.631.854 3.177 1.662 4.638" stroke="#ADAEC8" stroke-width="1.427"/><path d="M248.554 38.044c.019.276-.109.405-.385.386" stroke="#867DBA" stroke-width="1.427"/><path d="M248.169 38.43c-1.441-1.684-2.69-2.943-3.746-3.775-1.684-1.322-2.585-.965-2.704 1.07" stroke="#ADAEC8" stroke-width="1.427"/><path d="M258.693 33.435c.343 5.984.64 9.78.892 11.387.209 1.313.697 1.634 1.463.964.285-.248.516-.61.692-1.085a22.12 22.12 0 0 0 1.441-7.905m.507-.15c.214 2.62.092 5.223-.364 7.806-.134.756-.143 1.362-.029 1.82.338 1.36 1.113 1.471 2.326.334" stroke="#CE7C94" stroke-width="1.427"/><path d="m265.621 46.606.771.892" stroke="#867DBA" stroke-width="1.427"/><path d="M266.335 47.677c-.314-.267-.574-.288-.778-.065a28.8 28.8 0 0 1-.307.343c-.961.7-1.924.276-2.89-1.27-.466-.752-.891-.728-1.277.071-1.503 3.135-2.088 6.279-1.755 9.433a2.07 2.07 0 0 1 0 .549c-.081.442-.269.542-.564.3-.155-.133-.262-.352-.299-.614-.381-2.83-.172-5.316.628-7.456.494-1.313.447-2.433-.143-3.36a1.299 1.299 0 0 1-.221-.657c-.048-1.027-.295-1.256-.742-.685-.276.352-.447.559-.514.62-1.456 1.39-2.635 1.062-3.539-.984-.718-1.627-1.234-1.748-1.548-.364a.883.883 0 0 0 .114.657c.918 1.546 1.363 2.661 1.334 3.346-.052 1.151-.29 1.346-.713.585a3.295 3.295 0 0 1-.222-.563c-.68-2.184-1.767-4.3-3.26-6.35-.504-.7-.994-1.627-1.47-2.783" stroke="#CE7C94" stroke-width="1.427"/><path d="M252.478 30.553c.4 3.391.519 6.787.357 10.189-.024.423-.123.742-.299.956-.372.442-.795.342-1.271-.3a50.596 50.596 0 0 0-2.711-3.354" stroke="#CE7C94" stroke-width="1.427"/><path d="M235.326 28.383c-.352.937-.801 1.82-1.348 2.647a3.532 3.532 0 0 1-.293.329c-.181.185-.169.382.036.592" stroke="#43A8CC" stroke-width="1.427"/><path d="M258.336 33.435a12.119 12.119 0 0 0-.178 3.182 18.592 18.592 0 0 1-.421 5.701c-.181.761-.416 1.36-.706 1.798-.785 1.18-1.599.94-2.441-.72-.656-1.299-.896-3.32-.72-6.065a18.175 18.175 0 0 0-.885-6.928" stroke="#CE7C94" stroke-width="1.427"/><path d="m266.748 43.039-1.127 3.567" stroke="#ADAEC8" stroke-width="1.427"/><path d="M221.085 6.829c.494 2.82.485 5.496-.029 8.026-1.584 7.806-5.344 14.451-11.28 19.936-.728.67-1.725 1.17-2.99 1.498" stroke="#8ECED4" stroke-width="1.427"/><path d="M219.451 5.73c1.175 3.658 1.227 7.342.157 11.052a40.774 40.774 0 0 1-6.65 13.328c-1.503 1.998-3.218 3.558-5.144 4.68-.752.438-1.699.69-2.84.757" stroke="#8ECED4" stroke-width="1.427"/><path d="M212.851 3.468c1.123 2.53 1.36 5.375.713 8.534-1.45 7.082-4.528 13.042-9.232 17.88-1.427 1.47-3.047 2.357-4.859 2.661" stroke="#90B76C" stroke-width="1.427"/><path d="M206.94 13.659c.343.162.773.107 1.193-.153.421-.26.798-.704 1.048-1.234.125-.263.214-.539.263-.812.05-.274.059-.54.026-.782a1.586 1.586 0 0 0-.216-.632 1.011 1.011 0 0 0-.424-.387c-.344-.162-.773-.108-1.194.153-.42.26-.797.704-1.048 1.234a3.306 3.306 0 0 0-.263.812 2.53 2.53 0 0 0-.025.782c.032.242.106.457.215.632.11.175.254.306.425.387Zm-5.351 11.472a.97.97 0 0 0 .554.066c.199-.032.405-.117.606-.25.201-.133.394-.311.566-.525.172-.214.321-.46.439-.722.237-.53.331-1.099.26-1.58-.07-.482-.299-.837-.636-.988a.97.97 0 0 0-.554-.065 1.552 1.552 0 0 0-.606.25 2.52 2.52 0 0 0-.565.525c-.173.214-.322.46-.439.722-.237.53-.331 1.099-.261 1.58.071.482.3.837.636.987Z" stroke="#CD8558" stroke-width="1.427"/><path d="M143.463 24.017c-.271-.257-.542-.298-.813-.122a.218.218 0 0 0-.078.09.248.248 0 0 0-.022.121.312.312 0 0 0 .038.127c.023.04.053.076.09.105a10.718 10.718 0 0 1 2.976 3.36c.061.106.148.19.246.238a.345.345 0 0 0 .282.02c.228-.091.273-.296.135-.614-.461-1.075-1.246-2.034-2.354-2.876a13.02 13.02 0 0 1-.5-.45Z" stroke="#7B3065" stroke-width="1.427"/><path d="M169.413 37.916a.365.365 0 0 1-.145-.115.357.357 0 0 1 .074-.499c.861-.632 1.348-1.343 1.462-2.133.134-.875-.235-1.11-1.106-.706l-2.725 1.277a.778.778 0 0 0-.253.192.71.71 0 0 0-.148.27.604.604 0 0 0-.012.292c.02.094.064.18.127.252.942 1.041 2.153 1.87 3.632 2.483a.955.955 0 0 1 .564 1.113c-.362 1.541-.152 1.92.628 1.134 1.227-1.222 1.034-2.188-.578-2.896l-1.52-.664Zm-4.716 2.733a1.423 1.423 0 0 0 .235-1.563c-.642-1.346-1.312-1.63-2.012-.85a39.53 39.53 0 0 1-3.845 3.704c-.5.428-.424.678.228.75 2.131.237 3.929-.443 5.394-2.041Z" stroke="#A86975" stroke-width="1.427"/><path d="M170.564 50.477a.75.75 0 0 0 .509-.073c.176-.086.353-.232.519-.43.166-.197.319-.442.45-.72.131-.28.237-.586.312-.903a4.68 4.68 0 0 0 .128-.946 3.315 3.315 0 0 0-.076-.847 1.655 1.655 0 0 0-.27-.617.747.747 0 0 0-.421-.295.749.749 0 0 0-.508.073 1.644 1.644 0 0 0-.519.43 3.321 3.321 0 0 0-.45.72 4.714 4.714 0 0 0-.313.903 4.68 4.68 0 0 0-.128.947c-.008.307.018.595.077.846s.151.46.269.617a.754.754 0 0 0 .421.295Z" stroke="#C87592" stroke-width="1.427"/><path d="M164.597 50.195a4.25 4.25 0 0 0-7.259-3.007 4.25 4.25 0 0 0 3.006 7.26 4.251 4.251 0 0 0 4.253-4.253Z" stroke="#F09E9A" stroke-width="1.427"/><path d="M144.134 52.179c1.46.19 2.802 1.044 4.024 2.561.138.166.271.283.4.35.313.166.509.13.585-.107a.55.55 0 0 0-.008-.303 1.02 1.02 0 0 0-.171-.332c-2.126-2.835-4.932-3.76-8.419-2.776a.924.924 0 0 0-.428.257c-.414.47-.217.626.592.464a10.348 10.348 0 0 1 3.425-.114Zm6.529 7.666a.439.439 0 0 0-.584-.196l-2.607 1.294a.444.444 0 0 0-.219.251.445.445 0 0 0 .022.332l.019.039a.439.439 0 0 0 .584.196l2.607-1.294a.444.444 0 0 0 .219-.251.437.437 0 0 0-.022-.332l-.019-.039Z" stroke="#CE7C94" stroke-width="1.427"/><path d="M144.526 100.903c.866.671 1.77.726 2.711.164 1.518-.899 2.788-2.268 3.811-4.11a162.835 162.835 0 0 0 5.879-11.73.585.585 0 0 0-.238-.736.58.58 0 0 0-.269-.077c-4.785-.185-9.311-1.567-13.578-4.145a.287.287 0 0 0-.251-.024.29.29 0 0 0-.177.181c-1.66 5.275-1.91 10.59-.749 15.947.404 1.86 1.358 3.37 2.861 4.53Zm19.942-.385c1.485 1.046 2.866 1.032 4.146-.043 1.546-1.303 2.676-2.923 3.389-4.859.538-1.455.968-3.339 1.291-5.65.376-2.721.255-5.45-.363-8.184a.294.294 0 0 0-.407-.2c-4.514 1.993-9.252 2.954-14.213 2.882a.345.345 0 0 0-.281.13.355.355 0 0 0-.072.144.383.383 0 0 0-.004.162 73.54 73.54 0 0 0 3.118 10.78c.828 2.217 1.96 3.83 3.396 4.838Zm-5.607.114a.897.897 0 0 0-.899-.899.898.898 0 1 0 0 1.798.897.897 0 0 0 .899-.899Zm-.852 11.712a.794.794 0 0 0-.051-.64.969.969 0 0 0-.862-.499.93.93 0 0 0-.335.071.78.78 0 0 0-.445.462.794.794 0 0 0 .051.64.936.936 0 0 0 .516.442c.112.04.229.059.346.057a.89.89 0 0 0 .335-.071.824.824 0 0 0 .274-.187.772.772 0 0 0 .171-.275Zm-37.371 15.408a265.258 265.258 0 0 1-12.236 18.145.53.53 0 0 0-.078.151.467.467 0 0 0-.022.158.312.312 0 0 0 .038.136.23.23 0 0 0 .09.09c.214.123.462.012.742-.336 4.286-5.37 8.382-11.511 12.287-18.422a.457.457 0 0 0-.114-.585c-.224-.171-.395-.098-.514.221-.076.205-.14.352-.193.442Z" stroke="#F77E74" stroke-width="1.427"/><path d="M114.238 5.58c-.085.39-.328.645-.727.764-1.351.404-2.693.96-4.024 1.67-.938.499-1.216 1.243-.835 2.232.599 1.58 1.838 1.9 3.717.964a38.3 38.3 0 0 1 4.488-1.884 41.555 41.555 0 0 1 3.239 7.82 112.9 112.9 0 0 1-4.866 2.255c-.918.4-1.524.922-1.819 1.57-.604 1.317-.038 2.168 1.698 2.554.228.05.466.033.685-.05l5.522-2.198c.262 2.745.271 4.826.029 6.243-.257 1.513-1.208 2.593-2.854 3.24-1.908-.262-3.646-1.268-5.216-3.019-6.103-6.792-8.942-14.595-8.519-23.41.033-.732.45-1.733 1.249-3.003 1.341-.657 2.661-.619 3.96.114a11.541 11.541 0 0 1 4.273 4.138Z" fill="#FECE2D"/><path d="M106.005 1.328c-.799 1.27-1.216 2.27-1.249 3.003-.423 8.814 2.417 16.618 8.519 23.41 1.57 1.75 3.309 2.757 5.216 3.018a31.644 31.644 0 0 1-6.422 3.333c-.047-.329-.211-.514-.492-.557-.39-.062-.616-.107-.678-.136-2.269-1.018-4.197-2.68-5.786-4.987-3.763-5.46-6.082-11.287-6.957-17.48-.347-2.47.07-4.976 1.249-7.52a26.318 26.318 0 0 1 6.6-2.084Z" fill="#21A0AA"/><path d="M212.851 3.468c1.123 2.53 1.36 5.375.713 8.534-1.45 7.082-4.528 13.042-9.232 17.88-1.427 1.47-3.047 2.357-4.859 2.661-1.774-.713-2.726-2.09-2.854-4.131-.124-1.974-.031-3.715.278-5.223 1.342-6.53 4.198-12.303 8.569-17.316a12.027 12.027 0 0 1 2.833-2.383c1.508-.909 3.025-.916 4.552-.022Zm-5.911 10.19c.344.163.773.109 1.193-.151.421-.26.798-.705 1.049-1.235.124-.263.213-.539.263-.812a2.53 2.53 0 0 0 .025-.782 1.585 1.585 0 0 0-.215-.632 1.013 1.013 0 0 0-.425-.387c-.344-.162-.773-.107-1.193.153-.421.26-.798.704-1.049 1.234a3.306 3.306 0 0 0-.263.812 2.53 2.53 0 0 0-.025.782c.032.242.106.457.216.632.109.175.254.306.424.387Zm-5.351 11.474a.973.973 0 0 0 .555.065c.199-.032.404-.116.605-.25.201-.132.394-.31.566-.525.172-.214.321-.46.439-.722.237-.53.331-1.098.26-1.58-.07-.482-.299-.837-.636-.987a.97.97 0 0 0-.554-.066 1.553 1.553 0 0 0-.606.25 2.52 2.52 0 0 0-.565.525c-.173.214-.322.46-.439.722-.237.53-.331 1.099-.261 1.58.071.482.3.837.636.988Z" fill="#FECE2D"/><path d="M99.405 3.411c-1.18 2.545-1.596 5.052-1.249 7.52.875 6.194 3.194 12.02 6.957 17.481 1.589 2.307 3.517 3.97 5.786 4.987.062.029.288.074.678.136.281.043.445.228.492.557a2.964 2.964 0 0 1-1.605.413 14.085 14.085 0 0 1-4.131-3.21 37.737 37.737 0 0 1-7.956-14.163c-1.35-4.415-1.602-8.672-.756-12.772a4.442 4.442 0 0 1 1.784-.949Z" fill="#FBFCFE"/><path d="M212.851 3.468a33.404 33.404 0 0 1 6.6 2.262c1.175 3.658 1.227 7.342.157 11.052a40.774 40.774 0 0 1-6.65 13.328c-1.503 1.998-3.218 3.558-5.144 4.68-.752.438-1.698.69-2.84.757a17.96 17.96 0 0 1-5.501-3.004c1.812-.304 3.432-1.191 4.859-2.661 4.704-4.838 7.782-10.798 9.232-17.88.647-3.159.41-6.003-.713-8.534Z" fill="#21A0AA"/><path d="M116.857 9.326a38.227 38.227 0 0 0-4.488 1.884c-1.879.937-3.118.616-3.717-.963-.381-.99-.103-1.734.834-2.234a21.989 21.989 0 0 1 4.025-1.67c.399-.118.642-.373.727-.763l4.46-1.47c.237-.082.472-.084.656-.007 1.969.823 2.338 1.9 1.106 3.233-.347.375-.925.732-1.734 1.07a17.79 17.79 0 0 0-1.869.92Z" fill="#9B3C82"/><path d="M97.621 4.36c-.847 4.1-.595 8.357.756 12.771a37.74 37.74 0 0 0 7.956 14.163 14.085 14.085 0 0 0 4.131 3.211c-5.199 1.655-10.49 2.003-15.875 1.042-3.806-.676-6.976-2.44-9.511-5.294a.665.665 0 0 0-.407-.236l-.25-.028c.21-.343.2-.633-.028-.87-.271-.29-.424-.465-.457-.522l-1.12-2.176c-.809-4.052-.14-7.774 2.005-11.166 3.096-4.885 7.363-8.517 12.8-10.895Z" fill="#21A0AA"/><path d="M219.451 5.73a3.3 3.3 0 0 1 1.634 1.099c.494 2.82.485 5.496-.029 8.027-1.584 7.805-5.344 14.45-11.28 19.935-.728.67-1.725 1.17-2.99 1.498a3.686 3.686 0 0 1-1.812-.742c1.141-.066 2.088-.319 2.84-.756 1.926-1.123 3.641-2.683 5.144-4.68a40.774 40.774 0 0 0 6.65-13.329c1.07-3.71 1.018-7.394-.157-11.052Z" fill="#FBFCFE"/><path d="M221.085 6.829c7.254 3.372 12.001 8.902 14.241 16.588.271.933.271 2.588 0 4.966-.352.938-.801 1.82-1.348 2.648-.02.033-.117.142-.293.328-.181.185-.169.383.036.592-2.845 3.34-6.455 5.334-10.831 5.986-5.513.818-10.881.269-16.104-1.648 1.265-.328 2.262-.828 2.99-1.498 5.936-5.485 9.696-12.13 11.28-19.935.514-2.531.523-5.207.029-8.027Z" fill="#21A0AA"/><path d="M206.588 11.046c-.522 1.105-.364 2.274.352 2.613.716.338 1.719-.283 2.241-1.387.523-1.104.365-2.274-.351-2.612-.716-.339-1.72.282-2.242 1.386Z" fill="#9B3C82"/><path d="m169.299 30.552-3.903 1.163a.547.547 0 0 1-.319 0 .526.526 0 0 1-.259-.178c-.88-1.103-.737-2.119.428-3.046.176-.138.162-.172-.043-.1a19.453 19.453 0 0 0-6.985 4.195c-.185.166-.157.228.086.186.319-.062.635-.138.949-.229.571-.171.996-.219 1.277-.142.504.128.809.463.913 1.005.037.206-.019.444-.157.664l-3.51 5.48c-.633.99-1.227 1.165-1.784.528-.28-.319-.459-.761-.535-1.327-.171-1.29.031-2.538.607-3.746.204-.419.145-.483-.179-.193a.52.52 0 0 0-.114.15 22.176 22.176 0 0 0-2.661 10.396c-.019 1.56-.124 2.72-.314 3.482-.376 1.493-1.213 1.821-2.512.984-3.006-1.945-6.162-3.018-9.468-3.218a20.289 20.289 0 0 0-3.418-5.622c-.009-.014-.894-.847-2.654-2.497-2.882-2.707-3.65-5.858-2.304-9.454.756-2.012 1.907-3.449 3.453-4.31 1.741-.975 3.732-1.172 5.972-.592a.265.265 0 0 0 .318-.17.262.262 0 0 0 .01-.13c-.361-2.083-.036-3.921.978-5.515.927-1.46 2.307-2.516 4.138-3.168 2.987-1.06 5.782-.407 8.384 1.962a.355.355 0 0 0 .499-.021c2.088-2.212 4.433-3.104 7.035-2.676 2.469.41 4.352 1.617 5.651 3.625 1.66 2.559 1.413 5.65-.742 9.275a.724.724 0 0 0-.094.368c0 .135.032.276.094.41l1.163 2.461Zm-25.836-6.535c-.271-.257-.542-.297-.813-.121a.218.218 0 0 0-.078.088.248.248 0 0 0-.022.122.312.312 0 0 0 .038.127c.023.04.054.077.09.105a10.717 10.717 0 0 1 2.976 3.36c.061.106.149.19.246.238a.345.345 0 0 0 .282.02c.228-.091.273-.296.135-.614-.461-1.075-1.246-2.034-2.354-2.876a13.02 13.02 0 0 1-.5-.45Z" fill="#5B2448"/><path d="m121.316 21.277-5.522 2.198a1.188 1.188 0 0 1-.685.05c-1.736-.386-2.302-1.237-1.698-2.555.295-.647.901-1.17 1.819-1.57a112.773 112.773 0 0 0 4.866-2.254 7.494 7.494 0 0 0 2.162-.856c1.77-1.051 3.056-.678 3.86 1.12.4.89.176 1.534-.671 1.933l-4.131 1.934Zm79.898 1.287c-.494 1.104-.326 2.254.376 2.568.701.313 1.67-.328 2.164-1.432.494-1.104.326-2.254-.376-2.567-.701-.314-1.67.327-2.164 1.431Zm-57.251 1.902c1.108.842 1.893 1.8 2.354 2.876.138.318.093.523-.135.613a.345.345 0 0 1-.282-.02.593.593 0 0 1-.246-.237 10.727 10.727 0 0 0-2.975-3.36.334.334 0 0 1-.129-.232.26.26 0 0 1 .022-.122.218.218 0 0 1 .078-.089c.271-.176.542-.135.813.122.3.276.467.425.5.45Z" fill="#9B3C82"/><path d="M73.39 30.552a17.338 17.338 0 0 1-2.168 4.788 73.59 73.59 0 0 0-2.22 2.618c-.266.329-.532.526-.798.593-.538.133-.84-.155-.906-.864-.272-3.001-.093-6.56.535-10.674 1.189-1.341 2.42-1.705 3.695-1.091.776.38 1.316 1.03 1.62 1.948a6.16 6.16 0 0 1 .243 2.682Z" fill="#F4ADA2"/><path d="m82.816 26.421 1.12 2.177c.033.057.186.23.457.52.228.238.238.528.028.87l-5.857 2.527c.052-1.294-.374-1.893-1.278-1.798-.447.047-.96.304-1.54.77a21.639 21.639 0 0 0-3.96 4.06c-.13-.18-.317-.25-.564-.207a17.337 17.337 0 0 0 2.169-4.788l9.425-4.13Z" fill="#65AFEE"/><path d="M67.654 27.014c.057.256.01.425-.142.506-.117.06-.218.129-.293.198a.417.417 0 0 0-.136.195 40.312 40.312 0 0 0-.906 7.812c-.038 2.06-.397 3.518-1.077 4.374-1.313 1.66-2.186 1.456-2.619-.613a26.665 26.665 0 0 1-.385-8.512 1.373 1.373 0 0 0-.021-.471c-.134-.51-.32-.564-.557-.165a1.086 1.086 0 0 0-.128.464 332.656 332.656 0 0 0-.642 8.72c-.043.708-.122 1.262-.236 1.662-.385 1.332-.973 1.586-1.762.763-.347-.361-.621-.873-.82-1.534a21.152 21.152 0 0 1-.864-6.97.487.487 0 0 0-.02-.163.409.409 0 0 0-.072-.138.3.3 0 0 0-.11-.086.239.239 0 0 0-.126-.02c-.186.018-.293.142-.321.37a19.123 19.123 0 0 0 .356 6.779c.38 1.622.188 2.678-.578 3.168-.704.447-1.343.273-1.919-.521l-.92-1.755c-.2-2.293-.19-4.077.028-5.352.271-1.588 1.453-2.682 3.546-3.282a1.47 1.47 0 0 0 .878-.699c.728-1.313 2.09-2 4.088-2.062a.733.733 0 0 0 .657-.45c1.013-2.402 2.713-3.141 5.101-2.218Z" fill="#F4ADA2"/><path d="M67.654 27.014h.178c-.627 4.114-.806 7.672-.535 10.674.067.708.369.996.906.863.267-.067.533-.264.8-.592a72.483 72.483 0 0 1 2.219-2.619c.247-.043.435.026.563.207-3.001 4.224-4.72 7.092-5.158 8.605-.238.818-.495 1.025-.771.62a.546.546 0 0 1-.094-.291.8.8 0 0 1 .066-.343c.49-1.17 1.03-2.314 1.62-3.432.613-1.16.396-1.694-.65-1.599a.476.476 0 0 0-.268.126.604.604 0 0 0-.167.274c-.286.96-.82 1.712-1.606 2.255-.494.342-.965.423-1.413.242-.494-.19-.872-.582-1.134-1.177-.18-.4-.385-.397-.614.007l-1.191 2.112a1.17 1.17 0 0 0-.132.333.566.566 0 0 0 .003.28 22.216 22.216 0 0 1 .992 8.955 1.423 1.423 0 0 1-.207.628c-.404.637-.673.609-.806-.086a2.118 2.118 0 0 1-.007-.677c.3-2.502.15-4.976-.45-7.42-.266-1.071-.92-1.901-1.962-2.49a.285.285 0 0 0-.413.177c-.405 1.518-1.266 2.124-2.583 1.82-.719-.471-.907-1.016-.564-1.634.575.794 1.215.968 1.92.52.765-.49.958-1.545.577-3.167-.523-2.24-.642-4.5-.357-6.778.029-.229.136-.352.322-.371a.24.24 0 0 1 .127.02.3.3 0 0 1 .109.086.407.407 0 0 1 .071.138.487.487 0 0 1 .02.162c-.1 2.379.189 4.702.864 6.971.2.661.473 1.173.82 1.534.79.823 1.378.569 1.763-.763.114-.4.193-.954.235-1.663.176-2.91.39-5.817.642-8.719.015-.185.058-.34.129-.463.238-.4.423-.345.556.164.034.133.04.29.022.47a26.68 26.68 0 0 0 .385 8.513c.433 2.069 1.306 2.273 2.619.613.68-.856 1.04-2.314 1.077-4.373.048-2.636.35-5.24.906-7.813a.417.417 0 0 1 .135-.195c.076-.069.177-.137.293-.198.153-.08.2-.25.143-.506Z" fill="#A74B86"/><path d="M169.299 30.552c2.293 4.9 5.587 8.905 9.882 12.016 2.63 1.902 4.119 3.103 4.466 3.603 1.228 1.77 1.375 3.862.443 6.279-.571 1.474-1.606 2.81-3.104 4.01a28.022 28.022 0 0 1-11.33 5.486c-4.238.428-8.118-.071-11.637-1.498-.723-.29-.869-.112-.436.535 1.613 2.416 3.863 3.867 6.75 4.352 3.016.505 5.028.742 6.036.714a651.254 651.254 0 0 1 2.883 14.805c.038.195.216.264.535.207 1.289 5.598.789 11.023-1.498 16.275-.976 2.25-2.365 3.727-4.167 4.431-1.637.642-3.102.411-4.395-.692-1.194-1.028-2.077-2.105-2.648-3.233-1.522-2.996-2.659-6.326-3.41-9.989-.048-.233-.095-.235-.143-.007-1.446 6.921-2.566 14.936-3.36 24.045-.376 4.295 1.355 6.904 5.194 7.827.214.053.385.143.514.271.452.452.366.685-.257.7a2.76 2.76 0 0 1-.635-.086c-4.243-1.08-6.205-3.924-5.887-8.533.528-7.611 1.515-14.7 2.961-21.27.048-.219.079-.428.093-.628.124-1.888-.097-2.024-.663-.406-1.432 4.1-3.606 7.708-6.522 10.823-1.003 1.066-2.007 1.606-3.011 1.62-1.332.014-2.461-.621-3.389-1.905a11.065 11.065 0 0 1-1.826-3.953c-.21-.865-.407-2.278-.593-4.238-.347-3.648.06-7.387 1.221-11.216.19-.628.532-.99 1.027-1.085l3.432-17.737a.685.685 0 0 0-.14-.555.707.707 0 0 0-.517-.266c-2.673-.128-4.877-.913-6.614-2.354-1.826-1.513-2.789-3.442-2.889-5.787-.138-3.077 1.579-5.246 5.151-6.507 3.306.2 6.462 1.273 9.468 3.218 1.299.837 2.136.509 2.512-.985.19-.76.295-1.921.314-3.481a22.175 22.175 0 0 1 2.661-10.396.518.518 0 0 1 .114-.15c.324-.29.383-.226.179.193-.576 1.208-.778 2.456-.607 3.745.076.566.255 1.009.535 1.328.557.637 1.151.461 1.784-.528l3.51-5.48c.138-.22.194-.458.157-.664-.104-.542-.409-.877-.913-1.006-.281-.076-.706-.028-1.277.143-.314.09-.63.166-.949.228-.243.043-.271-.019-.086-.185a19.451 19.451 0 0 1 6.985-4.195c.205-.072.219-.039.043.1-1.165.927-1.308 1.942-.428 3.046a.526.526 0 0 0 .259.178.548.548 0 0 0 .319 0l3.903-1.163Zm.114 7.364a.366.366 0 0 1-.145-.115.358.358 0 0 1 .074-.499c.861-.633 1.348-1.344 1.462-2.133.134-.875-.235-1.111-1.105-.707l-2.726 1.277a.78.78 0 0 0-.253.192.71.71 0 0 0-.148.27.604.604 0 0 0-.012.293.56.56 0 0 0 .128.252c.941 1.041 2.152 1.869 3.631 2.482a.951.951 0 0 1 .487.451.966.966 0 0 1 .077.663c-.362 1.54-.152 1.919.628 1.134 1.227-1.222 1.034-2.188-.578-2.897l-1.52-.663Zm-4.716 2.732a1.423 1.423 0 0 0 .235-1.562c-.642-1.346-1.312-1.63-2.012-.85a39.54 39.54 0 0 1-3.845 3.704c-.5.428-.424.678.228.749 2.131.238 3.929-.442 5.394-2.04Zm5.867 9.829a.75.75 0 0 0 .509-.073c.176-.086.353-.232.519-.43.166-.197.319-.442.45-.72.131-.28.237-.586.312-.903a4.68 4.68 0 0 0 .128-.946 3.314 3.314 0 0 0-.076-.847 1.655 1.655 0 0 0-.27-.617.747.747 0 0 0-.421-.295.749.749 0 0 0-.508.073 1.644 1.644 0 0 0-.519.43 3.321 3.321 0 0 0-.45.72 4.753 4.753 0 0 0-.441 1.849c-.008.308.018.596.077.847s.151.46.269.617a.754.754 0 0 0 .421.295Zm-5.967-.282a4.25 4.25 0 0 0-4.252-4.252 4.251 4.251 0 1 0 4.252 4.252Zm-20.463 1.983c1.46.19 2.802 1.045 4.024 2.562.138.166.271.283.4.35.314.166.509.13.585-.108a.55.55 0 0 0-.008-.302 1.02 1.02 0 0 0-.171-.333c-2.126-2.834-4.932-3.76-8.419-2.775a.924.924 0 0 0-.428.257c-.414.47-.217.625.592.464a10.348 10.348 0 0 1 3.425-.114Zm6.529 7.667a.439.439 0 0 0-.584-.196l-2.607 1.294a.444.444 0 0 0-.219.251.438.438 0 0 0 .022.332l.019.039a.438.438 0 0 0 .584.196l2.607-1.294a.44.44 0 0 0 .197-.583l-.019-.04Zm-6.137 41.058c.866.671 1.77.726 2.712.164 1.517-.899 2.787-2.268 3.81-4.11a162.403 162.403 0 0 0 5.879-11.73.579.579 0 0 0-.507-.813c-4.785-.185-9.311-1.567-13.578-4.145a.288.288 0 0 0-.251-.024.297.297 0 0 0-.177.18c-1.66 5.276-1.909 10.592-.749 15.948.404 1.86 1.358 3.37 2.861 4.53Zm19.943-.385c1.484 1.046 2.865 1.032 4.145-.043 1.546-1.303 2.676-2.923 3.389-4.859.538-1.455.968-3.339 1.292-5.65a22.75 22.75 0 0 0-.364-8.184.295.295 0 0 0-.281-.227.29.29 0 0 0-.126.027c-4.514 1.993-9.252 2.954-14.213 2.882a.35.35 0 0 0-.281.13.367.367 0 0 0-.076.306 73.541 73.541 0 0 0 3.118 10.78c.828 2.217 1.96 3.83 3.397 4.838Z" fill="#F4ADA2"/><path d="m235.326 28.383 11.566 5.023c.3 1.632.854 3.178 1.662 4.638.019.276-.109.404-.385.385-1.441-1.684-2.69-2.942-3.746-3.774-1.684-1.322-2.585-.966-2.704 1.07l-7.998-3.774c-.205-.21-.217-.407-.036-.592.176-.186.274-.295.293-.329.547-.827.996-1.71 1.348-2.647Z" fill="#65AFEE"/><path d="M252.479 30.552c.399 3.392.518 6.788.356 10.189-.023.423-.123.742-.299.956-.371.442-.795.343-1.27-.3a50.962 50.962 0 0 0-2.712-3.353 15.195 15.195 0 0 1-1.662-4.638c-.09-1.294.216-2.395.92-3.303.6-.785 1.349-1.144 2.248-1.078.965.072 1.772.58 2.419 1.527Zm5.857 2.883a12.118 12.118 0 0 0-.178 3.182 18.592 18.592 0 0 1-.421 5.701c-.181.761-.416 1.36-.706 1.798-.785 1.18-1.599.94-2.441-.72-.656-1.3-.896-3.32-.72-6.065a18.175 18.175 0 0 0-.885-6.928c1.946-.795 3.387-.343 4.324 1.355.533.956.875 1.515 1.027 1.677Z" fill="#F4ADA2"/><path d="M252.985 30.403a18.175 18.175 0 0 1 .885 6.928c-.176 2.744.064 4.766.721 6.065.842 1.66 1.655 1.9 2.44.72.29-.437.525-1.037.706-1.798.433-1.86.573-3.76.421-5.7a12.076 12.076 0 0 1 .179-3.183.57.57 0 0 1 .356 0c.343 5.984.64 9.78.892 11.388.209 1.313.697 1.633 1.463.963.285-.248.516-.609.692-1.085a22.12 22.12 0 0 0 1.441-7.905.52.52 0 0 1 .507-.15 30.412 30.412 0 0 1-.364 7.806c-.133.756-.143 1.362-.029 1.819.338 1.36 1.113 1.472 2.326.335l.771.892-.057.179c-.314-.267-.573-.288-.778-.065a28.8 28.8 0 0 1-.307.343c-.961.7-1.924.276-2.889-1.27-.466-.752-.892-.728-1.277.071-1.504 3.135-2.089 6.279-1.756 9.433.024.228.024.411 0 .55-.081.441-.268.541-.563.299-.156-.133-.263-.352-.3-.614-.381-2.83-.171-5.316.628-7.456.495-1.313.447-2.433-.143-3.36a1.299 1.299 0 0 1-.221-.657c-.048-1.027-.295-1.256-.742-.685-.276.352-.447.559-.514.62-1.455 1.39-2.635 1.062-3.539-.984-.718-1.627-1.234-1.748-1.548-.364a.892.892 0 0 0 .114.657c.918 1.546 1.363 2.661 1.334 3.346-.052 1.151-.29 1.346-.713.585a3.22 3.22 0 0 1-.221-.563c-.681-2.184-1.767-4.3-3.261-6.35-.504-.7-.994-1.627-1.47-2.783.276.019.405-.11.385-.386a50.663 50.663 0 0 1 2.712 3.354c.475.642.899.742 1.27.3.176-.215.276-.533.299-.957a61.863 61.863 0 0 0-.356-10.188l.506-.15Z" fill="#A74B86"/><path d="M78.564 32.515a153.28 153.28 0 0 0-5.737 28.896c-.333 3.316-.713 9.442-1.141 18.38a384.515 384.515 0 0 1-1.684 21.933 142.662 142.662 0 0 0-2.012 8.419c-.11.533.011.666.363.4a.683.683 0 0 0 .222-.307 44.437 44.437 0 0 0 1.933-6.764 2.81 2.81 0 0 0-.207-1.748l1.813-1.812c.409.128.715.376.92.742 4.852 9.513 8.588 19.026 11.209 28.54.98 3.563 1.703 7.665 2.17 12.308a24.741 24.741 0 0 1-6.094 1.455c-5.932.999-11.566 1.035-16.903.107-6.06-1.056-11.463-3.517-16.21-7.385-2.65-2.159-4.712-4.644-6.187-7.456-1.522-2.915-2.559-6.043-3.11-9.382a87.6 87.6 0 0 1 .556-31.765 167.56 167.56 0 0 1 13.164-39.4l3.21-3.21c1.318.304 2.18-.302 2.584-1.82a.286.286 0 0 1 .413-.178c1.042.59 1.696 1.42 1.963 2.49a20.64 20.64 0 0 1 .45 7.42 2.12 2.12 0 0 0 .006.678c.133.695.402.723.806.086a1.4 1.4 0 0 0 .207-.628 22.228 22.228 0 0 0-.991-8.954.565.565 0 0 1-.003-.28c.022-.107.067-.221.131-.334l1.192-2.112c.228-.404.432-.407.613-.007.262.595.64.987 1.135 1.177.447.181.918.1 1.412-.242.785-.543 1.32-1.294 1.606-2.255a.604.604 0 0 1 .167-.274.477.477 0 0 1 .268-.125c1.046-.096 1.263.437.65 1.598a42.663 42.663 0 0 0-1.62 3.432.8.8 0 0 0-.066.343.546.546 0 0 0 .094.292c.276.404.533.197.77-.621.438-1.513 2.158-4.38 5.16-8.605a21.632 21.632 0 0 1 3.96-4.06c.58-.466 1.093-.723 1.54-.77.904-.095 1.33.504 1.278 1.798Zm180.129.92c2.317-.014 3.813 1.106 4.488 3.36 0 2.736-.48 5.371-1.441 7.906-.176.476-.407.837-.692 1.085-.766.67-1.254.35-1.463-.963-.252-1.608-.549-5.404-.892-11.388Z" fill="#F4ADA2"/><path d="M248.169 38.43c.476 1.155.966 2.083 1.47 2.782 1.493 2.05 2.58 4.167 3.261 6.35.071.233.145.421.221.564.423.761.661.566.713-.585.029-.685-.416-1.8-1.334-3.346a.892.892 0 0 1-.114-.657c.314-1.384.83-1.263 1.548.364.904 2.045 2.084 2.374 3.539.985.067-.062.238-.27.514-.621.447-.57.694-.343.742.685.009.223.083.442.221.656.59.928.637 2.048.143 3.36-.799 2.141-1.009 4.627-.628 7.457.037.261.144.481.3.614.294.242.482.142.563-.3a2.073 2.073 0 0 0 0-.55c-.333-3.153.252-6.297 1.755-9.432.386-.8.811-.823 1.278-.071.965 1.545 1.928 1.969 2.889 1.27l.307-.343c.205-.223.464-.202.778.064a165.598 165.598 0 0 1 11.608 33.685c1.266 5.541 2.136 10.217 2.612 14.027 1.227 9.851.73 19.681-1.491 29.489-1.551 6.859-5.085 12.089-10.603 15.69-3.572 2.326-7.839 3.886-12.8 4.68-5.894.942-12.315.516-19.265-1.277l-4.816-1.784c-.999-15.302 1.974-29.731 8.919-43.288a1.16 1.16 0 0 0 .385-.92l6.928 6.628-.214.721c-.09.314-.128.538-.114.671.209 2.497.711 4.93 1.506 7.299.078.236.219.429.399.549.6.409.795.171.585-.713l-2.012-8.555c-.423-5.956-.651-11.069-.685-15.34-.095-12.458-.69-24.29-1.784-35.497-.28-2.897-1.538-8.902-3.774-18.016.119-2.035 1.02-2.392 2.704-1.07 1.056.832 2.305 2.09 3.746 3.774Z" fill="#F4ADA2"/><path d="m169.413 37.916 1.52.664c1.612.708 1.805 1.674.578 2.896-.78.785-.99.407-.628-1.134a.955.955 0 0 0-.564-1.113c-1.479-.614-2.69-1.441-3.632-2.483a.552.552 0 0 1-.127-.252.604.604 0 0 1 .012-.292.71.71 0 0 1 .148-.27.778.778 0 0 1 .253-.192l2.725-1.277c.871-.405 1.24-.17 1.106.706-.114.79-.601 1.5-1.462 2.133a.354.354 0 0 0-.142.328.368.368 0 0 0 .068.171.37.37 0 0 0 .145.115Z" fill="#5B2448"/><path d="M263.688 36.646c1.165-.08 1.983.34 2.454 1.263.747 1.474.949 3.184.607 5.13l-1.128 3.567c-1.213 1.137-1.988 1.026-2.326-.335-.114-.457-.104-1.063.029-1.82.457-2.582.578-5.184.364-7.805Z" fill="#F4ADA2"/><path d="M164.697 40.649c-1.465 1.598-3.263 2.278-5.394 2.04-.652-.071-.728-.32-.228-.749a39.53 39.53 0 0 0 3.845-3.703c.7-.78 1.37-.497 2.012.849a1.423 1.423 0 0 1-.235 1.563Z" fill="#5B2448"/><path d="m53.356 41.077.92 1.755c-.342.618-.154 1.163.564 1.634l-3.21 3.21c-3.587 3.04-6.748 6.845-9.483 11.416-6.584 11.007-9.97 22.766-10.16 35.276-.015 1.056-.255 1.845-.721 2.369-.932 1.041-1.922.825-2.968-.65-.13-.18-.2-.41-.2-.656-.01-13.542 3.47-26.204 10.438-37.987 3.9-6.597 8.84-12.053 14.82-16.367Zm213.393 1.962c10.108 6.036 17.114 14.538 21.019 25.507 3.221 9.042 4.369 18.475 3.447 28.297 0 .038-.017.44-.05 1.206-.058 1.513-.769 2.205-2.134 2.077-1.393-.134-2.014-.897-1.862-2.29.713-6.484.549-12.749-.492-18.794-2.165-12.591-8.291-22.74-18.38-30.445a8.378 8.378 0 0 0-1.905-1.1l-.771-.89 1.128-3.568Z" fill="#65AFEE"/><path d="M169.925 47.772c-.318 1.334-.031 2.545.639 2.705.671.16 1.473-.792 1.791-2.126.317-1.334.031-2.545-.64-2.705-.671-.16-1.472.792-1.79 2.126Z" fill="#9B3C82"/><path d="M160.345 54.448a4.252 4.252 0 1 0 0-8.505 4.252 4.252 0 0 0 0 8.505Z" fill="#EC8E91"/><path d="M144.134 52.179a10.348 10.348 0 0 0-3.425.114c-.809.162-1.006.007-.592-.464a.924.924 0 0 1 .428-.257c3.487-.985 6.293-.06 8.419 2.776.081.107.14.221.171.332a.55.55 0 0 1 .008.303c-.076.238-.272.273-.585.107a1.358 1.358 0 0 1-.4-.35c-1.222-1.517-2.564-2.371-4.024-2.561Zm5.945 7.47-2.607 1.294a.435.435 0 0 0-.196.584l.019.038a.435.435 0 0 0 .583.196l2.607-1.294a.435.435 0 0 0 .197-.584l-.019-.038a.436.436 0 0 0-.584-.196Z" fill="#A74B86"/><path d="m169.656 61.947.713 4.102c-1.008.029-3.02-.21-6.036-.713-2.887-.486-5.137-1.936-6.75-4.353-.432-.646-.287-.825.436-.535 3.52 1.427 7.399 1.927 11.637 1.499Z" fill="#5B2448"/><path d="M240.884 97.978a1.16 1.16 0 0 1-.385.92 13.27 13.27 0 0 0-3.168 3.582c-6.878 11.307-11.164 23.541-12.857 36.703-.366 3.553-.362 6.749.014 9.589.152 1.137.576 2.397 1.27 3.782.062.123.212.299.45.528.29.285.347.646.171 1.084a77.687 77.687 0 0 1-16.774-10.431c-.186-.148-.253-.11-.2.114l2.939 12.636c.214 1.86.681 3.653 1.399 5.38l1.962 10.467c-2.24.518-4.99.989-8.248 1.412-10.279 1.323-20.316 2.167-30.11 2.533-4.304.162-9.061.279-14.27.35a372.23 372.23 0 0 1-56.716-3.553c-.176-.024-.363-.143-.563-.357l1.07-11.238.714-5.351.756-8.847c.057-.666-.145-.761-.607-.286a51.498 51.498 0 0 1-9.396 7.735c-.286-.162-.386-.386-.3-.671a4.8 4.8 0 0 0 .157-.528c.21-1.898.078-3.946-.393-6.143-.746-3.511-1.698-6.612-2.854-9.304-5.141-12.962-11.993-25.127-20.555-36.496-.395-.518-.847-.83-1.356-.934a1.542 1.542 0 0 0-.92-.742c7.824-8.372 16.638-15.245 26.442-20.62 3.724-2.041 7.798-3.708 12.222-5.002 10.517-3.087 20.27-1.713 29.261 4.124.038.024.354.29.948.8a2.53 2.53 0 0 0 1.406.598c-.495.096-.837.457-1.027 1.085-1.161 3.829-1.568 7.568-1.22 11.216.185 1.96.382 3.373.592 4.238a11.064 11.064 0 0 0 1.826 3.953c.928 1.284 2.058 1.919 3.389 1.905 1.004-.014 2.008-.554 3.011-1.62 2.916-3.115 5.09-6.723 6.522-10.823.566-1.618.787-1.482.663.406-.014.2-.045.41-.092.628-1.446 6.57-2.433 13.659-2.961 21.27-.319 4.609 1.643 7.453 5.886 8.533.238.057.449.086.635.086.623-.015.709-.248.257-.7a1.079 1.079 0 0 0-.514-.271c-3.839-.922-5.57-3.531-5.194-7.827.794-9.109 1.914-17.124 3.36-24.045.048-.228.095-.225.143.007.752 3.663 1.888 6.993 3.411 9.99.57 1.127 1.453 2.204 2.647 3.232 1.293 1.103 2.759 1.334 4.395.692 1.803-.704 3.192-2.181 4.167-4.431 2.288-5.251 2.787-10.676 1.498-16.275 9.014-8.167 19.4-10.289 31.158-6.364a69.668 69.668 0 0 1 14.898 7.02 132.992 132.992 0 0 1 21.041 16.261Zm-82.023 2.654a.898.898 0 0 0-.899-.899.898.898 0 1 0 0 1.798.898.898 0 0 0 .899-.899Zm-.852 11.712a.794.794 0 0 0-.051-.64.969.969 0 0 0-.862-.499.93.93 0 0 0-.335.071.78.78 0 0 0-.445.462.794.794 0 0 0 .051.64.936.936 0 0 0 .516.442c.112.04.229.059.346.057a.89.89 0 0 0 .335-.071.78.78 0 0 0 .445-.462Zm-37.37 15.408a265.271 265.271 0 0 1-12.237 18.145.556.556 0 0 0-.078.151.467.467 0 0 0-.022.158.312.312 0 0 0 .038.136c.022.039.053.07.091.09.214.123.461.012.742-.336 4.285-5.37 8.381-11.511 12.286-18.422a.458.458 0 0 0-.114-.585c-.224-.171-.395-.098-.514.221-.076.205-.14.352-.192.442Z" fill="#F16D22"/><path d="M144.526 100.903c-1.503-1.16-2.456-2.67-2.861-4.53-1.16-5.356-.911-10.672.749-15.947a.3.3 0 0 1 .177-.181.291.291 0 0 1 .252.024c4.266 2.578 8.792 3.96 13.577 4.145a.58.58 0 0 1 .507.814 162.423 162.423 0 0 1-5.879 11.73c-1.023 1.84-2.293 3.21-3.81 4.109-.942.562-1.846.507-2.712-.164Zm19.943-.385c-1.437-1.008-2.569-2.621-3.397-4.838a73.663 73.663 0 0 1-3.118-10.78.368.368 0 0 1 .202-.403.35.35 0 0 1 .155-.033c4.961.072 9.699-.89 14.213-2.882a.297.297 0 0 1 .251.003.292.292 0 0 1 .156.197c.618 2.735.739 5.463.364 8.183-.324 2.312-.754 4.196-1.292 5.651-.713 1.936-1.843 3.556-3.389 4.859-1.279 1.075-2.661 1.089-4.145.043Z" fill="#F16D22"/><path d="M240.499 98.898c-6.945 13.557-9.918 27.986-8.919 43.288-.295.176-.637.172-1.027-.014a610.571 610.571 0 0 1-6.079-2.989c1.693-13.162 5.979-25.396 12.857-36.703a13.27 13.27 0 0 1 3.168-3.582Z" fill="#9B3C59"/><path d="M157.962 101.531a.899.899 0 1 0 0-1.798.899.899 0 0 0 0 1.798Z" fill="#F4ADA2"/><path d="M73.034 100.654c.509.104.96.416 1.356.934 8.562 11.369 15.413 23.534 20.555 36.496a23.527 23.527 0 0 1-8.533 3.418c-.466-4.643-1.19-8.746-2.169-12.308-2.62-9.514-6.357-19.027-11.21-28.54Z" fill="#9B3C59"/><path d="M70.002 101.724h.3c.256.566.325 1.149.206 1.748a44.426 44.426 0 0 1-1.933 6.764.685.685 0 0 1-.222.307c-.352.266-.473.133-.363-.4a142.662 142.662 0 0 1 2.012-8.419Zm177.81 2.883.15-.029 2.012 8.555c.21.885.014 1.123-.585.713a1.042 1.042 0 0 1-.399-.549 30.981 30.981 0 0 1-1.506-7.299c-.014-.133.024-.357.114-.671l.214-.72Z" fill="#A74B86"/><path d="M156.883 112.82c.468.168.972-.045 1.126-.476.154-.43-.1-.915-.568-1.082-.467-.167-.971.046-1.125.476-.154.431.1.915.567 1.082Zm-36.052 14.49c.119-.319.29-.392.514-.221a.455.455 0 0 1 .114.585c-3.905 6.911-8.001 13.052-12.286 18.422-.281.348-.528.459-.742.336a.225.225 0 0 1-.091-.09.299.299 0 0 1-.037-.136.442.442 0 0 1 .021-.158.556.556 0 0 1 .078-.151 265.271 265.271 0 0 0 12.237-18.145c.052-.09.116-.237.192-.442Z" fill="#F4ADA2"/><path d="M94.946 138.084c1.155 2.692 2.107 5.794 2.853 9.304.471 2.198.602 4.245.393 6.143a4.8 4.8 0 0 1-.157.528c-.086.286.014.509.3.671-1.841.728-3.696.725-5.566-.007-3.063-1.194-5.593-2.999-7.591-5.416-1.251-1.512-2.87-3.629-4.86-6.35a24.741 24.741 0 0 0 6.094-1.455 23.527 23.527 0 0 0 8.534-3.418Zm129.528 1.099a589.457 589.457 0 0 0 6.079 2.989c.39.186.732.19 1.027.014l4.816 1.784c-.28.229-.475.531-.585.906-1.127 3.986-2.968 7.069-5.522 9.247-1.089.928-2.393.942-3.91.043.176-.438.119-.799-.171-1.084-.238-.229-.388-.405-.45-.528-.694-1.385-1.118-2.645-1.27-3.782-.376-2.84-.38-6.036-.014-9.589Z" fill="#5B2448"/><path d="m107.581 156.128-.713 5.351c-5.404.937-10.374 2.26-14.912 3.967-1.232.466-2.495 1.235-3.789 2.305-3.087-1.808-3.196-3.706-.328-5.694a16.08 16.08 0 0 1 4.188-2.098 76.618 76.618 0 0 1 13.4-3.16c.585-.086 1.303-.31 2.154-.671Zm104.763.357a185.12 185.12 0 0 1 11.388 2.483 25.462 25.462 0 0 1 6.778 2.775c1.26.747 2.031 1.565 2.312 2.455.451 1.432-.26 2.616-2.134 3.553-1.251-1.032-2.514-1.8-3.788-2.305-4.077-1.607-8.462-2.801-13.157-3.581a19.823 19.823 0 0 1-1.399-5.38Z" fill="#21A0AA"/><path d="m106.868 161.479-1.07 11.238a53.125 53.125 0 0 1-17.63-4.966c1.293-1.07 2.556-1.838 3.788-2.304 4.538-1.708 9.508-3.03 14.912-3.968Zm106.875.386c4.695.78 9.08 1.974 13.157 3.581 1.275.505 2.537 1.273 3.788 2.305a48.039 48.039 0 0 1-14.983 4.581l-1.962-10.467Z" fill="#5B2448"/></g><defs><clipPath id="a"><path fill="#fff" transform="translate(27.63 .716)" d="M0 0h264.74v176H0z"/></clipPath></defs></svg>