<svg width="40" height="41" fill="none" xmlns="http://www.w3.org/2000/svg"><rect x=".5" y="1.216" width="39" height="39" rx="19.5" stroke="#000"/><path d="M16.827 20.716a.577.577 0 1 0 0-1.154.577.577 0 0 0 0 1.154Zm3.75 0a.577.577 0 1 0 0-1.154.577.577 0 0 0 0 1.154Zm3.75 0a.577.577 0 1 0 0-1.154.577.577 0 0 0 0 1.154Z" stroke="#20304A" stroke-linecap="round" stroke-linejoin="round"/><path d="M17.115 27.062 12.5 28.216l1.154-3.462V14.37a1.154 1.154 0 0 1 1.154-1.154h11.538A1.154 1.154 0 0 1 27.5 14.37v11.538a1.154 1.154 0 0 1-1.154 1.154h-9.23Z" stroke="#20304A" stroke-linecap="round" stroke-linejoin="round"/></svg>