<svg width="40" height="41" fill="none" xmlns="http://www.w3.org/2000/svg"><rect x=".5" y="1.216" width="39" height="39" rx="19.5" stroke="#20304A"/><path fill-rule="evenodd" clip-rule="evenodd" d="M16.786 13.216c.296 0 .535.24.535.536v1.071h2.143v-1.072a.536.536 0 0 1 1.072 0v1.072h2.143v-1.072a.536.536 0 0 1 1.071 0v1.072h2.143c.887 0 1.607.72 1.607 1.607v10.18c0 .887-.72 1.607-1.607 1.607H14.107c-.887 0-1.607-.72-1.607-1.607V16.43c0-.887.72-1.607 1.607-1.607h2.143v-1.072c0-.295.24-.535.536-.535Zm-.536 2.678h-2.143a.536.536 0 0 0-.536.536v10.18c0 .295.24.535.536.535h11.786c.296 0 .536-.24.536-.535V16.43a.536.536 0 0 0-.536-.536H23.75v1.072a.536.536 0 1 1-1.071 0v-1.072h-2.143v1.072a.536.536 0 1 1-1.072 0v-1.072h-2.143v1.072a.536.536 0 1 1-1.071 0v-1.072Zm-.536 4.822c0-.296.24-.536.536-.536h7.5a.536.536 0 0 1 0 1.072h-7.5a.536.536 0 0 1-.536-.536Zm0 3.214c0-.296.24-.536.536-.536h4.286a.536.536 0 1 1 0 1.072H16.25a.536.536 0 0 1-.536-.536Z" fill="#20304A"/></svg>