<svg width="40" height="41" fill="none" xmlns="http://www.w3.org/2000/svg"><rect x=".5" y="1.216" width="39" height="39" rx="19.5" stroke="#000"/><path d="M22.026 27.633a3.681 3.681 0 0 0 4.616-.508l.52-.508a1.246 1.246 0 0 0 0-1.742l-2.205-2.181a1.235 1.235 0 0 0-1.73 0 1.246 1.246 0 0 1-1.743 0l-3.462-3.462a1.224 1.224 0 0 1 0-1.742 1.234 1.234 0 0 0 0-1.731l-2.193-2.193a1.247 1.247 0 0 0-1.742 0l-.508.52a3.68 3.68 0 0 0-.508 4.615 33.396 33.396 0 0 0 8.955 8.932Z" stroke="#20304A" stroke-linecap="round" stroke-linejoin="round"/></svg>