<svg width="40" height="40" fill="none" xmlns="http://www.w3.org/2000/svg"><g clip-path="url(#a)"><mask id="b" style="mask-type:alpha" maskUnits="userSpaceOnUse" x="0" y="0" width="40" height="40"><path d="M36.19 0H3.81C1.706 0 0 2.388 0 5.333v29.334C0 37.612 1.706 40 3.81 40h32.38c2.104 0 3.81-2.388 3.81-5.333V5.333C40 2.388 38.294 0 36.19 0Z" fill="#fff"/></mask><g mask="url(#b)"><path d="M36.19 0H3.81C1.706 0 0 2.388 0 5.333v29.334C0 37.612 1.706 40 3.81 40h32.38c2.104 0 3.81-2.388 3.81-5.333V5.333C40 2.388 38.294 0 36.19 0Z" fill="#0034A9"/><path fill-rule="evenodd" clip-rule="evenodd" d="M0 26.666h40V40H0V26.666Z" fill="#D7280F"/><path fill-rule="evenodd" clip-rule="evenodd" d="M0 0h40v13.333H0V0Z" fill="#fff"/></g></g><rect x=".5" y=".5" width="39" height="39" rx="19.5" stroke="#EFF1F4"/><defs><clipPath id="a"><rect width="40" height="40" rx="20" fill="#fff"/></clipPath></defs></svg>