<svg width="415" height="343" fill="none" xmlns="http://www.w3.org/2000/svg"><path d="M187.455 51.76c3.289 2.45 5.266 5.684 5.931 9.7.03.197.014.39-.047.55-.061.157-.161.27-.285.318-.271.098-.481-.13-.628-.684-.666-2.439-2.655-5.401-5.968-8.887" stroke="#7B3065" stroke-width="3.695"/><path d="M174.06 88.398a20.24 20.24 0 0 0 6.485-.905c2.538-.8 3.061-2.008 1.571-3.622-.05-.049-.573-.301-1.571-.757l-1.09-.499c-1.182-.542-1.096-.77.259-.684l12.822.813c2.439.16 2.47.629.093 1.404-2.291.752-3.32 1.67-3.086 2.754.136.64.856 1.324 2.162 2.05a98.37 98.37 0 0 1 6.725 4.14c1.392.948 2.556 1.502 3.493 1.662 2.759.48 3.282-1.3 1.57-5.34-.788-1.86-.45-2.094 1.016-.702 4.533 4.311 8.087 9.263 10.661 14.855 1.959 4.262 4.459 4.613 7.502 1.053a61.274 61.274 0 0 1 11.972-10.753m-39.336 48.889a54.63 54.63 0 0 0 15.132-7.446c1.096-.752 1.601-.468 1.515.85-.653 10.112-5.918 16.031-15.797 17.755" stroke="#A76875" stroke-width="3.695"/><path d="M193.922 164.927c-1.244.752-1.774 1.86-1.589 3.326.099.739.093 1.343-.018 1.811-2.045 8.844-2.279 17.01-.702 24.499.628 2.981 2.248 4.934 4.859 5.857 2.045.715 4.28.481 6.707-.702 5.506-2.71 9.146-7.212 10.919-13.506.912-3.252 1.552-3.455 1.922-.61.049.407.018.838-.092 1.294a36.37 36.37 0 0 0-1.146 10.439" stroke="#F67E74" stroke-width="3.695"/><path d="m214.782 197.335 3.233-3.695" stroke="#8AA6A6" stroke-width="3.695"/><path d="M218.015 193.64c-.677-3.264-.449-6.824.684-10.68.271-.948.493-.93.665.056l1.349 7.926" stroke="#F67E74" stroke-width="3.695"/><path d="m220.713 190.943 1.922-1.922" stroke="#8AA6A6" stroke-width="3.695"/><path d="M222.634 189.021a50.373 50.373 0 0 1-2.697-14.652.905.905 0 0 1 .887-.942c10.568-.148 19.665-3.782 27.289-10.901.444-.419.672-.327.684.277a76.892 76.892 0 0 1-3.714 24.481c-1.17 3.634-3.325 7.101-6.466 10.403-3.191 3.338-6.72 3.836-10.587 1.496" stroke="#F67E74" stroke-width="3.695"/><path d="M228.03 199.183a3.448 3.448 0 0 0-1.312 1.774" stroke="#8AA6A6" stroke-width="3.695"/><path d="M226.718 200.957c5.124 2.328 9.552 1.545 13.284-2.347 3.388-3.547 5.82-7.951 7.298-13.211a88.972 88.972 0 0 0 3.363-24.555" stroke="#F67E74" stroke-width="3.695"/><path d="M232.649 124.815c-2.193.628-4.213.468-6.061-.48-.825-.407-.788-.622.111-.647l6.024-.185" stroke="#CB7C96" stroke-width="3.695"/><path d="m222.634 189.021 4.546-4.231" stroke="#8D7878" stroke-width="3.695"/><path d="m227.18 184.79 4.009-4.527c.297-.329.729-.523 1.218-.547.488-.023 1 .125 1.443.418 6.146 4.027 6.54 7.889 1.182 11.584" stroke="#AA3A47" stroke-width="3.695"/><path d="m235.032 191.718-7.002 7.465" stroke="#8D7878" stroke-width="3.695"/><path d="m205.47 207.885 15.705-1.385" stroke="#8AA6A6" stroke-width="3.695"/><path d="M91.84 249.143c18.599 10.002 34.421 23.718 47.466 41.147.874 1.17 1.219 2.34 1.034 3.511" stroke="#CA4664" stroke-width="3.695"/><path d="M308.476 331.677c0-.69-.289-1.133-.868-1.33a9.152 9.152 0 0 1-.776-.296c-15.89-8.708-29.637-20.022-41.24-33.941a338.112 338.112 0 0 1-23.742-32.149c-1.38-2.106-3.498-4.169-6.356-6.19" stroke="#F67E74" stroke-width="3.695"/><path d="M235.494 257.771h-2.309" stroke="#CE4D68" stroke-width="3.695"/><path d="M233.185 257.772c-9.928.406-18.514-.838-25.757-3.733-4.04-1.626-5.155-4.643-3.344-9.053" stroke="#F67E74" stroke-width="3.695"/><path d="M204.084 244.986a1.701 1.701 0 0 1-.924-.924" stroke="#CA4664" stroke-width="3.695"/><path d="M203.16 244.062c-4.015-.382-5.924-2.001-5.727-4.859.123-1.823 1.176-3.449 3.159-4.878 5.161-3.707 11.098-5.253 17.811-4.637 1.947.184 2.766-.05 2.458-.703-.103-.208-.297-.397-.563-.546a2.74 2.74 0 0 0-.952-.303c-6.861-.961-13.125.443-18.791 4.212-.074.037-.64.573-1.7 1.608-.924.899-2.081 1.01-3.473.332" stroke="#F67E74" stroke-width="3.695"/><path d="m195.382 234.288-13.857 13.857" stroke="#8D7878" stroke-width="3.695"/><path d="m181.524 248.146-5.616 1.773" stroke="#FCA7A3" stroke-width="3.695"/><path d="M175.907 249.919c-3.707 2.119-4.76 1.066-3.159-3.159" stroke="#CA4664" stroke-width="3.695"/><path d="M172.748 246.76a10.118 10.118 0 0 1 1.7-5.081" stroke="#FCA7A3" stroke-width="3.695"/><path d="M174.448 241.679a44.838 44.838 0 0 1 8.518-10.033 28.191 28.191 0 0 0 5.487-6.596" stroke="#8D7878" stroke-width="3.695"/><path d="M188.453 225.05c-2.365-1.934-2.968-3.899-1.811-5.894 3.72-6.393 9.996-10.15 18.828-11.271" stroke="#F67E74" stroke-width="3.695"/><path d="m205.47 207.886 9.312-10.551m11.936 3.622-5.543 5.542" stroke="#8D7878" stroke-width="3.695"/><path d="M221.175 206.5c14.559 1.65 28.238 5.998 41.036 13.044 14.486 7.969 28.226 16.85 41.221 26.643 1.478 1.108 1.78.85.905-.776a1261.89 1261.89 0 0 0-7.649-13.968c-.172-.296-.259-.585-.259-.869 0-.751.302-.954.906-.609.246.135.462.375.646.72a3700.375 3700.375 0 0 0 8.536 15.169 27.166 27.166 0 0 0 6.541 7.742 1467.193 1467.193 0 0 1 20.823 17.257" stroke="#F67E74" stroke-width="3.695"/><path d="m333.881 270.853 2.236-.536" stroke="#CA4664" stroke-width="3.695"/><path d="M336.117 270.317a.702.702 0 0 1 .536-.536" stroke="#F67E74" stroke-width="3.695"/><path d="M336.653 269.781a389.848 389.848 0 0 1 54.043-21.1" stroke="#CA4664" stroke-width="3.695"/><path d="M390.696 248.681c6.011-1.946 12.133-2.605 18.366-1.977.135.013.48.13 1.034.351.395.173.573-.08.536-.757" stroke="#AA3A47" stroke-width="3.695"/><path d="M218.015 193.64c1.331-.431 2.23-1.33 2.698-2.698" stroke="#8D7878" stroke-width="3.695"/><path d="m227.18 184.79 7.852 6.928" stroke="#3E6279" stroke-width="3.695"/><path d="m188.453 225.05 4.471 1.847" stroke="#8AA6A6" stroke-width="3.695"/><path d="M192.924 226.897c5.494-7.661 13.045-10.778 22.652-9.349 3.117.456 3.302.924.555 1.405a3.245 3.245 0 0 1-.98.036c-8.967-.936-16.173 2.008-21.617 8.832" stroke="#CB7C96" stroke-width="3.695"/><path d="M193.534 227.821c-.197 2.365.419 4.521 1.848 6.467" stroke="#8AA6A6" stroke-width="3.695"/><path d="M203.16 244.062c5.506-4.336 11.788-6.06 18.846-5.173.33.046.635.144.893.288.259.144.465.329.604.543.591.936-.185 1.275-2.328 1.016-6.319-.764-12.016.653-17.091 4.25" stroke="#C77491" stroke-width="3.695"/><path d="M233.185 257.772c-5.125-4.311-11-6.165-17.627-5.562-.443.037-.985.185-1.626.444-1.207.468-1.792.338-1.755-.388.012-.248.127-.49.328-.687.201-.197.476-.339.78-.403 8.537-1.836 15.939.363 22.209 6.596" stroke="#CB7C96" stroke-width="3.695"/><path d="m397.699 268.007-3.769-10.697" stroke="#A76875" stroke-width="3.695"/><path d="M393.929 257.31a487.02 487.02 0 0 0-50.44 11.584 22.967 22.967 0 0 1-6.837.887m-.535.536a403.78 403.78 0 0 0 10.919 10.624c.259.259.444.524.555.795.369.96.086 1.268-.85.923-.296-.11-.591-.301-.887-.572a396.39 396.39 0 0 1-11.973-11.234" stroke="#C77491" stroke-width="3.695"/><path d="M172.748 246.76a8.623 8.623 0 0 1 3.159 3.159" stroke="#CD9EC0" stroke-width="3.695"/><path d="M66.897 127.66c2.672-1.12 4.674-.554 6.004 1.7" stroke="#616A9C" stroke-width="3.695"/><path d="M73.29 131.744c.184.973-.148 1.681-.998 2.125-3.745 1.971-5.851.825-6.32-3.437" stroke="#4F618B" stroke-width="3.695"/><path d="M57.27 154.377h.887a3.36 3.36 0 0 0 1.663-.443c10.913-6.134 22.69-8.29 35.327-6.467 3.005.431 3.572 1.842 1.7 4.231-.973 1.232-2.642 2.304-5.007 3.215" stroke="#ADAFC9" stroke-width="3.695"/><path d="M91.84 154.913a4.2 4.2 0 0 0-1.386 1.238" stroke="#8176B9" stroke-width="3.695"/><path d="M90.454 156.151c1.294.382 4.219 1.023 8.777 1.922 1.367.271 2.235 1.047 2.605 2.328.071.253.058.531-.037.799a1.703 1.703 0 0 1-.499.716 25.99 25.99 0 0 1-8.998 5.007" stroke="#ADAFC9" stroke-width="3.695"/><path d="M92.302 166.923c-.173 1.195-.943 1.761-2.31 1.7" stroke="#8176B9" stroke-width="3.695"/><path d="M89.992 168.623a34.62 34.62 0 0 1 11.455 2.512c2.057.838 2.205 1.934.444 3.289-4.533 3.486-9.885 5.913-16.056 7.28" stroke="#ADAFC9" stroke-width="3.695"/><path d="M85.835 181.704c.074.986-.388 1.552-1.386 1.7" stroke="#857EBD" stroke-width="3.695"/><path d="m84.45 183.404 11.917 2.051c3.695.628 3.867 1.946.517 3.954-7.07 4.249-14.91 7.532-23.52 9.848" stroke="#ADAFC9" stroke-width="3.695"/><path d="M73.363 199.257c.838 1.145.567 1.774-.813 1.884-3.966.333-5.413 2.606-4.342 6.818" stroke="#8176B9" stroke-width="3.695"/><path d="M68.208 207.959a221.035 221.035 0 0 1 4.231 17.571c.518 2.661 1.41 4.471 2.68 5.432 1.724 1.306 3.91 1.823 6.559 1.552" stroke="#ADAFC9" stroke-width="3.695"/><path d="m81.678 232.514 79.448 3.086" stroke="#AF809B" stroke-width="3.695"/><path d="M161.126 235.6c-1.01-.468-1.225-1.059-.646-1.774a4.05 4.05 0 0 0 .824-1.614c.15-.595.165-1.218.044-1.822l-21.47-104.263" stroke="#8BC6F4" stroke-width="3.695"/><path d="M119.481 130.358c2.057-1.552 3.621-1.269 4.693.85m.85 2.383c.123 2.193-.776 3.425-2.698 3.696-3.018.418-4.533-.967-4.545-4.158" stroke="#616A9C" stroke-width="3.695"/><path d="M92.69 128.511c3.153-1.183 5.308-.259 6.466 2.771" stroke="#8176B9" stroke-width="3.695"/><path d="M99.156 133.13c-3.326 4.841-5.764 4.403-7.316-1.312" stroke="#616A9C" stroke-width="3.695"/><path d="M142.188 297.644c.69-.148 1.306-.789 1.848-1.922 6.491-13.586 13.143-29.618 19.954-48.094.165-.436.215-.908.148-1.373a2.839 2.839 0 0 0-.536-1.288c-.271-.345-.529-.147-.776.592a385.832 385.832 0 0 1-20.121 48.519c-.948 1.909-1.736 1.817-2.365-.277" stroke="#F67E74" stroke-width="3.695"/><path d="M140.34 293.801c-10.667-10.63-22.855-19.881-36.565-27.752-1.059-.604-1.348-.345-.868.776 2.476 5.839 4.631 12.084 6.467 18.735.16.591.191 1.01.092 1.257-.258.714-.554.542-.887-.518a163.866 163.866 0 0 0-16.74-37.156" stroke="#C87592" stroke-width="3.695"/><path d="M91.84 249.143a86.37 86.37 0 0 1-10.162-16.629" stroke="#F67E74" stroke-width="3.695"/><path d="M68.208 207.959c-2.02 4.804-4.65 7.847-7.89 9.128-2.549 1.01-3.232.788-2.05-.666.234-.295.579-.56 1.035-.794 4.804-2.525 7.132-7.107 6.984-13.746a1.38 1.38 0 0 1 .242-.817c.162-.229.39-.384.645-.44l6.19-1.367" stroke="#C87592" stroke-width="3.695"/><path d="M84.45 183.404c-7.194.296-13.889 2.193-20.085 5.691-1.416.801-1.7.493-.85-.924.16-.271.388-.499.684-.684 6.615-3.978 13.827-5.906 21.636-5.783" stroke="#CC7C96" stroke-width="3.695"/><path d="M89.992 168.623a82.805 82.805 0 0 0-24.85 4.73c-2.649.948-3.08.622-1.294-.979.259-.222.554-.394.887-.518 8.844-3.436 18.033-5.081 27.567-4.933m-1.848-10.772a106.077 106.077 0 0 0-25.571 6.43c-.21.074-.407.098-.591.074-.85-.123-.807-.419.129-.887 8.622-4.299 17.762-6.584 27.419-6.855" stroke="#C87592" stroke-width="3.695"/><path d="M161.127 235.6c3.707-1.035 5.074-3.369 4.101-7.003-.431-1.576-.653-2.402-.665-2.476a14215.06 14215.06 0 0 1-13.987-68.972" stroke="#D4959F" stroke-width="3.695"/><path d="m174.448 241.679 7.076 6.466" stroke="#90D0D5" stroke-width="3.695"/><path d="M390.696 248.681a18.723 18.723 0 0 1 3.233 8.629" stroke="#7B3065" stroke-width="3.695"/><path d="m192.924 226.897.61.924" stroke="#62769A" stroke-width="3.695"/><path d="m112.7 123.892 5.081 9.238" stroke="#AEBE90" stroke-width="3.695"/><path d="M117.781 133.129c2.426 1.208 4.841 1.361 7.242.462" stroke="#A8783C" stroke-width="3.695"/><path d="M125.024 133.591c.344-1.133.061-1.927-.85-2.383" stroke="#AEBE90" stroke-width="3.695"/><path d="M124.174 131.208c-1.75.443-3.314.16-4.693-.85" stroke="#A8783C" stroke-width="3.695"/><path d="M119.48 130.358c-2.451-1.182-3.658-3.159-3.621-5.931m11.622.388c.837.53 1.736.659 2.697.388m-43.493-2.235a25.114 25.114 0 0 0 5.155 8.85" stroke="#AEBE90" stroke-width="3.695"/><path d="M91.84 131.818c2.303 1.133 4.742 1.57 7.316 1.312" stroke="#A8783C" stroke-width="3.695"/><path d="M99.156 133.129v-1.847" stroke="#AEBE90" stroke-width="3.695"/><path d="M99.156 131.282c-2.562.012-4.717-.912-6.467-2.772" stroke="#C88458" stroke-width="3.695"/><path d="M92.69 128.511c-1.306-1.245-2.205-2.76-2.698-4.546m12.01-.61c.665.715 1.305.74 1.921.074m-43.105-1.385c.899 3.326 2.617 6.122 5.155 8.388" stroke="#AEBE90" stroke-width="3.695"/><path d="M65.973 130.432c2.23 1.355 4.668 1.792 7.316 1.312" stroke="#966F2A" stroke-width="3.695"/><path d="M73.29 131.744c.566-.924.437-1.718-.389-2.384" stroke="#AEBE90" stroke-width="3.695"/><path d="M72.901 129.36c-2.29.308-4.292-.258-6.004-1.699" stroke="#A8783C" stroke-width="3.695"/><path d="M66.897 127.661c-1.86-1.232-2.76-2.95-2.698-5.155m11.936-.074h1.847" stroke="#AEBE90" stroke-width="3.695"/><path d="M86.297 26.502c.567-.604.85-1.293.85-2.07a.64.64 0 0 0-.199-.475.752.752 0 0 0-.503-.208c-13.254-.542-13.032-.838.665-.887.281-.005.554.07.783.216.228.146.4.354.492.597.985 2.66.991 6.35.018 11.067a2.148 2.148 0 0 1-.625 1.124 1.61 1.61 0 0 1-1.075.447l-11.64.092a1.116 1.116 0 0 1-.725-.283 1.697 1.697 0 0 1-.494-.751c-.752-2.193-.813-4.386-.185-6.578.197-.677.431-.684.702-.018.53 1.293.647 2.728.351 4.305a2.18 2.18 0 0 0 2.143 2.586h7.964A1.755 1.755 0 0 0 86.5 34.41c1.01-3.437.788-5.198-.665-5.284" stroke="#D7EDFB" stroke-width="3.695"/><path d="M85.835 29.126c-2.673 4.15-5.081 4.754-7.224 1.81-1.183-1.625-2.174-2.863-2.975-3.713a17.115 17.115 0 0 1-2.771-4.01c-1.33-2.734-1.06-3.153.813-1.256a57.464 57.464 0 0 1 6.337 7.686c1.195 1.737 2.205 1.632 3.03-.314.591-1.404 1.675-2.346 3.252-2.827" stroke="#FCA7A3" stroke-width="3.695"/><path d="M85.835 29.126c.727-.912.88-1.786.462-2.624" stroke="#D4959F" stroke-width="3.695"/><path d="M46.11 29.532a.795.795 0 0 1 .795-.794h20.878a.795.795 0 0 1 .795.794v.259a.794.794 0 0 1-.795.794H46.905a.795.795 0 0 1-.794-.794v-.259Zm-21.266.059a.869.869 0 0 1 .87-.866l14.855.025a.868.868 0 0 1 .867.87v.111a.869.869 0 0 1-.87.867l-14.855-.026a.869.869 0 0 1-.867-.87v-.11Z" stroke="#C9E2F7" stroke-width="3.695"/><path d="M86.685 47.214c1.527-1.355 1.28-2.316-.74-2.882-1.662-.468-4.317-.721-7.963-.758-3.153-.037-3.153-.185 0-.443a37.218 37.218 0 0 1 9.146.35c.284.045.547.168.755.352a1.3 1.3 0 0 1 .41.683c.27 1.22.529 3.35.775 6.393.357 4.385-.954 6.867-3.935 7.446-1.528.284-3.837.333-6.929.148-4.348-.259-5.888-2.956-4.62-8.093.173-.702.438-.745.795-.129.616 1.072.82 2.433.61 4.083-.032.264.009.53.121.778.112.25.292.475.527.662.235.188.519.331.832.42.312.09.646.124.978.099l8.055-.628c.233-.02.461-.072.671-.156.21-.084.398-.197.552-.333.155-.135.273-.29.349-.458.075-.166.106-.34.091-.513l-.48-5.635" stroke="#D7EDFB" stroke-width="3.695"/><path d="m86.685 48.6-4.25 4.545a.927.927 0 0 1-.691.282c-.277 0-.564-.1-.805-.282a37.161 37.161 0 0 1-8.167-8.665c-1.675-2.476-1.429-3.178.74-2.107.418.197.775.518 1.07.961a83.982 83.982 0 0 0 5.359 7.261 1.958 1.958 0 0 0 1.68.684 1.92 1.92 0 0 0 1.498-.998c.96-1.773 2.15-2.796 3.566-3.067" stroke="#FCA7A3" stroke-width="3.695"/><path d="M86.685 48.6c.11-.468.11-.93 0-1.386" stroke="#D4959F" stroke-width="3.695"/><path d="M58.62 50.25a.812.812 0 0 1 .822-.805l8.018.084a.813.813 0 0 1 .805.821l-.002.222a.814.814 0 0 1-.822.804l-8.018-.084a.813.813 0 0 1-.805-.82l.003-.223Z" stroke="#C9E2F7" stroke-width="3.695"/><path d="M28.189 50.493a.814.814 0 0 1 .803-.823l24.018-.293a.813.813 0 0 1 .822.803l.001.074a.812.812 0 0 1-.803.823l-24.017.293a.813.813 0 0 1-.823-.803l-.001-.074Z" stroke="#B3D8F8" stroke-width="3.695"/><path d="M85.724 78.052a2.133 2.133 0 0 0 1.396-.673 2.1 2.1 0 0 0 .563-1.434V67.04c0-.445-.176-.872-.49-1.19A1.728 1.728 0 0 0 86 65.34c-13.648-.197-13.857-.696-.628-1.497 2.464-.148 3.695 1.854 3.695 6.005 0 2.008-.037 4.01-.11 6.005-.087 2.525-1.41 3.609-3.973 3.252a18.27 18.27 0 0 0-5.118-.019c-5.136.69-7.175-1.515-6.116-6.614.05-.222.08-.431.093-.629.505-9.497.807-9.497.905 0 0 .197-.018.407-.055.629-.912 4.73.973 6.774 5.653 6.134a95.703 95.703 0 0 1 5.377-.554Z" stroke="#C9E2F7" stroke-width="3.695"/><path d="M40.272 70.993a.666.666 0 0 1 .665-.665H67.58a.665.665 0 0 1 .665.665v.037a.665.665 0 0 1-.665.665H40.937a.666.666 0 0 1-.665-.665v-.037Zm-17.848-.388a33.338 33.338 0 0 1 12.157.425c.961.21.961.327 0 .351l-11.935.37a1.152 1.152 0 0 1-.552-.121.96.96 0 0 1-.39-.36c-.198-.344.043-.566.72-.665Z" stroke="#B3D8F8" stroke-width="3.695"/><path d="M179.51 100.279c-1.81-.456-3.091-1.43-3.843-2.92a.739.739 0 0 1 .009-.666.846.846 0 0 1 .223-.277.895.895 0 0 1 .323-.165c8.339-2.55 9.62-.265 3.843 6.854-.234.288-.349.872-.329 1.676.02.803.173 1.791.44 2.833.443 1.7.098 1.971-1.035.813a2.32 2.32 0 0 1-.554-.795c-1.097-2.463-.715-4.644 1.145-6.54.394-.407.32-.678-.222-.813Zm19.622 1.089c-3.276 1.294-6.436 1.238-9.478-.166a1.824 1.824 0 0 1-1.016-1.293c-.702-3.523.252-4.718 2.864-3.585 1.933.826 2.968 1.263 3.104 1.312 1.675.53 3.11.912 4.305 1.146 2.98.603 3.054 1.466.221 2.586Z" stroke="#A76875" stroke-width="3.695"/><path d="M228.436 112.343c-.813 1.75-.936 1.719-.37-.092 1.922-6.171 6.085-9.725 12.491-10.661.813-.111 1.274.049 1.385.481a.565.565 0 0 1-.012.33.826.826 0 0 1-.202.314 1.258 1.258 0 0 1-.356.243 1.56 1.56 0 0 1-.446.129c-5.802.739-9.965 3.824-12.49 9.256Z" stroke="#CB7C96" stroke-width="3.695"/><path d="M197.192 113.619a7.872 7.872 0 1 1 13.437 5.565 7.87 7.87 0 0 1-13.437-5.565Z" stroke="#EF9D99" stroke-width="3.695"/><path d="M184.684 117.849a3.942 3.942 0 0 0 2.42-1.662c1.873-2.821 2.913-3.72 3.123-2.698.123.591-.019 1.343-.425 2.254-1.688 3.831-4.792 5.044-9.312 3.64-1.515-.48-2.027-1.078-1.534-1.792.126-.185.344-.307.615-.344.27-.037.576.013.863.141 1.404.64 2.821.794 4.25.461Z" stroke="#CB7C96" stroke-width="3.695"/><path d="M196.287 167.089c5.875 3.24 12.348 5.426 19.419 6.559a.668.668 0 0 1 .536.776c-1.516 7.662-4.453 14.393-8.814 20.195-2.451 3.252-5.524 4.785-9.219 4.601-2.673-.148-4.256-1.534-4.749-4.158-1.626-8.72-1.195-17.829 1.293-27.326a1.056 1.056 0 0 1 1.534-.647Z" stroke="#F67E74" stroke-width="3.695"/><path d="M28.096 87.474c-.246 1.257.062 2.334.924 3.234.862-.333 1.515-.087 1.958.739 1.528 2.857 3.942 5.124 7.243 6.799.21.099.56.203 1.053.314.8.173.924.61.37 1.312 9.152 1.059 15.853-2.168 20.102-9.682.517-.924 1.016-1.533 1.497-1.829 1.244-.751 2.026.006 2.346 2.273.394.813 1.035 1.3 1.922 1.46 1.269-.432 2.223-.29 2.864.424.53.592.985.949 1.367 1.072 13.032 4.373 23.514 1.546 31.447-8.48 1.318-1.676 2.408-3.764 3.27-6.264a185.948 185.948 0 0 0 2.236-6.855 2.63 2.63 0 0 1 1.053-1.367c9.004-5.962 13.925-13.802 14.763-23.52.665-7.76-1.257-14.665-5.765-20.713-4.668-6.27-11.246-10.316-19.733-12.139-.308-.061-6.151-1.57-11.64-.684-1.317.213-1.558.493-2.42-.886-1.922-3.067-4.675-5.666-8.26-7.797-3.214-1.922-6.731-3.067-10.55-3.437C53.81.438 45.342 4.38 38.739 13.273c-.152.21-.379.355-.637.41-.258.054-.53.013-.767-.114-6.614-3.671-12.816-4.305-18.606-1.904-5.222 2.156-8.844 5.82-10.864 10.994-2.007 5.161-1.687 10.803.961 16.924a1.497 1.497 0 0 1-.222 1.534c-7.612 9.14-9.312 18.766-5.1 28.879 1.96 4.717 4.848 8.413 8.666 11.085 4.213 2.932 8.906 4.422 14.08 4.472 1.847.024 2.463.665 1.847 1.921Zm58.2-60.972c.567-.604.85-1.293.85-2.07a.64.64 0 0 0-.198-.475.753.753 0 0 0-.503-.208c-13.254-.542-13.032-.838.665-.887.281-.005.554.07.783.216.228.146.4.354.492.597.985 2.66.991 6.35.018 11.067a2.149 2.149 0 0 1-.625 1.124 1.61 1.61 0 0 1-1.075.447l-11.64.092a1.116 1.116 0 0 1-.725-.283 1.697 1.697 0 0 1-.494-.751c-.752-2.193-.813-4.385-.185-6.578.197-.677.431-.683.702-.018.53 1.293.647 2.728.351 4.305a2.18 2.18 0 0 0 2.143 2.586h7.964A1.755 1.755 0 0 0 86.5 34.41c1.01-3.437.788-5.198-.665-5.284-2.673 4.15-5.081 4.754-7.224 1.81-1.183-1.626-2.175-2.863-2.975-3.713a17.115 17.115 0 0 1-2.772-4.01c-1.33-2.734-1.059-3.153.813-1.256a57.463 57.463 0 0 1 6.338 7.686c1.195 1.737 2.205 1.632 3.03-.314.591-1.404 1.675-2.347 3.252-2.827Zm-40.186 3.03a.795.795 0 0 1 .795-.794h20.878a.795.795 0 0 1 .795.794v.259a.795.795 0 0 1-.795.794H46.905a.795.795 0 0 1-.794-.794v-.259Zm-21.266.06a.87.87 0 0 1 .87-.867l14.855.026a.868.868 0 0 1 .867.87v.11a.868.868 0 0 1-.87.867l-14.855-.026a.868.868 0 0 1-.867-.87v-.11Zm61.84 17.622c1.528-1.355 1.282-2.316-.738-2.882-1.663-.468-4.318-.72-7.964-.758-3.153-.037-3.153-.184 0-.443a37.218 37.218 0 0 1 9.146.35c.285.045.548.168.755.352a1.3 1.3 0 0 1 .41.684c.27 1.219.529 3.35.775 6.392.358 4.386-.954 6.867-3.935 7.446-1.528.284-3.837.333-6.929.148-4.348-.258-5.888-2.956-4.619-8.093.172-.702.437-.745.794-.129.616 1.072.82 2.433.61 4.084-.032.263.01.528.121.777.112.25.292.475.527.663a2.4 2.4 0 0 0 .832.42c.313.09.647.123.978.098l8.055-.628a2.33 2.33 0 0 0 .671-.156c.21-.084.398-.197.552-.332.155-.136.273-.292.349-.458.075-.167.106-.342.091-.514l-.48-5.635-4.25 4.545a.927.927 0 0 1-.691.282c-.277 0-.564-.1-.805-.282a37.163 37.163 0 0 1-8.167-8.665c-1.675-2.476-1.429-3.178.74-2.107.418.197.775.518 1.07.961a83.982 83.982 0 0 0 5.359 7.261 1.958 1.958 0 0 0 1.68.684 1.918 1.918 0 0 0 1.498-.998c.96-1.773 2.15-2.796 3.566-3.067ZM58.622 50.25a.812.812 0 0 1 .821-.804l8.018.084a.814.814 0 0 1 .805.821l-.003.222a.812.812 0 0 1-.821.804l-8.018-.084a.813.813 0 0 1-.805-.821l.003-.222Zm-30.432.244a.813.813 0 0 1 .803-.823l24.018-.293a.813.813 0 0 1 .822.803l.001.074a.812.812 0 0 1-.803.823l-24.017.293a.813.813 0 0 1-.823-.803l-.001-.074Zm57.535 27.558a2.133 2.133 0 0 0 1.396-.672c.363-.391.564-.903.563-1.434V67.04c0-.444-.177-.871-.49-1.189A1.728 1.728 0 0 0 86 65.34c-13.648-.198-13.857-.696-.628-1.497 2.463-.148 3.695 1.854 3.695 6.005 0 2.008-.037 4.01-.11 6.005-.087 2.525-1.411 3.609-3.973 3.252a18.263 18.263 0 0 0-5.118-.019c-5.136.69-7.175-1.515-6.116-6.615.05-.221.08-.43.093-.628.505-9.497.806-9.497.905 0 0 .197-.018.407-.055.628-.912 4.73.973 6.775 5.653 6.135a95.703 95.703 0 0 1 5.377-.555Zm-45.452-7.058a.665.665 0 0 1 .665-.665H67.58a.665.665 0 0 1 .665.665v.037a.665.665 0 0 1-.665.665H40.937a.665.665 0 0 1-.665-.665v-.037Zm-17.848-.388a33.34 33.34 0 0 1 12.157.425c.961.21.961.327 0 .351l-11.936.37a1.152 1.152 0 0 1-.551-.122.96.96 0 0 1-.39-.359c-.198-.344.042-.566.72-.665Zm106.442-51.568c2.34 1.12 4.138 2.814 5.395 5.08 3.165 1.96 6.448 2.113 9.848.463a21.96 21.96 0 0 1 6.319-6.467c1.293-7.49-.783-12.312-6.227-14.467-4.336-1.712-8.314-1.269-11.936 1.33-4.101 2.969-5.235 7.656-3.399 14.06Zm35.419-7.853v5.543c2.069 4.927 5.66 6.313 10.772 4.157-.148-.763.172-1.496.96-2.198 2.168-1.91 2.926-4.564 2.273-7.964-4.829-6.787-9.497-6.633-14.005.462Z" fill="#fff"/><path d="M178.291 10.723c.653 3.4-.105 6.054-2.273 7.963-.788.703-1.108 1.436-.96 2.2 4.077-2.28 5.155-5.667 3.233-10.163Zm-14.005.462c-1.306 1.848-1.306 3.695 0 5.543v-5.543Zm-13.857 6.929a21.96 21.96 0 0 0-6.319 6.466c3.079-1.17 5.185-3.325 6.319-6.466Zm-21.562.924c.837 2.71 2.636 4.403 5.395 5.08-1.257-2.266-3.055-3.96-5.395-5.08Z" fill="#fff"/><path d="M85.835 29.126c.727-.912.88-1.786.462-2.624-1.577.48-2.66 1.423-3.252 2.827-.825 1.946-1.835 2.05-3.03.314a57.457 57.457 0 0 0-6.338-7.686c-1.872-1.897-2.143-1.478-.813 1.256a17.115 17.115 0 0 0 2.772 4.01c.8.85 1.792 2.088 2.975 3.713 2.143 2.944 4.55 2.34 7.224-1.81Z" fill="#F16D22"/><path d="M86.297 26.502c.419.838.265 1.713-.462 2.624 1.453.086 1.675 1.848.665 5.284a1.755 1.755 0 0 1-1.681 1.257h-7.964a2.179 2.179 0 0 1-2.143-2.587c.296-1.577.179-3.012-.35-4.305-.272-.665-.506-.659-.703.019-.628 2.192-.567 4.384.185 6.577.102.302.275.565.494.751.22.186.473.285.725.284l11.64-.093a1.61 1.61 0 0 0 1.075-.446c.31-.286.53-.682.625-1.124.973-4.718.967-8.407-.018-11.068a1.225 1.225 0 0 0-.492-.596 1.412 1.412 0 0 0-.783-.216c-13.697.049-13.92.344-.665.886.19.006.372.08.503.209a.64.64 0 0 1 .199.475c0 .776-.284 1.466-.85 2.07Z" fill="#21A0AA"/><path d="M190.984 38.087a5.653 5.653 0 1 1 0-11.307 5.653 5.653 0 0 1 0 11.307Z" fill="#fff"/><path d="M46.905 28.738h20.878c.44 0 .795.355.795.794v.259a.794.794 0 0 1-.795.794H46.905a.794.794 0 0 1-.794-.794v-.259c0-.439.355-.794.794-.794Zm-21.191-.013 14.855.026c.48 0 .868.39.867.87v.11a.87.87 0 0 1-.87.868l-14.855-.026a.868.868 0 0 1-.867-.87v-.111a.868.868 0 0 1 .87-.867Z" fill="#21A0AA"/><path d="M86.685 48.6c.11-.468.11-.93 0-1.386-1.417.271-2.605 1.294-3.566 3.067a1.904 1.904 0 0 1-1.498.998 1.943 1.943 0 0 1-1.68-.684 83.982 83.982 0 0 1-5.358-7.26c-.296-.444-.653-.765-1.072-.962-2.168-1.071-2.414-.37-.739 2.107a37.161 37.161 0 0 0 8.167 8.665c.242.182.529.282.805.282.277 0 .523-.1.691-.282l4.25-4.545Z" fill="#F16D22"/><path d="M86.685 47.214c.11.456.11.918 0 1.386l.48 5.636c.015.172-.016.346-.091.513a1.365 1.365 0 0 1-.349.458 1.907 1.907 0 0 1-.552.332c-.21.084-.438.137-.67.156l-8.056.628a2.798 2.798 0 0 1-.978-.098 2.39 2.39 0 0 1-.832-.42 1.798 1.798 0 0 1-.527-.662 1.454 1.454 0 0 1-.12-.778c.209-1.65.005-3.012-.61-4.084-.358-.615-.623-.572-.795.13-1.269 5.136.27 7.834 4.619 8.093 3.092.184 5.401.135 6.929-.148 2.98-.58 4.292-3.061 3.935-7.446-.246-3.043-.505-5.174-.776-6.393a1.3 1.3 0 0 0-.409-.683 1.481 1.481 0 0 0-.755-.352 37.218 37.218 0 0 0-9.146-.35c-3.153.258-3.153.406 0 .443 3.646.036 6.3.289 7.964.757 2.02.567 2.266 1.527.739 2.882Z" fill="#21A0AA"/><path d="M187.455 51.76c3.289 2.45 5.266 5.684 5.931 9.7.03.197.014.391-.047.55-.061.157-.161.27-.285.318-.271.099-.481-.13-.628-.684-.666-2.438-2.655-5.4-5.968-8.887-4.755-1.946-9.128-2.094-13.119-.443-3.769 1.564-6.435 4.49-8 8.776-2.771 7.612-.129 14.553 7.927 20.823a1.74 1.74 0 0 1 .554 1.996c-.554 1.416-.474 2.913.24 4.49a20.24 20.24 0 0 0 6.485-.906c2.538-.8 3.061-2.008 1.571-3.621-.049-.05-.573-.302-1.571-.758l-1.09-.499c-1.182-.542-1.096-.77.259-.683l12.822.813c2.439.16 2.47.628.093 1.404-2.291.751-3.32 1.669-3.086 2.753.136.64.856 1.324 2.162 2.05a98.37 98.37 0 0 1 6.725 4.14c1.392.948 2.556 1.502 3.493 1.662 2.759.48 3.282-1.3 1.57-5.34-.788-1.86-.45-2.094 1.016-.702 4.533 4.312 8.087 9.263 10.661 14.855 1.959 4.262 4.459 4.613 7.502 1.054a61.246 61.246 0 0 1 11.972-10.754c.16-7.107 1.645-13.888 4.453-20.342 1.392-3.203 1.952-5.863 1.681-7.982-.812-6.516-4.594-11.043-11.344-13.58-4.262-1.614-8.758-1.226-13.488 1.164a1.257 1.257 0 0 1-1.774-.832c-.406-1.712-1.293-3.264-2.66-4.656-1.096-1.12-2.55-2.057-4.361-2.808-8.339-3.486-14.904-1.177-19.696 6.928Z" fill="#5B2448"/><path d="m59.442 49.445 8.018.084c.45.005.81.373.805.821l-.003.222a.813.813 0 0 1-.821.805l-8.018-.084a.813.813 0 0 1-.805-.822l.002-.221a.813.813 0 0 1 .822-.805Zm-30.45.225 24.017-.293a.813.813 0 0 1 .823.803l.001.074a.813.813 0 0 1-.803.823l-24.018.293a.813.813 0 0 1-.822-.803l-.001-.074a.813.813 0 0 1 .803-.822Z" fill="#21A0AA"/><path d="M187.455 51.76a1.97 1.97 0 0 0-.997.998c3.313 3.485 5.302 6.448 5.968 8.887.147.554.357.782.628.683.124-.048.224-.16.285-.319.061-.158.077-.352.047-.55-.665-4.015-2.642-7.248-5.931-9.7Z" fill="#9B3C81"/><path d="M85.724 78.052c-1.81.135-3.603.32-5.377.554-4.68.64-6.565-1.404-5.653-6.134.037-.222.055-.431.055-.629-.098-9.497-.4-9.497-.905 0a4.083 4.083 0 0 1-.093.629c-1.059 5.1.98 7.304 6.116 6.614a18.27 18.27 0 0 1 5.118.019c2.562.357 3.886-.727 3.972-3.252.074-1.996.111-3.997.111-6.005 0-4.151-1.231-6.153-3.695-6.005-13.23.8-13.02 1.3.628 1.497.45.01.877.193 1.191.51.315.318.49.745.49 1.19v8.905a2.1 2.1 0 0 1-.562 1.434c-.363.39-.862.63-1.396.672Z" fill="#21A0AA"/><path d="M86.685 72.6c.11-.468.11-.93 0-1.386-1.417.271-2.605 1.293-3.566 3.067a1.904 1.904 0 0 1-1.498.998 1.943 1.943 0 0 1-1.68-.684 83.982 83.982 0 0 1-5.358-7.26c-.296-.444-.653-.765-1.072-.962-2.168-1.071-2.414-.37-.739 2.107a37.161 37.161 0 0 0 8.167 8.665c.242.182.529.282.805.282.277 0 .523-.1.691-.282l4.25-4.545Z" fill="#F16D22"/><path d="M40.937 70.328H67.58c.368 0 .665.298.665.665v.037a.665.665 0 0 1-.665.665H40.937a.665.665 0 0 1-.665-.665v-.037c0-.367.298-.665.665-.665Zm-18.513.277c-.678.099-.918.32-.72.665a.96.96 0 0 0 .39.36c.165.084.356.126.551.12l11.936-.369c.961-.024.961-.141 0-.35a33.338 33.338 0 0 0-12.157-.426Z" fill="#21A0AA"/><path d="M174.06 88.398c-.468 8.302-.967 13.476-1.497 15.52-.874 3.326-3.067 8.887-6.577 16.685-1.762 3.929-2.648 6.934-2.661 9.016 0 3.868 1.614 6.849 4.841 8.943 7.452 4.803 16.5 6.202 27.142 4.194a54.63 54.63 0 0 0 15.132-7.446c1.096-.752 1.601-.468 1.515.85-.653 10.112-5.918 16.031-15.797 17.756a209.544 209.544 0 0 0-.85 8.776c-.111 1.453-.573 2.199-1.386 2.235-1.244.752-1.774 1.86-1.589 3.326.099.739.093 1.343-.018 1.811-2.045 8.844-2.279 17.011-.702 24.5.628 2.981 2.248 4.933 4.859 5.857 2.045.714 4.28.48 6.707-.702 5.506-2.71 9.146-7.212 10.919-13.507.912-3.252 1.553-3.455 1.922-.609.049.406.019.837-.092 1.293a36.37 36.37 0 0 0-1.146 10.439l3.233-3.695c-.677-3.264-.449-6.824.684-10.679.271-.949.493-.93.665.055l1.349 7.926 1.922-1.921a50.38 50.38 0 0 1-2.698-14.652.91.91 0 0 1 .245-.658.9.9 0 0 1 .642-.284c10.568-.148 19.665-3.782 27.29-10.901.443-.419.671-.327.683.277a76.868 76.868 0 0 1-3.714 24.481c-1.17 3.634-3.325 7.101-6.466 10.402-3.191 3.338-6.72 3.837-10.587 1.497a3.45 3.45 0 0 0-1.312 1.774c5.124 2.328 9.552 1.545 13.284-2.347 3.388-3.547 5.821-7.951 7.299-13.211a89.008 89.008 0 0 0 3.362-24.555c-.8.801-1.422.684-1.866-.351a1172.242 1172.242 0 0 0-16.148-35.678c-2.193.628-4.213.468-6.06-.48-.826-.407-.789-.622.11-.647l6.024-.185c7.452-1.761 13.032-5.752 16.739-11.972 2.094-3.499 2.181-7.212.259-11.142-3.03-6.146-8.056-8.32-15.077-6.522a61.274 61.274 0 0 0-11.972 10.753c-3.043 3.56-5.543 3.209-7.502-1.053-2.574-5.592-6.128-10.544-10.661-14.855-1.466-1.392-1.804-1.158-1.016.702 1.712 4.04 1.189 5.82-1.57 5.34-.937-.16-2.101-.714-3.493-1.663a98.37 98.37 0 0 0-6.725-4.139c-1.306-.726-2.026-1.41-2.162-2.05-.234-1.085.795-2.002 3.086-2.754 2.377-.775 2.346-1.244-.093-1.404l-12.822-.813c-1.355-.086-1.441.142-.259.684l1.09.499c.998.456 1.522.708 1.571.757 1.49 1.614.967 2.821-1.571 3.622a20.24 20.24 0 0 1-6.485.905Zm5.451 11.88c-1.811-.455-3.092-1.428-3.844-2.919a.739.739 0 0 1 .009-.666.846.846 0 0 1 .223-.277.892.892 0 0 1 .323-.165c8.339-2.55 9.62-.265 3.843 6.854-.234.288-.349.871-.329 1.675.02.804.173 1.792.44 2.834.443 1.699.098 1.97-1.035.813a2.33 2.33 0 0 1-.554-.795c-1.096-2.463-.715-4.644 1.145-6.541.394-.406.321-.677-.221-.813Zm19.622 1.091c-3.277 1.293-6.436 1.237-9.479-.167a1.833 1.833 0 0 1-1.016-1.293c-.702-3.523.252-4.718 2.864-3.585 1.934.826 2.968 1.263 3.104 1.312 1.675.53 3.11.912 4.305 1.146 2.981.603 3.055 1.466.222 2.587Zm29.303 10.975c-.813 1.749-.936 1.718-.369-.093 1.921-6.171 6.085-9.725 12.49-10.661.813-.111 1.275.05 1.385.481a.565.565 0 0 1-.012.33.814.814 0 0 1-.202.314 1.224 1.224 0 0 1-.356.243 1.56 1.56 0 0 1-.446.129c-5.801.739-9.965 3.824-12.49 9.257Zm-31.243 1.274a7.87 7.87 0 1 1 15.74 0 7.87 7.87 0 0 1-15.74 0Zm-12.509 4.232a3.947 3.947 0 0 0 2.42-1.663c1.873-2.821 2.914-3.72 3.123-2.698.123.591-.019 1.343-.425 2.254-1.688 3.831-4.792 5.044-9.312 3.64-1.515-.48-2.026-1.078-1.534-1.792.126-.185.344-.307.615-.344.27-.037.576.013.863.141 1.405.64 2.821.794 4.25.462Zm11.603 49.239c5.876 3.24 12.349 5.426 19.419 6.559a.668.668 0 0 1 .536.776c-1.515 7.662-4.453 14.394-8.814 20.195-2.451 3.252-5.524 4.786-9.219 4.601-2.673-.148-4.256-1.534-4.749-4.157-1.626-8.721-1.195-17.83 1.294-27.327a1.041 1.041 0 0 1 .608-.699 1.06 1.06 0 0 1 .925.052Z" fill="#F3ACA1"/><path d="M29.02 90.708c2.032 4.791 5.573 7.846 10.624 9.164.554-.702.43-1.14-.37-1.312-.492-.11-.843-.215-1.053-.314-3.301-1.675-5.715-3.941-7.243-6.8-.443-.825-1.096-1.07-1.958-.738Z" fill="#fff"/><path d="M179.732 101.092c-1.86 1.896-2.242 4.077-1.145 6.54.123.296.308.561.554.795 1.133 1.158 1.478.887 1.035-.813-.267-1.042-.42-2.03-.44-2.833-.02-.804.095-1.388.329-1.676 5.777-7.12 4.496-9.404-3.843-6.854a.895.895 0 0 0-.323.165.846.846 0 0 0-.223.277.739.739 0 0 0-.009.666c.752 1.49 2.033 2.464 3.843 2.92.542.135.616.406.222.813Zm19.4.277c2.833-1.121 2.759-1.983-.221-2.587-1.195-.234-2.63-.616-4.305-1.145-.136-.05-1.171-.487-3.104-1.312-2.612-1.133-3.566.061-2.864 3.584a1.831 1.831 0 0 0 1.016 1.294c3.042 1.404 6.202 1.459 9.478.166Z" fill="#5B2448"/><path d="M228.436 112.344c2.525-5.432 6.688-8.518 12.49-9.257.156-.02.308-.064.446-.128s.259-.147.356-.243a.822.822 0 0 0 .202-.315.565.565 0 0 0 .012-.33c-.111-.431-.572-.591-1.385-.48-6.406.936-10.569 4.489-12.491 10.661-.566 1.81-.443 1.841.37.092Z" fill="#A34B8A"/><path d="M205.063 121.489a7.87 7.87 0 1 1 0-15.741 7.871 7.871 0 0 1 0 15.741Z" fill="#EB8D90"/><path d="M60.818 122.044c.899 3.326 2.617 6.122 5.155 8.388 2.23 1.355 4.668 1.793 7.316 1.312.567-.924.438-1.718-.388-2.383-2.29.308-4.292-.259-6.004-1.7-1.86-1.232-2.76-2.95-2.698-5.155-1.81-3.079-1.835-5.697-.074-7.853 3.043-3.732 6.122-3.424 9.238.924 1.097 1.528 2.02 3.813 2.772 6.855h1.847c-.184-4.299-1.983-7.717-5.395-10.254-4.175-3.104-7.612-2.587-10.31 1.552-1.416 2.18-1.903 4.951-1.46 8.314Zm25.867.924a25.113 25.113 0 0 0 5.155 8.85c2.303 1.133 4.742 1.571 7.316 1.312v-1.848c-2.562.013-4.717-.911-6.466-2.771-1.306-1.244-2.205-2.759-2.698-4.545-.998-1.552-1.269-3.265-.813-5.137 1.38-5.654 4.385-6.701 9.017-3.141 1.835 1.417 3.104 3.973 3.806 7.668.665.714 1.305.739 1.921.074-.209-3.659-1.453-6.627-3.732-8.906-2.414-2.389-5.18-3.172-8.296-2.346-4.163 1.084-5.9 4.68-5.21 10.79Z" fill="#F6CD2F" fill-opacity=".996"/><path d="M184.684 117.849c-1.429.333-2.846.179-4.25-.461a1.62 1.62 0 0 0-.863-.141c-.271.037-.489.159-.615.344-.493.714.019 1.312 1.534 1.792 4.52 1.404 7.624.191 9.312-3.64.406-.911.548-1.663.425-2.254-.21-1.022-1.25-.123-3.123 2.698a3.942 3.942 0 0 1-2.42 1.662Z" fill="#A34B8A"/><path d="m112.699 123.891 5.082 9.239c2.426 1.207 4.84 1.361 7.242.461.345-1.133.062-1.927-.85-2.383-1.749.443-3.313.16-4.693-.85-2.451-1.182-3.658-3.159-3.621-5.931-1.786-4.915-1.004-7.883 2.346-8.906 2.526-.776 4.712-.16 6.56 1.848 1.786 1.934 2.691 4.416 2.716 7.446.837.53 1.736.659 2.697.388-.32-3.621-1.57-6.627-3.75-9.016-2.341-2.55-5.1-3.505-8.278-2.864-4.299.862-6.116 4.385-5.451 10.568Z" fill="#F6CD2F" fill-opacity=".996"/><path d="M64.2 122.506c-.062 2.205.837 3.923 2.697 5.155 2.673-1.121 4.674-.554 6.005 1.7.825.665.954 1.459.388 2.383.184.973-.148 1.682-.998 2.125-3.745 1.971-5.851.825-6.32-3.437-2.536-2.266-4.255-5.062-5.154-8.388-7.366-.936-10.076 2.106-8.13 9.127 1.343 4.829 2.87 12.564 4.582 23.207h.887c.58 0 1.134-.148 1.663-.444 10.914-6.134 22.69-8.289 35.327-6.466 3.006.431 3.572 1.841 1.7 4.231-.973 1.232-2.642 2.303-5.007 3.215a4.2 4.2 0 0 0-1.386 1.238c1.294.381 4.219 1.022 8.777 1.921 1.367.271 2.235 1.047 2.605 2.328.071.254.058.531-.037.8a1.706 1.706 0 0 1-.499.715 25.975 25.975 0 0 1-8.998 5.007c-.173 1.195-.943 1.762-2.31 1.7a34.654 34.654 0 0 1 11.456 2.513c2.057.838 2.205 1.934.443 3.289-4.533 3.486-9.885 5.912-16.056 7.28.074.985-.388 1.552-1.386 1.699l11.918 2.051c3.695.628 3.867 1.946.517 3.954-7.07 4.25-14.91 7.532-23.52 9.848.837 1.146.566 1.774-.814 1.885-3.966.332-5.413 2.605-4.341 6.818a220.782 220.782 0 0 1 4.23 17.571c.518 2.66 1.411 4.471 2.68 5.432 1.724 1.305 3.91 1.823 6.559 1.552l79.449 3.085c-1.01-.468-1.226-1.059-.647-1.773a4.06 4.06 0 0 0 .824-1.615c.15-.594.165-1.217.044-1.822l-21.469-104.263-9.7-.923c-.961.271-1.86.141-2.698-.388l-11.622-.388c-.037 2.771 1.17 4.748 3.622 5.931 2.057-1.553 3.621-1.269 4.693.849.911.456 1.194 1.251.85 2.384.123 2.192-.776 3.424-2.698 3.695-3.018.419-4.533-.967-4.545-4.157l-5.081-9.238a16.49 16.49 0 0 1-8.777-.462c-.615.665-1.256.64-1.921-.074l-12.01.61c.493 1.786 1.392 3.301 2.698 4.545 3.153-1.183 5.309-.259 6.467 2.771v1.848c-3.326 4.841-5.765 4.404-7.317-1.312a25.114 25.114 0 0 1-5.155-8.85l-8.702-.536h-1.848l-11.936.074Z" fill="#66B0F0"/><path d="m232.723 123.503-6.024.185c-.899.025-.936.24-.111.647 1.848.948 3.868 1.108 6.061.48l.074-1.312Z" fill="#A34B8A"/><path d="m139.878 126.127 21.47 104.263a4.134 4.134 0 0 1-.044 1.822 4.063 4.063 0 0 1-.824 1.614c-.579.715-.364 1.306.646 1.774 3.708-1.035 5.075-3.369 4.102-7.003-.431-1.576-.653-2.402-.665-2.476a14215.06 14215.06 0 0 1-13.987-68.972 1250.283 1250.283 0 0 1-6.079-27.715c-.455-2.192-1.995-3.295-4.619-3.307Z" fill="#AFDBF7"/><path d="M66.897 127.661c1.712 1.441 3.713 2.008 6.004 1.7-1.33-2.254-3.332-2.821-6.004-1.7Z" fill="#5B2448"/><path d="M92.69 128.511c1.749 1.86 3.904 2.783 6.466 2.771-1.157-3.03-3.313-3.954-6.466-2.771Z" fill="#9B3C81"/><path d="M119.481 130.358c1.379 1.01 2.943 1.294 4.693.85-1.072-2.118-2.636-2.402-4.693-.85Z" fill="#5B2448"/><path d="M65.973 130.432c.468 4.262 2.574 5.408 6.319 3.437.85-.444 1.182-1.152.997-2.125-2.648.48-5.087.043-7.316-1.312Z" fill="#371225"/><path d="M91.84 131.818c1.552 5.715 3.99 6.153 7.316 1.312-2.574.258-5.013-.179-7.316-1.312Zm25.941 1.312c.012 3.19 1.527 4.576 4.545 4.157 1.922-.271 2.821-1.503 2.698-3.695-2.402.899-4.817.745-7.243-.462Zm77.527 9.626.85 11.16c9.879-1.725 15.144-7.643 15.797-17.756.086-1.318-.419-1.601-1.515-.85a54.63 54.63 0 0 1-15.132 7.446Z" fill="#5B2448"/><path d="M57.27 154.377c-16.222 10.741-26.1 25.215-29.636 43.42-2.698 13.857-3.91 29.716-3.64 47.577a191.181 191.181 0 0 0 8.278 53.12 80.535 80.535 0 0 0 9.497 20.49c9.238 14.313 22.504 21.735 39.798 22.264 20.854.641 37.174-7.181 48.962-23.465 3.671-5.075 6.972-11.184 9.904-18.328.098-.247.197-.666.295-1.257.136-.899.622-1.084 1.46-.554.69-.148 1.306-.789 1.848-1.922 6.491-13.586 13.143-29.617 19.954-48.094.165-.436.215-.908.148-1.373a2.839 2.839 0 0 0-.536-1.288c-.271-.344-.529-.147-.776.592a385.708 385.708 0 0 1-20.121 48.519c-.948 1.909-1.736 1.817-2.365-.277-10.667-10.63-22.855-19.881-36.564-27.752-1.06-.603-1.349-.345-.869.776 2.476 5.839 4.632 12.084 6.467 18.735.16.591.191 1.01.092 1.257-.258.714-.554.542-.887-.518a163.823 163.823 0 0 0-16.74-37.156 86.37 86.37 0 0 1-10.161-16.629c-2.649.271-4.835-.246-6.56-1.552-1.268-.96-2.161-2.771-2.678-5.432a221.078 221.078 0 0 0-4.232-17.571c-2.02 4.804-4.65 7.847-7.89 9.128-2.549 1.01-3.232.788-2.05-.666.234-.295.579-.56 1.035-.794 4.804-2.525 7.132-7.107 6.984-13.747a1.38 1.38 0 0 1 .242-.816c.162-.229.39-.384.645-.44l6.19-1.367c8.61-2.316 16.45-5.599 23.52-9.848 3.35-2.008 3.178-3.326-.517-3.954l-11.918-2.051c-7.193.296-13.888 2.193-20.084 5.691-1.416.8-1.7.492-.85-.924.16-.271.388-.499.684-.684 6.615-3.978 13.826-5.906 21.636-5.783 6.171-1.367 11.523-3.794 16.056-7.28 1.761-1.355 1.614-2.451-.444-3.288a34.62 34.62 0 0 0-11.455-2.513 82.774 82.774 0 0 0-24.85 4.73c-2.649.948-3.08.622-1.294-.979.259-.222.554-.395.887-.518 8.844-3.436 18.033-5.081 27.567-4.933a26.009 26.009 0 0 0 8.998-5.007c.231-.199.404-.447.499-.716.095-.268.107-.546.036-.799-.369-1.281-1.237-2.057-2.605-2.328-4.557-.899-7.483-1.54-8.776-1.922a106.077 106.077 0 0 0-25.571 6.43c-.21.074-.407.099-.592.074-.85-.123-.806-.419.13-.887 8.622-4.299 17.762-6.584 27.419-6.855 2.365-.911 4.034-1.983 5.007-3.215 1.872-2.389 1.306-3.8-1.7-4.231-12.638-1.823-24.413.333-35.327 6.467a3.36 3.36 0 0 1-1.663.443h-.887Z" fill="#F4ADA2"/><path d="M250.663 160.845A88.972 88.972 0 0 1 247.3 185.4c-1.478 5.26-3.91 9.663-7.298 13.211-3.732 3.892-8.16 4.674-13.284 2.346l-5.543 5.543c14.559 1.651 28.238 5.999 41.036 13.044 14.485 7.97 28.226 16.851 41.221 26.643 1.478 1.109 1.78.85.905-.776-2.525-4.68-5.075-9.336-7.649-13.968-.172-.295-.259-.585-.259-.868 0-.752.302-.955.906-.61.246.136.462.376.646.721a3768.086 3768.086 0 0 0 8.536 15.169 27.163 27.163 0 0 0 6.541 7.741 1467.193 1467.193 0 0 1 20.823 17.257l2.236-.535a.7.7 0 0 1 .536-.536 389.723 389.723 0 0 1 54.043-21.1c6.011-1.946 12.133-2.605 18.366-1.977.135.012.48.129 1.034.351.395.172.573-.08.536-.758a431.34 431.34 0 0 0-59.475-59.734c-11.197-9.238-22.536-17.005-34.016-23.299-6.368-3.486-13.537-6.399-21.506-8.739-16.124-4.73-31.114-2.624-44.972 6.319Z" fill="#F16D22"/><path d="M91.84 154.914c-9.657.271-18.797 2.555-27.42 6.854-.935.468-.979.764-.129.887.185.025.382 0 .592-.074a106.124 106.124 0 0 1 25.571-6.43c.357-.505.82-.917 1.386-1.237Z" fill="#9B3C81"/><path d="M150.576 157.149c4.607 23.009 9.269 46 13.987 68.972.012.074.234.9.665 2.476.973 3.634-.394 5.968-4.102 7.003l-79.448-3.086a86.37 86.37 0 0 0 10.162 16.629c18.599 10.002 34.421 23.718 47.466 41.147.874 1.17 1.219 2.341 1.034 3.511.629 2.094 1.417 2.186 2.365.277a385.708 385.708 0 0 0 20.121-48.519c.247-.739.505-.936.776-.592.284.38.468.823.536 1.288.067.465.017.937-.148 1.373-6.811 18.477-13.463 34.508-19.954 48.094-.542 1.133-1.158 1.774-1.848 1.922.493 10.002.154 20.275-1.016 30.818-.047.426.076.854.343 1.189.266.336.654.553 1.08.604 55.564 6.417 110.858 6.891 165.881 1.422 0-.689-.289-1.133-.868-1.33a9.152 9.152 0 0 1-.776-.296c-15.89-8.708-29.637-20.022-41.24-33.941a337.984 337.984 0 0 1-23.742-32.149c-1.38-2.106-3.498-4.169-6.356-6.189h-2.309c-9.928.406-18.514-.838-25.757-3.733-4.04-1.626-5.155-4.643-3.344-9.053a1.701 1.701 0 0 1-.924-.924c-4.015-.382-5.924-2.001-5.727-4.859.123-1.823 1.176-3.449 3.159-4.878 5.161-3.708 11.098-5.253 17.811-4.638 1.947.185 2.766-.049 2.458-.702-.103-.208-.297-.397-.563-.546a2.74 2.74 0 0 0-.952-.304c-6.861-.96-13.125.444-18.791 4.213-.074.037-.64.573-1.7 1.608-.923.899-2.081 1.01-3.473.332l-13.858 13.857-5.616 1.774c-3.708 2.119-4.761 1.066-3.16-3.159a10.128 10.128 0 0 1 1.7-5.081 44.838 44.838 0 0 1 8.518-10.033 28.191 28.191 0 0 0 5.487-6.596c-2.365-1.934-2.968-3.899-1.811-5.894 3.72-6.393 9.996-10.15 18.828-11.271l9.312-10.55a36.37 36.37 0 0 1 1.146-10.439c.11-.456.141-.887.092-1.293-.37-2.846-1.01-2.642-1.922.609-1.773 6.295-5.413 10.797-10.919 13.507-2.427 1.182-4.662 1.416-6.707.702-2.611-.924-4.231-2.876-4.859-5.857-1.577-7.489-1.343-15.656.702-24.5.111-.468.117-1.072.018-1.811-.185-1.466.345-2.574 1.589-3.325-13.266-8.438-27.715-11.031-43.346-7.779Zm72.058 31.872 4.546-4.231 4.009-4.527c.297-.329.729-.523 1.218-.546a2.43 2.43 0 0 1 1.443.417c6.146 4.028 6.54 7.889 1.182 11.585l-7.002 7.464c3.867 2.34 7.396 1.842 10.587-1.496 3.141-3.302 5.296-6.769 6.466-10.403a76.892 76.892 0 0 0 3.714-24.481c-.012-.604-.24-.696-.684-.277-7.624 7.119-16.721 10.753-27.289 10.901a.897.897 0 0 0-.642.285.904.904 0 0 0-.245.657 50.373 50.373 0 0 0 2.697 14.652Z" fill="#F16D22"/><path d="M196.287 167.089a1.047 1.047 0 0 0-.925-.052 1.046 1.046 0 0 0-.608.699c-2.489 9.497-2.92 18.606-1.294 27.326.493 2.624 2.076 4.01 4.749 4.158 3.695.184 6.768-1.349 9.219-4.601 4.361-5.802 7.299-12.533 8.814-20.195a.653.653 0 0 0-.294-.68.668.668 0 0 0-.242-.096c-7.07-1.133-13.543-3.319-19.419-6.559Z" fill="#F16D22"/><path d="M92.302 166.923c-9.534-.148-18.723 1.497-27.567 4.933a2.907 2.907 0 0 0-.887.518c-1.786 1.601-1.355 1.927 1.293.979a82.805 82.805 0 0 1 24.851-4.73c1.367.062 2.137-.505 2.31-1.7Z" fill="#9B3C81"/><path d="m227.18 184.79 7.852 6.928c5.358-3.695 4.964-7.557-1.182-11.584a2.439 2.439 0 0 0-1.443-.418c-.489.024-.921.218-1.218.547l-4.009 4.527Z" fill="#5B2448"/><path d="M85.835 181.704c-7.81-.123-15.021 1.805-21.636 5.783a2.018 2.018 0 0 0-.684.684c-.85 1.417-.566 1.725.85.924 6.196-3.498 12.89-5.395 20.084-5.691.998-.148 1.46-.714 1.386-1.7Z" fill="#A34B8A"/><path d="M218.015 193.64c1.331-.431 2.23-1.33 2.698-2.698l-1.349-7.926c-.172-.986-.394-1.004-.665-.056-1.133 3.856-1.361 7.416-.684 10.68Z" fill="#F16D22"/><path d="m227.18 184.79-4.545 4.231-1.922 1.922c-.468 1.367-1.367 2.266-2.698 2.697l-3.233 3.696-9.312 10.55 15.705-1.386 5.543-5.543a3.448 3.448 0 0 1 1.312-1.774l7.002-7.464-7.852-6.929Z" fill="#21A0AA"/><path d="m73.363 199.257-6.19 1.367a1.074 1.074 0 0 0-.644.44 1.38 1.38 0 0 0-.242.817c.148 6.639-2.18 11.221-6.984 13.746-.456.234-.801.499-1.035.794-1.182 1.454-.499 1.676 2.05.666 3.24-1.281 5.87-4.324 7.89-9.128-1.071-4.212.376-6.485 4.342-6.818 1.38-.11 1.65-.739.813-1.884Z" fill="#9B3C81"/><path d="m221.175 206.5-15.705 1.385c-8.832 1.121-15.108 4.878-18.828 11.271-1.158 1.995-.554 3.96 1.811 5.894l4.471 1.847c5.494-7.661 13.045-10.777 22.652-9.349 3.117.456 3.302.924.555 1.405a3.244 3.244 0 0 1-.98.037c-8.967-.937-16.173 2.007-21.617 8.831-.197 2.365.419 4.521 1.848 6.467 1.392.678 2.549.567 3.473-.332 1.06-1.035 1.626-1.571 1.7-1.608 5.666-3.769 11.93-5.173 18.791-4.213.358.05.686.155.952.304.266.149.46.337.563.546.308.653-.511.887-2.458.702-6.713-.615-12.65.93-17.811 4.638-1.983 1.429-3.036 3.055-3.159 4.878-.198 2.857 1.712 4.477 5.727 4.859 5.506-4.336 11.788-6.06 18.846-5.173.33.046.635.145.893.288.259.144.465.33.604.543.591.936-.185 1.275-2.328 1.016-6.319-.763-12.016.653-17.091 4.25-1.811 4.41-.696 7.427 3.344 9.053 7.243 2.895 15.828 4.139 25.756 3.733-5.124-4.312-10.999-6.165-17.626-5.562-.443.037-.985.185-1.626.444-1.207.468-1.792.338-1.755-.388.012-.248.127-.49.328-.687.201-.197.475-.339.78-.403 8.536-1.836 15.939.363 22.209 6.596 2.858 2.02 4.976 4.083 6.356 6.189a337.984 337.984 0 0 0 23.742 32.149c11.603 13.919 25.35 25.233 41.24 33.941.098.05.357.148.776.296.579.197.868.641.868 1.33a3.902 3.902 0 0 1 1.626.425c19.93 10.138 39.392 11.135 58.385 2.994 8.438-3.61 15.126-8.352 20.066-14.227 5.592-6.627 9.078-14.393 10.458-23.299 1.428-9.177.991-19.031-1.312-29.562l-3.769-10.698a487.039 487.039 0 0 0-50.441 11.584 22.932 22.932 0 0 1-6.836.887.702.702 0 0 0-.536.536 403.78 403.78 0 0 0 10.919 10.624c.259.259.444.524.555.795.369.96.086 1.268-.85.923a2.749 2.749 0 0 1-.887-.572 396.39 396.39 0 0 1-11.973-11.234 1467.193 1467.193 0 0 0-20.823-17.257 27.166 27.166 0 0 1-6.541-7.742 3700.375 3700.375 0 0 1-8.536-15.169c-.184-.345-.4-.585-.646-.72-.604-.345-.906-.142-.906.609 0 .284.087.573.259.869a1261.89 1261.89 0 0 1 7.649 13.968c.875 1.626.573 1.884-.905.776-12.995-9.793-26.736-18.674-41.221-26.643-12.798-7.046-26.477-11.394-41.036-13.044Z" fill="#F3ACA1"/><path d="m192.924 226.898.61.924c5.444-6.824 12.65-9.768 21.617-8.832.345.037.672.025.98-.037 2.747-.48 2.562-.948-.555-1.404-9.607-1.429-17.158 1.687-22.652 9.349Z" fill="#A34B8A"/><path d="M188.453 225.05a28.22 28.22 0 0 1-5.488 6.596 44.834 44.834 0 0 0-8.517 10.033l7.076 6.466 13.858-13.857c-1.429-1.946-2.045-4.102-1.848-6.467l-.61-.924-4.471-1.847Z" fill="#21A0AA"/><path d="M203.16 244.062c.185.431.493.739.924.924 5.075-3.597 10.772-5.013 17.091-4.249 2.143.258 2.919-.08 2.328-1.017a1.682 1.682 0 0 0-.604-.542 2.564 2.564 0 0 0-.893-.289c-7.058-.887-13.34.838-18.846 5.173Z" fill="#9B3C81"/><path d="M174.448 241.679a10.128 10.128 0 0 0-1.7 5.081 8.633 8.633 0 0 1 3.16 3.159l5.616-1.774-7.076-6.466Z" fill="#fff"/><path d="M410.632 246.298c.037.677-.142.93-.536.757-.554-.221-.899-.338-1.034-.351-6.233-.628-12.355.031-18.366 1.977a18.727 18.727 0 0 1 3.233 8.629l3.77 10.698c7.427-2.07 12.601-5.802 15.52-11.197 1.921-3.584 1.059-7.089-2.587-10.513Z" fill="#5B2448"/><path d="M172.748 246.76c-1.601 4.225-.548 5.278 3.159 3.159a8.623 8.623 0 0 0-3.159-3.159Z" fill="#9B3C81"/><path d="M390.696 248.681a389.848 389.848 0 0 0-54.043 21.1c2.315.05 4.594-.246 6.836-.887a487.039 487.039 0 0 1 50.441-11.584 18.724 18.724 0 0 0-3.234-8.629Zm-298.856.462a163.866 163.866 0 0 1 16.739 37.156c.333 1.06.629 1.232.887.518.099-.247.068-.666-.092-1.257-1.835-6.651-3.991-12.896-6.467-18.735-.48-1.121-.191-1.38.868-.776 13.71 7.871 25.898 17.122 36.565 27.752.185-1.171-.16-2.341-1.034-3.511-13.045-17.429-28.867-31.145-47.466-41.147Z" fill="#9B3C59"/><path d="M233.185 257.772h2.309c-6.27-6.233-13.672-8.432-22.209-6.596a1.583 1.583 0 0 0-.78.403 1.038 1.038 0 0 0-.328.687c-.037.726.548.856 1.755.388.641-.259 1.183-.407 1.626-.444 6.627-.603 12.502 1.251 17.627 5.562Z" fill="#A34B8A"/><path d="m336.117 270.317-2.236.536a395.12 395.12 0 0 0 11.973 11.234c.296.271.591.462.887.573.936.345 1.219.037.85-.924a2.46 2.46 0 0 0-.555-.795 403.78 403.78 0 0 1-10.919-10.624Z" fill="#9B3C81"/></svg>