<svg width="470" height="351" fill="none" xmlns="http://www.w3.org/2000/svg"><g clip-path="url(#a)"><path d="M98.547 91.256c-2.35-1.19-4.19-.948-5.518.726-.539.677-1.044 1.113-1.514 1.306L83.592 96.4a1.227 1.227 0 0 1-.441.084c-.15 0-.295-.028-.428-.083a.97.97 0 0 1-.342-.234.875.875 0 0 1-.2-.348c-.318-1.037-.069-1.97.747-2.8.168-.175.296-.366.37-.55.073-.183.089-.353.045-.487-.11-.401-.47-.374-1.079.083-3.927 3-6.845 6.817-8.753 11.449-1.507 3.692-3.298 3.831-5.372.415-2.199-3.637-5.2-6.651-9.002-9.043m27.483 39.41-10.35-4.107a.746.746 0 0 0-.323-.055.678.678 0 0 0-.306.087.568.568 0 0 0-.214.208.512.512 0 0 0-.07.279c.207 6.001 3.416 9.416 9.624 10.246" stroke="#A86975" stroke-width="4.148"/><path d="M84.629 147.177c-13.538 4.245-26.702 3.353-39.493-2.676m91.701 94.978-15.474 1.639" stroke="#F77E74" stroke-width="4.148"/><path d="M121.363 241.118c-.982.097-1.846-.131-2.592-.684" stroke="#D25165" stroke-width="4.148"/><path d="M118.771 240.434a5185.277 5185.277 0 0 1-7.965-28.811c-4.495-16.4-12.342-30.692-23.543-42.874-5.448-5.905-10.6-9.888-15.453-11.948-7.992-3.402-15.024-2.212-21.095 3.568-3.65 3.471-6.893 9.029-9.728 16.676a121.763 121.763 0 0 0-5.31 18.855 362.16 362.16 0 0 0-6.015 45.654" stroke="#F77E74" stroke-width="4.148"/><path d="M29.662 241.554c2.005 4.342 5.607 6.935 10.807 7.778 5.42.885 8.85 1.404 10.288 1.556" stroke="#AA3A47" stroke-width="4.148"/><path d="M50.757 250.888c3.236 8.905 7.772 16.939 13.607 24.102 5.24 6.444 10.91 11.173 17.009 14.188 6.983 3.471 14.436 5.054 22.36 4.75 12.625-.484 26.425-2.731 41.401-6.741" stroke="#F77E74" stroke-width="4.148"/><path d="M118.771 240.434a103.547 103.547 0 0 0-12.155 4.708c-1.286.595-1.501.947-.643 1.058.207.028.435-.014.684-.125a80.021 80.021 0 0 1 14.706-4.957" stroke="#CF8194" stroke-width="4.148"/><path d="m50.757 250.888-1.556-5.704" stroke="#A86975" stroke-width="4.148"/><path d="M49.201 245.184c19.401-9.348 39.825-13.006 61.273-10.973" stroke="#C87592" stroke-width="4.148"/><path d="M110.474 234.211c1.286-.11 2.42.055 3.401.498.761.346 1.072.104.934-.726-2.669-16.22-7.647-31.57-14.935-46.048-5.738-11.408-13.82-20.541-24.247-27.4-3.692-2.434-7.011-3.886-9.956-4.356-4.204-.664-7.938.138-11.201 2.406-5.822 4.066-10.08 10.51-12.777 19.332a232.172 232.172 0 0 0-9.853 57.269c-.012.196.065.432.222.684.156.251.388.509.67.747.318.277.477.685.477 1.224" stroke="#F77E74" stroke-width="4.148"/><path d="m33.209 237.841-3.547 3.713" stroke="#A86975" stroke-width="4.148"/><path d="M110.474 234.211c-.083-1.051-.948-1.715-2.593-1.991-20.424-3.36-39.618-3.409-57.58-.145-1.48.276-2.856.816-4.128 1.618" stroke="#CA4664" stroke-width="4.148"/><path d="M46.173 233.692a43.721 43.721 0 0 0-12.964 4.149" stroke="#AA3A47" stroke-width="4.148"/><path d="M49.201 245.184c-1.963-3.54-2.973-7.371-3.028-11.492" stroke="#7B3065" stroke-width="4.148"/><path d="m286.782 254.6-4.584-4.936a1.388 1.388 0 0 0-.823-.431 1.06 1.06 0 0 0-.816.223l-7.633 6.327a1.097 1.097 0 0 0-.382.772 1.42 1.42 0 0 0 .258.908l4.045 5.87" stroke="#F77E74" stroke-width="4.148"/><path d="M268.55 271.111c-3.609 1.798-6.029 4.564-7.26 8.297" stroke="#FAB55A" stroke-width="4.148"/><path d="M429.82 241.554c-25.042.221-47.458 7.826-67.246 22.816" stroke="#ADAFC9" stroke-width="4.148"/><path d="m362.574 264.37-33.768-40.302a2.354 2.354 0 0 0-1.553-.841 2.224 2.224 0 0 0-1.662.489l-34.142 27.608" stroke="#B3C08F" stroke-width="4.148"/><path d="m291.449 251.323.083-.954" stroke="#ADAFC9" stroke-width="4.148"/><path d="M291.532 250.369a1398.378 1398.378 0 0 1 13.877-51.337c.677-2.337.608-3.249-.208-2.738-.214.132-.418.35-.597.64-.179.29-.329.645-.44 1.04l-9.292 33.748a1.006 1.006 0 0 1-.5.609.992.992 0 0 1-.786.055 1502.714 1502.714 0 0 0-17.382-6.119 2.43 2.43 0 0 0-.913-.146c-1.231.028-1.334.415-.311 1.162.235.18.525.297.871.353 6.181 1.051 11.796 3.408 16.843 7.073.289.212.512.486.639.783.126.298.15.604.066.876l-2.987 9.936" stroke="#21A0AA" stroke-width="4.148"/><path d="M290.412 246.304a110.427 110.427 0 0 0-22.298-11.575" stroke="#ADAFC9" stroke-width="4.148"/><path d="M291.532 250.369c.249-1.604-.124-2.959-1.12-4.065" stroke="#C6C1CE" stroke-width="4.148"/><path d="M362.574 264.37c-3.526 3.471-10.253 9.044-20.182 16.718-7.191 5.573-14.443 9.092-21.759 10.558-.138.014-.878.284-2.219.809-.926.36-1.791.187-2.593-.519" stroke="#FABE68" stroke-width="4.148"/><path d="m315.821 291.937 26.924-22.63a1.274 1.274 0 0 0 .453-.858 1.276 1.276 0 0 0-.287-.926L326.4 247.59a2.142 2.142 0 0 0-1.425-.756 2.05 2.05 0 0 0-1.52.466l-29.517 24.475a1.241 1.241 0 0 0-.444.832 1.207 1.207 0 0 0 .278.89l15.827 18.958" stroke="#FFE796" stroke-width="4.148"/><path d="M309.598 292.455a2506.3 2506.3 0 0 1-10.848 1.763c-2.793.457-3.643 1.411-2.551 2.863.415.567 1.141 1.113 2.178 1.638 3.18 1.604 6.216 2.883 9.106 3.838 2.268.746 2.42 1.624.456 2.634l-8.193 4.21" stroke="#FABE68" stroke-width="4.148"/><path d="M299.746 309.401c-.525-1.216-1.949-3.049-4.273-5.496-7.73-8.09-16.704-19.021-26.923-32.794" stroke="#FFC61F" stroke-width="4.148"/><path d="m268.55 271.111 8.297-7.778" stroke="#FABE68" stroke-width="4.148"/><path d="M276.847 263.333c4.19-1.922 7.502-4.833 9.935-8.732" stroke="#FC8F3A" stroke-width="4.148"/><path d="M286.782 254.6c2.061-.401 3.616-1.493 4.667-3.277" stroke="#FABE68" stroke-width="4.148"/><path d="m350.648 161.696-2.241 3.112" stroke="#ADAFC9" stroke-width="4.148"/><path d="m348.407 164.808-4.667 4.667" stroke="#C6C1CE" stroke-width="4.148"/><path d="M343.74 169.475c-5.31 4.024-10.813 6.271-16.51 6.741-6.859.553-9.452-2.531-7.779-9.251" stroke="#ADAFC9" stroke-width="4.148"/><path d="M320.571 157.029c4.08-1.258 7.474-3.561 10.185-6.907 1.23-1.521.871-2.406-1.079-2.655-3.429-.456-6.838.339-10.226 2.385m105.785 129.992c7.177-12.086 8.705-24.849 4.584-38.29" stroke="#A86975" stroke-width="4.148"/><path d="M429.821 241.554a48.054 48.054 0 0 0-5.705-14.001" stroke="#616A9C" stroke-width="4.148"/><path d="m424.116 227.553-.518-2.074" stroke="#7A7DA1" stroke-width="4.148"/><path d="M423.598 225.479c3.595-8.574 2.634-16.573-2.883-23.999-9.735-13.095-21.538-23.937-35.407-32.524-11.436-7.08-22.99-9.5-34.661-7.26" stroke="#616A9C" stroke-width="4.148"/><path d="m350.647 161.696-6.43-25.803c-.292-1.158-.399-2.279-.307-3.239.091-.959.377-1.719.826-2.195 2.862-3.043 3.747-6.513 2.655-10.413a2.677 2.677 0 0 0-1.182-1.576c-3.582-2.13-7.378-1.238-11.388 2.675a5.168 5.168 0 0 1-2.1 1.257c-.759.227-1.524.237-2.214.029l-17.237-5.33c-.553-.166-.678-.014-.373.456 2.378 3.692 1.147 4.881-3.692 3.568-2.199-.609-3.492-2.427-3.879-5.456-.138-1.092.428-1.652 1.701-1.68.871-.014.988-.318.352-.912-1.507-1.383-3.332-2.462-5.476-3.236" stroke="#A86975" stroke-width="4.148"/><path d="M357.306 321.494c-.733-.664-1.425-.864-2.075-.602a1111.773 1111.773 0 0 1-34.743 13.4" stroke="#FABE68" stroke-width="4.148"/><path d="M320.488 334.292a22.303 22.303 0 0 0-9.852 3.63" stroke="#FAB55A" stroke-width="4.148"/><path d="M301.737 335.931a32.343 32.343 0 0 1 7.696-1.992 4.872 4.872 0 0 0 1.327-.352c1.756-.775 1.763-1.342.021-1.701-.415-.083-.85-.042-1.307.124a87.273 87.273 0 0 1-8.691 2.448" stroke="#C6889B" stroke-width="4.148"/><path d="m295.079 320.291 10.33-1.867c.298-.051.584-.175.839-.361.255-.187.471-.432.633-.718.913-1.548.132-1.534-2.343.042-1.66 1.065-4.985 1.742-9.977 2.033" stroke="#BB8492" stroke-opacity=".996" stroke-width="4.148"/><path d="M289.977 313.114a22.556 22.556 0 0 0 9.769-3.713" stroke="#FAB55A" stroke-width="4.148"/><path d="M309.599 292.455c2.157.705 4.231.532 6.222-.518" stroke="#FAD6D1" stroke-width="4.148"/><path d="M424.116 227.553c-19.788-1.217-37.896 4.314-54.324 16.593a1.875 1.875 0 0 0-.731 1.292 1.847 1.847 0 0 0 .441 1.405c1.646 1.881 3.042 4.114 4.19 6.7 1.189 2.669.919 2.828-.809.477-12.75-17.23-22.263-36.078-28.541-56.543-1.369-4.481-2.102-11.526-2.199-21.137 0-.677-.214-.746-.643-.207a55.84 55.84 0 0 1-10.205 10.309c-1.742 1.355-3.319 2.032-4.729 2.032-2.531 0-3.824-1.707-3.879-5.123-.014-1.41-.408-2.447-1.182-3.111a3.322 3.322 0 0 1-.74-.855c-.16-.284-.214-.537-.152-.722l.332-1.078c.262-.844.649-.83 1.161.041 1.12 1.867 1.825 4.156 2.116 6.866.332 3.056 1.811 3.775 4.439 2.157 6.568-4.052 11.595-9.776 15.079-17.174" stroke="#21A0AA" stroke-width="4.148"/><path d="M423.598 225.479c-19.249.027-37.218 5.856-53.909 17.485a2.291 2.291 0 0 1-2.626.022 2.343 2.343 0 0 1-.651-.665c-9.846-15.197-16.794-30.678-20.846-46.442-1.521-5.932-2.04-11.152-1.556-15.66.567-5.324 2.033-10.461 4.398-15.411" stroke="#21A0AA" stroke-width="4.148"/><path d="m328.267 345.348-7.779-11.056" stroke="#FFC61F" stroke-width="4.148"/><path d="m219.972 90.135-.166-.518" stroke="#C27892" stroke-width="4.148"/><path d="M55.486 99.594c-3.65-1.507-3.782-1.251-.394.768 2.544 1.507 4.46 3.83 5.746 6.969.276.678.414.657.414-.062-.013-3.554-1.935-6.112-5.766-7.675Z" stroke="#C6889B" stroke-width="4.148"/><path d="M87.056 101.441c2.669 1.341 5.192 1.562 7.57.663a2.04 2.04 0 0 0 .792-.559c.213-.246.361-.538.432-.851.47-2.102-.532-2.676-3.007-1.722a53.65 53.65 0 0 1-5.746 1.888c-.498.138-.511.332-.041.581Z" stroke="#A86975" stroke-width="4.148"/><path d="M84.92 112.931a5.642 5.642 0 1 0-11.284 0 5.642 5.642 0 0 0 11.283 0Z" stroke="#F09E9A" stroke-width="4.148"/><path d="M89.545 115.026c-.512-.152-.643.014-.394.498 1.272 2.489 3.229 3.167 5.87 2.033.719-.304.705-.581-.042-.83l-5.434-1.701Z" stroke="#CF8194" stroke-width="4.148"/><path d="M310.096 124.92c-1.161-.553-2.122-1.161-2.883-1.825-2.406-2.074-3.65-1.86-3.733.643a1.912 1.912 0 0 0 .85 1.639c1.659 1.106 3.512 1.472 5.559 1.099 1.646-.304 1.715-.823.207-1.556Z" stroke="#A86975" stroke-width="4.148"/><path d="M339.965 122.991c-2.544 3.056-3.955 5.068-4.231 6.036-.512 1.743-.201 1.66.933-.248 1.383-2.365 3.381-4.045 5.995-5.041 1.327-.511 1.334-1.009.02-1.493a2.443 2.443 0 0 0-2.717.746Z" stroke="#C6889B" stroke-width="4.148"/><path d="M327.541 131.682c0-1.408-.56-2.759-1.556-3.754a5.307 5.307 0 0 0-9.064 3.754 5.309 5.309 0 0 0 9.064 3.755 5.31 5.31 0 0 0 1.556-3.755Z" stroke="#F09E9A" stroke-width="4.148"/><path d="M307.358 139.523c2.697.594 4.232-.27 4.605-2.593.138-.844-.166-1.12-.913-.83l-3.961 1.494c-2.075.788-1.985 1.431.269 1.929Z" stroke="#CF8194" stroke-width="4.148"/><path d="M209.455 262.669c.441.188.835.47 1.154.825.319.355.556.774.692 1.229 1.48 4.95 2.234 6.319 2.261 4.107a4.616 4.616 0 0 0-.56-2.303 16.2 16.2 0 0 0-3.609-4.667 1.452 1.452 0 0 0-.623-.355.877.877 0 0 0-.601.044c-.401.222.028.595 1.286 1.12Zm-8.4 3.236 4.356 7.219c.249.414.366.394.352-.063-.096-3.388-1.618-5.835-4.563-7.342-.235-.111-.283-.049-.145.186Z" stroke="#BA7F87" stroke-opacity=".996" stroke-width="4.148"/><path d="M193.691 272.128c2.324 2.323 3.589 4.563 3.796 6.72.18 1.825.519 1.964 1.017.415.083-.249.11-.498.083-.747-.471-3.415-1.999-5.697-4.584-6.845-.941-.428-1.044-.276-.312.457Zm-7.923 7.135c-2.752-1.161-5.525-1.348-8.318-.56-1.023.291-1.016.477.021.56l8.172.643c1.314.097 1.355-.117.125-.643Z" stroke="#C6889B" stroke-width="4.148"/><path d="M300.742 328.111c5.254-1.092 8.338-1.984 9.251-2.676 2.489-1.894 2.247-2.268-.726-1.12a70.48 70.48 0 0 1-10.973 3.257c-.954.193-1.106.546-.456 1.058.332.262.753.29 1.265.083.982-.388 1.528-.588 1.639-.602Z" stroke="#CF8194" stroke-width="4.148"/><path d="M326.025 256.843a.457.457 0 0 0-.642-.062l-21.031 17.337a.454.454 0 0 0-.062.642.457.457 0 0 0 .643.062l21.03-17.337a.443.443 0 0 0 .164-.308.44.44 0 0 0-.018-.177.442.442 0 0 0-.084-.157Z" stroke="#BFA8B5" stroke-opacity=".996" stroke-width="4.148"/><path d="M272.468 91.677 165.74 116.134c.211-.499-.082-.889-.88-1.17l.167-.471h-.001c-16.778-5.959-29.65-16.57-38.633-31.846-4.192-9.436-5.705-18.45-4.565-27.054 1.14-8.61 4.942-16.847 11.433-24.71 7.828-9.476 17.445-16.485 28.857-21.031 1.103-.43 1.849-1.169 2.177-2.208l.158-.05c.67.075 1.221.121 1.651.135.226.007.425.006.594-.006.161-.011.326-.034.466-.085 22.861-8.065 46.04-8.197 69.555-.39 18.629 6.186 32.486 17.215 41.602 33.086 3.999 6.97 5.934 13.99 5.825 21.066-.137 8.15-2.206 15.87-6.211 23.163l-.004.005-.065.088a775.157 775.157 0 0 1-1.296 1.696 3539.72 3539.72 0 0 1-4.102 5.325Zm-87.601 28.293a1289.194 1289.194 0 0 1-18.631-3.733l103.123-16.726-.487-.112-.001.002c-.088.385-.083.787.017 1.17.099.384.289.738.553 1.035l.001.001 13.684 15.571.001.001c.025.03.043.065.052.102a.215.215 0 0 1 0 .104.148.148 0 0 1-.039.07l.359.349-.359-.349a.116.116 0 0 1-.055.034c-1.412.357-2.983.073-4.742-.945-5.455-3.173-12.454-6.31-20.989-9.413l-.003-.001a2.674 2.674 0 0 0-2.321.255 84.412 84.412 0 0 1-25.94 10.68l.112.488-.112-.488a146.595 146.595 0 0 1-24.785 3.494h-.002c-5.743.329-12.22-.198-19.436-1.589Zm93.075-35.417a.056.056 0 0 1 .001-.002l-.001.002Z" fill="#fff" stroke="#986293"/><path d="M176.662 101.855a434.929 434.929 0 0 1-14.623-1.078 1.635 1.635 0 0 1-1.451-1.297 1.677 1.677 0 0 1-.001-.695c5.877-26.73 9.603-54.137 11.18-82.222.026-.406.208-.787.506-1.062a1.544 1.544 0 0 1 1.091-.41l69.756 1.535a.997.997 0 0 1 .728.332 1.04 1.04 0 0 1 .267.767 592.604 592.604 0 0 1-11.574 87.968c-.06.289-.219.547-.447.726-.229.18-.512.268-.797.248a840.453 840.453 0 0 1-40.033-3.609c-4.259-.484-9.126-.885-14.602-1.203Zm-2.365-85.458a1.184 1.184 0 0 0-1.244 1.1c-1.826 26.495-5.497 53.432-11.014 80.811a1.054 1.054 0 0 0 .196.875 1.096 1.096 0 0 0 .799.432l67.35 5.808c.469.039.936-.097 1.308-.381.372-.284.623-.695.704-1.154 4.812-27.891 8.276-55.7 10.392-83.425a2.574 2.574 0 0 0-.702-1.984 2.629 2.629 0 0 0-1.953-.816c-21.42.608-43.365.186-65.836-1.266Z" fill="#986293"/><path d="M98.547 91.256c-2.35-1.19-4.19-.947-5.517.726-.54.677-1.044 1.113-1.514 1.307L83.591 96.4a1.224 1.224 0 0 1-.441.084c-.15 0-.295-.028-.428-.083a.97.97 0 0 1-.342-.234.876.876 0 0 1-.2-.348c-.318-1.037-.069-1.97.747-2.8.168-.175.297-.365.37-.55.074-.183.09-.352.045-.487-.11-.401-.47-.373-1.079.083-3.927 3-6.844 6.817-8.753 11.45-1.507 3.692-3.298 3.83-5.372.414-2.199-3.636-5.2-6.65-9.002-9.043.913-5.614.594-11.076-.954-16.386-.954-3.264-.47-6.292 1.452-9.086 4.328-6.278 9.997-7.799 17.008-4.563 1.909.885 3.45.574 4.626-.933.483-.63 1.017-1.076 1.514-1.265 5.434-2.06 9.77-.803 13.005 3.775.042.069.484.974 1.328 2.717 1.079 2.226 3.111 3 6.098 2.323 3.568-.816 5.856.698 6.866 4.542 2.599 9.79-1.245 14.873-11.533 15.246Z" fill="#5B2448"/><path d="M191.493 75.616c-1.549 3-1.031 5.552 1.555 7.654 4.079 3.319 7.861 2.932 11.346-1.161.277-.332.546-.554.809-.664.788-.318 1.01.152.664 1.41a3.243 3.243 0 0 0-.068 1.397c.079.465.258.909.524 1.3 1.424 2.074.616 2.205-2.427.394a1.804 1.804 0 0 0-1.846-.02c-2.931 1.7-5.227 1.804-6.886.31-.595-.54-1.134-.947-1.618-1.224-1.576-.912-2.641-2.288-3.194-4.127-1.369-4.564-.035-7.26 4.003-8.09a2.68 2.68 0 0 1 1.929.353c3.651 2.31 3.989 4.971 1.016 7.986-.497.511-.594.442-.29-.208 2.212-4.757.885-6.872-3.983-6.347a1.958 1.958 0 0 0-.904.325 1.897 1.897 0 0 0-.63.712Z" fill="#EC8E91"/><path d="M212.11 82.15c.18-.76.574-1.037 1.183-.83.278.094.51.3.655.583.145.281.192.62.133.952-.318 1.756-1.334 3.077-3.049 3.962-1.314.664-1.3-.049.041-2.137a7.751 7.751 0 0 0 1.037-2.53Z" fill="#F16D22"/><path d="m219.972 90.135-.166-.518c-.069-1.687-.858-2.717-2.365-3.09a1.412 1.412 0 0 1-.421-.18 1.152 1.152 0 0 1-.315-.29.771.771 0 0 1-.145-.343.55.55 0 0 1 .051-.328c.277-.526.809-.616 1.598-.27.318.152.698.463 1.14.933 2.019 2.254 4.045 2.323 6.078.208.498-.512.608-.45.332.186-1.01 2.407-2.939 3.637-5.787 3.692Z" fill="#EC8E91"/><path d="M425.236 279.844c7.177-12.086 8.705-24.849 4.584-38.29a48.074 48.074 0 0 0-5.704-14.001l-.518-2.074c3.595-8.574 2.634-16.573-2.883-23.999-9.735-13.095-21.538-23.936-35.407-32.524-11.436-7.08-22.99-9.5-34.661-7.26l-6.43-25.803c-.292-1.158-.399-2.279-.307-3.239.091-.959.377-1.719.826-2.195 2.862-3.042 3.747-6.513 2.655-10.413a2.68 2.68 0 0 0-1.182-1.576c-3.582-2.13-7.378-1.238-11.388 2.675a5.181 5.181 0 0 1-2.1 1.258c-.759.226-1.524.236-2.214.029l-17.237-5.331c-.553-.166-.678-.014-.373.456 2.378 3.692 1.147 4.881-3.692 3.568-2.199-.609-3.492-2.427-3.879-5.455-.138-1.093.428-1.653 1.701-1.681.871-.013.988-.318.352-.912-1.507-1.383-3.332-2.462-5.476-3.236.014-2.918.374-4.95 1.079-6.098 5.116-8.297 11.934-13.524 20.452-15.681 8.338-2.102 16.151-1.01 23.438 3.277 8.532 5.006 13.22 13.247 14.064 24.725.304 4.079 1.396 7.481 3.277 10.205 1.77 2.53 4.66 4.072 8.67 4.625 3.761.512 8.076.754 12.943.726 13.469-.097 25.299 4.017 35.49 12.342 4.439 3.609 7.827 7.654 10.164 12.134 2.489 4.771 4.058 9.922 4.708 15.453.871 7.412 4.405 13.164 10.6 17.258 9.831 6.471 16.441 15.328 19.829 26.57 6.209 20.521 1.749 37.544-13.379 51.068-7.55 6.748-16.884 11.214-28.002 13.399Z" fill="#5B2448"/><path d="m219.806 89.617.166.519c-9.874.83-19.678.31-29.413-1.556a1.196 1.196 0 0 1-.315-.11.93.93 0 0 1-.246-.182.597.597 0 0 1-.138-.224.395.395 0 0 1-.006-.23c.083-.291.415-.374.995-.25 6.071 1.231 11.644 1.694 16.719 1.39 4.535-.276 8.615-.062 12.238.643Z" fill="#986293"/><path d="M98.547 91.256c-.58 3.94-.152 7.702 1.286 11.284.187.495.643 1.01 1.286 1.451 1.673 1.176 1.576 2.814-.29 4.916a3.734 3.734 0 0 0-.846 1.632 3.702 3.702 0 0 0 .037 1.832c.622 2.199 1.631 4.398 3.028 6.596 1.825 2.835 2.793 4.978 2.904 6.43.29 3.43-1.182 5.981-4.418 7.654-3.914 2.005-8.885 2.42-14.914 1.245l-10.35-4.107a.746.746 0 0 0-.323-.055.677.677 0 0 0-.306.087.568.568 0 0 0-.214.208.51.51 0 0 0-.07.278c.207 6.002 3.416 9.417 9.624 10.247l-.352 6.223c-13.538 4.245-26.702 3.353-39.493-2.676l12.01-25.306a1.85 1.85 0 0 0 .172-.737 1.924 1.924 0 0 0-.137-.756 2.04 2.04 0 0 0-.425-.659 2.117 2.117 0 0 0-.648-.461c-7.176-3.291-10.398-8.145-9.665-14.561.359-3.111 1.666-5.33 3.92-6.658 2.489-1.466 5.413-1.625 8.774-.477 3.803 2.392 6.803 5.406 9.002 9.043 2.074 3.416 3.865 3.277 5.372-.415 1.908-4.632 4.826-8.449 8.753-11.45.609-.456.968-.483 1.079-.082.044.134.028.304-.045.488a1.766 1.766 0 0 1-.37.549c-.816.83-1.065 1.763-.747 2.8.039.13.107.247.2.348.093.1.21.18.342.234.133.055.278.083.428.083.15 0 .3-.03.44-.084l7.924-3.112c.47-.193.975-.629 1.514-1.306 1.328-1.674 3.167-1.915 5.518-.726Zm-43.06 8.338c-3.651-1.507-3.783-1.251-.395.768 2.544 1.507 4.46 3.83 5.746 6.969.276.678.414.657.414-.062-.013-3.554-1.936-6.112-5.766-7.675Zm31.569 1.846c2.669 1.341 5.192 1.563 7.57.664.307-.122.578-.314.792-.559a1.96 1.96 0 0 0 .432-.852c.47-2.101-.532-2.675-3.007-1.721a53.454 53.454 0 0 1-5.746 1.887c-.498.139-.511.332-.041.581Zm-2.137 11.491a5.642 5.642 0 1 0-11.283 0 5.642 5.642 0 0 0 11.283 0Zm4.626 2.095c-.512-.152-.643.014-.394.498 1.272 2.489 3.228 3.167 5.87 2.033.719-.304.705-.581-.042-.83l-5.434-1.701Z" fill="#F4ADA2"/><path d="M55.486 99.594c3.83 1.563 5.753 4.121 5.767 7.675 0 .719-.139.74-.415.062-1.286-3.139-3.202-5.462-5.746-6.969-3.388-2.02-3.256-2.275.394-.768Z" fill="#986293"/><path d="M87.056 101.441c-.47-.249-.457-.443.041-.581a53.65 53.65 0 0 0 5.746-1.888c2.475-.954 3.477-.38 3.007 1.722-.07.313-.22.605-.432.851a2.036 2.036 0 0 1-.791.559c-2.379.899-4.902.678-7.571-.663Z" fill="#5B2448"/><path d="M79.277 118.573a5.642 5.642 0 1 0 0-11.284 5.642 5.642 0 0 0 0 11.284Z" fill="#EC8E91"/><path d="M301.903 109.841c2.144.774 3.969 1.853 5.476 3.236.636.594.519.898-.352.912-1.272.028-1.839.588-1.701 1.68.387 3.029 1.68 4.847 3.879 5.456 4.839 1.313 6.07.124 3.692-3.568-.304-.47-.18-.622.373-.456l17.237 5.33c.69.208 1.455.198 2.214-.029a5.168 5.168 0 0 0 2.1-1.257c4.01-3.913 7.806-4.805 11.388-2.675.573.346.996.91 1.182 1.576 1.092 3.9.207 7.37-2.655 10.413-.449.476-.735 1.236-.826 2.195-.092.96.015 2.081.307 3.239l6.431 25.803-2.241 3.112-4.667 4.667c-5.31 4.024-10.813 6.271-16.51 6.741-6.859.553-9.452-2.531-7.779-9.251 1.12-3.181 1.494-6.493 1.12-9.936 4.08-1.258 7.474-3.56 10.185-6.907 1.23-1.521.871-2.406-1.079-2.655-3.429-.456-6.838.339-10.226 2.386-8.933 3.941-14.588 1.279-16.967-7.986a154.19 154.19 0 0 1-1.887-8.318c-.121-.614-.491-1.178-1.037-1.576-2.642-1.95-2.711-4.128-.208-6.534.442-.429.728-1.037.809-1.722l1.742-13.876Zm8.194 15.079c-1.162-.553-2.123-1.161-2.884-1.825-2.406-2.074-3.65-1.86-3.733.643a1.912 1.912 0 0 0 .85 1.639c1.66 1.106 3.513 1.472 5.559 1.099 1.646-.304 1.715-.823.208-1.556Zm29.868-1.929c-2.544 3.056-3.955 5.068-4.231 6.036-.512 1.743-.201 1.66.933-.249 1.383-2.364 3.381-4.044 5.995-5.04 1.327-.512 1.334-1.009.021-1.493a2.443 2.443 0 0 0-2.718.746Zm-12.424 8.691c0-1.408-.56-2.759-1.556-3.754a5.307 5.307 0 0 0-9.064 3.754 5.309 5.309 0 0 0 9.064 3.755 5.31 5.31 0 0 0 1.556-3.755Zm-20.182 7.841c2.696.594 4.231-.27 4.604-2.593.139-.843-.166-1.12-.912-.83l-3.962 1.494c-2.074.788-1.984 1.431.27 1.929Z" fill="#F4ADA2"/><path d="m89.545 115.026 5.434 1.701c.747.249.76.526.042.83-2.641 1.134-4.598.456-5.87-2.033-.25-.484-.118-.65.394-.498Z" fill="#AA5485" fill-opacity=".996"/><path d="M310.096 124.92c1.508.733 1.439 1.252-.207 1.556-2.047.373-3.9.007-5.559-1.099a1.912 1.912 0 0 1-.85-1.639c.083-2.503 1.327-2.717 3.733-.643.761.664 1.722 1.272 2.883 1.825Z" fill="#5B2448"/><path d="M339.965 122.991a2.446 2.446 0 0 1 2.717-.746c1.314.484 1.307.982-.02 1.493-2.614.996-4.612 2.676-5.995 5.041-1.134 1.908-1.445 1.991-.933.248.276-.968 1.687-2.98 4.231-6.036Z" fill="#986293"/><path d="M322.231 136.992a5.31 5.31 0 1 0 0-10.62 5.31 5.31 0 0 0 0 10.62Z" fill="#EC8E91"/><path d="m86.62 134.296-1.639 6.658c-6.208-.83-9.416-4.245-9.624-10.246a.512.512 0 0 1 .07-.279.568.568 0 0 1 .214-.208.678.678 0 0 1 .305-.087.746.746 0 0 1 .324.055l10.35 4.107Z" fill="#5B2448"/><path d="M307.359 139.523c-2.254-.498-2.344-1.141-.27-1.929l3.962-1.494c.746-.29 1.051-.014.912.83-.373 2.323-1.908 3.187-4.604 2.593Z" fill="#AA5485" fill-opacity=".996"/><path d="M45.136 144.501c12.79 6.029 25.955 6.921 39.493 2.676 15.197 12.224 26.882 26.266 35.054 42.127 7.578 14.727 13.296 31.452 17.154 50.175l-15.474 1.639c-.981.097-1.846-.131-2.592-.684a5185.277 5185.277 0 0 1-7.965-28.811c-4.495-16.4-12.342-30.692-23.543-42.874-5.448-5.905-10.6-9.888-15.453-11.948-7.992-3.402-15.024-2.212-21.095 3.568-3.65 3.471-6.893 9.03-9.728 16.676a121.753 121.753 0 0 0-5.31 18.855 362.16 362.16 0 0 0-6.015 45.654c2.005 4.342 5.607 6.934 10.807 7.778 5.42.885 8.85 1.404 10.288 1.556 3.236 8.905 7.771 16.939 13.607 24.102 5.24 6.444 10.91 11.173 17.008 14.188 6.984 3.471 14.437 5.054 22.36 4.75 12.626-.484 26.426-2.731 41.402-6.742l1.493 10.932a2.237 2.237 0 0 1-.362 1.575c-.311.45-.776.748-1.297.831-18.889 3-37.301 5.095-55.236 6.285-29.606 1.963-58.95.117-88.03-5.539a1.253 1.253 0 0 1-.729-.443 1.217 1.217 0 0 1-.267-.801 447.545 447.545 0 0 1 5.787-61.231 257.896 257.896 0 0 1 19.83-65.317 115.792 115.792 0 0 1 18.813-28.977Z" fill="#F16D22"/><path d="m320.571 157.029-1.12-7.177c3.388-2.046 6.797-2.841 10.226-2.385 1.95.249 2.309 1.134 1.079 2.655-2.711 3.346-6.105 5.649-10.185 6.907Z" fill="#5B2448"/><path d="M118.771 240.434a103.479 103.479 0 0 0-12.155 4.708c-1.286.595-1.501.947-.643 1.058.207.028.435-.014.684-.125a80.021 80.021 0 0 1 14.706-4.957l15.474-1.639 40.53 1.473c1.286-.041 2.192.83 2.717 2.614a3.614 3.614 0 0 0 3.236 2.592c13.4.941 24.766 5.76 34.1 14.458 3.001 2.779 3.651 6.423 1.95 10.931-1.673.525-3.291.546-4.854.062a1.728 1.728 0 0 0-.91-.036c-.297.07-.563.218-.77.43-1.825 1.839-4.01 3.001-6.554 3.485a2.24 2.24 0 0 0-1.535 1.078c-1.576 2.683-3.92 4.315-7.032 4.896a5.51 5.51 0 0 0-1.908.746c-6.472 4.259-13.655 3.637-21.551-1.866a3.184 3.184 0 0 0-2.344-.54c-9.458 1.535-18.384 3.997-26.778 7.384-14.976 4.011-28.776 6.258-41.402 6.742-7.923.304-15.376-1.279-22.36-4.75-6.098-3.015-11.767-7.744-17.008-14.188-5.836-7.163-10.371-15.197-13.607-24.102l-1.556-5.704c19.401-9.348 39.825-13.006 61.273-10.973 1.286-.111 2.42.055 3.401.498.761.345 1.072.103.934-.726-2.669-16.221-7.647-31.57-14.935-46.048-5.738-11.408-13.82-20.542-24.247-27.4-3.692-2.434-7.011-3.886-9.956-4.356-4.204-.664-7.938.138-11.201 2.406-5.822 4.065-10.08 10.509-12.777 19.332a232.164 232.164 0 0 0-9.853 57.269c-.012.196.065.432.222.683.156.252.388.51.67.748.318.277.477.684.477 1.224l-3.547 3.713a362.16 362.16 0 0 1 6.015-45.654 121.763 121.763 0 0 1 5.31-18.855c2.835-7.647 6.078-13.205 9.728-16.676 6.071-5.78 13.103-6.97 21.095-3.568 4.854 2.06 10.005 6.043 15.453 11.948 11.2 12.182 19.048 26.474 23.543 42.874 2.627 9.61 5.282 19.214 7.965 28.811Zm90.684 22.235c.441.188.835.47 1.154.825.319.354.556.774.692 1.229 1.48 4.95 2.234 6.319 2.261 4.107a4.616 4.616 0 0 0-.56-2.303 16.2 16.2 0 0 0-3.609-4.667 1.452 1.452 0 0 0-.623-.355.877.877 0 0 0-.601.044c-.401.221.028.595 1.286 1.12Zm-8.4 3.236 4.356 7.218c.249.415.366.394.352-.062-.097-3.388-1.618-5.835-4.563-7.343-.235-.11-.283-.048-.145.187Zm-7.364 6.223c2.323 2.323 3.589 4.563 3.796 6.72.18 1.825.519 1.964 1.017.415.082-.249.11-.498.082-.747-.47-3.415-1.998-5.697-4.584-6.845-.94-.428-1.044-.276-.311.457Zm-7.923 7.135c-2.752-1.162-5.525-1.348-8.318-.56-1.023.29-1.016.477.021.56l8.172.643c1.314.097 1.356-.118.125-.643Z" fill="#F4ADA2"/><path d="M110.474 234.211c-.083-1.051-.948-1.715-2.593-1.992-20.424-3.36-39.618-3.408-57.58-.145a11.71 11.71 0 0 0-4.128 1.618 43.694 43.694 0 0 0-12.964 4.149c0-.54-.159-.948-.477-1.224a3.279 3.279 0 0 1-.67-.748c-.157-.251-.234-.487-.222-.683a232.18 232.18 0 0 1 9.853-57.27c2.696-8.822 6.955-15.266 12.777-19.331 3.263-2.268 6.997-3.07 11.2-2.406 2.946.47 6.265 1.922 9.957 4.355 10.426 6.859 18.509 15.993 24.247 27.401 7.288 14.478 12.266 29.827 14.935 46.048.138.829-.173 1.071-.934.725-.981-.442-2.115-.608-3.401-.497Z" fill="#F16D22"/><path d="M423.598 225.479c-19.249.027-37.219 5.856-53.909 17.485a2.299 2.299 0 0 1-2.627.022 2.34 2.34 0 0 1-.65-.665c-9.846-15.197-16.795-30.677-20.846-46.442-1.521-5.932-2.04-11.152-1.556-15.66.567-5.324 2.033-10.461 4.397-15.411l2.24-3.112c11.671-2.24 23.225.18 34.661 7.26 13.869 8.587 25.672 19.429 35.407 32.524 5.517 7.426 6.478 15.425 2.883 23.999Z" fill="#21A0AA"/><path d="M348.407 164.808c-2.364 4.95-3.83 10.087-4.397 15.411-.484 4.508.035 9.728 1.556 15.66 4.051 15.764 11 31.245 20.846 46.442a2.343 2.343 0 0 0 1.507 1.022 2.299 2.299 0 0 0 1.77-.379c16.69-11.629 34.66-17.458 53.909-17.485l.518 2.074c-19.788-1.217-37.896 4.314-54.323 16.593a1.873 1.873 0 0 0-.658 2.042c.076.241.201.464.367.655 1.646 1.881 3.042 4.114 4.19 6.7 1.189 2.669.92 2.828-.809.477-12.749-17.23-22.263-36.078-28.541-56.543-1.369-4.481-2.102-11.526-2.199-21.137 0-.677-.214-.746-.643-.207a55.84 55.84 0 0 1-10.205 10.309c-1.742 1.355-3.319 2.032-4.729 2.032-2.531 0-3.824-1.707-3.879-5.123-.014-1.41-.408-2.447-1.182-3.111a3.298 3.298 0 0 1-.739-.855c-.161-.284-.215-.537-.153-.722l.332-1.078c.263-.844.65-.83 1.161.041 1.12 1.867 1.826 4.156 2.116 6.866.332 3.056 1.812 3.775 4.439 2.157 6.568-4.052 11.595-9.776 15.079-17.174l4.667-4.667Z" fill="#98D5FA"/><path d="M319.451 166.965c-1.673 6.72.92 9.804 7.778 9.251 5.698-.47 11.201-2.717 16.511-6.741-3.484 7.398-8.511 13.123-15.079 17.174-2.628 1.618-4.107.899-4.439-2.157-.291-2.71-.996-4.999-2.116-6.866-.511-.871-.899-.885-1.161-.041l-.332 1.078c-.062.185-.008.438.152.722.161.284.42.584.74.855.774.664 1.168 1.701 1.182 3.111.055 3.416 1.348 5.123 3.879 5.123 1.41 0 2.987-.677 4.729-2.032a55.84 55.84 0 0 0 10.205-10.309c.429-.539.643-.47.643.207.097 9.611.83 16.656 2.199 21.137 6.278 20.465 15.792 39.313 28.541 56.543 1.729 2.351 1.998 2.192.809-.477-1.148-2.586-2.544-4.819-4.19-6.7a1.827 1.827 0 0 1-.441-1.405 1.885 1.885 0 0 1 .731-1.291c16.428-12.28 34.536-17.811 54.324-16.594a48.051 48.051 0 0 1 5.704 14.001c-25.042.221-47.458 7.826-67.246 22.816l-33.768-40.302a2.355 2.355 0 0 0-1.553-.842c-.602-.066-1.2.11-1.662.489l-34.142 27.608.083-.954a1398.378 1398.378 0 0 1 13.877-51.337c.677-2.337.608-3.249-.208-2.738-.214.132-.418.35-.597.64-.179.29-.329.645-.44 1.04l-9.292 33.748a1.008 1.008 0 0 1-.5.609.997.997 0 0 1-.786.055 1502.714 1502.714 0 0 0-17.382-6.119 2.411 2.411 0 0 0-.913-.145c-1.231.027-1.334.414-.311 1.161.235.18.525.297.871.353 6.181 1.051 11.795 3.408 16.843 7.073.289.212.512.486.639.783.126.298.149.604.066.876l-2.987 9.936a110.372 110.372 0 0 0-22.298-11.574l3.672-8.131c.119-.259.138-.561.056-.864a1.73 1.73 0 0 0-.513-.816c-1.604-1.439-2.461-2.676-2.572-3.713-.47-4.826.526-9.798 2.987-14.914 9.97-20.715 25.873-33.824 47.707-39.327Z" fill="#21A0AA"/><path d="M291.532 250.369c.249-1.604-.124-2.959-1.12-4.065l2.987-9.936c.083-.272.06-.578-.066-.876a1.932 1.932 0 0 0-.639-.783c-5.048-3.665-10.662-6.022-16.843-7.073a1.906 1.906 0 0 1-.871-.353c-1.023-.747-.92-1.134.311-1.162.29-.013.595.035.913.146a1516.08 1516.08 0 0 1 17.382 6.119.995.995 0 0 0 1.286-.664l9.292-33.748c.111-.395.261-.75.44-1.04.179-.29.383-.508.597-.64.816-.511.885.401.208 2.738a1398.378 1398.378 0 0 0-13.877 51.337Z" fill="#98D5FA"/><path d="M362.574 264.37c-3.526 3.471-10.253 9.044-20.182 16.719-7.191 5.572-14.443 9.092-21.759 10.557-.138.014-.878.284-2.219.809-.926.36-1.791.187-2.593-.518l26.924-22.63a1.262 1.262 0 0 0 .401-1.349 1.268 1.268 0 0 0-.235-.435L326.4 247.59a2.142 2.142 0 0 0-1.425-.756 2.055 2.055 0 0 0-1.521.466l-29.516 24.475a1.248 1.248 0 0 0-.444.833 1.206 1.206 0 0 0 .278.889l15.827 18.958c-3.61.595-7.226 1.183-10.849 1.763-2.793.457-3.643 1.411-2.551 2.863.415.567 1.141 1.113 2.178 1.638 3.181 1.604 6.216 2.884 9.106 3.838 2.268.746 2.42 1.625.456 2.634l-8.193 4.211c-.525-1.217-1.95-3.049-4.273-5.497-7.73-8.089-16.704-19.021-26.923-32.793l8.297-7.779c4.19-1.922 7.501-4.833 9.935-8.732 2.061-.401 3.616-1.494 4.667-3.277l34.142-27.608a2.224 2.224 0 0 1 1.662-.489 2.354 2.354 0 0 1 1.553.841l33.768 40.302Z" fill="#FFCF2D"/><path d="M110.474 234.211c-21.448-2.033-41.872 1.625-61.273 10.973-1.963-3.54-2.973-7.371-3.028-11.491a11.692 11.692 0 0 1 4.128-1.618c17.962-3.264 37.156-3.215 57.58.145 1.645.276 2.51.94 2.593 1.991Z" fill="#9B3C59"/><path d="M46.173 233.692c.055 4.121 1.065 7.952 3.028 11.492l1.556 5.704c-1.438-.152-4.868-.671-10.288-1.556-5.2-.844-8.802-3.436-10.807-7.778l3.547-3.713a43.723 43.723 0 0 1 12.964-4.149Z" fill="#5B2448"/><path d="M268.114 234.729a110.474 110.474 0 0 1 22.298 11.574c.996 1.107 1.369 2.462 1.12 4.066l-.083.954c-1.051 1.784-2.607 2.876-4.667 3.277l-4.584-4.936a1.388 1.388 0 0 0-.823-.431 1.056 1.056 0 0 0-.816.223l-7.633 6.327a1.102 1.102 0 0 0-.383.772c-.023.311.07.635.259.908l4.045 5.87-8.297 7.778c-3.609 1.798-6.029 4.563-7.26 8.297l-40.364-7.343c1.493-4.231.843-7.875-1.95-10.931-8.988-9.887-20.431-15.19-34.328-15.909a3.133 3.133 0 0 1-1.027-.224 2.225 2.225 0 0 1-.778-.523c-1.286-1.355-1.134-2.288.456-2.8 1.425-.443 2.199-.691 2.323-.747a39.934 39.934 0 0 1 15.059-3.132c.263 0 .27-.048.021-.145-1.383-.498-1.21-.719.519-.664 3.636.111 3.982-.242 1.037-1.058a363.863 363.863 0 0 1 65.856-1.203Z" fill="#F4ADA2"/><path d="M202.258 235.933c2.945.815 2.6 1.168-1.037 1.057-1.729-.055-1.902.166-.519.664.249.097.242.145-.021.145a39.963 39.963 0 0 0-15.058 3.132c-.125.056-.899.305-2.324.747-1.59.512-1.742 1.445-.456 2.8.204.217.468.395.778.523s.658.204 1.027.224c13.897.719 25.34 6.022 34.328 15.909 2.793 3.056 3.443 6.7 1.95 10.932-.595.124-1.113-.049-1.556-.519 1.701-4.508 1.051-8.152-1.95-10.931-9.334-8.698-20.7-13.517-34.1-14.457a3.616 3.616 0 0 1-3.236-2.593c-.525-1.784-1.431-2.655-2.717-2.614a93.446 93.446 0 0 1 24.891-5.019Zm-83.487 4.501c.746.553 1.611.781 2.592.684a80.021 80.021 0 0 0-14.706 4.957c-.249.111-.477.153-.684.125-.858-.111-.643-.463.643-1.058a103.547 103.547 0 0 1 12.155-4.708Z" fill="#AA5485" fill-opacity=".996"/><path d="M429.82 241.554c4.121 13.441 2.593 26.204-4.584 38.29-5.877 7.052-10.585 11.705-14.125 13.959a264.025 264.025 0 0 1-43.289 22.07 53.029 53.029 0 0 0-10.517 5.621c-.732-.664-1.424-.864-2.074-.601a1111.752 1111.752 0 0 1-34.743 13.399 22.299 22.299 0 0 0-9.852 3.63c-3.54 1.051-6.507.387-8.899-1.991a32.33 32.33 0 0 1 7.696-1.992 4.872 4.872 0 0 0 1.327-.352c1.756-.775 1.763-1.342.021-1.701-.415-.083-.851-.042-1.307.124a87.273 87.273 0 0 1-8.691 2.448c-3.734-.152-5.393-1.874-4.978-5.165a1.284 1.284 0 0 0-.168-.808 1.208 1.208 0 0 0-.62-.519c-4.882-1.756-4.861-4.315.062-7.675l10.33-1.867c.297-.051.584-.175.839-.361a2.29 2.29 0 0 0 .633-.717c.913-1.549.132-1.535-2.344.041-1.659 1.065-4.985 1.742-9.977 2.033-4.853.553-6.381-1.549-4.584-6.306a22.548 22.548 0 0 0 9.77-3.713l8.193-4.21c1.964-1.01 1.812-1.888-.456-2.635-2.89-.954-5.926-2.233-9.106-3.837-1.037-.525-1.763-1.071-2.178-1.638-1.092-1.452-.242-2.407 2.551-2.863a2506.3 2506.3 0 0 0 10.848-1.763c2.158.705 4.232.532 6.223-.519.802.706 1.666.879 2.593.519 1.341-.525 2.081-.795 2.219-.809 7.315-1.466 14.568-4.985 21.759-10.558 9.928-7.674 16.656-13.247 20.182-16.718 19.788-14.99 42.203-22.595 67.246-22.816Zm-129.078 86.557c5.254-1.093 8.338-1.984 9.251-2.676 2.489-1.894 2.247-2.268-.726-1.12a70.511 70.511 0 0 1-10.973 3.257c-.954.193-1.106.546-.456 1.057.332.263.753.291 1.265.083.982-.387 1.528-.587 1.639-.601Z" fill="#F4ADA2"/><path d="M315.821 291.937c-1.991 1.051-4.065 1.223-6.222.518l-15.827-18.958a1.207 1.207 0 0 1-.278-.89 1.241 1.241 0 0 1 .444-.832l29.516-24.475c.422-.353.969-.52 1.521-.466a2.142 2.142 0 0 1 1.425.756l16.51 19.933a1.257 1.257 0 0 1-.165 1.784l-26.924 22.63Zm10.204-35.094a.457.457 0 0 0-.642-.062l-21.031 17.337a.457.457 0 1 0 .58.704l21.031-17.337a.457.457 0 0 0 .062-.642Z" fill="#fff"/><path d="M286.782 254.6c-2.433 3.9-5.745 6.811-9.935 8.733l-4.045-5.87a1.426 1.426 0 0 1-.258-.908c.023-.311.159-.586.383-.772l7.633-6.327c.219-.182.511-.261.815-.223.305.039.599.193.823.431l4.584 4.936Z" fill="#F16D22"/><path d="m325.383 256.781-21.031 17.336a.457.457 0 1 0 .581.704l21.03-17.336a.455.455 0 0 0 .062-.642.455.455 0 0 0-.642-.062Zm-115.928 5.888c-1.258-.525-1.687-.898-1.286-1.12a.877.877 0 0 1 .601-.044c.219.056.437.18.623.355a16.2 16.2 0 0 1 3.609 4.667c.387.719.574 1.487.56 2.303-.027 2.212-.781.843-2.261-4.107a3.22 3.22 0 0 0-.692-1.229 3.282 3.282 0 0 0-1.154-.825Zm-8.4 3.236c-.139-.235-.09-.297.145-.186 2.945 1.507 4.466 3.954 4.563 7.342.014.457-.104.477-.353.063l-4.355-7.219Z" fill="#7F506B" fill-opacity=".988"/><path d="M193.691 272.127c-.733-.732-.629-.885.311-.456 2.586 1.148 4.114 3.43 4.584 6.845.028.249 0 .498-.083.747-.497 1.549-.836 1.41-1.016-.415-.207-2.157-1.473-4.397-3.796-6.721Z" fill="#986293"/><path d="M268.55 271.111c10.219 13.773 19.193 24.704 26.923 32.794 2.323 2.447 3.748 4.28 4.273 5.496a22.56 22.56 0 0 1-9.77 3.713l-27.151-32.71c-.044-.051-.164-.122-.346-.204a7.182 7.182 0 0 0-.67-.253c-.222-.082-.395-.262-.519-.539 1.231-3.733 3.651-6.499 7.26-8.297Z" fill="#FFBD11"/><path d="M185.768 279.263c1.23.526 1.189.74-.125.643l-8.172-.643c-1.037-.083-1.044-.269-.021-.56 2.793-.788 5.566-.601 8.318.56Z" fill="#986293"/><path d="m295.079 320.291-.518-.871c4.992-.291 8.317-.968 9.977-2.033 2.475-1.576 3.256-1.59 2.343-.042a2.284 2.284 0 0 1-.633.718c-.255.186-.541.31-.839.361l-10.33 1.867Z" fill="#815A82" fill-opacity=".992"/><path d="m357.306 321.494-29.039 23.853-7.779-11.055a1111.773 1111.773 0 0 0 34.743-13.4c.65-.262 1.342-.062 2.075.602Z" fill="#FFCF2D"/><path d="M299.103 328.713c-.512.207-.934.179-1.265-.083-.65-.512-.498-.865.456-1.058a70.511 70.511 0 0 0 10.973-3.257c2.973-1.148 3.215-.774.726 1.12-.913.692-3.997 1.584-9.251 2.676-.111.014-.657.214-1.639.602Z" fill="#AA5485" fill-opacity=".996"/><path d="m301.737 335.931-.954-1.473a87.273 87.273 0 0 0 8.691-2.448c.457-.166.892-.207 1.307-.124 1.742.359 1.735.926-.021 1.701a4.872 4.872 0 0 1-1.327.352 32.343 32.343 0 0 0-7.696 1.992Z" fill="#986293"/><path d="m320.488 334.292 7.779 11.056-5.767 4.625a1.03 1.03 0 0 1-.79.212 1.235 1.235 0 0 1-.765-.419l-10.309-11.844a22.303 22.303 0 0 1 9.852-3.63Z" fill="#FFBD11"/><path d="M229.718 30.755c.614-.77.744-1.509.391-2.216-1.332.405-2.247 1.201-2.747 2.387-.697 1.644-1.55 1.732-2.559.265a48.574 48.574 0 0 0-5.352-6.491c-1.581-1.602-1.81-1.248-.687 1.061a14.455 14.455 0 0 0 2.341 3.386c.676.718 1.514 1.764 2.512 3.137 1.81 2.486 3.844 1.976 6.101-1.53Z" fill="#F16D22"/><path d="M230.109 28.539c.353.707.223 1.446-.39 2.215 1.227.073 1.414 1.56.561 4.463a1.483 1.483 0 0 1-1.42 1.061h-6.725a1.84 1.84 0 0 1-1.81-2.184c.249-1.332.151-2.544-.297-3.636-.229-.562-.426-.557-.593.016-.53 1.851-.478 3.703.156 5.555.087.255.233.477.418.634a.95.95 0 0 0 .612.24l9.831-.079a1.36 1.36 0 0 0 .908-.377c.261-.24.447-.576.528-.949.821-3.984.816-7.1-.016-9.347a1.037 1.037 0 0 0-.416-.504 1.19 1.19 0 0 0-.661-.182c-11.568.041-11.755.29-.562.748a.635.635 0 0 1 .426.177.54.54 0 0 1 .167.4c0 .656-.239 1.239-.717 1.749Zm-33.269 1.888h17.633c.371 0 .671.3.671.67v.219c0 .37-.3.67-.671.67H196.84a.67.67 0 0 1-.671-.67v-.218c0-.371.301-.671.671-.671Zm-17.896-.011 12.546.021c.405.001.732.33.732.735l-.001.094a.732.732 0 0 1-.734.732l-12.546-.022a.733.733 0 0 1-.732-.735v-.093a.734.734 0 0 1 .735-.732Z" fill="#986293"/><path d="M230.436 47.201a2.464 2.464 0 0 0 0-1.17c-1.196.229-2.2 1.092-3.011 2.59a1.611 1.611 0 0 1-1.265.843 1.644 1.644 0 0 1-1.419-.578 70.8 70.8 0 0 1-4.525-6.132c-.25-.374-.552-.645-.905-.811-1.831-.905-2.039-.313-.625 1.778a31.42 31.42 0 0 0 6.897 7.319c.205.153.447.238.681.238a.782.782 0 0 0 .583-.238l3.589-3.839Z" fill="#F16D22"/><path d="M230.436 46.03c.094.386.094.776 0 1.171l.406 4.76a.869.869 0 0 1-.077.433c-.064.14-.164.272-.295.387-.13.114-.289.21-.466.28-.177.071-.37.116-.566.132l-6.804.53a2.364 2.364 0 0 1-.826-.082 2.015 2.015 0 0 1-.702-.355 1.506 1.506 0 0 1-.445-.56 1.217 1.217 0 0 1-.102-.656c.177-1.394.005-2.544-.515-3.449-.302-.52-.526-.484-.671.11-1.072 4.337.229 6.615 3.901 6.834 2.611.156 4.561.114 5.851-.125 2.518-.489 3.626-2.585 3.324-6.288-.208-2.57-.426-4.37-.655-5.4-.05-.22-.17-.42-.346-.576a1.25 1.25 0 0 0-.637-.297 31.43 31.43 0 0 0-7.724-.297c-2.663.219-2.663.344 0 .375 3.079.031 5.321.244 6.725.64 1.706.478 1.914 1.29.624 2.434Zm-23.008 1.885 6.772.07a.688.688 0 0 1 .68.694l-.002.188a.687.687 0 0 1-.694.68l-6.772-.072a.686.686 0 0 1-.679-.694l.002-.187a.686.686 0 0 1 .693-.68Zm-25.716.19 20.284-.247a.687.687 0 0 1 .695.678l.001.062a.687.687 0 0 1-.679.695l-20.284.248a.686.686 0 0 1-.694-.678l-.001-.063a.686.686 0 0 1 .678-.695Zm47.913 23.969c-1.529.115-3.043.27-4.541.468-3.953.541-5.545-1.186-4.775-5.18.031-.188.047-.364.047-.53-.083-8.021-.338-8.021-.765 0-.01.166-.036.343-.078.53-.894 4.306.827 6.169 5.165 5.586a15.436 15.436 0 0 1 4.323.016c2.163.301 3.282-.614 3.355-2.747.062-1.685.093-3.375.093-5.071 0-3.506-1.04-5.196-3.121-5.071-11.172.676-10.995 1.097.531 1.264.379.008.74.163 1.006.43.265.27.414.63.414 1.005v7.521c.001.449-.169.881-.475 1.211a1.8 1.8 0 0 1-1.179.568ZM191.8 65.552h22.502a.56.56 0 0 1 .561.561v.032c0 .31-.251.562-.561.562H191.8a.561.561 0 0 1-.561-.562v-.031c0-.31.251-.562.561-.562Zm-15.635.234c-.572.083-.775.27-.609.561.077.128.19.232.33.304a.98.98 0 0 0 .466.102l10.08-.312c.812-.02.812-.12 0-.296a28.154 28.154 0 0 0-10.267-.36Z" fill="#986293"/><path d="M230.436 65.201a2.464 2.464 0 0 0 0-1.17c-1.196.229-2.2 1.092-3.011 2.59a1.611 1.611 0 0 1-1.265.843 1.644 1.644 0 0 1-1.419-.578 70.8 70.8 0 0 1-4.525-6.132c-.25-.374-.552-.645-.905-.811-1.831-.905-2.039-.313-.625 1.778a31.42 31.42 0 0 0 6.897 7.319c.205.153.447.238.681.238a.782.782 0 0 0 .583-.238l3.589-3.839Z" fill="#F16D22"/></g><defs><clipPath id="a"><path fill="#fff" transform="translate(.5 .716)" d="M0 0h469v350H0z"/></clipPath></defs></svg>