<svg width="402" height="402" fill="none" xmlns="http://www.w3.org/2000/svg"><path d="M248.957 84.404c2.272-.23 3.366.524 3.282 2.261-.03.536.11 1.033.393 1.398l3.156 4.051c.184.238.394.432.61.566.216.134.433.204.631.204.89 0 1.277-.686 1.162-2.057-.115-1.35.162-1.44.832-.267 1.183 2.083 1.633 4.486 1.351 7.208-.555 5.339 1.277 6.543 5.496 3.611 1.863-1.287 4.449-1.863 7.757-1.727m-28.266 16.221 8.543-1.57a.533.533 0 0 1 .612.675c-1.151 3.821-3.57 5.931-7.255 6.329" stroke="#A86975" stroke-width="2"/><path d="m247.717 138.125 1.178.125" stroke="#F79990" stroke-width="2"/><path d="M248.895 138.25c9.243.23 18.142-1.382 26.695-4.836" stroke="#F77E74" stroke-width="2"/><path d="M243.728 142.898c.021.492.147.937.377 1.335.116.209.183.437.194.664.011.227-.034.447-.131.64-1.026 2.01-1.031 4.983-.016 8.919.073.286.208.553.393.78.186.228.418.41.678.531.26.122.541.18.821.171.28-.01.552-.087.793-.226l2.717-1.539c1.277-.733 1.675-.434 1.194.895-3.612 9.988-5.978 20.017-7.098 30.088-.011.073-.095 1.743-.252 5.009-.094 1.895-.387 3.905-.879 6.03-.722 3.036-.581 6.208.424 9.516" stroke="#F96A62" stroke-width="2"/><path d="M242.943 205.711c-.126-.848.157-1.261.848-1.241" stroke="#F79990" stroke-width="2"/><path d="M243.791 204.47c-.01-2.659.382-8.788 1.178-18.388 1.141-13.861 4.182-25.606 9.123-35.238 1.937-3.768 4.816-6.328 8.637-7.679 3.465-1.214 6.988-.926 10.568.864 3.664 1.822 6.732 4.502 9.202 8.04 9.108 13.076 14.657 27.554 16.646 43.435 1.172 9.349 1.586 16.546 1.24 21.592-.009.149-.083.332-.217.532-.135.2-.324.411-.552.614l-.864.754" stroke="#F96A62" stroke-width="2"/><path d="m298.752 218.996 2.748 4.444" stroke="#AA5563" stroke-width="2"/><path d="M248.895 138.25c-2.921 4.335-4.361 9.229-4.319 14.683.021 2.094.88 2.528 2.576 1.303a41.066 41.066 0 0 0 5.668-4.915c2.387-2.481 4.219-4.135 5.497-4.962 5.192-3.34 10.924-5.339 17.194-5.999.123-.013.248-.005.366.025.118.03.225.081.312.149a.594.594 0 0 1 .191.239c.037.09.047.185.027.278-.116.503-.786.639-2.01.409-2.094-.388-3.256.104-3.487 1.476a.972.972 0 0 0 .123.641c.115.206.298.382.521.505 8.019 4.355 14.044 10.809 18.075 19.362 6.354 13.526 10.28 27.486 11.777 41.88a584.4 584.4 0 0 1 1.57 18.184c.105 1.477-.387 2.12-1.476 1.932" stroke="#F96A62" stroke-width="2"/><path d="M301.5 223.44c.011 1.801-.806 3.067-2.45 3.8-2.68 1.204-5.506 1.618-8.479 1.241" stroke="#AA3A47" stroke-width="2"/><path d="M290.571 228.48c-2.125 10.333-6.878 19.232-14.259 26.696" stroke="#F77E74" stroke-width="2"/><path d="m276.312 255.176 18.451 11.777" stroke="#8D7878" stroke-width="2"/><path d="M228.873 163.25c.901.45 1.654.382 2.261-.204.88-.859 1.356-1.309 1.429-1.351 3.225-1.937 5.633-1.78 7.224.471 1.099 1.539 1.387 3.444.864 5.716-1.194 5.235-4.989 7.658-11.385 7.271" stroke="#AA3A47" stroke-width="2"/><path d="m229.266 175.153.329 4.255" stroke="#FC8F3A" stroke-width="2"/><path d="M229.595 179.408a47.445 47.445 0 0 0 5.638 3.157c2.701 1.266 4.465 2.423 5.292 3.47 2.282 2.91 1.769 6.035-1.539 9.375-.785.785-2.214 1.732-4.287 2.842" stroke="#AA3A47" stroke-width="2"/><path d="m234.699 198.252 4.444 7.066" stroke="#FC8F3A" stroke-width="2"/><path d="m239.143 205.318 3.408 2.748" stroke="#AA3A47" stroke-width="2"/><path d="m242.551 208.066.392-2.355m.848-1.241 1.57.126" stroke="#F77E74" stroke-width="2"/><path d="M245.362 204.596c13.148-.879 26.396 1.162 39.744 6.124 3.476 1.288 6.082 2.628 7.82 4.02" stroke="#CA4664" stroke-width="2"/><path d="m292.926 214.74 5.826 4.256" stroke="#AA3A47" stroke-width="2"/><path d="m158.209 200.152-5.951-.424c-2.398-.157-2.743.618-1.037 2.324l4.758 4.758c1.361 1.361 1.146 2.083-.644 2.167-1.874.094-3.925-.099-6.155-.581" stroke="#FAD6D1" stroke-width="2"/><path d="M149.18 208.396c-1.1.251-2.125.142-3.078-.33" stroke="#ADAFC9" stroke-width="2"/><path d="M175.875 237.18a1187.258 1187.258 0 0 1 44.142 18.514c9.359 4.156 18.33 6.732 26.915 7.726 10.678 1.235 20.471-1.513 29.38-8.244" stroke="#8BA7A6" stroke-width="2"/><path d="m290.571 228.48 1.052-7.066" stroke="#A86975" stroke-width="2"/><path d="M291.623 221.414c-14.478-8.165-29.899-13.771-46.262-16.818" stroke="#C87592" stroke-width="2"/><path d="M242.55 208.066c1.236 1.853 1.649 4.078 1.241 6.674-.429 2.785-.167 5.795.785 9.03" stroke="#A86975" stroke-width="2"/><path d="M244.576 223.77c3.947.335 7.297 1.852 10.05 4.553.262.241.225.283-.11.126l-9.94-4.679Z" stroke="#D48993" stroke-width="2"/><path d="m244.576 223.769-1.57-.062" stroke="#A86975" stroke-width="2"/><path d="M243.006 223.707a255.127 255.127 0 0 0-28.627-6.454c-.858-.136-.712-.304.44-.503.199-.031.408-.036.628-.015 2.135.261 2.9.005 2.293-.77a1.229 1.229 0 0 0-.558-.389c-.231-.082-.494-.111-.762-.082-7.516.754-14.132 3.528-19.848 8.323-.827.691-1.56 1.083-2.199 1.177-1.455.21-2.125-.591-2.01-2.402.471-7.548 3.984-13.364 10.537-17.446 2.104-1.309 2.073-1.665-.094-1.068-.262.073-.576.256-.942.549-.419.335-.869.508-1.351.519a.844.844 0 0 1-.597-.25 1.163 1.163 0 0 1-.329-.645 126.542 126.542 0 0 1-2.183-23.272" stroke="#FABE68" stroke-width="2"/><path d="M142.113 255.898c.377.324.445.665.205 1.021a9.704 9.704 0 0 0-.33.471c-2.01 4.313-3.277 8.155-3.8 11.526-1.707 11.023-.529 22.146 3.533 33.369 3.612 9.977 9.186 20.493 16.724 31.548.345.502.397.999.157 1.491" stroke="#34B0B7" stroke-width="2"/><path d="m158.602 335.325 7.066 7.851" stroke="#3E6279" stroke-width="2"/><path d="m165.668 343.176 4.318-.518" stroke="#8BA7A6" stroke-width="2"/><path d="M169.986 342.658c8.564-3.204 15.892-8.176 21.985-14.918" stroke="#5E6E96" stroke-width="2"/><path d="M191.971 327.74c4.554-6.418 9.95-11.338 16.19-14.761 1.612-.88 3.674-1.324 6.187-1.335" stroke="#3E6279" stroke-width="2"/><path d="M214.348 311.644c-9.223-6.218-17.509-13.368-24.858-21.45-.953-1.047-.728-1.497.675-1.351l33.212 3.298" stroke="#5E6E96" stroke-width="2"/><path d="M223.377 292.141a11.606 11.606 0 0 1 5.889.393" stroke="#90B86C" stroke-width="2"/><path d="M229.266 292.534c1.162-.367 2.863-.519 5.103-.456 11.924.367 24.094-1.314 36.51-5.04" stroke="#5E6E96" stroke-width="2"/><path d="M270.879 287.037a11.1 11.1 0 0 1 5.826-2.025" stroke="#90B86C" stroke-width="2"/><path d="M276.705 285.012c-.032-.44.12-.723.455-.848" stroke="#5E6E96" stroke-width="2"/><path d="m222.922 166.453 6.344 8.7m13.74 48.554c-3.57-3.444-5.795-7.349-6.674-11.715-.555-2.784.382-5.009 2.811-6.674m-4.444-7.066c-7.297 1.979-12.636-.293-16.017-6.815-3.026-5.852-3.717-11.332-2.073-16.441 1.78-5.559 4.224-5.967 7.333-1.225a19.213 19.213 0 0 0 5.653 5.637" stroke="#AD7A3B" stroke-width="2"/><path d="m291.623 221.414 1.303-6.674" stroke="#7B3065" stroke-width="2"/><path d="M150.357 150.813c-.24 1.549-1.135 2.314-2.685 2.293" stroke="#AA5563" stroke-width="2"/><path d="M149.635 159.779a2.72 2.72 0 0 0 1.115-1.114" stroke="#AD7A3B" stroke-width="2"/><path d="M149.965 155.005c-.848-.376-.979-.879-.393-1.507 1.675-1.769 3.769-2.444 6.282-2.026" stroke="#A86975" stroke-width="2"/><path d="M135.439 192.3c1.1.032 2.115.607 3.047 1.728 4.617 5.611 8.181 10.4 10.694 14.368" stroke="#B3D8F8" stroke-width="2"/><path d="m143.621 344.684.518.785" stroke="#616A9C" stroke-width="2"/><path d="M166.846 345.406a4.447 4.447 0 0 0-1.178-2.23" stroke="#A86975" stroke-width="2"/><path d="M136.554 263.42c.974.649 1.262 1.329.864 2.041-.366.649-.57 1.11-.612 1.382-1.319 11.055-.335 21.691 2.952 31.909 3.496 10.887 8.569 21.388 15.216 31.5.639.974 1.173 2.382 1.602 4.225" stroke="#34B0B7" stroke-width="2"/><path d="M156.576 334.477c.544.575 1.219.858 2.026.848" stroke="#517286" stroke-width="2"/><path d="m270.879 287.038.392 19.503" stroke="#CD8658" stroke-width="2"/><path d="M271.271 306.541h5.497m-52.998 0h5.496" stroke="#AD7A3B" stroke-width="2"/><path d="m276.705 285.012.063 21.529" stroke="#CD8658" stroke-width="2"/><path d="M276.768 306.541c1.936.167 2.842 1.141 2.716 2.92a167.78 167.78 0 0 0-.455 10.003c-.021 1.12-.775 1.565-2.261 1.335" stroke="#7B3065" stroke-width="2"/><path d="M276.768 320.799v59.609c.45.503.319.875-.393 1.115m27.873 0c.241-1.623 1.256-2.549 3.047-2.78 7.422-.984 11.515-5.176 12.279-12.578.084-.827.299-1.413.644-1.759.545-.554 1.22-.717 2.026-.486" stroke="#CD8658" stroke-width="2"/><path d="M191.971 327.74a19.788 19.788 0 0 1 3.47 8.307" stroke="#7B3065" stroke-width="2"/><path d="m195.441 336.047 1.633 3.988" stroke="#A86975" stroke-width="2"/><path d="M229.266 292.534v14.007" stroke="#CD8658" stroke-width="2"/><path d="M229.266 306.541c1.8.355 2.633 1.392 2.497 3.109a57.837 57.837 0 0 0-.126 1.758c.021 2.555-.011 5.104-.094 7.648-.01.293-.08.568-.201.788-.121.219-.287.372-.475.437l-1.601.518" stroke="#7B3065" stroke-width="2"/><path d="M229.266 320.799v17.384a1.33 1.33 0 0 1-.303.841 1.326 1.326 0 0 1-.765.462c-3.455.681-5.109-.351-4.962-3.093.073-1.382.104-2.147.094-2.293a108.42 108.42 0 0 1 .44-13.301" stroke="#CD8658" stroke-width="2"/><path d="M223.77 320.799c-2.147-.272-3.052-1.544-2.717-3.816a20.098 20.098 0 0 0-.016-5.983c-.377-2.408.534-3.894 2.733-4.459" stroke="#7B3065" stroke-width="2"/><path d="m223.77 306.541-.393-14.4" stroke="#CD8658" stroke-width="2"/><path d="M214.348 311.644c1.895 1.277 2.68 2.738 2.355 4.381-1.811 9.244-7.281 16.337-16.41 21.278a9.829 9.829 0 0 0-3.219 2.732" stroke="#7B3065" stroke-width="2"/><path d="m197.074 340.036-.063.722" stroke="#C87592" stroke-width="2"/><path d="m197.011 340.758 1.178 3.14" stroke="#8176B9" stroke-width="2"/><path d="M198.189 343.898c.691.618.995 1.403.911 2.356" stroke="#CD9EC1" stroke-width="2"/><path d="M199.1 346.254c.67 1.015.518 1.78-.455 2.293" stroke="#8176B9" stroke-width="2"/><path d="M198.645 348.546c.848-.073 1.402.309 1.664 1.147 1.173 3.737 2.869 8.213 5.088 13.426.199.461.22.801.063 1.021-.21.314-.649.392-1.319.235" stroke="#7B3065" stroke-width="2"/><path d="M204.141 364.375c.869.074 1.392.424 1.57 1.053" stroke="#C87592" stroke-width="2"/><path d="M205.711 365.427c1.727 2.377 2.533 5.015 2.418 7.915" stroke="#7B3065" stroke-width="2"/><path d="m208.129 373.342 1.712 6.187a.485.485 0 0 1 .004.267.553.553 0 0 1-.138.242.672.672 0 0 1-.25.164.762.762 0 0 1-.307.049 18.715 18.715 0 0 0-8.543 1.398" stroke="#CD9EC1" stroke-width="2"/><path d="M222.984 381.523c.744-20.246.875-32.788.393-37.624-.283-2.9.649-4.036 2.795-3.408.44.133.944.122 1.445-.031 1.099-.325 1.649.298 1.649 1.868v39.195m42.005 0a978.846 978.846 0 0 1 0-60.724" stroke="#CD8658" stroke-width="2"/><path d="M271.271 320.799c-2.03-.408-2.988-1.576-2.873-3.502.073-1.099.11-1.685.11-1.759-.063-3.8-.026-6.092.11-6.878.219-1.245 1.104-1.952 2.653-2.119" stroke="#7B3065" stroke-width="2"/><path d="M170.316 349.787c.073-1.685.77-2.628 2.089-2.826 1.225-.189 1.889-.299 1.994-.33a240.563 240.563 0 0 1 22.612-5.873" stroke="#ADAFC9" stroke-width="2"/><path d="M169.986 342.658a84.218 84.218 0 0 0 25.455-6.611" stroke="#C87592" stroke-width="2"/><path d="m200.67 164.49 3.408.393" stroke="#AD7A3B" stroke-width="2"/><path d="M116.659 344.291a173.937 173.937 0 0 0 26.035 3.125.273.273 0 0 1 .155.065.248.248 0 0 1 .081.139l.031.204" stroke="#B3D8F8" stroke-width="2"/><path d="M144.139 341.936c1.602-2.366 2.235-4.962 1.9-7.789" stroke="#7B3065" stroke-width="2"/><path d="M117.444 329.766a8.747 8.747 0 0 1 3.47 1.633" stroke="#8BA7A6" stroke-width="2"/><path d="M120.914 331.399a103.128 103.128 0 0 0 25.125 2.748" stroke="#5E6E96" stroke-width="2"/><path d="M146.039 334.147a29.988 29.988 0 0 1 10.537.33" stroke="#3E6279" stroke-width="2"/><path d="M116.926 339.973c.251.178.424.377.518.596.099.217.219.406.346.545.128.138.258.222.376.241l25.455 3.329" stroke="#ADAFC9" stroke-width="2"/><path d="m143.621 344.684.518-2.748" stroke="#A86975" stroke-width="2"/><path d="M144.139 341.936c-8.396-2.136-16.137-5.648-23.225-10.537" stroke="#C87592" stroke-width="2"/><path d="M271.271 320.799h5.497m-52.998 0h5.496" stroke="#AD7A3B" stroke-width="2"/><path d="M304.248 284.682c.272 1.55 1.188 2.429 2.748 2.638 7.433.974 11.584 5.078 12.453 12.312.115.91.366 1.565.753 1.962.534.566 1.215.927 2.042 1.084" stroke="#CD8658" stroke-width="2"/><path d="m171.494 351.75 26.695-7.852" stroke="#B3D8F8" stroke-width="2"/><path d="M175.875 356.524c3.497 2.701 5.559 4.805 6.187 6.313.974 2.366.691 3.161-.848 2.386-.419-.209-.822-.57-1.209-1.083-2.46-3.277-5.669-5.554-9.626-6.831m-1.178 1.052a25.252 25.252 0 0 1 7.412 6.878c.161.224.273.47.328.718.054.248.05.491-.014.711-.251.858-.79 1.057-1.617.597-.367-.21-.764-.618-1.194-1.225-2.072-2.973-4.726-4.889-7.961-5.748-1.005-.272-1.581-.764-1.728-1.476m-3.077 1.634c4.25 1.298 7.328 3.899 9.233 7.804a.97.97 0 0 1 .106.405.63.63 0 0 1-.09.349.784.784 0 0 1-.314.298c-.148.079-.344.082-.555.008a1.572 1.572 0 0 1-.607-.416c-2.837-3.046-6.235-5.229-10.192-6.548" stroke="#AD7A3B" stroke-width="2"/><path d="M147.672 374.52a34.637 34.637 0 0 1 5.889 1.774c2.46.995 4.392 1.565 5.794 1.712 5.664.575 11.16-.215 16.489-2.371 3.957-1.602 6.585-2.236 7.883-1.901 3.789.984 7.16.43 10.113-1.664 5.339-3.8 10.102-3.376 14.289 1.272" stroke="#AD92A4" stroke-width="2"/><path d="M205.711 365.427c-2.743-.125-4.544-.528-5.402-1.209a33.204 33.204 0 0 0-9.516-5.386c-3.245-1.183-2.853-1.581 1.178-1.194a4.42 4.42 0 0 1 2.449 1.053c2.827 2.428 6.067 4.323 9.721 5.684" stroke="#A86975" stroke-width="2"/><path d="m172.797 353.32 24.89-7.223a.49.49 0 0 1 .354.044c.116.06.219.16.29.286.199.377.455.319.769-.173" stroke="#B3D8F8" stroke-width="2"/><path d="m173.912 355.613 1.963.911" stroke="#B3C08F" stroke-width="2"/><path d="M175.875 356.524a86.519 86.519 0 0 1 9.657-1.681c3.047-.356 5.402-.979 7.067-1.868a26.653 26.653 0 0 0 6.046-4.429" stroke="#616A9C" stroke-width="2"/><path d="M116.266 346.646a549.971 549.971 0 0 1 19.864 2.183c.105.021.953 0 2.544-.063 1.361-.041 2.115.712 2.262 2.262" stroke="#B3D8F8" stroke-width="2"/><path d="M140.936 351.028c.931.146 1.565-.136 1.9-.848" stroke="#AD92A4" stroke-width="2"/><path d="M115.418 355.739c8.951.743 17.457-.827 25.518-4.711" stroke="#616A9C" stroke-width="2"/><path d="M113.455 356.524c3.497 2.69 5.821 5.318 6.972 7.883.597 1.35.362 2.01-.706 1.979a1.258 1.258 0 0 1-.645-.217 2.012 2.012 0 0 1-.564-.569c-2.649-3.936-6.187-6.851-10.616-8.746m-1.507 1.24c4.062 2.366 6.81 4.962 8.244 7.789.89 1.748.591 2.497-.895 2.246a1.505 1.505 0 0 1-.645-.276 2.077 2.077 0 0 1-.533-.572c-2.219-3.497-5.297-5.936-9.233-7.318-.712-.251-1.021-.764-.927-1.539m-2.685 1.633c4.428 1.895 7.276 4.523 8.542 7.883.451 1.194.309 1.775-.424 1.743a1.362 1.362 0 0 1-.62-.212 2.825 2.825 0 0 1-.636-.542 29.936 29.936 0 0 0-9.673-7.364" stroke="#AD7A3B" stroke-width="2"/><path d="M84.075 374.912c1.225-.439 2.329-.366 3.313.22 1.487.88 2.256 1.33 2.308 1.351 8.114 3.025 16.091 2.653 23.932-1.115a2.905 2.905 0 0 1 1.508-.283c4.25.325 8.144-.659 11.683-2.952 4.941-3.193 9.725-2.853 14.352 1.021.153.127.282.311.376.539.095.228.155.494.174.78l.455 6.721" stroke="#AD92A4" stroke-width="2"/><path d="M160.235 61.242v16.489m-4.381 16.159c-.482.48-1.267.722-2.356.722-8.898.03-17.797.01-26.695-.063" stroke="#FFE796" stroke-width="2"/><path d="m126.803 94.549-14.588-.33" stroke="#FCA7A3" stroke-width="2"/><path d="M112.215 94.219a14.995 14.995 0 0 1-7.397-.063" stroke="#FFE796" stroke-width="2"/><path d="M104.818 94.156c-2.837.398-4.962.188-6.375-.628-2.24-1.288-2.764-3.057-1.57-5.308a34.107 34.107 0 0 1 3.109-4.852c1.089-1.413 2.68-1.591 4.774-.534" stroke="#90D0D5" stroke-width="2"/><path d="M104.756 82.834v-21.2" stroke="#FFE796" stroke-width="2"/><path d="m104.756 82.834.062 11.322" stroke="#90B86C" stroke-width="2"/><path d="M258.631 75.28c-.021 2.22-.43 2.241-1.225.064a1.1 1.1 0 0 1-.024-.72.718.718 0 0 1 .416-.458c.566-.22.843.152.833 1.115Z" stroke="#7B3065" stroke-width="2"/><path d="M247.623 90.356a1.537 1.537 0 0 1 2.01.204c3.433 3.727 3.386 4.79-.142 3.187-.68-.303-1.225-.654-1.633-1.052-.984-.973-1.062-1.753-.235-2.34Z" stroke="#A86975" stroke-width="2"/><path d="M246.099 100.547c.681-.879 1.241-1 1.681-.361.126.185.18.416.151.658-.028.242-.137.48-.308.677-1.77 2.041-3.732 2.125-5.889.251-.335-.282-.419-.549-.251-.801.058-.091.189-.159.372-.193.184-.033.411-.032.648.005l2.372.408c.188.032.403-.011.619-.125.217-.114.426-.293.605-.519Z" stroke="#D48993" stroke-width="2"/><path d="M249.727 104.049a3.942 3.942 0 1 1 7.884 0 3.942 3.942 0 0 1-7.884 0Z" stroke="#F09E9A" stroke-width="2"/><path d="M268.555 105.305c1.738-1.246 3.559-1.732 5.465-1.46a.956.956 0 0 1 .454.193.595.595 0 0 1 .221.356c.052.325-.173.466-.675.424-2.827-.251-5.078.487-6.753 2.214-.167.178-.34.288-.518.33-.722.199-.55-.157.518-1.068a17.53 17.53 0 0 1 1.288-.989Zm-2.089 8.637c-4.627-2.23-4.569-2.434.173-.612.225.092.407.24.518.424.346.513.115.575-.691.188Z" stroke="#D48993" stroke-width="2"/><path d="M194.059 211.505c-7.349-.774-7.396-.979-.141-.612.221.01.418.088.55.22.335.324.198.455-.409.392Z" stroke="#F09E9A" stroke-width="2"/><path d="M153.718 226.455a.2.2 0 0 1-.043-.086.183.183 0 0 1 0-.093.166.166 0 0 1 .121-.12c.817-.251 1.566-.162 2.246.267a.676.676 0 0 1 .317.523.588.588 0 0 1-.254.529c-.66.419-1.455.079-2.387-1.02Z" stroke="#D48993" stroke-width="2"/><path d="M210.218 171.871c1.172.837 1.083 1.654-.267 2.449a.96.96 0 0 1-.665.127.839.839 0 0 1-.544-.346c-.555-.796-.503-1.518.157-2.167a.971.971 0 0 1 .63-.265c.241-.012.484.06.689.202Z" stroke="#AD7A3B" stroke-width="2"/><path d="M205.632 180.492c1.529.146 1.607.523.236 1.13-2.031.89-3.727.524-5.088-1.099-.303-.356-.204-.513.299-.471l4.553.44Z" stroke="#DA9A59" stroke-width="2"/><path d="M271.226 310.459a1.094 1.094 0 0 1 .311-.769 1.08 1.08 0 0 1 .763-.324l3.329-.029a1.087 1.087 0 0 1 1.093 1.074l.059 6.784a1.074 1.074 0 0 1-.31.769 1.088 1.088 0 0 1-.764.324l-3.329.029a1.082 1.082 0 0 1-1.092-1.074l-.06-6.784Zm-47.45-.594a.515.515 0 0 1 .321-.478.519.519 0 0 1 .199-.039l4.459.008a.514.514 0 0 1 .517.519l-.013 7.82a.519.519 0 0 1-.519.517l-4.46-.008a.515.515 0 0 1-.517-.519l.013-7.82Zm51.186 15.629c.366 1.267.01 1.853-1.068 1.759a1.325 1.325 0 0 1-.678-.253 1.436 1.436 0 0 1-.468-.579c-.461-1.026-.069-1.581 1.177-1.665a1.023 1.023 0 0 1 1.037.738Zm-2.01 8.7c.429-1.33 1.052-1.335 1.869-.016.13.216.2.461.2.706 0 .245-.07.479-.2.676-.524.764-1.074.785-1.649.063a1.404 1.404 0 0 1-.287-.666 1.66 1.66 0 0 1 .067-.763Z" stroke="#AD7A3B" stroke-width="2"/><path d="M274.962 340.459c-3.696-.073-3.847-.35-.456-.832.199-.031.398-.031.597 0 1.424.22 1.597.471.518.754a2.601 2.601 0 0 1-.659.078Z" stroke="#CCA02F" stroke-width="2"/><path d="M226.8 325.117c1.518.409 1.518 1.053 0 1.932a1.291 1.291 0 0 1-.704.174 1.112 1.112 0 0 1-.646-.237c-.618-.502-.639-1.026-.063-1.57.173-.159.394-.27.641-.322.247-.052.512-.044.772.023Zm.471 9.218c.555 1.769.037 2.188-1.554 1.256a1.27 1.27 0 0 1-.504-.537.994.994 0 0 1-.077-.672c.157-.67.528-.994 1.115-.973.217.014.431.11.613.276.183.165.324.392.407.65Z" stroke="#AD7A3B" stroke-width="2"/><path d="M138.879 365.584c-2.942-.816-5.486-2.187-7.632-4.114a4.647 4.647 0 0 0-2.151-1.099c-2.188-.482-3.555-.921-4.099-1.319-.597-.429-.393-.649.612-.66 2.701-.02 5.067.901 7.098 2.764 2.115 1.937 4.565 3.12 7.349 3.549.796.126.958.393.487.801-.314.283-.869.309-1.664.078Z" stroke="#AD92A4" stroke-width="2"/><path d="M197.011 372.965c3.33-1.288 5.957-.738 7.883 1.649a1.879 1.879 0 0 1 .411 1.435 1.929 1.929 0 0 1-.756 1.297c-2.586 1.947-5.145 2.361-7.679 1.241-1.183-.524-1.884-1.314-2.104-2.372-.304-1.465.445-2.549 2.245-3.25Zm-69.501 3.314a2.619 2.619 0 0 1 .376-1.363c.255-.434.631-.83 1.106-1.165a5.748 5.748 0 0 1 1.667-.79 7.243 7.243 0 0 1 1.974-.294c1.37-.017 2.688.341 3.665.995.977.653 1.532 1.549 1.544 2.491.006.466-.122.929-.377 1.362-.254.434-.63.83-1.106 1.165a5.717 5.717 0 0 1-1.666.79 7.249 7.249 0 0 1-1.974.294c-1.37.017-2.688-.341-3.665-.994-.977-.654-1.533-1.55-1.544-2.491Z" stroke="#CAA9C4" stroke-width="2"/><path d="M195.663 375.579c.016-.596.481-1.154 1.29-1.553.81-.398 1.898-.605 3.026-.573 1.128.031 2.204.298 2.99.741.786.444 1.218 1.027 1.201 1.622-.016.596-.48 1.154-1.29 1.553-.809.398-1.898.605-3.026.573-1.128-.031-2.204-.298-2.99-.741-.786-.444-1.218-1.027-1.201-1.622Zm-66.924.453a1.84 1.84 0 0 1 .36-.987c.22-.308.535-.582.925-.807.391-.224.85-.395 1.351-.503a6.137 6.137 0 0 1 1.57-.123c1.082.053 2.105.38 2.846.908.741.529 1.138 1.216 1.104 1.911a1.848 1.848 0 0 1-.359.987 2.913 2.913 0 0 1-.926.807c-.391.224-.85.395-1.351.503a6.137 6.137 0 0 1-1.57.123c-1.082-.053-2.105-.38-2.846-.909-.741-.528-1.138-1.215-1.104-1.91Z" stroke="#CAA9C4" stroke-width="2"/><path d="M114.57 162.418c4.208 3.266 8.846 5.888 13.913 7.867 2.523.984 3.952.136 4.287-2.544.398-3.13-.293-6.287-2.073-9.469-3.999-7.129-6.475-13.955-7.428-20.477-1.12-7.621 1.759-13.379 8.637-17.273 2.01-1.141 6.721-2.33 14.133-3.565a110.613 110.613 0 0 0 33.416-11.259c5.999-3.162 11.081-7.25 15.248-12.264 4.303-5.182 7.087-10.882 8.354-17.1 1.801-8.868.492-17.594-3.926-26.178-4.92-9.558-12.212-17.027-21.874-22.408-21.828-12.134-44.948-14.918-69.361-8.355-18.561 4.994-32.118 15.442-40.671 31.344-3.12 5.8-4.685 12.965-4.695 21.498-.021 10.646 2.078 20.853 6.297 30.621 8.06 18.707 19.372 35.018 33.934 48.931 5.496 5.255 9.433 8.799 11.809 10.631Z" fill="#fff"/><g clip-path="url(#a)"><path d="M136.604 31.62a.324.324 0 0 0-.096-.235.335.335 0 0 0-.234-.097l-9.688-.017a.329.329 0 0 0-.306.204.325.325 0 0 0-.026.126l-.008 4.862a.324.324 0 0 0 .096.234.328.328 0 0 0 .234.097l9.688.018a.33.33 0 0 0 .332-.33l.008-4.863Zm3.53 25.932.017 3.013a.262.262 0 0 1-.087.193.318.318 0 0 1-.213.08l-3.207.022a.258.258 0 0 0-.172.067.208.208 0 0 0-.066.158l.04 1.655a.247.247 0 0 0 .076.17.26.26 0 0 0 .175.073l3.079.044c.074 0 .145.025.2.069a.259.259 0 0 1 .096.169l.194 1.901c.008.07.036.136.079.183a.21.21 0 0 0 .155.073l1.721-.03a.201.201 0 0 0 .153-.084.322.322 0 0 0 .063-.195l.026-27.383a.392.392 0 0 0-.397-.393h-21.353a.308.308 0 0 0-.217.09.323.323 0 0 0-.092.219l-.141 12.18a.736.736 0 0 0 .204.516.694.694 0 0 0 .502.217c4.418.026 9.007.034 13.769.022.024 0 .246-.018.666-.053.615-.056.981.212 1.099.803a.275.275 0 0 0 .251.216l3.199.097a.26.26 0 0 1 .175.07.226.226 0 0 1 .072.164v2.92a.23.23 0 0 1-.072.166.266.266 0 0 1-.175.073l-3.199.097a.306.306 0 0 0-.178.06.259.259 0 0 0-.1.147 3.431 3.431 0 0 0-.022 1.646.306.306 0 0 0 .096.164c.049.042.11.067.174.07l3.176.119a.258.258 0 0 1 .165.065c.044.04.069.092.069.147Z" stroke="#B3D8F8" stroke-width=".882"/><path d="M118.516 95.555c-.123-.786-.092-1.694.093-2.727a.27.27 0 0 1 .265-.225h9.555a.358.358 0 0 0 .358-.357v-2.55a.284.284 0 0 0-.086-.206.29.29 0 0 0-.205-.085h-9.781a.31.31 0 0 1-.214-.088.276.276 0 0 1-.082-.208l.119-2.766a.214.214 0 0 1 .072-.15.245.245 0 0 1 .162-.062l9.684-.026a.271.271 0 0 0 .179-.066.218.218 0 0 0 .077-.16l.022-2.571a.205.205 0 0 0-.074-.157.285.285 0 0 0-.182-.068l-9.644-.067a.404.404 0 0 1-.278-.11.37.37 0 0 1-.115-.265l-.022-2.651a.285.285 0 0 1 .088-.206.305.305 0 0 1 .212-.085l9.821-.027a.257.257 0 0 0 .17-.066.227.227 0 0 0 .051-.073.196.196 0 0 0 .017-.086l-.071-2.616a.218.218 0 0 0-.075-.155.263.263 0 0 0-.172-.065l-9.661-.08a.38.38 0 0 1-.278-.12.407.407 0 0 1-.111-.29l.04-2.572a.227.227 0 0 1 .065-.156.212.212 0 0 1 .151-.065l9.785-.026a.283.283 0 0 0 .183-.064.21.21 0 0 0 .078-.157l.039-2.58a.343.343 0 0 0-.029-.152.397.397 0 0 0-.23-.215.459.459 0 0 0-.164-.03h-9.613a.21.21 0 0 1-.155-.067.213.213 0 0 1-.046-.073.21.21 0 0 1-.015-.086l.03-2.753a.228.228 0 0 1 .067-.156.216.216 0 0 1 .154-.064h9.737a.374.374 0 0 0 .348-.508c-.217-.55-.013-.834.614-.851 2.058-.05 4.119-.075 6.18-.075a.247.247 0 0 0 .247-.247l-.057-13.844a.113.113 0 0 0-.032-.078.111.111 0 0 0-.078-.033c-4.635-.029-9.269-.04-13.902-.03l-2.581-.106a14.602 14.602 0 0 0-3.013.18.273.273 0 0 0-.158.092.263.263 0 0 0-.062.169 4618.655 4618.655 0 0 0-.111 44.669c.003.87.064 1.526.181 1.968.017.06.054.114.106.152a.302.302 0 0 0 .181.06l12.225.026a.294.294 0 0 0 .276-.195.296.296 0 0 0 .015-.118l-.145-2.034a.24.24 0 0 0-.075-.157.23.23 0 0 0-.159-.064l-9.706-.106a.277.277 0 0 1-.174-.064.266.266 0 0 1-.091-.156Z" stroke="#B3D8F8" stroke-width=".882"/><path d="M149.575 66.291a.268.268 0 0 0-.269-.27h-19.703a.266.266 0 0 0-.19.08.267.267 0 0 0-.079.19V98.18c0 .072.028.14.079.19.05.051.118.08.19.08h19.703a.268.268 0 0 0 .269-.27V66.291Zm-23.663-25.997a.112.112 0 0 0-.071-.106.115.115 0 0 0-.044-.008l-3.185.005a.12.12 0 0 0-.044.009.107.107 0 0 0-.037.025.1.1 0 0 0-.025.037.11.11 0 0 0-.009.044l.006 3.22c0 .016.003.03.009.045a.111.111 0 0 0 .024.037.115.115 0 0 0 .082.033l3.185-.005a.115.115 0 0 0 .106-.071.11.11 0 0 0 .008-.044l-.005-3.22Zm14.247.044a.154.154 0 0 0-.045-.105.155.155 0 0 0-.107-.043l-3.15.038a.15.15 0 0 0-.148.152l.038 3.123c0 .02.005.04.012.058a.152.152 0 0 0 .14.09l3.15-.038a.15.15 0 0 0 .148-.152l-.038-3.123Zm-4.644.017a.14.14 0 0 0-.04-.097.139.139 0 0 0-.097-.04h-8.109a.139.139 0 0 0-.097.04.14.14 0 0 0-.04.096v3.142a.14.14 0 0 0 .04.096c.026.026.061.04.097.04h8.109a.138.138 0 0 0 .097-.04.14.14 0 0 0 .04-.096v-3.142Zm4.694 5.753a.271.271 0 0 0-.269-.27h-17.171a.268.268 0 0 0-.269.27v2.99a.267.267 0 0 0 .269.27h17.171a.269.269 0 0 0 .269-.27v-2.99Zm-6.9 8.183a.186.186 0 0 0-.185-.185h-14.515a.186.186 0 0 0-.185.185v2.833a.184.184 0 0 0 .185.185h14.515a.186.186 0 0 0 .185-.185V54.29Zm0 6.353a.134.134 0 0 0-.011-.052.119.119 0 0 0-.029-.045.139.139 0 0 0-.097-.04H118.56a.134.134 0 0 0-.096.04.135.135 0 0 0-.04.097v2.92a.135.135 0 0 0 .136.137h14.612a.137.137 0 0 0 .097-.04.119.119 0 0 0 .029-.044.135.135 0 0 0 .011-.052v-2.92Z" stroke="#B3D8F8" stroke-width=".882"/><path d="M135.506 67.755c0-.052-.021-.1-.058-.137a.193.193 0 0 0-.137-.056l-2.48.017a.194.194 0 0 0-.193.196l.018 2.488c0 .051.021.1.058.137a.193.193 0 0 0 .137.056l2.48-.018a.187.187 0 0 0 .136-.058.185.185 0 0 0 .056-.137l-.017-2.488Zm5.396.026a.213.213 0 0 0-.065-.152.215.215 0 0 0-.153-.063l-2.444.017a.215.215 0 0 0-.152.064.222.222 0 0 0-.047.071.234.234 0 0 0-.016.083l.017 2.444a.233.233 0 0 0 .017.083.214.214 0 0 0 .201.132l2.444-.017a.214.214 0 0 0 .199-.135.214.214 0 0 0 .016-.083l-.017-2.444Zm5.305.007c0-.03-.006-.06-.018-.087a.236.236 0 0 0-.213-.14l-2.408.012a.229.229 0 0 0-.212.142.24.24 0 0 0-.017.088l.013 2.41c0 .03.006.059.018.087a.224.224 0 0 0 .213.14l2.408-.012a.233.233 0 0 0 .212-.143.24.24 0 0 0 .017-.088l-.013-2.409Zm.011 5.302a.23.23 0 0 0-.23-.23h-13.112a.23.23 0 0 0-.229.23v2.409a.23.23 0 0 0 .229.229h13.112a.23.23 0 0 0 .23-.23V73.09Zm0 5.272a.207.207 0 0 0-.208-.208h-13.156a.206.206 0 0 0-.207.208v2.453a.207.207 0 0 0 .207.207h13.156a.208.208 0 0 0 .208-.207v-2.453Zm-.014 5.321a.234.234 0 0 0-.071-.172.24.24 0 0 0-.171-.071h-13.068a.245.245 0 0 0-.224.15.247.247 0 0 0-.019.093v2.39a.247.247 0 0 0 .15.225c.03.012.061.018.093.018h13.068a.245.245 0 0 0 .224-.15.246.246 0 0 0 .018-.092v-2.391Zm.014 5.201a.252.252 0 0 0-.252-.252h-13.068a.25.25 0 0 0-.251.252v2.365a.25.25 0 0 0 .251.251h13.068a.251.251 0 0 0 .252-.251v-2.365Zm0 5.272c0-.03-.006-.06-.018-.088a.213.213 0 0 0-.05-.074.222.222 0 0 0-.162-.067h-13.112a.226.226 0 0 0-.229.23v2.408a.23.23 0 0 0 .229.23h13.112a.23.23 0 0 0 .23-.23v-2.409Z" stroke="#B3D8F8" stroke-width=".882"/><path d="M149.716 99h-34.081c-.144-.253-.217-.612-.22-1.077-.142-15.411-.131-31.026.03-46.844a.413.413 0 0 1 .131-.292.461.461 0 0 1 .311-.123l3.635-.057a.22.22 0 0 0 .159-.075.26.26 0 0 0 .066-.176l.101-12.984a.594.594 0 0 1 .169-.41.557.557 0 0 1 .401-.168l4.954.026a.32.32 0 0 0 .326-.322v-5.48a.29.29 0 0 1 .292-.29h4.808a.303.303 0 0 0 .305-.31c-.012-2.037-.003-4 .026-5.889 0-.14.027-.25.08-.326.088-.13.189-.144.304-.044.044.038.08.094.104.162a.674.674 0 0 1 .037.23v5.542c0 .17.07.334.195.455a.69.69 0 0 0 .471.193l4.434.057a.22.22 0 0 1 .159.069.253.253 0 0 1 .071.165l.15 5.462a.24.24 0 0 0 .068.161.226.226 0 0 0 .157.068l5.038.062a.639.639 0 0 1 .437.179.586.586 0 0 1 .181.421v27.82a.269.269 0 0 0 .163.245c.032.014.067.02.101.02h6.393a.402.402 0 0 1 .401.402c0 10.835-.008 21.694-.026 32.576a.6.6 0 0 1-.331.552Zm-13.112-67.38a.324.324 0 0 0-.096-.235.328.328 0 0 0-.234-.097l-9.688-.017a.33.33 0 0 0-.332.33l-.008 4.862a.324.324 0 0 0 .096.234.334.334 0 0 0 .234.097l9.688.017a.33.33 0 0 0 .332-.33l.008-4.862Zm3.53 25.931.017 3.014a.262.262 0 0 1-.087.193.318.318 0 0 1-.213.08l-3.207.022a.256.256 0 0 0-.172.067.208.208 0 0 0-.066.158l.039 1.654c.003.065.03.126.077.171a.258.258 0 0 0 .175.072l3.079.044a.328.328 0 0 1 .2.07.258.258 0 0 1 .096.169l.194 1.901c.008.07.036.135.079.182a.21.21 0 0 0 .155.074l1.72-.031a.203.203 0 0 0 .154-.083.322.322 0 0 0 .063-.195l.026-27.384a.392.392 0 0 0-.397-.392h-21.353a.308.308 0 0 0-.217.09.318.318 0 0 0-.092.218l-.141 12.181a.736.736 0 0 0 .203.516.716.716 0 0 0 .503.217c4.418.026 9.007.034 13.769.022.024 0 .246-.018.666-.053.615-.056.981.212 1.099.803a.27.27 0 0 0 .251.216l3.199.097a.263.263 0 0 1 .175.07.226.226 0 0 1 .072.164v2.92a.23.23 0 0 1-.072.166.266.266 0 0 1-.175.073l-3.199.097a.306.306 0 0 0-.178.06.259.259 0 0 0-.1.147 3.431 3.431 0 0 0-.022 1.646.307.307 0 0 0 .096.164c.049.042.11.066.173.07l3.177.119a.26.26 0 0 1 .165.065c.044.04.068.092.069.146Zm-21.618 38.003c-.123-.785-.093-1.694.093-2.726a.275.275 0 0 1 .092-.161.266.266 0 0 1 .172-.064h9.556a.358.358 0 0 0 .358-.358v-2.55a.285.285 0 0 0-.023-.111.283.283 0 0 0-.157-.158.29.29 0 0 0-.112-.022h-9.78a.297.297 0 0 1-.277-.184.268.268 0 0 1-.019-.111l.119-2.766a.213.213 0 0 1 .071-.15.25.25 0 0 1 .163-.062l9.684-.027a.27.27 0 0 0 .179-.065.218.218 0 0 0 .077-.16l.022-2.572a.206.206 0 0 0-.074-.157.284.284 0 0 0-.182-.068l-9.644-.066a.404.404 0 0 1-.278-.11.365.365 0 0 1-.115-.265l-.022-2.651a.285.285 0 0 1 .088-.206.307.307 0 0 1 .212-.086l9.821-.026a.255.255 0 0 0 .17-.066.212.212 0 0 0 .068-.159l-.071-2.616a.219.219 0 0 0-.075-.156.263.263 0 0 0-.172-.065l-9.662-.08a.374.374 0 0 1-.277-.12.406.406 0 0 1-.111-.29l.04-2.572a.226.226 0 0 1 .065-.156.21.21 0 0 1 .151-.064l9.785-.027a.283.283 0 0 0 .183-.064.213.213 0 0 0 .078-.156l.039-2.581a.359.359 0 0 0-.121-.28.456.456 0 0 0-.302-.117h-9.613a.212.212 0 0 1-.155-.066.23.23 0 0 1-.062-.159l.031-2.753a.22.22 0 0 1 .221-.22h9.737a.372.372 0 0 0 .306-.163.376.376 0 0 0 .042-.345c-.217-.55-.013-.834.613-.852 2.059-.05 4.12-.075 6.181-.075a.246.246 0 0 0 .247-.247l-.057-13.844a.113.113 0 0 0-.032-.078.112.112 0 0 0-.078-.032c-4.636-.03-9.269-.04-13.902-.03l-2.581-.107a14.598 14.598 0 0 0-3.013.181.263.263 0 0 0-.22.26 4618.647 4618.647 0 0 0-.111 44.67c.003.87.063 1.526.181 1.967.017.06.054.115.106.153a.303.303 0 0 0 .181.059l12.225.026a.294.294 0 0 0 .276-.195.296.296 0 0 0 .015-.118l-.146-2.034a.24.24 0 0 0-.074-.157.23.23 0 0 0-.159-.063l-9.706-.106a.277.277 0 0 1-.174-.064.261.261 0 0 1-.091-.157Zm31.059-29.263a.268.268 0 0 0-.269-.27h-19.703a.266.266 0 0 0-.19.08.267.267 0 0 0-.079.19v31.888c0 .072.028.14.079.19.05.051.118.08.19.08h19.703a.268.268 0 0 0 .269-.27V66.291Z" fill="#fff"/><path d="m136.274 31.288-9.688-.017a.332.332 0 0 0-.332.33l-.008 4.862a.33.33 0 0 0 .33.332l9.688.017a.332.332 0 0 0 .332-.33l.008-4.863a.33.33 0 0 0-.33-.331Z" fill="#F16D22"/><path d="m139.9 57.34-3.176-.12a.286.286 0 0 1-.174-.069.306.306 0 0 1-.096-.164 3.431 3.431 0 0 1 .022-1.646.259.259 0 0 1 .1-.147.306.306 0 0 1 .178-.06l3.199-.097a.266.266 0 0 0 .175-.073.23.23 0 0 0 .072-.165v-2.92a.226.226 0 0 0-.072-.165.26.26 0 0 0-.175-.07l-3.199-.097a.275.275 0 0 1-.251-.216c-.118-.591-.484-.859-1.099-.803-.42.035-.642.053-.666.053-4.762.012-9.351.004-13.769-.022a.694.694 0 0 1-.502-.217.72.72 0 0 1-.204-.515l.141-12.181a.323.323 0 0 1 .092-.219.308.308 0 0 1 .217-.09h21.353a.392.392 0 0 1 .397.393l-.026 27.383a.322.322 0 0 1-.063.195.201.201 0 0 1-.153.083l-1.721.031a.21.21 0 0 1-.155-.073.327.327 0 0 1-.079-.183l-.194-1.901a.259.259 0 0 0-.096-.169.328.328 0 0 0-.2-.07l-3.079-.044a.258.258 0 0 1-.175-.072.247.247 0 0 1-.076-.17l-.04-1.655a.208.208 0 0 1 .066-.158.248.248 0 0 1 .172-.067l3.207-.022c.08 0 .156-.028.213-.08a.262.262 0 0 0 .087-.193l-.017-3.013a.198.198 0 0 0-.069-.147.258.258 0 0 0-.165-.065Zm-13.988-17.046a.113.113 0 0 0-.071-.106.115.115 0 0 0-.044-.008l-3.185.005a.115.115 0 0 0-.115.115l.006 3.22c0 .016.003.03.009.045a.1.1 0 0 0 .025.037.115.115 0 0 0 .081.034l3.185-.006a.115.115 0 0 0 .115-.115l-.006-3.22Zm14.247.044a.154.154 0 0 0-.045-.105.155.155 0 0 0-.107-.043l-3.15.038a.15.15 0 0 0-.148.152l.038 3.123c0 .02.004.04.012.058a.152.152 0 0 0 .14.09l3.15-.038a.15.15 0 0 0 .148-.152l-.038-3.123Zm-4.644.017a.14.14 0 0 0-.04-.097.138.138 0 0 0-.097-.04h-8.109a.138.138 0 0 0-.097.04.14.14 0 0 0-.04.097v3.14a.14.14 0 0 0 .04.097c.026.026.061.04.097.04h8.109a.138.138 0 0 0 .097-.04.14.14 0 0 0 .04-.096v-3.141Zm4.694 5.753a.271.271 0 0 0-.269-.27h-17.171a.268.268 0 0 0-.269.27v2.99a.269.269 0 0 0 .269.27h17.171a.269.269 0 0 0 .269-.27v-2.99Z" fill="#F7CF3D"/><path d="m125.797 40.18-3.185.005a.115.115 0 0 0-.115.115l.006 3.22c0 .064.051.115.115.115l3.185-.005a.115.115 0 0 0 .115-.115l-.006-3.22a.115.115 0 0 0-.115-.115Zm14.21.01-3.15.038a.15.15 0 0 0-.148.152l.038 3.123a.15.15 0 0 0 .152.148l3.15-.038a.15.15 0 0 0 .148-.152l-.038-3.123a.15.15 0 0 0-.152-.148Zm-4.629.028h-8.109a.137.137 0 0 0-.137.136v3.142c0 .075.062.136.137.136h8.109a.137.137 0 0 0 .137-.136v-3.142a.137.137 0 0 0-.137-.136Zm4.562 5.62h-17.171a.269.269 0 0 0-.269.27v2.99c0 .15.12.27.269.27h17.171a.27.27 0 0 0 .269-.27v-2.99a.27.27 0 0 0-.269-.27Z" fill="#fff"/><path d="m118.781 95.775 9.706.106a.23.23 0 0 1 .159.063.24.24 0 0 1 .075.157l.145 2.034a.296.296 0 0 1-.015.118.31.31 0 0 1-.062.102.285.285 0 0 1-.214.093l-12.225-.026a.303.303 0 0 1-.181-.06.284.284 0 0 1-.106-.152c-.117-.441-.178-1.097-.181-1.968-.035-14.89.002-29.78.111-44.669a.263.263 0 0 1 .22-.26 14.602 14.602 0 0 1 3.013-.18l2.581.105c4.633-.009 9.267.002 13.902.03.029 0 .057.013.078.033.02.02.032.049.032.078l.057 13.844a.248.248 0 0 1-.247.247c-2.061 0-4.122.025-6.18.075-.627.018-.831.302-.614.852a.37.37 0 0 1-.175.463.374.374 0 0 1-.173.044h-9.737a.216.216 0 0 0-.154.065.228.228 0 0 0-.067.156l-.03 2.753a.21.21 0 0 0 .015.085.212.212 0 0 0 .117.123.21.21 0 0 0 .084.017h9.613a.459.459 0 0 1 .303.117c.039.037.07.08.091.129.021.048.031.1.029.15l-.039 2.582a.21.21 0 0 1-.078.156.283.283 0 0 1-.183.064l-9.785.027a.212.212 0 0 0-.151.064.227.227 0 0 0-.065.156l-.04 2.572a.417.417 0 0 0 .111.29.383.383 0 0 0 .278.12l9.661.08a.264.264 0 0 1 .172.065.218.218 0 0 1 .075.156l.071 2.616a.196.196 0 0 1-.017.086.227.227 0 0 1-.129.122.259.259 0 0 1-.092.017l-9.821.026a.314.314 0 0 0-.212.086.286.286 0 0 0-.088.206l.022 2.651c0 .1.042.195.115.265.074.07.174.11.278.11l9.644.066a.285.285 0 0 1 .182.068.205.205 0 0 1 .074.157l-.022 2.572a.218.218 0 0 1-.077.16.271.271 0 0 1-.179.065l-9.684.027a.246.246 0 0 0-.162.062.214.214 0 0 0-.072.15l-.119 2.766a.276.276 0 0 0 .082.208.297.297 0 0 0 .214.087h9.781a.288.288 0 0 1 .205.086.284.284 0 0 1 .086.205v2.55a.358.358 0 0 1-.358.358h-9.555a.27.27 0 0 0-.265.225c-.185 1.032-.216 1.94-.093 2.726a.266.266 0 0 0 .091.157.28.28 0 0 0 .174.064Zm14.528-41.484a.186.186 0 0 0-.185-.185h-14.515a.186.186 0 0 0-.185.185v2.832a.184.184 0 0 0 .185.186h14.515a.186.186 0 0 0 .185-.186v-2.832Zm0 6.353a.135.135 0 0 0-.011-.052.132.132 0 0 0-.074-.074.132.132 0 0 0-.052-.01H118.56a.135.135 0 0 0-.096.04.135.135 0 0 0-.04.096v2.92c0 .037.014.072.04.097.025.026.06.04.096.04h14.612a.139.139 0 0 0 .097-.04.132.132 0 0 0 .029-.044.135.135 0 0 0 .011-.052v-2.921Z" fill="#F7CF3D"/><path d="M133.124 54.106h-14.515a.185.185 0 0 0-.185.185v2.833c0 .102.083.185.185.185h14.515a.185.185 0 0 0 .185-.185V54.29a.185.185 0 0 0-.185-.185Zm.048 6.401H118.56a.137.137 0 0 0-.136.137v2.92c0 .076.061.137.136.137h14.612a.137.137 0 0 0 .137-.136v-2.92a.137.137 0 0 0-.137-.138Z" fill="#fff"/><path d="M149.575 98.18a.268.268 0 0 1-.269.27h-19.703a.268.268 0 0 1-.269-.27V66.29a.268.268 0 0 1 .269-.27h19.703a.268.268 0 0 1 .269.27v31.89Zm-14.069-30.425a.19.19 0 0 0-.058-.137.192.192 0 0 0-.137-.056l-2.48.017a.198.198 0 0 0-.137.058.198.198 0 0 0-.055.138l.017 2.488c0 .051.021.1.058.137a.193.193 0 0 0 .137.056l2.48-.018a.198.198 0 0 0 .137-.058.183.183 0 0 0 .041-.063.19.19 0 0 0 .015-.074l-.018-2.488Zm5.396.026a.213.213 0 0 0-.064-.152.213.213 0 0 0-.154-.062l-2.444.017a.215.215 0 0 0-.152.064.223.223 0 0 0-.047.07.234.234 0 0 0-.016.083l.018 2.444a.213.213 0 0 0 .064.153.215.215 0 0 0 .153.062l2.444-.017a.216.216 0 0 0 .215-.218l-.017-2.444Zm5.305.007c0-.03-.006-.06-.018-.088a.227.227 0 0 0-.213-.14l-2.408.012a.235.235 0 0 0-.162.069.245.245 0 0 0-.05.074.24.24 0 0 0-.017.088l.013 2.409c0 .03.006.06.018.087a.241.241 0 0 0 .05.075.236.236 0 0 0 .163.066l2.408-.013a.227.227 0 0 0 .162-.068.23.23 0 0 0 .067-.162l-.013-2.409Zm.011 5.302a.23.23 0 0 0-.23-.23h-13.111a.231.231 0 0 0-.23.23v2.408a.23.23 0 0 0 .23.23h13.111a.231.231 0 0 0 .23-.23V73.09Zm0 5.272a.207.207 0 0 0-.208-.208h-13.155a.208.208 0 0 0-.208.208v2.453a.207.207 0 0 0 .208.207h13.155a.208.208 0 0 0 .208-.207v-2.453Zm-.013 5.32a.247.247 0 0 0-.15-.224.245.245 0 0 0-.093-.018h-13.068a.245.245 0 0 0-.224.15.246.246 0 0 0-.018.092v2.391a.234.234 0 0 0 .071.172.238.238 0 0 0 .171.071h13.068a.245.245 0 0 0 .224-.15.247.247 0 0 0 .019-.093v-2.39Zm.013 5.202a.253.253 0 0 0-.252-.252h-13.067a.251.251 0 0 0-.252.252v2.364a.253.253 0 0 0 .252.252h13.067a.251.251 0 0 0 .252-.252v-2.364Zm0 5.272c0-.03-.006-.06-.018-.088a.224.224 0 0 0-.124-.124.228.228 0 0 0-.088-.018h-13.111a.232.232 0 0 0-.163.068.224.224 0 0 0-.049.074.221.221 0 0 0-.018.088v2.409a.23.23 0 0 0 .23.229h13.111a.23.23 0 0 0 .23-.23v-2.408Z" fill="#F7CF3D"/><path d="m135.311 67.562-2.48.017a.194.194 0 0 0-.192.196l.017 2.488a.194.194 0 0 0 .195.193l2.48-.018a.195.195 0 0 0 .193-.195l-.018-2.488a.194.194 0 0 0-.195-.193Zm5.373.004-2.444.017a.217.217 0 0 0-.215.218l.017 2.444c.001.12.099.216.218.215l2.444-.017a.217.217 0 0 0 .215-.218l-.017-2.444a.216.216 0 0 0-.218-.215Zm5.293-.006-2.409.013a.229.229 0 0 0-.228.23l.012 2.409a.23.23 0 0 0 .231.228l2.409-.013a.23.23 0 0 0 .228-.23l-.013-2.409a.229.229 0 0 0-.23-.228Zm.011 5.3h-13.111a.23.23 0 0 0-.23.23v2.409a.23.23 0 0 0 .23.229h13.111a.23.23 0 0 0 .23-.23V73.09a.23.23 0 0 0-.23-.23Zm.022 5.294h-13.155a.208.208 0 0 0-.208.208v2.453c0 .114.093.207.208.207h13.155a.208.208 0 0 0 .208-.207v-2.453a.208.208 0 0 0-.208-.208Zm-.048 5.286h-13.068a.242.242 0 0 0-.242.242v2.391c0 .134.108.243.242.243h13.068a.243.243 0 0 0 .243-.243v-2.39a.243.243 0 0 0-.243-.244Zm.004 5.192h-13.067a.252.252 0 0 0-.252.252v2.365c0 .138.113.251.252.251h13.067a.252.252 0 0 0 .252-.251v-2.365a.252.252 0 0 0-.252-.252Zm.022 5.294h-13.111a.23.23 0 0 0-.23.23v2.408c0 .127.103.23.23.23h13.111a.23.23 0 0 0 .23-.23v-2.408a.23.23 0 0 0-.23-.23Z" fill="#fff"/></g><path d="M153.235 81.73c-2.502.953-4.015 2.69-4.539 5.214a2.36 2.36 0 0 1-.753 1.272c-3.79 3.276-3.486 6.5.911 9.673 4.606.816 9.406.795 14.399-.063a3.802 3.802 0 0 0 2.874-2.324c1.738-4.271.419-7.087-3.957-8.448a1.7 1.7 0 0 1-.616-.359 1.756 1.756 0 0 1-.421-.584c-1.434-3.266-4.067-4.726-7.898-4.38ZM116 98.156l-.063-11.322c-2.094-1.057-3.685-.88-4.774.534a34.212 34.212 0 0 0-3.109 4.852c-1.193 2.251-.67 4.02 1.571 5.308 1.413.816 3.538 1.026 6.375.628Z" fill="#21A0AA"/><path d="M248.957 84.404c2.272-.23 3.366.524 3.282 2.261-.03.536.11 1.034.393 1.398l3.156 4.052c.184.237.394.431.61.566.216.134.433.204.631.203.89 0 1.277-.686 1.162-2.057-.115-1.35.162-1.44.832-.267 1.183 2.083 1.633 4.486 1.351 7.208-.555 5.339 1.277 6.543 5.496 3.611 1.863-1.287 4.449-1.863 7.757-1.727.366-2.45 1.214-4.653 2.544-6.611 2.282-3.34 3.512-5.281 3.69-5.826 1.602-4.941-.492-8.417-6.281-10.427-.427-.142-.948-.12-1.476.063-1.801.618-2.764.026-2.89-1.774-.04-.583-.194-1.087-.439-1.445-3.12-4.544-7.061-5.135-11.825-1.775-.168.12-.363.197-.566.222a1.19 1.19 0 0 1-.596-.08c-5.956-2.429-9.736-1.424-11.337 3.015-.681 1.884-.56 3.659.361 5.323.921 1.696 2.303 3.052 4.145 4.067Z" fill="#5B2448"/><path d="m248.957 84.404-3.925 6.03c-.091.144-.261.275-.494.379-.234.104-.523.18-.841.218-2.115.251-2.827 1.46-2.136 3.627a1.7 1.7 0 0 1 .068.742c-.032.24-.12.46-.256.64a11.387 11.387 0 0 1-3.832 3.235c-2.334 1.225-3.716 2.073-4.145 2.544-2.45 2.68-2.026 5.543 1.272 8.59 2.805 2.596 6.37 4.417 10.693 5.464l8.543-1.57a.533.533 0 0 1 .612.675c-1.151 3.821-3.569 5.931-7.254 6.329 1.936 5.59 2.088 11.196.455 16.818l1.178.125c9.244.231 18.142-1.382 26.695-4.836-3.308-5.936-5.737-11.966-7.286-18.09a1.08 1.08 0 0 1 .495-1.188c.131-.079.279-.129.431-.147 4.02-.45 6.889-1.953 8.605-4.507 1.236-1.821 1.518-3.701.848-5.637-.732-2.157-2.418-3.554-5.056-4.193-3.308-.136-5.894.44-7.757 1.727-4.219 2.932-6.051 1.728-5.496-3.611.282-2.722-.168-5.125-1.351-7.208-.67-1.173-.947-1.084-.832.267.115 1.371-.272 2.057-1.162 2.057a1.22 1.22 0 0 1-.631-.204 2.395 2.395 0 0 1-.61-.566l-3.156-4.051c-.283-.365-.423-.862-.393-1.398.084-1.737-1.01-2.491-3.282-2.26Zm-1.334 5.952a1.537 1.537 0 0 1 2.01.204c3.433 3.727 3.386 4.79-.142 3.188-.68-.304-1.225-.655-1.633-1.053-.984-.973-1.062-1.753-.235-2.34Zm-1.524 10.191c.681-.88 1.241-1 1.681-.361.126.185.18.416.151.658-.028.242-.137.48-.308.677-1.77 2.041-3.732 2.125-5.889.251-.335-.283-.419-.55-.251-.801.058-.091.189-.159.372-.193.184-.034.411-.032.648.005l2.372.408c.188.032.403-.011.619-.125a1.96 1.96 0 0 0 .605-.519Zm3.628 3.502a3.94 3.94 0 0 1 6.728-2.787 3.937 3.937 0 0 1 0 5.574 3.94 3.94 0 0 1-6.728-2.787Zm18.828 1.256c1.738-1.246 3.559-1.733 5.465-1.46a.947.947 0 0 1 .454.193.595.595 0 0 1 .221.356c.052.325-.173.466-.675.424-2.827-.251-5.078.487-6.753 2.214-.167.178-.34.288-.518.33-.722.199-.55-.157.518-1.068.409-.345.838-.675 1.288-.989Zm-2.089 8.637c-4.627-2.23-4.569-2.434.173-.613.225.092.407.241.518.424.346.513.116.576-.691.189Z" fill="#F4ADA2"/><path d="M247.623 90.356c-.827.586-.749 1.366.235 2.34.408.397.953.748 1.633 1.051 3.528 1.602 3.575.54.142-3.187a1.54 1.54 0 0 0-2.01-.204Z" fill="#20304A"/><path d="m244.875 101.191-2.372-.408a2.017 2.017 0 0 0-.648-.005c-.183.034-.314.102-.372.193-.168.252-.084.519.251.801 2.157 1.874 4.119 1.79 5.889-.251.171-.197.28-.435.308-.677a.958.958 0 0 0-.151-.658c-.44-.638-1-.518-1.681.361a1.947 1.947 0 0 1-.605.519c-.216.114-.431.157-.619.125Z" fill="#B46484"/><path d="M253.668 107.99a3.941 3.941 0 1 1 0-7.882 3.941 3.941 0 0 1 0 7.882Z" fill="#EC8E91"/><path d="M268.555 105.305c-.45.314-.88.644-1.288.989-1.068.911-1.24 1.267-.518 1.068.178-.042.351-.152.518-.33 1.675-1.727 3.926-2.465 6.753-2.214.502.042.727-.099.675-.424a.595.595 0 0 0-.221-.356.956.956 0 0 0-.454-.193c-1.906-.272-3.727.214-5.465 1.46Zm-2.089 8.637c.806.387 1.037.325.691-.188a1.067 1.067 0 0 0-.518-.424c-4.742-1.822-4.8-1.618-.173.612Z" fill="#B46484"/><path d="m245.361 115.873 1.9 5.434c3.685-.398 6.104-2.508 7.255-6.329a.537.537 0 0 0-.116-.509.537.537 0 0 0-.496-.166l-8.543 1.57Z" fill="#5B2448"/><path d="M275.59 133.414c-8.553 3.454-17.451 5.066-26.695 4.836-2.921 4.334-4.361 9.228-4.319 14.683.021 2.093.88 2.528 2.576 1.303a41.134 41.134 0 0 0 5.668-4.915c2.387-2.481 4.219-4.135 5.497-4.962 5.192-3.34 10.924-5.339 17.194-5.999.123-.014.248-.005.366.025a.86.86 0 0 1 .312.148c.088.068.153.15.191.24.037.09.047.185.027.278-.116.503-.786.639-2.01.408-2.094-.387-3.256.105-3.487 1.476a.975.975 0 0 0 .123.642c.115.206.298.382.521.505 8.019 4.355 14.044 10.809 18.075 19.362 6.354 13.525 10.28 27.485 11.777 41.88a584.136 584.136 0 0 1 1.57 18.184c.105 1.476-.387 2.12-1.476 1.932.011 1.8-.806 3.067-2.45 3.8-2.68 1.204-5.506 1.617-8.479 1.24-2.125 10.333-6.878 19.231-14.259 26.696l18.451 11.777c6.01-9.935 9.956-21.058 11.841-33.369 3.339-21.869.722-42.959-7.852-63.268a134.617 134.617 0 0 0-23.162-36.902Z" fill="#F16D22"/><path d="m248.894 138.25-1.177-.125-3.989 4.773c.021.492.147.937.377 1.335.116.209.182.437.193.664.011.227-.033.447-.13.639-1.026 2.01-1.031 4.984-.016 8.92.073.286.208.553.393.78.186.228.418.409.678.531.26.122.541.18.821.17.28-.009.552-.086.793-.225l2.717-1.539c1.277-.733 1.675-.434 1.193.895-3.611 9.987-5.977 20.016-7.097 30.087-.011.074-.095 1.743-.252 5.01-.094 1.895-.387 3.905-.879 6.03-.722 3.036-.581 6.208.424 9.516-.126-.848.157-1.262.848-1.241-.011-2.659.382-8.788 1.178-18.388 1.141-13.861 4.182-25.607 9.123-35.238 1.937-3.769 4.816-6.328 8.637-7.679 3.465-1.214 6.988-.926 10.568.864 3.664 1.821 6.731 4.501 9.202 8.04 9.108 13.075 14.656 27.554 16.645 43.435 1.173 9.348 1.586 16.546 1.241 21.592-.009.149-.084.332-.218.532-.134.199-.323.41-.551.614l-.864.754 2.748 4.444c1.089.188 1.581-.456 1.476-1.932a587.213 587.213 0 0 0-1.57-18.184c-1.497-14.395-5.423-28.355-11.778-41.88-4.03-8.553-10.055-15.007-18.074-19.362a1.32 1.32 0 0 1-.521-.505.975.975 0 0 1-.123-.642c.23-1.371 1.393-1.863 3.486-1.476 1.225.231 1.895.095 2.01-.408a.46.46 0 0 0-.027-.278.6.6 0 0 0-.19-.24.86.86 0 0 0-.312-.148 1.022 1.022 0 0 0-.366-.025c-6.271.66-12.002 2.659-17.195 5.999-1.277.827-3.109 2.481-5.496 4.962a41.084 41.084 0 0 1-5.669 4.915c-1.696 1.225-2.554.79-2.575-1.303-.042-5.455 1.398-10.349 4.318-14.683Z" fill="#F16D22"/><path d="m248.894 138.25-1.177-.125-3.989 4.773c.021.492.147.937.377 1.335.116.209.182.437.193.664.011.227-.033.447-.13.639-1.026 2.01-1.031 4.984-.016 8.92.073.286.208.553.393.78.186.228.418.409.678.531.26.122.541.18.821.17.28-.009.552-.086.793-.225l2.717-1.539c1.277-.733 1.675-.434 1.193.895-3.611 9.987-5.977 20.016-7.097 30.087-.011.074-.095 1.743-.252 5.01-.094 1.895-.387 3.905-.879 6.03-.722 3.036-.581 6.208.424 9.516-.126-.848.157-1.262.848-1.241-.011-2.659.382-8.788 1.178-18.388 1.141-13.861 4.182-25.607 9.123-35.238 1.937-3.769 4.816-6.328 8.637-7.679 3.465-1.214 6.988-.926 10.568.864 3.664 1.821 6.731 4.501 9.202 8.04 9.108 13.075 14.656 27.554 16.645 43.435 1.173 9.348 1.586 16.546 1.241 21.592-.009.149-.084.332-.218.532-.134.199-.323.41-.551.614l-.864.754 2.748 4.444c1.089.188 1.581-.456 1.476-1.932a587.213 587.213 0 0 0-1.57-18.184c-1.497-14.395-5.423-28.355-11.778-41.88-4.03-8.553-10.055-15.007-18.074-19.362a1.32 1.32 0 0 1-.521-.505.975.975 0 0 1-.123-.642c.23-1.371 1.393-1.863 3.486-1.476 1.225.231 1.895.095 2.01-.408a.46.46 0 0 0-.027-.278.6.6 0 0 0-.19-.24.86.86 0 0 0-.312-.148 1.022 1.022 0 0 0-.366-.025c-6.271.66-12.002 2.659-17.195 5.999-1.277.827-3.109 2.481-5.496 4.962a41.084 41.084 0 0 1-5.669 4.915c-1.696 1.225-2.554.79-2.575-1.303-.042-5.455 1.398-10.349 4.318-14.683Z" fill="#fff" fill-opacity=".2"/><path d="m243.791 204.47 1.57.126c13.149-.879 26.397 1.162 39.745 6.124 3.475 1.288 6.082 2.628 7.82 4.02l5.826 4.256.864-.754a3.34 3.34 0 0 0 .551-.614c.134-.2.209-.383.218-.532.345-5.046-.068-12.243-1.241-21.592-1.989-15.881-7.537-30.359-16.645-43.435-2.47-3.538-5.538-6.218-9.202-8.04-3.58-1.79-7.103-2.078-10.568-.864-3.821 1.351-6.7 3.911-8.637 7.679-4.941 9.632-7.982 21.377-9.123 35.238-.796 9.6-1.189 15.729-1.178 18.388Z" fill="#F16D22"/><path d="M243.728 142.898a144.291 144.291 0 0 0-14.855 20.352c.9.45 1.654.382 2.261-.204.88-.859 1.356-1.309 1.429-1.351 3.225-1.937 5.632-1.78 7.224.471 1.099 1.539 1.387 3.444.863 5.716-1.193 5.234-4.988 7.658-11.384 7.271l.329 4.255a47.445 47.445 0 0 0 5.638 3.157c2.701 1.266 4.465 2.423 5.292 3.47 2.282 2.91 1.769 6.035-1.539 9.375-.785.785-2.214 1.732-4.287 2.842l4.444 7.066 3.407 2.748.393-2.355c-1.005-3.308-1.146-6.48-.424-9.516.492-2.125.785-4.135.879-6.03.157-3.266.241-4.936.252-5.009 1.12-10.071 3.486-20.1 7.098-30.088.481-1.329.083-1.628-1.194-.895l-2.717 1.539a1.707 1.707 0 0 1-.793.226 1.796 1.796 0 0 1-.821-.171 1.928 1.928 0 0 1-.678-.531 2.033 2.033 0 0 1-.393-.78c-1.015-3.936-1.01-6.909.016-8.919.097-.193.142-.413.131-.64a1.527 1.527 0 0 0-.194-.664 2.871 2.871 0 0 1-.377-1.335Z" fill="#F16D22"/><path d="M150.357 150.813c-.24 1.549-1.135 2.313-2.685 2.293-.335 2.554.319 4.778 1.963 6.673a2.716 2.716 0 0 0 1.115-1.115c-1.895-.827-2.157-2.046-.785-3.658-.848-.377-.979-.88-.393-1.508 1.675-1.769 3.769-2.444 6.282-2.026-1.634-1.298-3.466-1.518-5.497-.659Z" fill="#20304A"/><path d="M150.357 150.813c-2.376-.576-3.271.188-2.685 2.293 1.55.021 2.445-.744 2.685-2.293Z" fill="#F9857E"/><path d="M155.854 151.472c-2.513-.418-4.607.257-6.282 2.026-.586.628-.455 1.131.393 1.507a37.512 37.512 0 0 1 10.034 6.596.97.97 0 0 1 .302.57c.034.222-.006.452-.113.655-2.063 3.978-2.298 7.72-.707 11.227.199.44 2.209 3.272 6.03 8.496a2203.082 2203.082 0 0 0 19.598 26.35c.324.429.23.575-.283.439a223.25 223.25 0 0 1-26.617-9.186l-5.951-.424c-2.398-.157-2.743.618-1.037 2.324l4.758 4.758c1.361 1.361 1.147 2.083-.644 2.167-1.874.094-3.925-.099-6.155-.581-1.099.251-2.125.141-3.078-.33l-.832 2.12a2.442 2.442 0 0 0-.11 1.492c1.748 6.752 4.889 12.777 9.422 18.074 1.026 1.204 4.213 2.408 9.563 3.612 4.03.911 7.94 2.183 11.73 3.816a1187.258 1187.258 0 0 1 44.142 18.514c9.359 4.156 18.33 6.731 26.915 7.726 10.678 1.235 20.471-1.513 29.38-8.244 7.381-7.465 12.134-16.363 14.259-26.696l1.052-7.066c-14.478-8.166-29.899-13.772-46.262-16.818l-1.57-.126c-.691-.021-.974.393-.848 1.241l-.392 2.355c1.235 1.853 1.648 4.078 1.24 6.674-.429 2.785-.167 5.795.785 9.029 3.947.335 7.297 1.853 10.05 4.554.262.241.225.283-.11.126l-9.94-4.68-1.57-.062a255.127 255.127 0 0 0-28.627-6.454c-.858-.136-.712-.304.44-.503.199-.031.408-.036.628-.016 2.136.262 2.9.006 2.293-.769a1.229 1.229 0 0 0-.558-.389c-.231-.082-.494-.111-.761-.082-7.517.754-14.133 3.528-19.849 8.323-.827.69-1.56 1.083-2.199 1.177-1.455.21-2.125-.591-2.01-2.402.471-7.548 3.984-13.364 10.537-17.446 2.104-1.309 2.073-1.665-.094-1.068-.262.073-.576.256-.942.549-.419.335-.869.508-1.351.519a.84.84 0 0 1-.596-.25 1.158 1.158 0 0 1-.33-.646 126.612 126.612 0 0 1-2.183-23.272l-.251.11a.781.781 0 0 1-.221.06c-.065.005-.114-.005-.14-.028-8.019-6.606-9.527-14.677-4.523-24.214.984-1.853.45-2.56-1.602-2.12-1.716.377-3.371 1.256-4.962 2.638-3.884 3.381-8.155 3.957-12.814 1.727a436.09 436.09 0 0 0-17.037-7.679Zm38.205 60.033c-7.349-.774-7.396-.979-.141-.612.221.01.418.088.55.22.335.324.198.455-.409.392Zm-40.341 14.95a.202.202 0 0 1-.043-.179.166.166 0 0 1 .121-.12c.817-.251 1.566-.162 2.246.267a.676.676 0 0 1 .317.524.618.618 0 0 1-.058.3.577.577 0 0 1-.196.228c-.66.419-1.455.079-2.387-1.02Z" fill="#F4ADA2"/><path d="M150.75 158.664a2.716 2.716 0 0 1-1.115 1.115c-.911 2.125-.607 3.921.911 5.386.429.409.706.833.832 1.272a20.384 20.384 0 0 1 .66 8.26c-.071.587.013 1.112.235 1.476.628 1.016 1.272.843 1.932-.518a6.42 6.42 0 0 0 .581-3.674c-.492-3.497-.236-5.852.769-7.067.471-.565.749-.984.832-1.256 1.11-3.978-.769-5.643-5.637-4.994Z" fill="#FFCF2D"/><path d="m200.67 164.49 3.408.393.377-2.356c.038-.243.01-.493-.081-.725a1.444 1.444 0 0 0-.438-.594c-2.01-1.643-3.098-.549-3.266 3.282Z" fill="#20304A"/><path d="M228.873 163.25c-1.591 1.738-3.575 2.805-5.952 3.203l6.345 8.7c6.396.387 10.191-2.036 11.384-7.271.524-2.272.236-4.177-.863-5.716-1.592-2.251-3.999-2.408-7.224-.471-.073.042-.549.492-1.429 1.351-.607.586-1.361.654-2.261.204Z" fill="#5B2448"/><path d="M200.67 164.49c-2.209 5.235-3.297 10.731-3.266 16.489.01 7.83.738 15.587 2.183 23.272.042.252.159.481.329.645a.844.844 0 0 0 .597.25c.482-.011.932-.184 1.351-.519.366-.293.68-.476.942-.549 2.167-.597 2.198-.241.094 1.068-6.553 4.082-10.066 9.898-10.537 17.446-.115 1.811.555 2.612 2.01 2.402.639-.094 1.372-.486 2.199-1.177 5.716-4.795 12.332-7.569 19.848-8.323.268-.029.531 0 .762.082.231.083.423.217.558.389.607.775-.158 1.031-2.293.77a2.515 2.515 0 0 0-.628.015c-1.152.199-1.298.367-.44.503a255.127 255.127 0 0 1 28.627 6.454c-3.57-3.444-5.795-7.349-6.674-11.715-.555-2.784.382-5.009 2.811-6.674l-4.444-7.066c-7.297 1.979-12.636-.293-16.017-6.815-3.026-5.852-3.717-11.333-2.073-16.441 1.78-5.559 4.224-5.968 7.333-1.225a19.213 19.213 0 0 0 5.653 5.637l-.329-4.255-6.344-8.7c-6.397-2.973-11.417-1.712-15.06 3.785-1.151 1.737-1.769 1.565-1.853-.519-.073-1.863-.717-3.475-1.931-4.836l-3.408-.393Zm9.548 7.381c1.172.837 1.083 1.654-.267 2.449a.961.961 0 0 1-.665.127.836.836 0 0 1-.544-.346c-.555-.796-.503-1.518.157-2.167a.971.971 0 0 1 .63-.265c.241-.012.484.06.689.202Zm-4.586 8.621c1.529.146 1.607.523.236 1.13-2.031.89-3.727.524-5.088-1.099-.303-.356-.204-.513.299-.471l4.553.44Z" fill="#FFCF2D"/><path d="M234.699 198.252c2.073-1.11 3.502-2.057 4.287-2.842 3.308-3.34 3.821-6.465 1.539-9.375-.827-1.047-2.591-2.204-5.292-3.47a47.445 47.445 0 0 1-5.638-3.157 19.213 19.213 0 0 1-5.653-5.637c-3.109-4.742-5.553-4.334-7.333 1.225-1.644 5.109-.953 10.589 2.073 16.441 3.381 6.522 8.72 8.794 16.017 6.815Z" fill="#5B2448"/><path d="M208.899 171.934c-.66.649-.712 1.371-.157 2.167a.839.839 0 0 0 .544.346.96.96 0 0 0 .665-.127c1.35-.795 1.439-1.612.267-2.449a1.118 1.118 0 0 0-.689-.202.971.971 0 0 0-.63.265Z" fill="#20304A"/><path d="M135.439 192.301c1.1.031 2.115.607 3.047 1.727 4.617 5.611 8.181 10.401 10.694 14.368 2.23.482 4.281.676 6.155.581 1.79-.083 2.005-.806.644-2.167l-4.758-4.758c-1.706-1.706-1.361-2.481 1.037-2.324l5.951.424c-3.57-6.449-8.003-12.976-13.301-19.582a1.796 1.796 0 0 0-1.468-.675 1.796 1.796 0 0 0-1.421.77c-2.031 2.91-4.774 5.763-8.228 8.558a.776.776 0 0 0-.257.826c.03.095.08.183.147.257l1.758 1.995Z" fill="#fff"/><path d="m205.632 180.492-4.553-.44c-.503-.042-.602.115-.299.471 1.361 1.623 3.057 1.989 5.088 1.099 1.371-.607 1.293-.984-.236-1.13Z" fill="#B46484"/><path d="m135.439 192.3-2.779 4.177a.746.746 0 0 0-.113.569.687.687 0 0 0 .333.452c5.506 2.994 9.914 6.517 13.222 10.568.953.471 1.978.581 3.078.33-2.513-3.968-6.077-8.757-10.694-14.368-.932-1.121-1.947-1.696-3.047-1.728Z" fill="#66B0F0"/><path d="M245.361 204.596c16.363 3.046 31.783 8.652 46.262 16.818l1.303-6.674c-1.738-1.392-4.345-2.732-7.82-4.02-13.348-4.962-26.596-7.003-39.745-6.124Z" fill="#9B3C82"/><path d="M239.143 205.318c-2.429 1.665-3.366 3.889-2.811 6.674.879 4.366 3.104 8.271 6.674 11.715l1.57.063c-.952-3.235-1.214-6.245-.785-9.03.408-2.596-.005-4.821-1.241-6.674l-3.407-2.748Z" fill="#5B2448"/><path d="M194.059 211.505c.607.063.744-.068.409-.392a.825.825 0 0 0-.55-.22c-7.255-.367-7.208-.162.141.612Z" fill="#EC8E91"/><path d="m292.926 214.74-1.303 6.674-1.052 7.066c2.973.377 5.799-.036 8.479-1.24 1.644-.733 2.46-2 2.45-3.8l-2.748-4.444-5.826-4.256Z" fill="#5B2448"/><path d="m244.576 223.77 9.94 4.679c.335.157.372.115.11-.126-2.753-2.701-6.103-4.218-10.05-4.553Zm-90.858 2.685c.932 1.099 1.727 1.439 2.387 1.02a.588.588 0 0 0 .254-.529.676.676 0 0 0-.317-.523c-.68-.429-1.429-.518-2.246-.267a.166.166 0 0 0-.121.12.183.183 0 0 0 0 .093.2.2 0 0 0 .043.086Z" fill="#B46484"/><path d="M175.875 237.18c-13.264 2.753-24.518 8.993-33.762 18.718.377.325.445.665.205 1.021-.189.262-.299.419-.33.471-2.01 4.313-3.277 8.155-3.8 11.526-1.707 11.024-.529 22.147 3.533 33.369 3.611 9.977 9.186 20.493 16.724 31.548.345.502.397 1 .157 1.492l7.066 7.851 4.318-.518c8.564-3.203 15.892-8.176 21.985-14.918 4.554-6.417 9.95-11.338 16.19-14.761 1.612-.879 3.674-1.324 6.187-1.335-9.223-6.218-17.509-13.368-24.858-21.45-.953-1.047-.728-1.497.675-1.351l33.212 3.298a11.606 11.606 0 0 1 5.889.393c1.162-.367 2.863-.519 5.103-.456 11.924.367 24.094-1.314 36.51-5.04a11.1 11.1 0 0 1 5.826-2.026c-.032-.44.12-.722.455-.848 7.245-4.334 13.112-10.071 17.603-17.211l-18.451-11.777c-8.909 6.731-18.702 9.479-29.38 8.244-8.585-.994-17.556-3.57-26.915-7.726a1187.258 1187.258 0 0 0-44.142-18.514Z" fill="#21A0AA"/><path d="m142.113 255.898-5.559 7.522c.974.649 1.262 1.329.864 2.041-.366.649-.57 1.11-.612 1.382-1.319 11.055-.335 21.691 2.952 31.909 3.496 10.887 8.569 21.387 15.216 31.5.639.974 1.173 2.382 1.602 4.224.544.576 1.22.859 2.026.848.24-.492.188-.989-.157-1.491-7.538-11.055-13.112-21.571-16.724-31.548-4.062-11.223-5.24-22.346-3.533-33.369.523-3.371 1.79-7.213 3.8-11.526.031-.053.141-.21.33-.471.24-.356.172-.697-.205-1.021Z" fill="#46C0C3"/><path d="M136.554 263.42a33.545 33.545 0 0 0-3.8 5.967c-9.453 18.98-14.557 39.106-15.31 60.379a8.747 8.747 0 0 1 3.47 1.633 103.128 103.128 0 0 0 25.125 2.748 29.988 29.988 0 0 1 10.537.33c-.429-1.843-.963-3.251-1.602-4.225-6.647-10.112-11.72-20.613-15.216-31.5-3.287-10.218-4.271-20.854-2.952-31.909.042-.272.246-.733.612-1.382.398-.712.11-1.392-.864-2.041Z" fill="#21A0AA"/><path d="M304.248 284.682c.272 1.549 1.188 2.428 2.748 2.638 7.433.973 11.584 5.077 12.453 12.311.115.911.366 1.565.754 1.963.533.565 1.214.926 2.041 1.083.304-12.436-5.695-18.435-17.996-17.995Z" fill="#FFCF2D"/><path d="M277.16 284.164c-.335.125-.487.408-.455.848l.063 21.529c1.936.167 2.842 1.141 2.716 2.92a167.78 167.78 0 0 0-.455 10.003c-.021 1.12-.775 1.565-2.261 1.335v59.609c.45.503.319.874-.393 1.115h27.873c.241-1.623 1.256-2.549 3.047-2.78 7.422-.984 11.515-5.176 12.279-12.578.084-.827.299-1.413.644-1.758.545-.555 1.22-.718 2.026-.487v-61.242c-.827-.157-1.508-.519-2.042-1.084-.387-.398-.638-1.052-.753-1.963-.869-7.234-5.02-11.338-12.453-12.311-1.56-.209-2.476-1.089-2.748-2.638l-27.088-.518Z" fill="#9B3C82"/><path d="M276.705 285.012a11.1 11.1 0 0 0-5.826 2.025l.392 19.504h5.497l-.063-21.529Z" fill="#FFCF2D"/><path d="M270.879 287.038c-12.416 3.726-24.586 5.407-36.51 5.04-2.24-.063-3.941.089-5.103.456v14.007c1.8.356 2.633 1.392 2.496 3.109a59.292 59.292 0 0 0-.125 1.759c.021 2.554-.011 5.103-.094 7.647-.01.293-.08.569-.201.788-.121.219-.287.372-.475.437l-1.601.518v17.384a1.33 1.33 0 0 1-.303.841 1.326 1.326 0 0 1-.765.462c-3.455.681-5.109-.351-4.962-3.093.073-1.382.104-2.147.094-2.293a108.42 108.42 0 0 1 .44-13.301c-2.147-.272-3.052-1.544-2.717-3.816a20.091 20.091 0 0 0-.016-5.982c-.377-2.408.534-3.895 2.733-4.46l-.393-14.4-33.212-3.298c-1.403-.146-1.628.304-.675 1.351 7.349 8.082 15.635 15.232 24.858 21.45 1.895 1.278 2.68 2.738 2.355 4.382-1.811 9.243-7.281 16.336-16.41 21.277a9.82 9.82 0 0 0-3.219 2.733l-.063.722 1.178 3.141c.691.617.995 1.402.911 2.355.67 1.016.518 1.78-.455 2.293.848-.074 1.402.309 1.664 1.146 1.173 3.737 2.869 8.213 5.088 13.426.199.461.22.801.063 1.021-.21.314-.649.393-1.319.235.869.074 1.392.424 1.57 1.053 1.727 2.376 2.533 5.014 2.418 7.914l1.712 6.187a.494.494 0 0 1 .005.267.565.565 0 0 1-.139.242.672.672 0 0 1-.25.164.762.762 0 0 1-.307.049 18.715 18.715 0 0 0-8.543 1.398l22.377-.126c.744-20.246.875-32.788.393-37.624-.283-2.9.649-4.036 2.795-3.408.44.133.944.122 1.445-.031 1.099-.325 1.649.298 1.649 1.868v39.195h42.005a978.846 978.846 0 0 1 0-60.724c-2.03-.408-2.988-1.575-2.873-3.501.073-1.1.11-1.686.11-1.759-.063-3.8-.026-6.093.11-6.878.219-1.246 1.104-1.953 2.653-2.12l-.392-19.503Z" fill="#9B3C82"/><path d="m223.377 292.141.393 14.4h5.496v-14.007c-1.937-.639-3.9-.77-5.889-.393Z" fill="#FFCF2D"/><path d="M276.767 306.541h-5.496c-1.549.167-2.434.874-2.653 2.119-.137.786-.173 3.078-.11 6.878 0 .074-.037.66-.11 1.759-.115 1.926.842 3.094 2.873 3.502h5.496c1.487.23 2.241-.215 2.262-1.335.052-3.339.204-6.674.455-10.003.126-1.779-.78-2.753-2.717-2.92Zm-5.541 3.918a1.094 1.094 0 0 1 .311-.769 1.092 1.092 0 0 1 .763-.324l3.329-.029a1.083 1.083 0 0 1 1.093 1.074l.059 6.783a1.08 1.08 0 0 1-1.074 1.093l-3.329.029a1.083 1.083 0 0 1-1.093-1.073l-.059-6.784Zm-41.96-3.918h-5.496c-2.199.565-3.11 2.051-2.733 4.459.304 1.989.309 3.984.016 5.983-.335 2.272.571 3.544 2.717 3.816h5.496l1.601-.518c.188-.065.354-.218.475-.437.121-.22.191-.495.201-.788.083-2.544.115-5.093.094-7.648 0-.104.042-.69.126-1.758.136-1.717-.697-2.754-2.497-3.109Zm-5.49 3.324a.525.525 0 0 1 .52-.518l4.459.008a.515.515 0 0 1 .478.321.5.5 0 0 1 .039.198l-.013 7.821a.519.519 0 0 1-.519.517l-4.46-.008a.519.519 0 0 1-.517-.519l.013-7.82Z" fill="#20304A"/><path d="m272.3 309.366 3.329-.029a1.083 1.083 0 0 1 1.093 1.074l.059 6.784a1.083 1.083 0 0 1-1.074 1.093l-3.329.029a1.085 1.085 0 0 1-1.093-1.074l-.059-6.784a1.084 1.084 0 0 1 1.074-1.093Zm-48.004-.018 4.459.008c.286 0 .518.232.518.519l-.014 7.82a.518.518 0 0 1-.519.517l-4.46-.008a.517.517 0 0 1-.517-.519l.013-7.82a.518.518 0 0 1 .52-.517Z" fill="#FFCF2D"/><path d="M214.348 311.644c-2.513.011-4.575.455-6.187 1.335-6.24 3.423-11.636 8.343-16.19 14.761a19.788 19.788 0 0 1 3.47 8.307l1.633 3.988a9.829 9.829 0 0 1 3.219-2.732c9.129-4.941 14.599-12.034 16.41-21.278.325-1.643-.46-3.104-2.355-4.381Z" fill="#5B2448"/><path d="M276.767 320.799h-5.496a978.846 978.846 0 0 0 0 60.724h5.104c.712-.24.843-.612.392-1.115v-59.609Zm-1.805 4.696c.366 1.266.01 1.853-1.068 1.758a1.325 1.325 0 0 1-.678-.253 1.446 1.446 0 0 1-.469-.579c-.46-1.026-.068-1.581 1.178-1.664a1.016 1.016 0 0 1 1.037.738Zm-2.01 8.699c.429-1.329 1.052-1.335 1.868-.016.131.217.201.461.201.706 0 .245-.07.479-.201.676-.523.764-1.073.785-1.649.063a1.413 1.413 0 0 1-.286-.666 1.633 1.633 0 0 1 .067-.763Zm2.01 6.266c-3.696-.074-3.848-.351-.456-.833.199-.031.398-.031.597 0 1.424.22 1.596.471.518.754a2.605 2.605 0 0 1-.659.079Zm-45.696-19.661h-5.496a108.42 108.42 0 0 0-.44 13.301c.01.146-.021.911-.094 2.293-.147 2.742 1.507 3.774 4.962 3.093.301-.061.571-.224.765-.462a1.33 1.33 0 0 0 .303-.841v-17.384Zm-2.466 4.319c1.518.408 1.518 1.052 0 1.931a1.301 1.301 0 0 1-.704.175 1.113 1.113 0 0 1-.646-.238c-.618-.502-.639-1.026-.063-1.57.173-.159.394-.27.641-.322.247-.052.512-.044.772.024Zm.471 9.217c.555 1.77.037 2.188-1.554 1.257a1.275 1.275 0 0 1-.504-.537.995.995 0 0 1-.077-.672c.157-.67.528-.995 1.115-.974.217.014.431.111.613.276.182.165.324.392.407.65Z" fill="#FFCF2D"/><path d="M273.925 324.756c-1.246.084-1.638.639-1.177 1.665.104.233.266.433.468.579.201.147.436.234.678.253 1.078.094 1.434-.492 1.068-1.759a1.023 1.023 0 0 0-1.037-.738Zm-48.538.66c-.576.544-.555 1.068.063 1.57.18.144.406.226.646.237.241.012.486-.049.704-.174 1.518-.879 1.518-1.523 0-1.932a1.699 1.699 0 0 0-.772-.023 1.355 1.355 0 0 0-.641.322Z" fill="#20304A"/><path d="M191.971 327.74c-6.093 6.742-13.421 11.714-21.985 14.918a84.218 84.218 0 0 0 25.455-6.611 19.788 19.788 0 0 0-3.47-8.307Z" fill="#9B3C82"/><path d="m117.444 329.766-.519 10.207c.252.178.424.377.519.596.099.217.219.406.346.545.128.138.258.222.376.241l25.455 3.329.518-2.748c-8.396-2.136-16.138-5.648-23.225-10.537a8.747 8.747 0 0 0-3.47-1.633Z" fill="#F4ADA2"/><path d="M120.914 331.399c7.087 4.889 14.829 8.401 23.225 10.537 1.602-2.366 2.235-4.962 1.9-7.789-8.48.115-16.855-.801-25.125-2.748Z" fill="#9B3C82"/><path d="M273.171 335.623c.576.722 1.126.701 1.649-.063.131-.197.201-.431.201-.676 0-.245-.07-.49-.201-.706-.816-1.319-1.439-1.314-1.868.016a1.633 1.633 0 0 0-.067.763c.038.249.137.478.286.666Zm-46.92-2.214c-.587-.021-.958.303-1.115.973a.994.994 0 0 0 .077.672c.105.218.282.407.504.537 1.591.932 2.109.513 1.554-1.256a1.486 1.486 0 0 0-.407-.65 1.012 1.012 0 0 0-.613-.276Z" fill="#20304A"/><path d="M146.039 334.147c.335 2.826-.298 5.423-1.9 7.789l-.518 2.748.518.785c.837-.23 1.696-.183 2.575.141 6.774 2.544 13.484 2.476 20.132-.204a4.447 4.447 0 0 0-1.178-2.23l-7.066-7.851c-.807.01-1.482-.273-2.026-.848a29.988 29.988 0 0 0-10.537-.33Z" fill="#5B2448"/><path d="M195.441 336.047a84.225 84.225 0 0 1-25.455 6.611l-4.318.518c.607.628 1 1.372 1.178 2.23l3.47 4.381c.073-1.685.77-2.628 2.089-2.826 1.224-.189 1.889-.299 1.994-.33a240.563 240.563 0 0 1 22.612-5.873l.063-.723-1.633-3.988Z" fill="#F4ADA2"/><path d="M275.621 340.381c1.079-.283.906-.534-.518-.754a1.928 1.928 0 0 0-.597 0c-3.391.482-3.24.759.456.832.241 0 .46-.026.659-.078Z" fill="#997130"/><path d="M116.925 339.973a9.576 9.576 0 0 0-.267 4.318 173.95 173.95 0 0 0 26.036 3.125.268.268 0 0 1 .154.065.25.25 0 0 1 .082.139l.031.204 1.178-2.355-.518-.785-25.455-3.329c-.118-.019-.248-.103-.376-.241a2.128 2.128 0 0 1-.346-.545c-.095-.219-.267-.418-.519-.596Z" fill="#66B0F0"/><path d="M222.984 381.523h6.282v-39.195c0-1.57-.55-2.193-1.649-1.868-.501.153-1.005.164-1.445.031-2.146-.628-3.078.508-2.795 3.408.482 4.836.351 17.378-.393 37.624Z" fill="#FFCF2D"/><path d="M197.011 340.758a240.563 240.563 0 0 0-22.612 5.873c-.105.031-.77.141-1.994.33-1.319.198-2.016 1.141-2.089 2.826l1.178 1.963 26.695-7.852-1.178-3.14Z" fill="#66B0F0"/><path d="m198.189 343.898-26.695 7.852a4.328 4.328 0 0 0 1.303 1.57l24.89-7.223a.484.484 0 0 1 .354.044c.116.06.218.16.29.286.198.377.455.319.769-.173.084-.953-.22-1.738-.911-2.356Zm-81.531.393c-.502.67-.633 1.455-.392 2.355a549.971 549.971 0 0 1 19.864 2.183c.105.021.953 0 2.544-.063 1.361-.041 2.115.712 2.261 2.262.932.146 1.566-.136 1.901-.848l.125-2.356-.031-.204a.25.25 0 0 0-.082-.139.268.268 0 0 0-.154-.065 173.95 173.95 0 0 1-26.036-3.125Z" fill="#fff"/><path d="m172.797 353.32 1.115 2.293 1.963.911a86.515 86.515 0 0 1 9.657-1.68c3.047-.356 5.402-.979 7.067-1.869a26.673 26.673 0 0 0 6.045-4.428c.974-.513 1.126-1.278.456-2.293-.314.492-.571.55-.77.173a.712.712 0 0 0-.29-.286.486.486 0 0 0-.353-.044l-24.89 7.223Zm-56.531-6.674c.314 3.11.031 6.14-.848 9.093 8.951.743 17.457-.827 25.518-4.711-.147-1.55-.901-2.303-2.262-2.262-1.591.063-2.439.084-2.544.063a549.971 549.971 0 0 0-19.864-2.183Z" fill="#66B0F0"/><path d="M198.645 348.546a26.653 26.653 0 0 1-6.046 4.429c-1.665.89-4.02 1.512-7.066 1.868a86.496 86.496 0 0 0-9.658 1.681c3.497 2.701 5.559 4.805 6.187 6.312.974 2.366.691 3.162-.848 2.387-.419-.209-.822-.57-1.209-1.083-2.46-3.277-5.669-5.554-9.626-6.831-.304.429-.696.78-1.178 1.052a25.265 25.265 0 0 1 7.412 6.878c.161.224.273.47.328.718.054.248.05.491-.014.711-.251.858-.79 1.057-1.617.597-.367-.21-.764-.618-1.194-1.225-2.072-2.973-4.726-4.889-7.961-5.748-1.005-.272-1.581-.764-1.727-1.476-.827.932-1.853 1.476-3.078 1.633 4.25 1.299 7.328 3.9 9.233 7.805a.95.95 0 0 1 .106.404.634.634 0 0 1-.09.35.784.784 0 0 1-.314.298c-.148.079-.344.082-.555.008a1.58 1.58 0 0 1-.607-.416c-2.837-3.047-6.234-5.229-10.192-6.549-4.784 3.141-8.537 7.198-11.259 12.17a34.731 34.731 0 0 1 5.889 1.775c2.46.994 4.392 1.565 5.794 1.711 5.664.576 11.16-.214 16.489-2.371 3.957-1.601 6.585-2.235 7.883-1.9 3.789.984 7.16.429 10.112-1.664 5.34-3.8 10.103-3.376 14.29 1.272.115-2.9-.691-5.538-2.418-7.915-2.743-.125-4.543-.528-5.402-1.209a33.204 33.204 0 0 0-9.516-5.386c-3.245-1.183-2.853-1.581 1.178-1.193.91.092 1.765.459 2.45 1.052 2.826 2.428 6.066 4.323 9.72 5.684.67.157 1.109.079 1.319-.235.157-.22.136-.56-.063-1.021-2.219-5.213-3.915-9.689-5.088-13.426-.262-.838-.816-1.22-1.664-1.147Zm-55.809 1.634c-.335.712-.969.994-1.9.848-8.061 3.884-16.567 5.454-25.518 4.711l-1.963.785c3.497 2.69 5.821 5.318 6.972 7.883.597 1.35.362 2.01-.706 1.978a1.247 1.247 0 0 1-.645-.216 2.025 2.025 0 0 1-.564-.569c-2.649-3.936-6.187-6.852-10.616-8.746-.282.69-.785 1.104-1.507 1.24 4.062 2.366 6.81 4.962 8.244 7.789.89 1.748.591 2.497-.895 2.245a1.503 1.503 0 0 1-.645-.275 2.082 2.082 0 0 1-.533-.573c-2.219-3.496-5.297-5.935-9.233-7.317-.712-.252-1.021-.764-.927-1.539-.502 1.151-1.397 1.696-2.685 1.633 4.428 1.895 7.276 4.522 8.542 7.883.451 1.193.309 1.774-.424 1.743a1.364 1.364 0 0 1-.62-.213 2.772 2.772 0 0 1-.636-.541 29.953 29.953 0 0 0-9.673-7.365c-5.37 3.424-9.647 7.873-12.83 13.348 1.225-.44 2.33-.366 3.314.22 1.486.879 2.256 1.329 2.308 1.35 8.114 3.026 16.091 2.654 23.932-1.115a2.912 2.912 0 0 1 1.507-.282c4.251.324 8.145-.66 11.683-2.952 4.942-3.193 9.726-2.853 14.353 1.02.153.128.281.312.376.54.095.228.154.494.174.779l.455 6.721.66-31.013Zm-3.958 15.404c-2.941-.816-5.485-2.188-7.631-4.114a4.646 4.646 0 0 0-2.152-1.099c-2.188-.482-3.554-.921-4.098-1.319-.597-.429-.393-.649.612-.66 2.701-.021 5.067.901 7.098 2.764 2.115 1.937 4.565 3.12 7.349 3.549.796.126.958.393.487.801-.314.283-.869.309-1.665.078Z" fill="#5B2448"/><path d="M170.379 357.309c3.957 1.277 7.166 3.554 9.626 6.831.387.513.79.874 1.209 1.083 1.539.775 1.822-.021.848-2.386-.628-1.508-2.69-3.612-6.187-6.313l-1.963-.911c-2.512-1.078-3.69-.513-3.533 1.696Zm-62.483-.456c4.428 1.895 7.967 4.811 10.615 8.747.16.236.354.432.565.569.211.136.432.211.645.216 1.067.032 1.303-.628.706-1.978-1.151-2.565-3.475-5.193-6.972-7.883-2.031-1.257-3.884-1.147-5.559.329Z" fill="#FFCF2D"/><path d="M205.711 365.427c-.178-.628-.701-.979-1.57-1.052-3.654-1.361-6.894-3.256-9.721-5.684a4.42 4.42 0 0 0-2.449-1.053c-4.031-.387-4.423.011-1.178 1.194a33.204 33.204 0 0 1 9.516 5.386c.858.681 2.659 1.084 5.402 1.209Z" fill="#F4ADA2"/><path d="M164.427 358.816c.147.712.723 1.204 1.728 1.476 3.235.859 5.889 2.775 7.961 5.748.43.607.827 1.015 1.194 1.225.827.46 1.366.261 1.617-.597.064-.22.068-.463.014-.711a1.971 1.971 0 0 0-.328-.718 25.252 25.252 0 0 0-7.412-6.878c-1.842-1.068-3.434-.916-4.774.455Zm-62.027-.392c-.094.774.215 1.287.927 1.539 3.936 1.381 7.014 3.821 9.233 7.317.148.231.329.427.533.573.203.146.423.24.645.275 1.486.251 1.785-.497.895-2.245-1.434-2.827-4.182-5.423-8.244-7.789-1.466-.764-2.796-.654-3.989.33Z" fill="#FFCF2D"/><path d="M138.878 365.584c.796.231 1.351.205 1.665-.078.471-.408.309-.675-.487-.801-2.785-.429-5.234-1.612-7.349-3.549-2.031-1.863-4.397-2.784-7.098-2.764-1.005.011-1.209.231-.612.66.544.398 1.91.837 4.098 1.319a4.646 4.646 0 0 1 2.152 1.099c2.146 1.927 4.69 3.298 7.631 4.114Z" fill="#fff"/><path d="M99.715 360.057c-1.403-.314-2.34.188-2.811 1.507a29.952 29.952 0 0 1 9.673 7.365c.201.226.418.411.636.541.217.131.429.203.62.213.733.031.874-.55.424-1.743-1.267-3.361-4.114-5.988-8.542-7.883Zm61.635.393c-1.717-.513-2.523.12-2.419 1.9 3.957 1.319 7.355 3.501 10.192 6.548.182.195.396.342.607.416.211.074.407.071.555-.008a.784.784 0 0 0 .314-.298.634.634 0 0 0 .09-.35.965.965 0 0 0-.106-.404c-1.905-3.905-4.983-6.506-9.233-7.804Zm142.898 21.073c12.102.387 18.1-5.48 17.996-17.603-.806-.231-1.482-.068-2.026.486-.345.346-.56.932-.644 1.759-.764 7.402-4.857 11.594-12.28 12.578-1.79.231-2.805 1.157-3.046 2.78Z" fill="#FFCF2D"/><path d="M147.672 374.52c-.848 1.34-.775 2.193.22 2.559 1.047.388 1.607.602 1.68.644 4.931 2.774 10.296 3.821 16.096 3.141h6.674l27.543.722.722.063a18.715 18.715 0 0 1 8.543-1.398.762.762 0 0 0 .307-.049.672.672 0 0 0 .25-.164.553.553 0 0 0 .138-.242.485.485 0 0 0-.004-.267l-1.712-6.187c-4.187-4.648-8.951-5.072-14.29-1.272-2.952 2.094-6.323 2.648-10.112 1.664-1.299-.335-3.926.299-7.883 1.901-5.329 2.156-10.825 2.946-16.489 2.371-1.403-.147-3.334-.717-5.794-1.712a34.637 34.637 0 0 0-5.889-1.774Zm49.339-1.555c3.329-1.288 5.957-.738 7.883 1.649a1.895 1.895 0 0 1 .165 2.16c-.13.222-.303.417-.51.572-2.586 1.947-5.146 2.361-7.679 1.241-1.183-.524-1.884-1.314-2.104-2.371-.304-1.466.445-2.55 2.245-3.251Zm-112.936 1.947c-.189.691-.079 1.215.33 1.571 3.328 2.941 7.385 4.402 12.17 4.381l5.495-.346c.555-.042 1.052.037 1.492.236 1.874.816 3.863 1.115 5.967.895 9.286.23 18.577.361 27.873.393 1.644 0 3.235-.283 4.774-.848l-.455-6.721a2.493 2.493 0 0 0-.174-.78 1.382 1.382 0 0 0-.376-.539c-4.627-3.874-9.411-4.214-14.353-1.021-3.538 2.293-7.432 3.277-11.683 2.952a2.903 2.903 0 0 0-1.507.283c-7.841 3.768-15.819 4.14-23.932 1.115-.052-.021-.822-.471-2.308-1.351-.984-.586-2.089-.659-3.314-.22Zm43.435 1.367a2.619 2.619 0 0 1 .376-1.363c.255-.434.63-.83 1.106-1.165a5.748 5.748 0 0 1 1.667-.79 7.242 7.242 0 0 1 1.973-.294c1.37-.017 2.689.341 3.666.995.977.653 1.532 1.549 1.544 2.491.005.466-.123.929-.377 1.362-.254.434-.63.83-1.106 1.165a5.717 5.717 0 0 1-1.666.79 7.255 7.255 0 0 1-1.974.294c-1.37.017-2.689-.341-3.666-.994-.977-.654-1.532-1.55-1.543-2.491Z" fill="#fff"/><path d="M197.011 372.965c-1.8.701-2.549 1.785-2.245 3.25.22 1.058.921 1.848 2.104 2.372 2.534 1.12 5.093.706 7.679-1.241a1.929 1.929 0 0 0 .756-1.297 1.899 1.899 0 0 0-.411-1.435c-1.926-2.387-4.553-2.937-7.883-1.649Zm-1.348 2.613c.016-.595.481-1.153 1.29-1.552.81-.399 1.898-.605 3.026-.573 1.128.031 2.204.298 2.99.741s1.218 1.027 1.201 1.622c-.016.595-.48 1.154-1.29 1.552-.809.399-1.898.605-3.026.574-1.128-.032-2.204-.298-2.99-.742-.786-.443-1.218-1.026-1.201-1.622Zm-68.153.701c.011.941.566 1.837 1.543 2.491.977.653 2.296 1.011 3.666.994a7.255 7.255 0 0 0 1.974-.294 5.729 5.729 0 0 0 1.666-.79 3.791 3.791 0 0 0 1.106-1.165c.254-.433.382-.896.377-1.362-.012-.942-.567-1.838-1.544-2.491-.977-.654-2.296-1.012-3.666-.995a7.242 7.242 0 0 0-1.973.294 5.748 5.748 0 0 0-1.667.79 3.803 3.803 0 0 0-1.106 1.165 2.619 2.619 0 0 0-.376 1.363Zm1.229-.247c.017-.344.139-.679.359-.987.221-.308.535-.582.926-.807.391-.224.85-.395 1.351-.503a6.137 6.137 0 0 1 1.57-.123c1.082.053 2.105.38 2.846.908.741.529 1.138 1.216 1.104 1.911a1.84 1.84 0 0 1-.36.987c-.22.308-.535.582-.925.807-.391.224-.85.395-1.351.503a6.137 6.137 0 0 1-1.57.123c-1.082-.053-2.105-.38-2.846-.909-.741-.528-1.138-1.215-1.104-1.91Z" fill="#945289"/><path d="M199.854 377.942c-2.349-.066-4.226-1.124-4.191-2.364.034-1.239 1.967-2.191 4.316-2.126 2.35.066 4.226 1.124 4.191 2.364-.034 1.24-1.967 2.191-4.316 2.126Zm-67.165.909c-2.252-.11-4.021-1.372-3.95-2.819.071-1.447 1.954-2.53 4.206-2.42 2.252.11 4.021 1.372 3.95 2.819-.071 1.446-1.954 2.53-4.206 2.42Z" fill="#fff"/><defs><clipPath id="a"><path fill="#fff" transform="translate(115 24)" d="M0 0h35.294v75H0z"/></clipPath></defs></svg>