<svg width="40" height="41" fill="none" xmlns="http://www.w3.org/2000/svg"><rect x=".5" y=".716" width="39" height="39" rx="19.5" stroke="#21A0AA"/><path d="M18.846 13.354a1.363 1.363 0 0 1 2.308 0l2.238 3.543 2.919.357a1.338 1.338 0 0 1 .865 2.204l-2.434 2.792.784 3.865a1.35 1.35 0 0 1-.53 1.35 1.373 1.373 0 0 1-1.454.08L20 25.608l-3.542 1.939a1.373 1.373 0 0 1-1.454-.081 1.35 1.35 0 0 1-.53-1.35l.784-3.865-2.434-2.792a1.339 1.339 0 0 1 .865-2.204l2.919-.358 2.238-3.542Z" stroke="#21A0AA" stroke-linecap="round" stroke-linejoin="round"/></svg>