<svg width="42" height="42" fill="none" xmlns="http://www.w3.org/2000/svg"><rect width="42" height="42" rx="21" fill="#60B1E2"/><path fill-rule="evenodd" clip-rule="evenodd" d="M27.174 13.984a1.332 1.332 0 0 1 1.32.181 1.313 1.313 0 0 1 .49 1.23L27.03 28.004a1.307 1.307 0 0 1-.802 1.013 1.331 1.331 0 0 1-1.289-.156l-5.764-4.214a.875.875 0 0 1-.296-1.025.873.873 0 0 1 .214-.315c1.233-1.155 3.69-3.456 5.379-5.04a.218.218 0 0 0-.116-.374.222.222 0 0 0-.156.032l-7.11 4.602a2.655 2.655 0 0 1-2.086.347l-3.336-.827a.883.883 0 0 1-.666-.785.869.869 0 0 1 .543-.872l15.629-6.405Z" fill="#fff"/></svg>