<svg width="42" height="42" fill="none" xmlns="http://www.w3.org/2000/svg"><rect x=".5" y=".5" width="41" height="41" rx="20.5" fill="#21A0AA"/><rect x=".5" y=".5" width="41" height="41" rx="20.5" stroke="#EFF1F4"/><path d="M23.296 28.836a4.17 4.17 0 0 0 5.229-.575l.588-.575a1.412 1.412 0 0 0 0-1.974l-2.497-2.471a1.4 1.4 0 0 0-1.961 0 1.412 1.412 0 0 1-1.974 0l-3.922-3.922a1.385 1.385 0 0 1 0-1.974 1.399 1.399 0 0 0 0-1.96L16.275 12.9a1.412 1.412 0 0 0-1.973 0l-.576.589a4.17 4.17 0 0 0-.575 5.229 37.832 37.832 0 0 0 10.145 10.118Z" fill="#fff"/></svg>