<svg width="42" height="42" fill="none" xmlns="http://www.w3.org/2000/svg"><path d="M21 42c11.598 0 21-9.402 21-21S32.598 0 21 0 0 9.402 0 21s9.402 21 21 21Z" fill="#45983E"/><path fill-rule="evenodd" clip-rule="evenodd" d="M21.692 32.684h-.005a12.48 12.48 0 0 1-5.968-1.52L9.1 32.9l1.772-6.47a12.465 12.465 0 0 1-1.667-6.243C9.207 13.302 14.81 7.7 21.692 7.7a12.406 12.406 0 0 1 8.833 3.662 12.412 12.412 0 0 1 3.654 8.835c-.003 6.883-5.602 12.484-12.487 12.487Zm-5.666-3.78.38.224a10.362 10.362 0 0 0 5.282 1.447h.004c5.72 0 10.376-4.656 10.379-10.38a10.316 10.316 0 0 0-3.037-7.342 10.308 10.308 0 0 0-7.338-3.044c-5.725 0-10.381 4.656-10.383 10.378a10.355 10.355 0 0 0 1.587 5.524l.246.393-1.048 3.83 3.928-1.03Zm11.53-6.019c.217.105.364.176.427.28.078.131.078.756-.182 1.485-.26.729-1.507 1.394-2.106 1.483-.538.08-1.218.114-1.965-.123a17.934 17.934 0 0 1-1.78-.658c-2.924-1.263-4.9-4.098-5.274-4.634a3.595 3.595 0 0 0-.055-.077l-.003-.003c-.165-.22-1.271-1.697-1.271-3.225 0-1.437.706-2.19 1.03-2.537.023-.024.044-.045.062-.066.286-.312.624-.39.832-.39.208 0 .416.002.598.011h.07c.182 0 .408-.001.632.536l.345.836c.268.654.565 1.376.617 1.48.078.157.13.339.026.547l-.044.089c-.078.16-.136.277-.268.431-.052.061-.106.127-.16.193-.107.13-.215.261-.308.354-.156.156-.319.325-.137.637s.808 1.334 1.736 2.161a8.023 8.023 0 0 0 2.303 1.456c.085.037.155.067.206.093.312.156.494.13.676-.078.182-.208.78-.911.988-1.224.208-.312.416-.26.702-.156.286.105 1.82.86 2.132 1.015.06.031.118.059.17.084Z" fill="#FDFDFD"/></svg>