<?xml version="1.0" standalone="no"?>
  <!DOCTYPE svg PUBLIC "-//W3C//DTD SVG 1.1//EN" "http://www.w3.org/Graphics/SVG/1.1/DTD/svg11.dtd" >
  <svg>
  <metadata>
  Created by font-carrier
  </metadata>
  <defs>
  <font id="EuclidCircularA-Medium" horiz-adv-x="1407" vert-adv-y="1407" >
    <font-face
      
      font-family="Euclid Circular A Medium"
      
      font-weight="400"
      
      font-stretch="normal"
      
      units-per-em="1000"
      
      ascent="1000"
      
      descent="-268"
      
    />
      <missing-glyph />

      

      
      <glyph glyph-name="uni21" unicode="&#x21;" d="M105 238L84 434L84 710L195 710L195 434L173 238L105 238M139-8Q104-8 78.50 17.50Q53 43 53 79Q53 114 78.50 140Q104 166 139 166Q175 166 200.50 140Q226 114 226 79Q226 43 200.50 17.50Q175-8 139-8Z"  horiz-adv-x="279" vert-adv-y="1000"  />

      
      <glyph glyph-name="uni22" unicode="&#x22;" d="M63 444L63 710L158 710L158 444L63 444M265 444L265 710L360 710L360 444L265 444Z"  horiz-adv-x="423" vert-adv-y="1000"  />

      
      <glyph glyph-name="uni23" unicode="&#x23;" d="M336 0L396 193L233 193L173 0L76 0L136 193L33 193L33 281L164 281L211 433L106 433L106 521L239 521L298 710L395 710L336 521L498 521L557 710L654 710L595 521L699 521L699 433L568 433L520 281L627 281L627 193L492 193L432 0L336 0M309 433L261 281L424 281L471 433L309 433Z"  horiz-adv-x="732" vert-adv-y="1000"  />

      
      <glyph glyph-name="uni24" unicode="&#x24;" d="M239-88L239-8Q155 1 100 56.50Q45 112 43 203L153 203Q163 118 239 100L239 312L205 325Q45 386 45 530Q45 614 98.50 664.50Q152 715 239 721L239 798L293 798L293 719Q369 709 420 657.50Q471 606 471 532L361 532Q350 594 293 611L293 413L323 401Q405 369 447 317.50Q489 266 489 187Q489 97 436 46.50Q383-4 293-9L293-88L239-88M379 184Q379 252 293 290L293 97Q331 102 355 125.50Q379 149 379 184M155 531Q155 469 239 434L239 615Q201 610 178 587Q155 564 155 531Z"  horiz-adv-x="528" vert-adv-y="1000"  />

      
      <glyph glyph-name="uni25" unicode="&#x25;" d="M326 0L210 0L660 710L776 710L326 0M759-8Q677-8 619.50 50Q562 108 562 189Q562 271 619.50 328.50Q677 386 759 386Q840 386 898 328.50Q956 271 956 189Q956 108 898 50Q840-8 759-8M687.50 118Q687.50 118 702.25 103Q717 88 759 88Q801 88 829.50 117.50Q858 147 858 189Q858 231 829.50 260.50Q801 290 759 290Q717 290 687.50 260Q658 230 658 189Q658 148 687.50 118M227 324Q145 324 87.50 382Q30 440 30 521Q30 603 87.50 660.50Q145 718 227 718Q308 718 366 660.50Q424 603 424 521Q424 440 366 382Q308 324 227 324M227 420Q268 420 297.50 450Q327 480 327 521Q327 562 297.50 592Q268 622 227 622Q185 622 156 592.50Q127 563 127 521Q127 479 156 449.50Q185 420 227 420Z"  horiz-adv-x="986" vert-adv-y="1000"  />

      
      <glyph glyph-name="uni26" unicode="&#x26;" d="M291-10Q188-10 126.50 49Q65 108 65 197Q65 265 102.50 311Q140 357 206 397Q125 478 125 553Q125 624 179.50 673Q234 722 315 722Q397 722 449 672Q501 622 501 552Q501 492 466 451.50Q431 411 371 379L506 247L582 342L712 342L578 178L762 0L617 0L513 101Q458 43 406.50 16.50Q355-10 291-10M292 88Q367 88 442 169L278 328Q174 272 174 195Q174 144 209 116Q244 88 292 88M231 552Q231 543 232.50 535Q234 527 238.50 518.50Q243 510 246 504.50Q249 499 257.50 490Q266 481 270.50 476.50Q275 472 286.50 460.50Q298 449 303 444L306 446Q350 469 371 490.50Q392 512 392 546Q392 582 370 605Q348 628 313 628Q279 628 255 607Q231 586 231 552Z"  horiz-adv-x="757" vert-adv-y="1000"  />

      
      <glyph glyph-name="uni27" unicode="&#x27;" d="M63 444L63 710L158 710L158 444L63 444Z"  horiz-adv-x="221" vert-adv-y="1000"  />

      
      <glyph glyph-name="uni28" unicode="&#x28;" d="M260-160L171-160Q43 73 43 320Q43 567 171 800L260 800Q139 565 139 320Q139 75 260-160Z"  horiz-adv-x="286" vert-adv-y="1000"  />

      
      <glyph glyph-name="uni29" unicode="&#x29;" d="M115-160L26-160Q147 75 147 320Q147 565 26 800L115 800Q243 567 243 320Q243 73 115-160Z"  horiz-adv-x="286" vert-adv-y="1000"  />

      
      <glyph glyph-name="uni2a" unicode="&#x2a;" d="M150 340L86 386L167 497L36 541L59 618L192 575L192 710L272 710L272 575L405 618L429 541L297 498L379 386L315 340L233 451L150 340Z"  horiz-adv-x="465" vert-adv-y="1000"  />

      
      <glyph glyph-name="uni2b" unicode="&#x2b;" d="M37 241L37 338L199 338L199 500L297 500L297 338L459 338L459 241L297 241L297 79L199 79L199 241L37 241Z"  horiz-adv-x="496" vert-adv-y="1000"  />

      
      <glyph glyph-name="uni2c" unicode="&#x2c;" d="M203 25L96-147L28-147L97 0Q76 9 62 30.50Q48 52 48 79Q48 115 73 140.50Q98 166 134 166Q170 166 195 140.50Q220 115 220 79Q220 50 203 25Z"  horiz-adv-x="268" vert-adv-y="1000"  />

      
      <glyph glyph-name="uni2d" unicode="&#x2d;" d="M62 226L62 334L331 334L331 226L62 226Z"  horiz-adv-x="392" vert-adv-y="1000"  />

      
      <glyph glyph-name="uni2e" unicode="&#x2e;" d="M132-8Q97-8 71.50 17.50Q46 43 46 79Q46 114 71.50 140Q97 166 132 166Q168 166 193.50 140Q219 114 219 79Q219 43 193.50 17.50Q168-8 132-8Z"  horiz-adv-x="265" vert-adv-y="1000"  />

      
      <glyph glyph-name="uni2f" unicode="&#x2f;" d="M20-110L406 710L507 710L121-110L20-110Z"  horiz-adv-x="526" vert-adv-y="1000"  />

      
      <glyph glyph-name="uni30" unicode="&#x30;" d="M498.50 66.50Q498.50 66.50 462.25 28.25Q426-10 313-10Q200-10 128 66.50Q56 143 56 263L56 449Q56 569 128 645.50Q200 722 313 722Q426 722 498.50 645.50Q571 569 571 449L571 263Q571 143 498.50 66.50M313 98Q380 98 420.50 142Q461 186 461 263L461 449Q461 526 420.50 570Q380 614 313 614Q247 614 206.50 570Q166 526 166 449L166 263Q166 186 206.50 142Q247 98 313 98Z"  horiz-adv-x="626" vert-adv-y="1000"  />

      
      <glyph glyph-name="uni31" unicode="&#x31;" d="M148 0L148 601L5 601L89 710L258 710L258 0L148 0Z"  horiz-adv-x="346" vert-adv-y="1000"  />

      
      <glyph glyph-name="uni32" unicode="&#x32;" d="M516 108L516 0L46 0L46 40Q46 78 57.50 112.50Q69 147 82 170Q95 193 125 221.50Q155 250 171 262.50Q187 275 227.50 304Q268 333 279 341Q342 387 370 422Q398 457 398 506Q398 555 368 584.50Q338 614 285 614Q230 614 194 581.50Q158 549 157 493L46 493Q46 594 114.50 658Q183 722 286 722Q381 722 445 666Q509 610 509 509Q509 429 472.50 374.50Q436 320 352 260Q339 250 304 226Q269 202 252.50 189Q236 176 217 153.50Q198 131 191 108L516 108Z"  horiz-adv-x="565" vert-adv-y="1000"  />

      
      <glyph glyph-name="uni33" unicode="&#x33;" d="M298-10Q191-10 116.50 54Q42 118 40 223L150 223Q154 166 195.50 132Q237 98 298 98Q353 98 388.50 127Q424 156 425 207Q425 263 388.50 291.50Q352 320 288 320L232 320L232 414L288 414Q341 414 372.50 442Q404 470 405 515Q405 559 373 586.50Q341 614 294 614Q238 614 201 581.50Q164 549 164 493L53 493Q53 597 123.50 659.50Q194 722 294 722Q393 722 454.50 666Q516 610 516 522Q516 473 491 431.50Q466 390 429 368Q478 347 507 303Q536 259 536 200Q536 107 469.50 48.50Q403-10 298-10Z"  horiz-adv-x="584" vert-adv-y="1000"  />

      
      <glyph glyph-name="uni34" unicode="&#x34;" d="M384 0L384 178L17 178L17 267L396 710L494 710L494 280L589 280L589 178L494 178L494 0L384 0M155 280L384 280L384 546L155 280Z"  horiz-adv-x="626" vert-adv-y="1000"  />

      
      <glyph glyph-name="uni35" unicode="&#x35;" d="M279-10Q182-10 109 51Q36 112 34 199L147 199Q158 154 194.50 126Q231 98 279 98Q338 98 375 136.50Q412 175 412 230Q412 287 375.50 324.50Q339 362 282 362Q196 362 158 289L59 320L135 710L473 710L473 603L221 603L188 433Q232 464 299 464Q399 464 461 395Q523 326 523 219Q523 119 454.50 54.50Q386-10 279-10Z"  horiz-adv-x="563" vert-adv-y="1000"  />

      
      <glyph glyph-name="uni36" unicode="&#x36;" d="M454.50 58.50Q454.50 58.50 420.25 24.25Q386-10 279-10Q172-10 104 58.50Q36 127 36 229Q36 278 55.50 319Q75 360 116 413L353 710L491 710L291 458L302 458Q389 458 456 392.50Q523 327 523 230Q523 127 454.50 58.50M184.50 134.50Q184.50 134.50 203.25 115.25Q222 96 279 96Q336 96 374 134.50Q412 173 412 229Q412 284 373.50 323Q335 362 279 362Q223 362 185 323Q147 284 147 229Q147 173 184.50 134.50Z"  horiz-adv-x="564" vert-adv-y="1000"  />

      
      <glyph glyph-name="uni37" unicode="&#x37;" d="M178 0L54 0L380 603L31 603L31 710L511 710L511 616L178 0Z"  horiz-adv-x="525" vert-adv-y="1000"  />

      
      <glyph glyph-name="uni38" unicode="&#x38;" d="M289-10Q183-10 114 53.50Q45 117 45 215Q45 339 146 394Q80 445 80 535Q80 616 138.50 669Q197 722 289 722Q382 722 440.50 669.50Q499 617 499 535Q499 445 433 394Q534 339 534 215Q534 116 465.50 53Q397-10 289-10M289 93Q350 93 386 129Q422 165 422 217Q422 270 386 305.50Q350 341 290 341Q229 341 193 305.50Q157 270 157 217Q157 165 193.50 129Q230 93 289 93M289 434Q335 434 363.50 461.50Q392 489 392 528Q392 569 364 595.50Q336 622 289 622Q244 622 215.50 595Q187 568 187 528Q187 489 216 461.50Q245 434 289 434Z"  horiz-adv-x="579" vert-adv-y="1000"  />

      
      <glyph glyph-name="uni39" unicode="&#x39;" d="M72 0L274 254L263 254Q176 254 108.50 319.50Q41 385 41 482Q41 584 109.50 653Q178 722 285 722Q392 722 460.50 653Q529 584 529 483Q529 432 509.50 392Q490 352 448 298L210 0L72 0M190.50 387.50Q190.50 387.50 209.25 368.25Q228 349 285 349Q342 349 379.50 387.50Q417 426 417 483Q417 538 379 577Q341 616 285 616Q229 616 191 577Q153 538 153 483Q153 426 190.50 387.50Z"  horiz-adv-x="564" vert-adv-y="1000"  />

      
      <glyph glyph-name="uni3a" unicode="&#x3a;" d="M143 338Q108 338 82.50 363.50Q57 389 57 425Q57 460 82.50 486Q108 512 143 512Q179 512 204.50 486Q230 460 230 425Q230 389 204.50 363.50Q179 338 143 338M143-8Q108-8 82.50 17.50Q57 43 57 79Q57 114 82.50 140Q108 166 143 166Q179 166 204.50 140Q230 114 230 79Q230 43 204.50 17.50Q179-8 143-8Z"  horiz-adv-x="286" vert-adv-y="1000"  />

      
      <glyph glyph-name="uni3b" unicode="&#x3b;" d="M217 25L110-147L42-147L111 0Q90 9 76 30.50Q62 52 62 79Q62 115 87 140.50Q112 166 148 166Q184 166 209 140.50Q234 115 234 79Q234 50 217 25M147 338Q112 338 86.50 363.50Q61 389 61 425Q61 460 86.50 486Q112 512 147 512Q183 512 208.50 486Q234 460 234 425Q234 389 208.50 363.50Q183 338 147 338Z"  horiz-adv-x="293" vert-adv-y="1000"  />

      
      <glyph glyph-name="uni3c" unicode="&#x3c;" d="M420 543L167 290L420 37L282 37L29 290L282 543L420 543Z"  horiz-adv-x="451" vert-adv-y="1000"  />

      
      <glyph glyph-name="uni3d" unicode="&#x3d;" d="M65 135L65 231L487 231L487 135L65 135M65 348L65 445L487 445L487 348L65 348Z"  horiz-adv-x="551" vert-adv-y="1000"  />

      
      <glyph glyph-name="uni3e" unicode="&#x3e;" d="M284 290L31 543L169 543L422 290L169 37L31 37L284 290Z"  horiz-adv-x="451" vert-adv-y="1000"  />

      
      <glyph glyph-name="uni3f" unicode="&#x3f;" d="M179 246L179 265Q179 334 268 397Q271 399 285.50 410Q300 421 303.50 423.50Q307 426 318.50 435Q330 444 333 448.50Q336 453 343 462Q350 471 352 478Q354 485 356.50 494.50Q359 504 359 514Q359 558 330 586Q301 614 256 614Q207 614 174 583Q141 552 141 502L31 502Q31 593 96 657.50Q161 722 256 722Q349 722 409 662Q469 602 469 518Q469 416 371 341Q312 297 300 280Q289 265 289 251L289 246L179 246M233-8Q198-8 172.50 17.50Q147 43 147 79Q147 114 172.50 140Q198 166 233 166Q269 166 294.50 140Q320 114 320 79Q320 43 294.50 17.50Q269-8 233-8Z"  horiz-adv-x="512" vert-adv-y="1000"  />

      
      <glyph glyph-name="uni40" unicode="&#x40;" d="M393-10Q235-10 139.50 89Q44 188 44 337Q44 448 98.50 537Q153 626 241.50 674Q330 722 432 722Q581 722 677.50 635Q774 548 774 406Q774 284 722 221Q670 158 593 158Q518 158 487 214Q443 160 361 160Q293 160 249.50 208Q206 256 206 332Q206 424 264.50 487.50Q323 551 407 551Q448 551 476.50 532Q505 513 518 485L528 541L615 541L567 311Q559 278 566.50 255Q574 232 604 232Q698 232 698 408Q698 520 622 585.50Q546 651 431 651Q303 651 212 565Q121 479 121 337Q121 213 194.50 136.50Q268 60 393 60Q497 60 574 98L574 21Q487-10 393-10M377 239Q421 239 452.50 267.50Q484 296 492 342Q503 397 480 434Q457 471 412 471Q368 471 336.50 442.50Q305 414 297 368Q286 313 309 276Q332 239 377 239Z"  horiz-adv-x="808" vert-adv-y="1000"  />

      
      <glyph glyph-name="uni41" unicode="&#x41;" d="M4 0L314 710L416 710L726 0L604 0L523 186L205 186L125 0L4 0M364 552L250 290L478 290L364 552Z"  horiz-adv-x="730" vert-adv-y="1000"  />

      
      <glyph glyph-name="uni42" unicode="&#x42;" d="M87 0L87 710L332 710Q425 710 484.50 653Q544 596 544 514Q544 426 478 377Q592 330 592 208Q592 119 527.50 59.50Q463 0 363 0L87 0M204 107L360 107Q416 107 447 135Q478 163 478 209Q478 254 447 282.50Q416 311 360 311L204 311L204 107M204 411L326 411Q373 411 401 438Q429 465 429 507Q429 547 401 575Q373 603 326 603L204 603L204 411Z"  horiz-adv-x="631" vert-adv-y="1000"  />

      
      <glyph glyph-name="uni43" unicode="&#x43;" d="M412-12Q253-12 147.50 93.50Q42 199 42 355Q42 511 147.50 616.50Q253 722 412 722Q538 722 632.50 650.50Q727 579 754 472L628 472Q605 533 546 571Q487 609 412 609Q302 609 231 536Q160 463 160 355Q160 247 231 174Q302 101 412 101Q487 101 546 139Q605 177 628 238L754 238Q727 131 632.50 59.50Q538-12 412-12Z"  horiz-adv-x="785" vert-adv-y="1000"  />

      
      <glyph glyph-name="uni44" unicode="&#x44;" d="M87 0L87 710L305 710Q463 710 570 608Q677 506 677 355Q677 204 570 102Q463 0 305 0L87 0M204 109L305 109Q417 109 487.50 179Q558 249 558 355Q558 461 487.50 531Q417 601 305 601L204 601L204 109Z"  horiz-adv-x="719" vert-adv-y="1000"  />

      
      <glyph glyph-name="uni45" unicode="&#x45;" d="M87 0L87 710L514 710L514 598L204 598L204 416L454 416L454 304L204 304L204 112L514 112L514 0L87 0Z"  horiz-adv-x="562" vert-adv-y="1000"  />

      
      <glyph glyph-name="uni46" unicode="&#x46;" d="M87 0L87 710L509 710L509 598L204 598L204 415L444 415L444 304L204 304L204 0L87 0Z"  horiz-adv-x="536" vert-adv-y="1000"  />

      
      <glyph glyph-name="uni47" unicode="&#x47;" d="M413-12Q254-12 148 93.50Q42 199 42 355Q42 511 147.50 616.50Q253 722 412 722Q529 722 621 659Q713 596 748 500L615 500Q587 549 532.50 579Q478 609 412 609Q302 609 231 536Q160 463 160 355Q160 247 231 174Q302 101 413 101Q510 101 572 157Q634 213 646 305L403 305L403 415L766 415Q785 217 681.50 102.50Q578-12 413-12Z"  horiz-adv-x="811" vert-adv-y="1000"  />

      
      <glyph glyph-name="uni48" unicode="&#x48;" d="M87 0L87 710L204 710L204 416L555 416L555 710L672 710L672 0L555 0L555 305L204 305L204 0L87 0Z"  horiz-adv-x="760" vert-adv-y="1000"  />

      
      <glyph glyph-name="uni49" unicode="&#x49;" d="M87 0L87 710L204 710L204 0L87 0Z"  horiz-adv-x="291" vert-adv-y="1000"  />

      
      <glyph glyph-name="uni4a" unicode="&#x4a;" d="M239-12Q146-12 83.50 42.50Q21 97 21 197L137 197Q137 150 167 123.50Q197 97 239 97Q282 97 310.50 124Q339 151 339 205L339 710L456 710L456 195Q456 91 394.50 39.50Q333-12 239-12Z"  horiz-adv-x="537" vert-adv-y="1000"  />

      
      <glyph glyph-name="uni4b" unicode="&#x4b;" d="M548 0L203 332L203 0L87 0L87 710L203 710L203 404L488 710L636 710L320 370L706 0L548 0Z"  horiz-adv-x="682" vert-adv-y="1000"  />

      
      <glyph glyph-name="uni4c" unicode="&#x4c;" d="M87 0L87 710L204 710L204 112L529 112L529 0L87 0Z"  horiz-adv-x="549" vert-adv-y="1000"  />

      
      <glyph glyph-name="uni4d" unicode="&#x4d;" d="M87 710L194 710L442 374L691 710L798 710L798 0L680 0L680 509L443 187L204 510L204 0L87 0L87 710Z"  horiz-adv-x="885" vert-adv-y="1000"  />

      
      <glyph glyph-name="uni4e" unicode="&#x4e;" d="M706 0L604 0L204 511L204 0L87 0L87 710L189 710L588 200L588 710L706 710L706 0Z"  horiz-adv-x="793" vert-adv-y="1000"  />

      
      <glyph glyph-name="uni4f" unicode="&#x4f;" d="M409 101Q513 101 585 175Q657 249 657 355Q657 461 585 535Q513 609 409 609Q304 609 232 535Q160 461 160 355Q160 249 232 175Q304 101 409 101M669 95Q669 95 615.50 41.50Q562-12 409-12Q256-12 149 94.50Q42 201 42 355Q42 509 149 615.50Q256 722 409 722Q562 722 669 615Q776 508 776 355Q776 202 669 95Z"  horiz-adv-x="817" vert-adv-y="1000"  />

      
      <glyph glyph-name="uni50" unicode="&#x50;" d="M490 643.50Q490 643.50 524.50 610.25Q559 577 559 478Q559 379 490 312.50Q421 246 313 246L204 246L204 0L87 0L87 710L313 710Q421 710 490 643.50M408.50 390.50Q408.50 390.50 426.25 407.75Q444 425 444 478Q444 531 408.50 565.50Q373 600 312 600L204 600L204 356L312 356Q373 356 408.50 390.50Z"  horiz-adv-x="588" vert-adv-y="1000"  />

      
      <glyph glyph-name="uni51" unicode="&#x51;" d="M409-12Q256-12 149 94.50Q42 201 42 355Q42 509 149 615.50Q256 722 409 722Q562 722 669 615Q776 508 776 355Q776 235 706 138L864 0L701 0L630 61Q535-12 409-12M409 101Q480 101 542 139L432 236L502 317L617 216Q657 280 657 355Q657 461 585 535Q513 609 409 609Q304 609 232 535Q160 461 160 355Q160 249 232 175Q304 101 409 101Z"  horiz-adv-x="839" vert-adv-y="1000"  />

      
      <glyph glyph-name="uni52" unicode="&#x52;" d="M87 0L87 710L343 710Q441 710 499.50 653.50Q558 597 558 508Q558 433 516.50 384.50Q475 336 397 319L661 0L517 0L257 312L204 312L204 0L87 0M204 414L329 414Q381 414 411 438.50Q441 463 441 508Q441 553 411 577.50Q381 602 329 602L204 602L204 414Z"  horiz-adv-x="645" vert-adv-y="1000"  />

      
      <glyph glyph-name="uni53" unicode="&#x53;" d="M298-12Q184-12 113.50 51.50Q43 115 39 204L156 204Q162 153 203.50 125Q245 97 297 97Q349 97 382.50 121.50Q416 146 416 187Q416 259 318 291L231 320Q57 375 57 525Q57 616 119.50 669Q182 722 283 722Q388 722 450 661.50Q512 601 519 519L402 519Q391 566 357 589.50Q323 613 281 613Q235 613 205 590.50Q175 568 174 531Q174 493 197 469.50Q220 446 270 430L358 402Q534 345 534 191Q534 101 468.50 44.50Q403-12 298-12Z"  horiz-adv-x="577" vert-adv-y="1000"  />

      
      <glyph glyph-name="uni54" unicode="&#x54;" d="M225 0L225 598L19 598L19 710L549 710L549 598L342 598L342 0L225 0Z"  horiz-adv-x="567" vert-adv-y="1000"  />

      
      <glyph glyph-name="uni55" unicode="&#x55;" d="M362-12Q235-12 157 67Q79 146 79 278L79 710L196 710L196 276Q196 193 241 147Q286 101 362 101Q438 101 482.50 147Q527 193 527 276L527 710L644 710L644 278Q644 147 565 67.50Q486-12 362-12Z"  horiz-adv-x="723" vert-adv-y="1000"  />

      
      <glyph glyph-name="uni56" unicode="&#x56;" d="M304 0L6 710L134 710L355 179L575 710L704 710L406 0L304 0Z"  horiz-adv-x="710" vert-adv-y="1000"  />

      
      <glyph glyph-name="uni57" unicode="&#x57;" d="M642 0L477 434L312 0L204 0L21 710L144 710L273 194L477 722L680 194L810 710L934 710L750 0L642 0Z"  horiz-adv-x="953" vert-adv-y="1000"  />

      
      <glyph glyph-name="uni58" unicode="&#x58;" d="M140 0L-1 0L270 360L12 710L150 710L341 451L533 710L671 710L413 359L684 0L544 0L342 266L140 0Z"  horiz-adv-x="683" vert-adv-y="1000"  />

      
      <glyph glyph-name="uni59" unicode="&#x59;" d="M282 0L282 300L13 710L150 710L340 416L531 710L669 710L399 299L399 0L282 0Z"  horiz-adv-x="681" vert-adv-y="1000"  />

      
      <glyph glyph-name="uni5a" unicode="&#x5a;" d="M36 0L36 79L398 598L45 598L45 710L557 710L557 631L193 112L565 112L565 0L36 0Z"  horiz-adv-x="602" vert-adv-y="1000"  />

      
      <glyph glyph-name="uni5b" unicode="&#x5b;" d="M85-160L85 800L287 800L287 715L180 715L180-75L287-75L287-160L85-160Z"  horiz-adv-x="314" vert-adv-y="1000"  />

      
      <glyph glyph-name="uni5c" unicode="&#x5c;" d="M120 710L506-110L405-110L19 710L120 710Z"  horiz-adv-x="526" vert-adv-y="1000"  />

      
      <glyph glyph-name="uni5d" unicode="&#x5d;" d="M229 800L229-160L27-160L27-75L134-75L134 715L27 715L27 800L229 800Z"  horiz-adv-x="314" vert-adv-y="1000"  />

      
      <glyph glyph-name="uni5e" unicode="&#x5e;" d="M123 500L47 500L164 710L216 710L332 500L257 500L189 619L123 500Z"  horiz-adv-x="379" vert-adv-y="1000"  />

      
      <glyph glyph-name="uni5f" unicode="&#x5f;" d="M48-88L48 0L476 0L476-88L48-88Z"  horiz-adv-x="524" vert-adv-y="1000"  />

      
      <glyph glyph-name="uni60" unicode="&#x60;" d="M32 560L-116 750L17 750L117 560L32 560Z"   vert-adv-y="1000"  />

      
      <glyph glyph-name="uni61" unicode="&#x61;" d="M279-10Q177-10 107.50 66Q38 142 38 250Q38 358 107.50 434Q177 510 279 510Q330 510 373 487.50Q416 465 439 433L439 500L549 500L549 0L439 0L439 67Q416 35 373 12.50Q330-10 279-10M192 136Q192 136 213 113Q234 90 299 90Q364 90 406 136Q448 182 448 250Q448 318 406 364Q364 410 299 410Q234 410 192 364Q150 318 150 250Q150 182 192 136Z"  horiz-adv-x="624" vert-adv-y="1000"  />

      
      <glyph glyph-name="uni62" unicode="&#x62;" d="M345-10Q294-10 250.50 12.50Q207 35 184 67L184 0L74 0L74 750L184 750L184 433Q207 465 250.50 487.50Q294 510 345 510Q447 510 516.50 434Q586 358 586 250Q586 142 516.50 66Q447-10 345-10M325 90Q390 90 432 136Q474 182 474 250Q474 318 432 364Q390 410 325 410Q259 410 217 364Q175 318 175 250Q175 182 217 136Q259 90 325 90Z"  horiz-adv-x="624" vert-adv-y="1000"  />

      
      <glyph glyph-name="uni63" unicode="&#x63;" d="M300-10Q187-10 112.50 65.50Q38 141 38 250Q38 359 112.50 434.50Q187 510 300 510Q397 510 465.50 456Q534 402 554 317L438 317Q423 359 386.50 384.50Q350 410 300 410Q234 410 192 365Q150 320 150 250Q150 180 192 135Q234 90 300 90Q350 90 386.50 115.50Q423 141 438 183L554 183Q534 98 465.50 44Q397-10 300-10Z"  horiz-adv-x="584" vert-adv-y="1000"  />

      
      <glyph glyph-name="uni64" unicode="&#x64;" d="M279-10Q177-10 107.50 66Q38 142 38 250Q38 358 107.50 434Q177 510 279 510Q330 510 373 487.50Q416 465 439 433L439 750L549 750L549 0L439 0L439 67Q416 35 373 12.50Q330-10 279-10M192 136Q192 136 213 113Q234 90 299 90Q364 90 406 136Q448 182 448 250Q448 318 406 364Q364 410 299 410Q234 410 192 364Q150 318 150 250Q150 182 192 136Z"  horiz-adv-x="624" vert-adv-y="1000"  />

      
      <glyph glyph-name="uni65" unicode="&#x65;" d="M295-10Q183-10 111 63.50Q39 137 39 250Q39 363 110 436.50Q181 510 296 510Q412 510 483 429.50Q554 349 546 223L148 223Q150 165 192 126Q234 87 299 87Q391 87 425 157L540 157Q517 84 452 37Q387-10 295-10M293 418Q239 418 200.50 387.50Q162 357 151 301L428 301Q416 359 379 388.50Q342 418 293 418Z"  horiz-adv-x="585" vert-adv-y="1000"  />

      
      <glyph glyph-name="uni66" unicode="&#x66;" d="M121 0L121 402L17 402L17 500L121 500L121 584Q121 665 169 710.50Q217 756 292 756Q338 756 374 744L374 646Q351 656 315 656Q271 656 251 636.50Q231 617 231 571L231 500L374 500L374 402L231 402L231 0L121 0Z"  horiz-adv-x="388" vert-adv-y="1000"  />

      
      <glyph glyph-name="uni67" unicode="&#x67;" d="M300-219Q198-219 132.50-169Q67-119 57-39L165-39Q194-125 303-125Q362-125 400.50-86.50Q439-48 439 22L439 81Q415 47 372 25Q329 3 279 3Q178 3 108.50 76.50Q39 150 39 257Q39 363 108.50 436.50Q178 510 279 510Q329 510 372 488.50Q415 467 439 433L439 500L549 500L549 31Q549-93 478.50-156Q408-219 300-219M193 147.50Q193 147.50 214.50 125.75Q236 104 299 104Q362 104 405 147.50Q448 191 448 257Q448 323 405 366.50Q362 410 299 410Q236 410 193 366.50Q150 323 150 257Q150 191 193 147.50Z"  horiz-adv-x="623" vert-adv-y="1000"  />

      
      <glyph glyph-name="uni68" unicode="&#x68;" d="M184 0L74 0L74 750L184 750L184 432Q231 510 336 510Q423 510 475 453Q527 396 527 301L527 0L417 0L417 283Q417 343 389 376.50Q361 410 313 410Q256 410 220 367Q184 324 184 246L184 0Z"  horiz-adv-x="594" vert-adv-y="1000"  />

      
      <glyph glyph-name="uni69" unicode="&#x69;" d="M129 609Q99 609 77 630.50Q55 652 55 683Q55 713 77 734.50Q99 756 129 756Q160 756 181 734.50Q202 713 202 683Q202 652 181 630.50Q160 609 129 609M74 0L74 500L184 500L184 0L74 0Z"  horiz-adv-x="258" vert-adv-y="1000"  />

      
      <glyph glyph-name="uni6a" unicode="&#x6a;" d="M192 500L192-53Q192-133 144.50-176Q97-219 24-219Q-4-219-23-216L-23-120Q-9-122 4-122Q82-122 82-37L82 500L192 500M137 609Q107 609 85 630.50Q63 652 63 683Q63 713 85 734.50Q107 756 137 756Q168 756 189 734.50Q210 713 210 683Q210 652 189 630.50Q168 609 137 609Z"  horiz-adv-x="266" vert-adv-y="1000"  />

      
      <glyph glyph-name="uni6b" unicode="&#x6b;" d="M423 0L184 241L184 0L74 0L74 750L184 750L184 310L375 500L514 500L291 277L564 0L423 0Z"  horiz-adv-x="547" vert-adv-y="1000"  />

      
      <glyph glyph-name="uni6c" unicode="&#x6c;" d="M74 0L74 750L184 750L184 0L74 0Z"  horiz-adv-x="258" vert-adv-y="1000"  />

      
      <glyph glyph-name="uni6d" unicode="&#x6d;" d="M711 0L711 281Q711 342 688.50 376Q666 410 622 410Q569 410 537 369Q505 328 503 254L503 0L393 0L393 281Q393 342 370.50 376Q348 410 304 410Q249 410 216.50 367Q184 324 184 246L184 0L74 0L74 500L184 500L184 432Q230 510 326 510Q439 510 481 411Q502 458 545.50 484Q589 510 641 510Q725 510 773 453Q821 396 821 299L821 0L711 0Z"  horiz-adv-x="888" vert-adv-y="1000"  />

      
      <glyph glyph-name="uni6e" unicode="&#x6e;" d="M74 0L74 500L184 500L184 432Q231 510 336 510Q423 510 475 453Q527 396 527 301L527 0L417 0L417 283Q417 343 389 376.50Q361 410 313 410Q256 410 220 367Q184 324 184 246L184 0L74 0Z"  horiz-adv-x="594" vert-adv-y="1000"  />

      
      <glyph glyph-name="uni6f" unicode="&#x6f;" d="M486.50 65.50Q486.50 65.50 448.75 27.75Q411-10 300-10Q189-10 113.50 65.50Q38 141 38 250Q38 359 113.50 434.50Q189 510 300 510Q411 510 486.50 434.50Q562 359 562 250Q562 141 486.50 65.50M300 92Q365 92 407.50 137.50Q450 183 450 250Q450 317 407.50 362.50Q365 408 300 408Q234 408 191.50 362.50Q149 317 149 250Q149 183 191.50 137.50Q234 92 300 92Z"  horiz-adv-x="599" vert-adv-y="1000"  />

      
      <glyph glyph-name="uni70" unicode="&#x70;" d="M184-209L74-209L74 500L184 500L184 433Q207 465 250.50 487.50Q294 510 345 510Q447 510 516.50 434Q586 358 586 250Q586 142 516.50 66Q447-10 345-10Q294-10 250.50 12.50Q207 35 184 67L184-209M325 90Q390 90 432 136Q474 182 474 250Q474 318 432 364Q390 410 325 410Q259 410 217 364Q175 318 175 250Q175 182 217 136Q259 90 325 90Z"  horiz-adv-x="624" vert-adv-y="1000"  />

      
      <glyph glyph-name="uni71" unicode="&#x71;" d="M549-209L439-209L439 67Q416 35 373 12.50Q330-10 279-10Q177-10 107.50 66Q38 142 38 250Q38 358 107.50 434Q177 510 279 510Q330 510 373 487.50Q416 465 439 433L439 500L549 500L549-209M192 136Q192 136 213 113Q234 90 299 90Q364 90 406 136Q448 182 448 250Q448 318 406 364Q364 410 299 410Q234 410 192 364Q150 318 150 250Q150 182 192 136Z"  horiz-adv-x="624" vert-adv-y="1000"  />

      
      <glyph glyph-name="uni72" unicode="&#x72;" d="M74 0L74 500L184 500L184 411Q198 453 235.50 479Q273 505 316 505Q342 505 359 501L359 388Q335 397 304 397Q254 397 219 356.50Q184 316 184 244L184 0L74 0Z"  horiz-adv-x="380" vert-adv-y="1000"  />

      
      <glyph glyph-name="uni73" unicode="&#x73;" d="M250-10Q161-10 100.50 34Q40 78 36 152L150 152Q162 78 253 78Q290 78 312 91.50Q334 105 334 131Q334 157 317 172Q300 187 260 197L178 219Q50 253 50 370Q50 433 101 471.50Q152 510 236 510Q317 510 369 469Q421 428 427 360L317 360Q301 422 235 422Q202 422 182 408.50Q162 395 162 371Q162 328 229 311L313 289Q446 255 446 138Q446 67 391.50 28.50Q337-10 250-10Z"  horiz-adv-x="483" vert-adv-y="1000"  />

      
      <glyph glyph-name="uni74" unicode="&#x74;" d="M291-5Q215-5 167.50 37.50Q120 80 120 161L120 402L16 402L16 500L120 500L120 639L230 639L230 500L373 500L373 402L230 402L230 179Q230 133 250 113.50Q270 94 314 94Q350 94 373 104L373 6Q337-5 291-5Z"  horiz-adv-x="403" vert-adv-y="1000"  />

      
      <glyph glyph-name="uni75" unicode="&#x75;" d="M253-10Q167-10 117 47.50Q67 105 67 201L67 500L177 500L177 219Q177 159 203 124.50Q229 90 277 90Q333 90 366 132.50Q399 175 399 254L399 500L509 500L509 0L399 0L399 68Q355-10 253-10Z"  horiz-adv-x="583" vert-adv-y="1000"  />

      
      <glyph glyph-name="uni76" unicode="&#x76;" d="M230 0L4 500L126 500L278 149L431 500L554 500L327 0L230 0Z"  horiz-adv-x="557" vert-adv-y="1000"  />

      
      <glyph glyph-name="uni77" unicode="&#x77;" d="M500 0L390 323L281 0L177 0L9 500L125 500L233 155L348 500L432 500L545 155L655 500L772 500L604 0L500 0Z"  horiz-adv-x="780" vert-adv-y="1000"  />

      
      <glyph glyph-name="uni78" unicode="&#x78;" d="M409 0L274 169L139 0L5 0L204 249L16 500L147 500L273 332L399 500L531 500L343 249L542 0L409 0Z"  horiz-adv-x="547" vert-adv-y="1000"  />

      
      <glyph glyph-name="uni79" unicode="&#x79;" d="M234-209L113-209L220 27L5 500L126 500L279 146L433 500L555 500L234-209Z"  horiz-adv-x="558" vert-adv-y="1000"  />

      
      <glyph glyph-name="uni7a" unicode="&#x7a;" d="M40 0L40 87L302 400L44 400L44 500L444 500L444 412L182 100L452 100L452 0L40 0Z"  horiz-adv-x="490" vert-adv-y="1000"  />

      
      <glyph glyph-name="uni7b" unicode="&#x7b;" d="M301-160L230-160Q98-160 98-17L98 212Q98 245 86 261Q74 277 42 277L29 277L29 362L42 362Q74 362 86 378Q98 394 98 426L98 657Q98 800 230 800L301 800L301 715L253 715Q219 715 206.50 700Q194 685 194 648L194 426Q194 342 136 320Q194 296 194 212L194-8Q194-45 206.50-60Q219-75 253-75L301-75L301-160Z"  horiz-adv-x="327" vert-adv-y="1000"  />

      
      <glyph glyph-name="uni7c" unicode="&#x7c;" d="M84-110L84 710L180 710L180-110L84-110Z"  horiz-adv-x="264" vert-adv-y="1000"  />

      
      <glyph glyph-name="uni7d" unicode="&#x7d;" d="M97-160L26-160L26-75L74-75Q108-75 120.50-60Q133-45 133-8L133 212Q133 296 191 320Q133 342 133 426L133 648Q133 685 120.50 700Q108 715 74 715L26 715L26 800L97 800Q229 800 229 657L229 426Q229 394 241 378Q253 362 285 362L298 362L298 277L285 277Q253 277 241 261Q229 245 229 212L229-17Q229-160 97-160Z"  horiz-adv-x="327" vert-adv-y="1000"  />

      
      <glyph glyph-name="uni7e" unicode="&#x7e;" d="M64 230L119 349L165 349L225 294L250 349L320 349L265 230L219 230L157 284L133 230L64 230Z"  horiz-adv-x="381" vert-adv-y="1000"  />

      
      <glyph glyph-name="unia1" unicode="&#xa1;" d="M167 264L189 68L189-209L78-209L78 68L99 264L167 264M133 338Q98 338 72.50 363.50Q47 389 47 425Q47 460 72.50 486Q98 512 133 512Q169 512 194.50 486Q220 460 220 425Q220 389 194.50 363.50Q169 338 133 338Z"  horiz-adv-x="267" vert-adv-y="1000"  />

      
      <glyph glyph-name="unia2" unicode="&#xa2;" d="M276-88L276-8Q173 0 107 74Q41 148 41 250Q41 352 107 425Q173 498 276 508L276 588L330 588L330 508Q418 500 478 448Q538 396 557 317L441 317Q409 395 330 408L330 92Q409 105 441 183L557 183Q539 104 478 52Q417 0 330-8L330-88L276-88M186.50 356Q186.50 356 169.75 334.50Q153 313 153 250Q153 187 186.50 144Q220 101 276 92L276 408Q220 399 186.50 356Z"  horiz-adv-x="591" vert-adv-y="1000"  />

      
      <glyph glyph-name="unia3" unicode="&#xa3;" d="M49 333L49 389L115 389Q92 462 92 513Q92 597 153 659.50Q214 722 309 722Q404 722 466.50 656.50Q529 591 531 500L421 500Q421 547 389.50 580.50Q358 614 309 614Q262 614 232 584.50Q202 555 202 507Q202 458 228 389L410 389L410 333L247 333Q268 268 268 219Q268 161 236 108L531 108L531 0L49 0L49 108L125 108Q159 155 159 214Q159 258 133 333L49 333Z"  horiz-adv-x="575" vert-adv-y="1000"  />

      
      <glyph glyph-name="unia5" unicode="&#xa5;" d="M82 299L82 354L258 354L28 710L161 710L348 410L534 710L668 710L438 354L614 354L614 299L403 299L403 224L614 224L614 169L403 169L403 0L293 0L293 169L82 169L82 224L293 224L293 299L82 299Z"  horiz-adv-x="696" vert-adv-y="1000"  />

      
      <glyph glyph-name="unia6" unicode="&#xa6;" d="M84-110L84 245L180 245L180-110L84-110M84 355L84 710L180 710L180 355L84 355Z"  horiz-adv-x="264" vert-adv-y="1000"  />

      
      <glyph glyph-name="unia7" unicode="&#xa7;" d="M238-219Q169-219 119-182Q69-145 61-67L158-67Q170-135 238-135Q268-135 288.50-116.50Q309-98 308-64Q307 4 219 52L159 84Q51 142 51 248Q51 356 146 411Q53 474 53 571Q53 639 97.50 680.50Q142 722 212 722Q280 722 327 685.50Q374 649 382 570L286 570Q272 638 214 638Q184 638 167 620.50Q150 603 150 571Q150 537 170.50 514Q191 491 237 465L297 433Q407 376 407 269Q407 162 310 105Q402 40 404-64Q404-134 357-176.50Q310-219 238-219M147 256Q147 194 219 157L224 154Q310 196 310 261Q310 322 238 360L234 362Q191 341 169 317Q147 293 147 256Z"  horiz-adv-x="456" vert-adv-y="1000"  />

      
      <glyph glyph-name="unia8" unicode="&#xa8;" d="M-114 587Q-142 587-161.50 606.50Q-181 626-181 653Q-181 681-161.50 700.50Q-142 720-114 720Q-87 720-68 700.50Q-49 681-49 653Q-49 626-68 606.50Q-87 587-114 587M115 587Q88 587 68.50 606.50Q49 626 49 653Q49 681 68.50 700.50Q88 720 115 720Q143 720 162 700.50Q181 681 181 653Q181 626 162 606.50Q143 587 115 587Z"   vert-adv-y="1000"  />

      
      <glyph glyph-name="unia9" unicode="&#xa9;" d="M412 163Q328 163 272.50 218Q217 273 217 355Q217 437 272.50 492.50Q328 548 412 548Q475 548 526 510.50Q577 473 593 414L509 414Q497 441 471 457Q445 473 412 473Q359 473 326.50 439.50Q294 406 294 355Q294 304 326.50 270.50Q359 237 412 237Q445 237 471 253Q497 269 509 296L593 296Q577 237 526.50 200Q476 163 412 163M203.50 150Q203.50 150 246.25 107.50Q289 65 408 65Q527 65 612.50 150Q698 235 698 355Q698 475 612.50 560Q527 645 408 645Q289 645 203.50 560Q118 475 118 355Q118 235 203.50 150M408-12Q257-12 149 96Q41 204 41 355Q41 506 149 614Q257 722 408 722Q560 722 667.50 614Q775 506 775 355Q775 204 667.50 96Q560-12 408-12Z"  horiz-adv-x="816" vert-adv-y="1000"  />

      
      <glyph glyph-name="uniaa" unicode="&#xaa;" d="M180 404Q121 404 80 450Q39 496 39 560Q39 624 80 670Q121 716 180 716Q235 716 266 677L266 710L349 710L349 410L266 410L266 443Q235 404 180 404M198 479Q231 479 252 502Q273 525 273 560Q273 595 252 618Q231 641 198 641Q163 641 142.50 618.50Q122 596 122 560Q122 524 142.50 501.50Q163 479 198 479Z"  horiz-adv-x="413" vert-adv-y="1000"  />

      
      <glyph glyph-name="uniab" unicode="&#xab;" d="M223 250L364 467L459 467L343 250L459 33L364 33L223 250M36 250L177 467L272 467L156 250L272 33L177 33L36 250Z"  horiz-adv-x="500" vert-adv-y="1000"  />

      
      <glyph glyph-name="uniad" unicode="&#xad;" d="M62 226L62 334L331 334L331 226L62 226Z"  horiz-adv-x="392" vert-adv-y="1000"  />

      
      <glyph glyph-name="uniae" unicode="&#xae;" d="M408-12Q257-12 149 96Q41 204 41 355Q41 506 149 614Q257 722 408 722Q560 722 667.50 614Q775 506 775 355Q775 204 667.50 96Q560-12 408-12M203.50 150Q203.50 150 246.25 107.50Q289 65 408 65Q527 65 612.50 150Q698 235 698 355Q698 475 612.50 560Q527 645 408 645Q289 645 203.50 560Q118 475 118 355Q118 235 203.50 150M286 169L286 541L429 541Q482 541 513 510Q544 479 544 431Q544 358 467 334L601 169L509 169L382 325L364 325L364 169L286 169M364 391L421 391Q442 391 455 402Q468 413 468 431Q468 449 455 459.50Q442 470 421 470L364 470L364 391Z"  horiz-adv-x="816" vert-adv-y="1000"  />

      
      <glyph glyph-name="uniaf" unicode="&#xaf;" d="M-166 628L-166 710L166 710L166 628L-166 628Z"   vert-adv-y="1000"  />

      
      <glyph glyph-name="unib0" unicode="&#xb0;" d="M180 508Q207 508 226 527Q245 546 245 573Q245 599 226 618.50Q207 638 180 638Q153 638 134 619Q115 600 115 573Q115 546 133.50 527Q152 508 180 508M279.50 473Q279.50 473 258.75 452.50Q238 432 180 432Q122 432 80.50 473Q39 514 39 573Q39 632 80.50 673Q122 714 180 714Q238 714 279.50 673Q321 632 321 573Q321 514 279.50 473Z"  horiz-adv-x="360" vert-adv-y="1000"  />

      
      <glyph glyph-name="unib2" unicode="&#xb2;" d="M322 491L322 410L29 410L29 438Q29 456 33 472.50Q37 489 41 501Q45 513 56.50 527.50Q68 542 73.50 549Q79 556 96.50 570Q114 584 119 587.50Q124 591 144.50 605.50Q165 620 168 622Q202 645 219 666Q236 687 236 714Q236 738 220.50 752.50Q205 767 178 767Q149 767 131 750Q113 733 113 706L30 706Q30 769 73 809Q116 849 180 849Q238 849 278.50 814Q319 779 319 716Q319 664 296.50 630.50Q274 597 228 564Q222 560 205 548.50Q188 537 178.50 530Q169 523 158 512Q147 501 143 491L322 491Z"  horiz-adv-x="354" vert-adv-y="1000"  />

      
      <glyph glyph-name="unib3" unicode="&#xb3;" d="M186 404Q121 404 74 443Q27 482 25 550L107 550Q115 485 186 485Q216 485 234 499.50Q252 514 252 540Q252 567 232.50 582.50Q213 598 180 598L144 598L144 665L178 665Q207 665 223 679Q239 693 239 717Q240 740 224 753.50Q208 767 183 767Q154 767 135 750Q116 733 116 706L34 706Q34 771 78.50 810Q123 849 184 849Q248 849 285.50 813Q323 777 323 724Q322 664 275 631Q301 619 318 593.50Q335 568 335 533Q335 476 293.50 440Q252 404 186 404Z"  horiz-adv-x="365" vert-adv-y="1000"  />

      
      <glyph glyph-name="unib4" unicode="&#xb4;" d="M-117 560L-17 750L116 750L-32 560L-117 560Z"   vert-adv-y="1000"  />

      
      <glyph glyph-name="unib6" unicode="&#xb6;" d="M253-184L253 260Q160 260 94 326Q28 392 28 485Q28 578 94 644Q160 710 253 710L545 710L545-184L449-184L449 612L350 612L350-184L253-184Z"  horiz-adv-x="643" vert-adv-y="1000"  />

      
      <glyph glyph-name="unib7" unicode="&#xb7;" d="M139 189Q104 189 78.50 214.50Q53 240 53 276Q53 311 78.50 337Q104 363 139 363Q175 363 200.50 337Q226 311 226 276Q226 240 200.50 214.50Q175 189 139 189Z"  horiz-adv-x="279" vert-adv-y="1000"  />

      
      <glyph glyph-name="unib8" unicode="&#xb8;" d="M-112-204L-112-146Q-82-163-36-163Q29-163 29-125Q29-96-16-96Q-40-96-59-106L-93-86L-39 3L19 3L-14-51Q7-44 29-44Q65-44 88.50-64.50Q112-85 112-121Q112-164 72.50-191.50Q33-219-21-219Q-76-219-112-204Z"   vert-adv-y="1000"  />

      
      <glyph glyph-name="unib9" unicode="&#xb9;" d="M99 410L99 760L8 760L68 842L182 842L182 410L99 410Z"  horiz-adv-x="235" vert-adv-y="1000"  />

      
      <glyph glyph-name="uniba" unicode="&#xba;" d="M307 449Q307 449 284 426.50Q261 404 195 404Q129 404 83.50 449Q38 494 38 560Q38 626 83.50 671Q129 716 195 716Q261 716 307 671Q353 626 353 560Q353 494 307 449M142 503Q142 503 152.50 492Q163 481 195 481Q227 481 248 503Q269 525 269 560Q269 595 248 617Q227 639 195 639Q163 639 142 617Q121 595 121 560Q121 525 142 503Z"  horiz-adv-x="390" vert-adv-y="1000"  />

      
      <glyph glyph-name="unibb" unicode="&#xbb;" d="M322 467L463 250L322 33L227 33L343 250L227 467L322 467M135 467L276 250L135 33L40 33L156 250L40 467L135 467Z"  horiz-adv-x="500" vert-adv-y="1000"  />

      
      <glyph glyph-name="unibc" unicode="&#xbc;" d="M99 278L99 628L8 628L68 710L182 710L182 278L99 278M151 0L53 0L553 710L651 710L151 0M645 1L645 100L430 100L430 167L654 433L728 433L728 176L784 176L784 100L728 100L728 1L645 1M532 176L645 176L645 310L532 176Z"  horiz-adv-x="806" vert-adv-y="1000"  />

      
      <glyph glyph-name="unibd" unicode="&#xbd;" d="M99 278L99 628L8 628L68 710L182 710L182 278L99 278M151 0L53 0L553 710L651 710L151 0M763 82L763 1L470 1L470 29Q470 47 474 63.50Q478 80 482 92Q486 104 497.50 118.50Q509 133 514.50 140Q520 147 537.50 161Q555 175 560 178.50Q565 182 585.50 196.50Q606 211 609 213Q643 236 660 257Q677 278 677 305Q677 329 661.50 343.50Q646 358 619 358Q590 358 572 341Q554 324 554 297L471 297Q471 360 514 400Q557 440 621 440Q679 440 719.50 405Q760 370 760 307Q760 255 737.50 221.50Q715 188 669 155Q663 151 646 139.50Q629 128 619.50 121Q610 114 599 103Q588 92 584 82L763 82Z"  horiz-adv-x="795" vert-adv-y="1000"  />

      
      <glyph glyph-name="unibe" unicode="&#xbe;" d="M186 272Q121 272 74 311Q27 350 25 418L107 418Q115 353 186 353Q216 353 234 367.50Q252 382 252 408Q252 435 232.50 450.50Q213 466 180 466L144 466L144 533L178 533Q207 533 223 547Q239 561 239 585Q240 608 224 621.50Q208 635 183 635Q154 635 135 618Q116 601 116 574L34 574Q34 639 78.50 678Q123 717 184 717Q248 717 285.50 681Q323 645 323 592Q322 532 275 499Q301 487 318 461.50Q335 436 335 401Q335 344 293.50 308Q252 272 186 272M255 0L157 0L657 710L755 710L255 0M749 1L749 100L534 100L534 167L758 433L832 433L832 176L888 176L888 100L832 100L832 1L749 1M636 176L749 176L749 310L636 176Z"  horiz-adv-x="909" vert-adv-y="1000"  />

      
      <glyph glyph-name="unibf" unicode="&#xbf;" d="M326 256L326 237Q326 168 237 105Q234 103 219.50 92Q205 81 201.50 78.50Q198 76 186.50 67Q175 58 172 53.50Q169 49 162 40Q155 31 153 24Q151 17 148.50 7.50Q146-2 146-12Q146-56 175-84Q204-112 249-112Q298-112 331-81Q364-50 364 0L474 0Q474-91 409-155.50Q344-220 249-220Q156-220 96-160Q36-100 36-16Q36 86 134 161Q193 205 205 222Q216 237 216 251L216 256L326 256M272 510Q307 510 332.50 484.50Q358 459 358 423Q358 388 332.50 362Q307 336 272 336Q236 336 210.50 362Q185 388 185 423Q185 459 210.50 484.50Q236 510 272 510Z"  horiz-adv-x="502" vert-adv-y="1000"  />

      
      <glyph glyph-name="unic0" unicode="&#xc0;" d="M4 0L314 710L416 710L726 0L604 0L523 186L205 186L125 0L4 0M364 552L250 290L478 290L364 552M403 770L317 770L199 927L328 927L403 770Z"  horiz-adv-x="730" vert-adv-y="1000"  />

      
      <glyph glyph-name="unic1" unicode="&#xc1;" d="M4 0L314 710L416 710L726 0L604 0L523 186L205 186L125 0L4 0M364 552L250 290L478 290L364 552M330 770L405 927L534 927L416 770L330 770Z"  horiz-adv-x="730" vert-adv-y="1000"  />

      
      <glyph glyph-name="unic2" unicode="&#xc2;" d="M4 0L314 710L416 710L726 0L604 0L523 186L205 186L125 0L4 0M364 552L250 290L478 290L364 552M195 766L195 858L365 938L535 858L535 766L365 846L195 766Z"  horiz-adv-x="730" vert-adv-y="1000"  />

      
      <glyph glyph-name="unic3" unicode="&#xc3;" d="M4 0L314 710L416 710L726 0L604 0L523 186L205 186L125 0L4 0M364 552L250 290L478 290L364 552M185 782L188 804Q196 851 227 879Q258 907 300 907Q330 907 373.50 884.50Q417 862 430 862Q463 862 473 907L545 907L542 885Q534 838 503 810.50Q472 783 430 783Q399 783 355.50 805.50Q312 828 300 828Q268 828 256 782L185 782Z"  horiz-adv-x="730" vert-adv-y="1000"  />

      
      <glyph glyph-name="unic4" unicode="&#xc4;" d="M4 0L314 710L416 710L726 0L604 0L523 186L205 186L125 0L4 0M364 552L250 290L478 290L364 552M251 779Q223 779 203.50 798.50Q184 818 184 845Q184 873 203.50 892.50Q223 912 251 912Q278 912 297 892.50Q316 873 316 845Q316 818 297 798.50Q278 779 251 779M480 779Q453 779 433.50 798.50Q414 818 414 845Q414 873 433.50 892.50Q453 912 480 912Q508 912 527 892.50Q546 873 546 845Q546 818 527 798.50Q508 779 480 779Z"  horiz-adv-x="730" vert-adv-y="1000"  />

      
      <glyph glyph-name="unic5" unicode="&#xc5;" d="M4 0L314 710L416 710L726 0L604 0L523 186L205 186L125 0L4 0M364 552L250 290L478 290L364 552M451 788.50Q451 788.50 433 770.75Q415 753 365 753Q315 753 279.50 788Q244 823 244 873Q244 923 279.50 958Q315 993 365 993Q415 993 451 957.50Q487 922 487 873Q487 824 451 788.50M365 809Q393 809 412 827.50Q431 846 431 873Q431 900 411.50 919Q392 938 365 938Q339 938 320 918.50Q301 899 301 873Q301 846 320 827.50Q339 809 365 809Z"  horiz-adv-x="730" vert-adv-y="1000"  />

      
      <glyph glyph-name="unic6" unicode="&#xc6;" d="M451 0L451 186L211 186L104 0L-25 0L389 710L878 710L878 598L568 598L568 416L818 416L818 304L568 304L568 112L878 112L878 0L451 0M450 598L271 290L451 290L451 598L450 598Z"  horiz-adv-x="927" vert-adv-y="1000"  />

      
      <glyph glyph-name="unic7" unicode="&#xc7;" d="M412-12Q253-12 147.50 93.50Q42 199 42 355Q42 511 147.50 616.50Q253 722 412 722Q538 722 632.50 650.50Q727 579 754 472L628 472Q605 533 546 571Q487 609 412 609Q302 609 231 536Q160 463 160 355Q160 247 231 174Q302 101 412 101Q487 101 546 139Q605 177 628 238L754 238Q727 131 632.50 59.50Q538-12 412-12M297-204L297-146Q327-163 373-163Q438-163 438-125Q438-96 393-96Q371-96 350-106L316-86L370 3L428 3L396-51Q417-44 439-44Q475-44 498-64.50Q521-85 521-121Q521-165 482-192Q443-219 389-219Q333-219 297-204Z"  horiz-adv-x="785" vert-adv-y="1000"  />

      
      <glyph glyph-name="unic8" unicode="&#xc8;" d="M87 0L87 710L514 710L514 598L204 598L204 416L454 416L454 304L204 304L204 112L514 112L514 0L87 0M339 770L253 770L135 927L264 927L339 770Z"  horiz-adv-x="562" vert-adv-y="1000"  />

      
      <glyph glyph-name="unic9" unicode="&#xc9;" d="M87 0L87 710L514 710L514 598L204 598L204 416L454 416L454 304L204 304L204 112L514 112L514 0L87 0M265 770L340 927L469 927L351 770L265 770Z"  horiz-adv-x="562" vert-adv-y="1000"  />

      
      <glyph glyph-name="unica" unicode="&#xca;" d="M87 0L87 710L514 710L514 598L204 598L204 416L454 416L454 304L204 304L204 112L514 112L514 0L87 0M130 766L130 858L300 938L470 858L470 766L300 846L130 766Z"  horiz-adv-x="562" vert-adv-y="1000"  />

      
      <glyph glyph-name="unicb" unicode="&#xcb;" d="M87 0L87 710L514 710L514 598L204 598L204 416L454 416L454 304L204 304L204 112L514 112L514 0L87 0M186 779Q158 779 138.50 798.50Q119 818 119 845Q119 873 138.50 892.50Q158 912 186 912Q213 912 232 892.50Q251 873 251 845Q251 818 232 798.50Q213 779 186 779M415 779Q388 779 368.50 798.50Q349 818 349 845Q349 873 368.50 892.50Q388 912 415 912Q443 912 462 892.50Q481 873 481 845Q481 818 462 798.50Q443 779 415 779Z"  horiz-adv-x="562" vert-adv-y="1000"  />

      
      <glyph glyph-name="unicc" unicode="&#xcc;" d="M87 0L87 710L204 710L204 0L87 0M184 770L98 770L-20 927L109 927L184 770Z"  horiz-adv-x="291" vert-adv-y="1000"  />

      
      <glyph glyph-name="unicd" unicode="&#xcd;" d="M87 0L87 710L204 710L204 0L87 0M111 770L186 927L315 927L197 770L111 770Z"  horiz-adv-x="291" vert-adv-y="1000"  />

      
      <glyph glyph-name="unice" unicode="&#xce;" d="M87 0L87 710L204 710L204 0L87 0M-24 766L-24 858L146 938L316 858L316 766L146 846L-24 766Z"  horiz-adv-x="291" vert-adv-y="1000"  />

      
      <glyph glyph-name="unicf" unicode="&#xcf;" d="M87 0L87 710L204 710L204 0L87 0M32 779Q4 779-15.50 798.50Q-35 818-35 845Q-35 873-15.50 892.50Q4 912 32 912Q59 912 78 892.50Q97 873 97 845Q97 818 78 798.50Q59 779 32 779M261 779Q234 779 214.50 798.50Q195 818 195 845Q195 873 214.50 892.50Q234 912 261 912Q289 912 308 892.50Q327 873 327 845Q327 818 308 798.50Q289 779 261 779Z"  horiz-adv-x="291" vert-adv-y="1000"  />

      
      <glyph glyph-name="unid0" unicode="&#xd0;" d="M98 0L98 710L316 710Q474 710 581 608Q688 506 688 355Q688 204 581 102Q474 0 316 0L98 0M215 109L316 109Q428 109 498.50 179Q569 249 569 355Q569 461 498.50 531Q428 601 316 601L215 601L215 109M25 308L25 410L360 410L360 308L25 308Z"  horiz-adv-x="730" vert-adv-y="1000"  />

      
      <glyph glyph-name="unid1" unicode="&#xd1;" d="M706 0L604 0L204 511L204 0L87 0L87 710L189 710L588 200L588 710L706 710L706 0M214 782L217 804Q225 851 256 879Q287 907 329 907Q359 907 402.50 884.50Q446 862 459 862Q492 862 502 907L574 907L571 885Q563 838 532 810.50Q501 783 459 783Q428 783 384.50 805.50Q341 828 329 828Q297 828 285 782L214 782Z"  horiz-adv-x="793" vert-adv-y="1000"  />

      
      <glyph glyph-name="unid2" unicode="&#xd2;" d="M409 101Q513 101 585 175Q657 249 657 355Q657 461 585 535Q513 609 409 609Q304 609 232 535Q160 461 160 355Q160 249 232 175Q304 101 409 101M669 95Q669 95 615.50 41.50Q562-12 409-12Q256-12 149 94.50Q42 201 42 355Q42 509 149 615.50Q256 722 409 722Q562 722 669 615Q776 508 776 355Q776 202 669 95M447 770L361 770L243 927L372 927L447 770Z"  horiz-adv-x="817" vert-adv-y="1000"  />

      
      <glyph glyph-name="unid3" unicode="&#xd3;" d="M409 101Q513 101 585 175Q657 249 657 355Q657 461 585 535Q513 609 409 609Q304 609 232 535Q160 461 160 355Q160 249 232 175Q304 101 409 101M669 95Q669 95 615.50 41.50Q562-12 409-12Q256-12 149 94.50Q42 201 42 355Q42 509 149 615.50Q256 722 409 722Q562 722 669 615Q776 508 776 355Q776 202 669 95M374 770L449 927L578 927L460 770L374 770Z"  horiz-adv-x="817" vert-adv-y="1000"  />

      
      <glyph glyph-name="unid4" unicode="&#xd4;" d="M409 101Q513 101 585 175Q657 249 657 355Q657 461 585 535Q513 609 409 609Q304 609 232 535Q160 461 160 355Q160 249 232 175Q304 101 409 101M669 95Q669 95 615.50 41.50Q562-12 409-12Q256-12 149 94.50Q42 201 42 355Q42 509 149 615.50Q256 722 409 722Q562 722 669 615Q776 508 776 355Q776 202 669 95M239 766L239 858L409 938L579 858L579 766L409 846L239 766Z"  horiz-adv-x="817" vert-adv-y="1000"  />

      
      <glyph glyph-name="unid5" unicode="&#xd5;" d="M409 101Q513 101 585 175Q657 249 657 355Q657 461 585 535Q513 609 409 609Q304 609 232 535Q160 461 160 355Q160 249 232 175Q304 101 409 101M669 95Q669 95 615.50 41.50Q562-12 409-12Q256-12 149 94.50Q42 201 42 355Q42 509 149 615.50Q256 722 409 722Q562 722 669 615Q776 508 776 355Q776 202 669 95M229 782L232 804Q240 851 271 879Q302 907 344 907Q374 907 417.50 884.50Q461 862 474 862Q507 862 517 907L589 907L586 885Q578 838 547 810.50Q516 783 474 783Q443 783 399.50 805.50Q356 828 344 828Q312 828 300 782L229 782Z"  horiz-adv-x="817" vert-adv-y="1000"  />

      
      <glyph glyph-name="unid6" unicode="&#xd6;" d="M409 101Q513 101 585 175Q657 249 657 355Q657 461 585 535Q513 609 409 609Q304 609 232 535Q160 461 160 355Q160 249 232 175Q304 101 409 101M669 95Q669 95 615.50 41.50Q562-12 409-12Q256-12 149 94.50Q42 201 42 355Q42 509 149 615.50Q256 722 409 722Q562 722 669 615Q776 508 776 355Q776 202 669 95M295 779Q267 779 247.50 798.50Q228 818 228 845Q228 873 247.50 892.50Q267 912 295 912Q322 912 341 892.50Q360 873 360 845Q360 818 341 798.50Q322 779 295 779M524 779Q497 779 477.50 798.50Q458 818 458 845Q458 873 477.50 892.50Q497 912 524 912Q552 912 571 892.50Q590 873 590 845Q590 818 571 798.50Q552 779 524 779Z"  horiz-adv-x="817" vert-adv-y="1000"  />

      
      <glyph glyph-name="unid7" unicode="&#xd7;" d="M117 87L48 155L183 290L48 424L117 492L252 359L388 492L456 424L322 290L456 155L388 87L252 220L117 87Z"  horiz-adv-x="504" vert-adv-y="1000"  />

      
      <glyph glyph-name="unid8" unicode="&#xd8;" d="M411 101Q515 101 587 175Q659 249 659 355Q659 461 587 535Q515 609 411 609Q306 609 234 535Q162 461 162 355Q162 249 234 175Q306 101 411 101M671 95Q671 95 617.50 41.50Q564-12 411-12Q258-12 151 94.50Q44 201 44 355Q44 509 151 615.50Q258 722 411 722Q564 722 671 615Q778 508 778 355Q778 202 671 95M762 664L127-19L59 47L695 729L762 664Z"  horiz-adv-x="821" vert-adv-y="1000"  />

      
      <glyph glyph-name="unid9" unicode="&#xd9;" d="M362-12Q235-12 157 67Q79 146 79 278L79 710L196 710L196 276Q196 193 241 147Q286 101 362 101Q438 101 482.50 147Q527 193 527 276L527 710L644 710L644 278Q644 147 565 67.50Q486-12 362-12M400 770L314 770L196 927L325 927L400 770Z"  horiz-adv-x="723" vert-adv-y="1000"  />

      
      <glyph glyph-name="unida" unicode="&#xda;" d="M362-12Q235-12 157 67Q79 146 79 278L79 710L196 710L196 276Q196 193 241 147Q286 101 362 101Q438 101 482.50 147Q527 193 527 276L527 710L644 710L644 278Q644 147 565 67.50Q486-12 362-12M326 770L401 927L530 927L412 770L326 770Z"  horiz-adv-x="723" vert-adv-y="1000"  />

      
      <glyph glyph-name="unidb" unicode="&#xdb;" d="M362-12Q235-12 157 67Q79 146 79 278L79 710L196 710L196 276Q196 193 241 147Q286 101 362 101Q438 101 482.50 147Q527 193 527 276L527 710L644 710L644 278Q644 147 565 67.50Q486-12 362-12M192 766L192 858L362 938L532 858L532 766L362 846L192 766Z"  horiz-adv-x="723" vert-adv-y="1000"  />

      
      <glyph glyph-name="unidc" unicode="&#xdc;" d="M362-12Q235-12 157 67Q79 146 79 278L79 710L196 710L196 276Q196 193 241 147Q286 101 362 101Q438 101 482.50 147Q527 193 527 276L527 710L644 710L644 278Q644 147 565 67.50Q486-12 362-12M248 779Q220 779 200.50 798.50Q181 818 181 845Q181 873 200.50 892.50Q220 912 248 912Q275 912 294 892.50Q313 873 313 845Q313 818 294 798.50Q275 779 248 779M477 779Q450 779 430.50 798.50Q411 818 411 845Q411 873 430.50 892.50Q450 912 477 912Q505 912 524 892.50Q543 873 543 845Q543 818 524 798.50Q505 779 477 779Z"  horiz-adv-x="723" vert-adv-y="1000"  />

      
      <glyph glyph-name="unidd" unicode="&#xdd;" d="M282 0L282 300L13 710L150 710L340 416L531 710L669 710L399 299L399 0L282 0M305 770L380 927L509 927L391 770L305 770Z"  horiz-adv-x="681" vert-adv-y="1000"  />

      
      <glyph glyph-name="unide" unicode="&#xde;" d="M490 520.50Q490 520.50 524.50 487.25Q559 454 559 355Q559 256 490 189.50Q421 123 313 123L204 123L204 0L87 0L87 710L204 710L204 587L313 587Q421 587 490 520.50M408.50 267.50Q408.50 267.50 426.25 284.75Q444 302 444 355Q444 408 408.50 442.50Q373 477 312 477L204 477L204 233L312 233Q373 233 408.50 267.50Z"  horiz-adv-x="596" vert-adv-y="1000"  />

      
      <glyph glyph-name="unidf" unicode="&#xdf;" d="M74 0L74 539Q74 636 137 696Q200 756 291 756Q380 756 443 698.50Q506 641 506 557Q506 462 425 400Q481 373 511.50 324Q542 275 542 220Q542 127 475.50 63.50Q409 0 307 0L263 0L263 101L302 101Q359 101 395 135Q431 169 431 222Q431 274 394.50 308Q358 342 302 342L264 342L264 443L285 443Q334 443 364.50 473.50Q395 504 395 549Q395 593 365.50 624Q336 655 291 655Q245 655 214.50 622.50Q184 590 184 539L184 0L74 0Z"  horiz-adv-x="579" vert-adv-y="1000"  />

      
      <glyph glyph-name="unie0" unicode="&#xe0;" d="M279-10Q177-10 107.50 66Q38 142 38 250Q38 358 107.50 434Q177 510 279 510Q330 510 373 487.50Q416 465 439 433L439 500L549 500L549 0L439 0L439 67Q416 35 373 12.50Q330-10 279-10M192 136Q192 136 213 113Q234 90 299 90Q364 90 406 136Q448 182 448 250Q448 318 406 364Q364 410 299 410Q234 410 192 364Q150 318 150 250Q150 182 192 136M276 560L128 750L261 750L361 560L276 560Z"  horiz-adv-x="624" vert-adv-y="1000"  />

      
      <glyph glyph-name="unie1" unicode="&#xe1;" d="M279-10Q177-10 107.50 66Q38 142 38 250Q38 358 107.50 434Q177 510 279 510Q330 510 373 487.50Q416 465 439 433L439 500L549 500L549 0L439 0L439 67Q416 35 373 12.50Q330-10 279-10M192 136Q192 136 213 113Q234 90 299 90Q364 90 406 136Q448 182 448 250Q448 318 406 364Q364 410 299 410Q234 410 192 364Q150 318 150 250Q150 182 192 136M282 560L382 750L515 750L367 560L282 560Z"  horiz-adv-x="624" vert-adv-y="1000"  />

      
      <glyph glyph-name="unie2" unicode="&#xe2;" d="M279-10Q177-10 107.50 66Q38 142 38 250Q38 358 107.50 434Q177 510 279 510Q330 510 373 487.50Q416 465 439 433L439 500L549 500L549 0L439 0L439 67Q416 35 373 12.50Q330-10 279-10M192 136Q192 136 213 113Q234 90 299 90Q364 90 406 136Q448 182 448 250Q448 318 406 364Q364 410 299 410Q234 410 192 364Q150 318 150 250Q150 182 192 136M320 756L486 656L486 563L320 662L154 563L154 656L320 756Z"  horiz-adv-x="624" vert-adv-y="1000"  />

      
      <glyph glyph-name="unie3" unicode="&#xe3;" d="M279-10Q177-10 107.50 66Q38 142 38 250Q38 358 107.50 434Q177 510 279 510Q330 510 373 487.50Q416 465 439 433L439 500L549 500L549 0L439 0L439 67Q416 35 373 12.50Q330-10 279-10M192 136Q192 136 213 113Q234 90 299 90Q364 90 406 136Q448 182 448 250Q448 318 406 364Q364 410 299 410Q234 410 192 364Q150 318 150 250Q150 182 192 136M139 583L143 605Q151 652 181.50 679.50Q212 707 254 707Q285 707 328.50 684.50Q372 662 384 662Q416 662 428 708L500 708L496 686Q488 639 457.50 611Q427 583 385 583Q354 583 310.50 605.50Q267 628 255 628Q237 628 227 617.50Q217 607 211 583L139 583Z"  horiz-adv-x="624" vert-adv-y="1000"  />

      
      <glyph glyph-name="unie4" unicode="&#xe4;" d="M279-10Q177-10 107.50 66Q38 142 38 250Q38 358 107.50 434Q177 510 279 510Q330 510 373 487.50Q416 465 439 433L439 500L549 500L549 0L439 0L439 67Q416 35 373 12.50Q330-10 279-10M192 136Q192 136 213 113Q234 90 299 90Q364 90 406 136Q448 182 448 250Q448 318 406 364Q364 410 299 410Q234 410 192 364Q150 318 150 250Q150 182 192 136M206 587Q178 587 158.50 606.50Q139 626 139 653Q139 681 158.50 700.50Q178 720 206 720Q233 720 252 700.50Q271 681 271 653Q271 626 252 606.50Q233 587 206 587M435 587Q408 587 388.50 606.50Q369 626 369 653Q369 681 388.50 700.50Q408 720 435 720Q463 720 482 700.50Q501 681 501 653Q501 626 482 606.50Q463 587 435 587Z"  horiz-adv-x="624" vert-adv-y="1000"  />

      
      <glyph glyph-name="unie5" unicode="&#xe5;" d="M279-10Q177-10 107.50 66Q38 142 38 250Q38 358 107.50 434Q177 510 279 510Q330 510 373 487.50Q416 465 439 433L439 500L549 500L549 0L439 0L439 67Q416 35 373 12.50Q330-10 279-10M192 136Q192 136 213 113Q234 90 299 90Q364 90 406 136Q448 182 448 250Q448 318 406 364Q364 410 299 410Q234 410 192 364Q150 318 150 250Q150 182 192 136M406 578.50Q406 578.50 388 560.75Q370 543 320 543Q270 543 234.50 578Q199 613 199 663Q199 713 234.50 748Q270 783 320 783Q370 783 406 747.50Q442 712 442 663Q442 614 406 578.50M320 599Q348 599 367 617.50Q386 636 386 663Q386 690 367 709Q348 728 320 728Q294 728 275 708.50Q256 689 256 663Q256 636 275 617.50Q294 599 320 599Z"  horiz-adv-x="624" vert-adv-y="1000"  />

      
      <glyph glyph-name="unie6" unicode="&#xe6;" d="M619-10Q492-10 415 79Q358-10 225-10Q138-10 88 33Q38 76 38 137Q38 206 92.50 242Q147 278 260 299Q322 310 342 319Q362 328 362 354Q362 384 338.50 401Q315 418 271 418Q223 418 192 396Q161 374 160 333L50 333Q50 407 113 458.50Q176 510 270 510Q391 510 436 432Q505 510 619 510Q730 510 800.50 429.50Q871 349 865 223L467 223Q469 165 511 126Q553 87 617 87Q710 87 744 157L858 157Q837 84 772 37Q707-10 619-10M365 188L365 253Q354 247 238 211Q191 198 172.50 183Q154 168 154 141Q154 112 177.50 95Q201 78 241 78Q295 78 330 106Q365 134 365 188M612 418Q558 418 519.50 387.50Q481 357 470 301L746 301Q735 359 697.50 388.50Q660 418 612 418Z"  horiz-adv-x="904" vert-adv-y="1000"  />

      
      <glyph glyph-name="unie7" unicode="&#xe7;" d="M300-10Q187-10 112.50 65.50Q38 141 38 250Q38 359 112.50 434.50Q187 510 300 510Q397 510 465.50 456Q534 402 554 317L438 317Q423 359 386.50 384.50Q350 410 300 410Q234 410 192 365Q150 320 150 250Q150 180 192 135Q234 90 300 90Q350 90 386.50 115.50Q423 141 438 183L554 183Q534 98 465.50 44Q397-10 300-10M191-204L191-146Q221-163 267-163Q332-163 332-125Q332-96 287-96Q263-96 244-106L210-86L264 3L322 3L289-51Q310-44 332-44Q368-44 391.50-64.50Q415-85 415-121Q415-164 375.50-191.50Q336-219 282-219Q227-219 191-204Z"  horiz-adv-x="584" vert-adv-y="1000"  />

      
      <glyph glyph-name="unie8" unicode="&#xe8;" d="M295-10Q183-10 111 63.50Q39 137 39 250Q39 363 110 436.50Q181 510 296 510Q412 510 483 429.50Q554 349 546 223L148 223Q150 165 192 126Q234 87 299 87Q391 87 425 157L540 157Q517 84 452 37Q387-10 295-10M293 418Q239 418 200.50 387.50Q162 357 151 301L428 301Q416 359 379 388.50Q342 418 293 418M254 560L106 750L239 750L339 560L254 560Z"  horiz-adv-x="585" vert-adv-y="1000"  />

      
      <glyph glyph-name="unie9" unicode="&#xe9;" d="M295-10Q183-10 111 63.50Q39 137 39 250Q39 363 110 436.50Q181 510 296 510Q412 510 483 429.50Q554 349 546 223L148 223Q150 165 192 126Q234 87 299 87Q391 87 425 157L540 157Q517 84 452 37Q387-10 295-10M293 418Q239 418 200.50 387.50Q162 357 151 301L428 301Q416 359 379 388.50Q342 418 293 418M260 560L360 750L493 750L345 560L260 560Z"  horiz-adv-x="585" vert-adv-y="1000"  />

      
      <glyph glyph-name="uniea" unicode="&#xea;" d="M295-10Q183-10 111 63.50Q39 137 39 250Q39 363 110 436.50Q181 510 296 510Q412 510 483 429.50Q554 349 546 223L148 223Q150 165 192 126Q234 87 299 87Q391 87 425 157L540 157Q517 84 452 37Q387-10 295-10M293 418Q239 418 200.50 387.50Q162 357 151 301L428 301Q416 359 379 388.50Q342 418 293 418M298 756L464 656L464 563L298 662L132 563L132 656L298 756Z"  horiz-adv-x="585" vert-adv-y="1000"  />

      
      <glyph glyph-name="unieb" unicode="&#xeb;" d="M295-10Q183-10 111 63.50Q39 137 39 250Q39 363 110 436.50Q181 510 296 510Q412 510 483 429.50Q554 349 546 223L148 223Q150 165 192 126Q234 87 299 87Q391 87 425 157L540 157Q517 84 452 37Q387-10 295-10M293 418Q239 418 200.50 387.50Q162 357 151 301L428 301Q416 359 379 388.50Q342 418 293 418M184 587Q156 587 136.50 606.50Q117 626 117 653Q117 681 136.50 700.50Q156 720 184 720Q211 720 230 700.50Q249 681 249 653Q249 626 230 606.50Q211 587 184 587M413 587Q386 587 366.50 606.50Q347 626 347 653Q347 681 366.50 700.50Q386 720 413 720Q441 720 460 700.50Q479 681 479 653Q479 626 460 606.50Q441 587 413 587Z"  horiz-adv-x="585" vert-adv-y="1000"  />

      
      <glyph glyph-name="uniec" unicode="&#xec;" d="M74 0L74 500L184 500L184 0L74 0M86 560L-62 750L71 750L171 560L86 560Z"  horiz-adv-x="258" vert-adv-y="1000"  />

      
      <glyph glyph-name="unied" unicode="&#xed;" d="M74 0L74 500L184 500L184 0L74 0M91 560L191 750L324 750L176 560L91 560Z"  horiz-adv-x="258" vert-adv-y="1000"  />

      
      <glyph glyph-name="uniee" unicode="&#xee;" d="M74 0L74 500L184 500L184 0L74 0M129 756L295 656L295 563L129 662L-37 563L-37 656L129 756Z"  horiz-adv-x="258" vert-adv-y="1000"  />

      
      <glyph glyph-name="unief" unicode="&#xef;" d="M74 0L74 500L184 500L184 0L74 0M80 607Q80 607 70 597Q60 587 32 587Q4 587-15.50 607Q-35 627-35 655Q-35 683-15.50 702.50Q4 722 32 722Q60 722 80 702.50Q100 683 100 655Q100 627 80 607M273 607Q273 607 263 597Q253 587 225 587Q197 587 177.50 607Q158 627 158 655Q158 683 177.50 702.50Q197 722 225 722Q253 722 273 702.50Q293 683 293 655Q293 627 273 607Z"  horiz-adv-x="258" vert-adv-y="1000"  />

      
      <glyph glyph-name="unif0" unicode="&#xf0;" d="M470 569L403 569L511 407Q563 328 563 250Q563 142 487 66Q411-10 300-10Q190-10 114 66Q38 142 38 250Q38 362 115.50 435Q193 508 293 508Q300 508 322 506L280 569L141 569L141 647L229 647L161 750L282 750L351 647L470 647L470 569M192 137Q192 137 213 114.50Q234 92 300 92Q366 92 408.50 137.50Q451 183 451 250Q451 317 408.50 362.50Q366 408 300 408Q234 408 192 363Q150 318 150 250Q150 182 192 137Z"  horiz-adv-x="601" vert-adv-y="1000"  />

      
      <glyph glyph-name="unif1" unicode="&#xf1;" d="M74 0L74 500L184 500L184 432Q231 510 336 510Q423 510 475 453Q527 396 527 301L527 0L417 0L417 283Q417 343 389 376.50Q361 410 313 410Q256 410 220 367Q184 324 184 246L184 0L74 0M119 583L123 605Q131 652 161.50 679.50Q192 707 234 707Q265 707 308.50 684.50Q352 662 364 662Q396 662 408 708L480 708L476 686Q468 639 437.50 611Q407 583 365 583Q334 583 290.50 605.50Q247 628 235 628Q217 628 207 617.50Q197 607 191 583L119 583Z"  horiz-adv-x="594" vert-adv-y="1000"  />

      
      <glyph glyph-name="unif2" unicode="&#xf2;" d="M486.50 65.50Q486.50 65.50 448.75 27.75Q411-10 300-10Q189-10 113.50 65.50Q38 141 38 250Q38 359 113.50 434.50Q189 510 300 510Q411 510 486.50 434.50Q562 359 562 250Q562 141 486.50 65.50M300 92Q365 92 407.50 137.50Q450 183 450 250Q450 317 407.50 362.50Q365 408 300 408Q234 408 191.50 362.50Q149 317 149 250Q149 183 191.50 137.50Q234 92 300 92M256 560L108 750L241 750L341 560L256 560Z"  horiz-adv-x="599" vert-adv-y="1000"  />

      
      <glyph glyph-name="unif3" unicode="&#xf3;" d="M486.50 65.50Q486.50 65.50 448.75 27.75Q411-10 300-10Q189-10 113.50 65.50Q38 141 38 250Q38 359 113.50 434.50Q189 510 300 510Q411 510 486.50 434.50Q562 359 562 250Q562 141 486.50 65.50M300 92Q365 92 407.50 137.50Q450 183 450 250Q450 317 407.50 362.50Q365 408 300 408Q234 408 191.50 362.50Q149 317 149 250Q149 183 191.50 137.50Q234 92 300 92M261 560L361 750L494 750L346 560L261 560Z"  horiz-adv-x="599" vert-adv-y="1000"  />

      
      <glyph glyph-name="unif4" unicode="&#xf4;" d="M486.50 65.50Q486.50 65.50 448.75 27.75Q411-10 300-10Q189-10 113.50 65.50Q38 141 38 250Q38 359 113.50 434.50Q189 510 300 510Q411 510 486.50 434.50Q562 359 562 250Q562 141 486.50 65.50M300 92Q365 92 407.50 137.50Q450 183 450 250Q450 317 407.50 362.50Q365 408 300 408Q234 408 191.50 362.50Q149 317 149 250Q149 183 191.50 137.50Q234 92 300 92M300 756L466 656L466 563L300 662L134 563L134 656L300 756Z"  horiz-adv-x="599" vert-adv-y="1000"  />

      
      <glyph glyph-name="unif5" unicode="&#xf5;" d="M486.50 65.50Q486.50 65.50 448.75 27.75Q411-10 300-10Q189-10 113.50 65.50Q38 141 38 250Q38 359 113.50 434.50Q189 510 300 510Q411 510 486.50 434.50Q562 359 562 250Q562 141 486.50 65.50M300 92Q365 92 407.50 137.50Q450 183 450 250Q450 317 407.50 362.50Q365 408 300 408Q234 408 191.50 362.50Q149 317 149 250Q149 183 191.50 137.50Q234 92 300 92M119 583L123 605Q131 652 161.50 679.50Q192 707 234 707Q265 707 308.50 684.50Q352 662 364 662Q396 662 408 708L480 708L476 686Q468 639 437.50 611Q407 583 365 583Q334 583 290.50 605.50Q247 628 235 628Q217 628 207 617.50Q197 607 191 583L119 583Z"  horiz-adv-x="599" vert-adv-y="1000"  />

      
      <glyph glyph-name="unif6" unicode="&#xf6;" d="M486.50 65.50Q486.50 65.50 448.75 27.75Q411-10 300-10Q189-10 113.50 65.50Q38 141 38 250Q38 359 113.50 434.50Q189 510 300 510Q411 510 486.50 434.50Q562 359 562 250Q562 141 486.50 65.50M300 92Q365 92 407.50 137.50Q450 183 450 250Q450 317 407.50 362.50Q365 408 300 408Q234 408 191.50 362.50Q149 317 149 250Q149 183 191.50 137.50Q234 92 300 92M186 587Q158 587 138.50 606.50Q119 626 119 653Q119 681 138.50 700.50Q158 720 186 720Q213 720 232 700.50Q251 681 251 653Q251 626 232 606.50Q213 587 186 587M415 587Q388 587 368.50 606.50Q349 626 349 653Q349 681 368.50 700.50Q388 720 415 720Q443 720 462 700.50Q481 681 481 653Q481 626 462 606.50Q443 587 415 587Z"  horiz-adv-x="599" vert-adv-y="1000"  />

      
      <glyph glyph-name="unif8" unicode="&#xf8;" d="M491.50 65.50Q491.50 65.50 453.75 27.75Q416-10 305-10Q194-10 118.50 65.50Q43 141 43 250Q43 359 118.50 434.50Q194 510 305 510Q416 510 491.50 434.50Q567 359 567 250Q567 141 491.50 65.50M305 92Q370 92 412.50 137.50Q455 183 455 250Q455 317 412.50 362.50Q370 408 305 408Q239 408 196.50 362.50Q154 317 154 250Q154 183 196.50 137.50Q239 92 305 92M561 468L89-10L47 33L519 510L561 468Z"  horiz-adv-x="608" vert-adv-y="1000"  />

      
      <glyph glyph-name="unif9" unicode="&#xf9;" d="M253-10Q167-10 117 47.50Q67 105 67 201L67 500L177 500L177 219Q177 159 203 124.50Q229 90 277 90Q333 90 366 132.50Q399 175 399 254L399 500L509 500L509 0L399 0L399 68Q355-10 253-10M244 560L96 750L229 750L329 560L244 560Z"  horiz-adv-x="583" vert-adv-y="1000"  />

      
      <glyph glyph-name="unifa" unicode="&#xfa;" d="M253-10Q167-10 117 47.50Q67 105 67 201L67 500L177 500L177 219Q177 159 203 124.50Q229 90 277 90Q333 90 366 132.50Q399 175 399 254L399 500L509 500L509 0L399 0L399 68Q355-10 253-10M250 560L350 750L483 750L335 560L250 560Z"  horiz-adv-x="583" vert-adv-y="1000"  />

      
      <glyph glyph-name="unifb" unicode="&#xfb;" d="M253-10Q167-10 117 47.50Q67 105 67 201L67 500L177 500L177 219Q177 159 203 124.50Q229 90 277 90Q333 90 366 132.50Q399 175 399 254L399 500L509 500L509 0L399 0L399 68Q355-10 253-10M288 756L454 656L454 563L288 662L122 563L122 656L288 756Z"  horiz-adv-x="583" vert-adv-y="1000"  />

      
      <glyph glyph-name="unifc" unicode="&#xfc;" d="M253-10Q167-10 117 47.50Q67 105 67 201L67 500L177 500L177 219Q177 159 203 124.50Q229 90 277 90Q333 90 366 132.50Q399 175 399 254L399 500L509 500L509 0L399 0L399 68Q355-10 253-10M174 587Q146 587 126.50 606.50Q107 626 107 653Q107 681 126.50 700.50Q146 720 174 720Q201 720 220 700.50Q239 681 239 653Q239 626 220 606.50Q201 587 174 587M403 587Q376 587 356.50 606.50Q337 626 337 653Q337 681 356.50 700.50Q376 720 403 720Q431 720 450 700.50Q469 681 469 653Q469 626 450 606.50Q431 587 403 587Z"  horiz-adv-x="583" vert-adv-y="1000"  />

      
      <glyph glyph-name="unifd" unicode="&#xfd;" d="M234-209L113-209L220 27L5 500L126 500L279 146L433 500L555 500L234-209M243 560L343 750L476 750L328 560L243 560Z"  horiz-adv-x="558" vert-adv-y="1000"  />

      
      <glyph glyph-name="unife" unicode="&#xfe;" d="M184-209L74-209L74 750L184 750L184 433Q207 465 250.50 487.50Q294 510 345 510Q447 510 516.50 434Q586 358 586 250Q586 142 516.50 66Q447-10 345-10Q294-10 250.50 12.50Q207 35 184 67L184-209M325 90Q390 90 432 136Q474 182 474 250Q474 318 432 364Q390 410 325 410Q259 410 217 364Q175 318 175 250Q175 182 217 136Q259 90 325 90Z"  horiz-adv-x="624" vert-adv-y="1000"  />

      
      <glyph glyph-name="uniff" unicode="&#xff;" d="M234-209L113-209L220 27L5 500L126 500L279 146L433 500L555 500L234-209M167 587Q139 587 119.50 606.50Q100 626 100 653Q100 681 119.50 700.50Q139 720 167 720Q194 720 213 700.50Q232 681 232 653Q232 626 213 606.50Q194 587 167 587M396 587Q369 587 349.50 606.50Q330 626 330 653Q330 681 349.50 700.50Q369 720 396 720Q424 720 443 700.50Q462 681 462 653Q462 626 443 606.50Q424 587 396 587Z"  horiz-adv-x="558" vert-adv-y="1000"  />

      
      <glyph glyph-name="uni0100" unicode="&#x0100;" d="M4 0L314 710L416 710L726 0L604 0L523 186L205 186L125 0L4 0M364 552L250 290L478 290L364 552M199 798L199 880L531 880L531 798L199 798Z"  horiz-adv-x="730" vert-adv-y="1000"  />

      
      <glyph glyph-name="uni0101" unicode="&#x0101;" d="M279-10Q177-10 107.50 66Q38 142 38 250Q38 358 107.50 434Q177 510 279 510Q330 510 373 487.50Q416 465 439 433L439 500L549 500L549 0L439 0L439 67Q416 35 373 12.50Q330-10 279-10M192 136Q192 136 213 113Q234 90 299 90Q364 90 406 136Q448 182 448 250Q448 318 406 364Q364 410 299 410Q234 410 192 364Q150 318 150 250Q150 182 192 136M154 628L154 710L486 710L486 628L154 628Z"  horiz-adv-x="624" vert-adv-y="1000"  />

      
      <glyph glyph-name="uni0102" unicode="&#x0102;" d="M4 0L314 710L416 710L726 0L604 0L523 186L205 186L125 0L4 0M364 552L250 290L478 290L364 552M483.50 800.50Q483.50 800.50 459.75 777.75Q436 755 365 755Q294 755 246.50 800.50Q199 846 199 921L267 921Q267 875 294.50 849Q322 823 365 823Q408 823 435.50 849Q463 875 463 921L531 921Q531 846 483.50 800.50Z"  horiz-adv-x="730" vert-adv-y="1000"  />

      
      <glyph glyph-name="uni0103" unicode="&#x0103;" d="M279-10Q177-10 107.50 66Q38 142 38 250Q38 358 107.50 434Q177 510 279 510Q330 510 373 487.50Q416 465 439 433L439 500L549 500L549 0L439 0L439 67Q416 35 373 12.50Q330-10 279-10M192 136Q192 136 213 113Q234 90 299 90Q364 90 406 136Q448 182 448 250Q448 318 406 364Q364 410 299 410Q234 410 192 364Q150 318 150 250Q150 182 192 136M438.50 614.50Q438.50 614.50 414.75 591.75Q391 569 320 569Q249 569 201.50 614.50Q154 660 154 735L154 750L222 750L222 735Q222 688 249.50 662Q277 636 320 636Q363 636 390.50 662Q418 688 418 735L418 750L486 750L486 735Q486 660 438.50 614.50Z"  horiz-adv-x="624" vert-adv-y="1000"  />

      
      <glyph glyph-name="uni0104" unicode="&#x0104;" d="M4 0L314 710L416 710L726 0Q637-49 637-101Q637-130 673-130Q705-130 726-111L726-192Q693-219 635-219Q590-219 561.50-193Q533-167 533-125Q533-56 604 0L523 186L205 186L125 0L4 0M364 552L250 290L478 290L364 552Z"  horiz-adv-x="730" vert-adv-y="1000"  />

      
      <glyph glyph-name="uni0105" unicode="&#x0105;" d="M279-10Q177-10 107.50 66Q38 142 38 250Q38 358 107.50 434Q177 510 279 510Q330 510 373 487.50Q416 465 439 433L439 500L549 500L549 0L439 0L439 67Q416 35 373 12.50Q330-10 279-10M192 136Q192 136 213 113Q234 90 299 90Q364 90 406 136Q448 182 448 250Q448 318 406 364Q364 410 299 410Q234 410 192 364Q150 318 150 250Q150 182 192 136M462-219Q417-219 389.50-193Q362-167 362-126Q362-62 439 0L549 0Q459-50 459-104Q459-138 496-138Q524-138 549-119L549-192Q516-219 462-219Z"  horiz-adv-x="624" vert-adv-y="1000"  />

      
      <glyph glyph-name="uni0106" unicode="&#x0106;" d="M412-12Q253-12 147.50 93.50Q42 199 42 355Q42 511 147.50 616.50Q253 722 412 722Q538 722 632.50 650.50Q727 579 754 472L628 472Q605 533 546 571Q487 609 412 609Q302 609 231 536Q160 463 160 355Q160 247 231 174Q302 101 412 101Q487 101 546 139Q605 177 628 238L754 238Q727 131 632.50 59.50Q538-12 412-12M372 770L447 927L576 927L458 770L372 770Z"  horiz-adv-x="785" vert-adv-y="1000"  />

      
      <glyph glyph-name="uni0107" unicode="&#x0107;" d="M300-10Q187-10 112.50 65.50Q38 141 38 250Q38 359 112.50 434.50Q187 510 300 510Q397 510 465.50 456Q534 402 554 317L438 317Q423 359 386.50 384.50Q350 410 300 410Q234 410 192 365Q150 320 150 250Q150 180 192 135Q234 90 300 90Q350 90 386.50 115.50Q423 141 438 183L554 183Q534 98 465.50 44Q397-10 300-10M263 560L363 750L496 750L348 560L263 560Z"  horiz-adv-x="584" vert-adv-y="1000"  />

      
      <glyph glyph-name="uni0108" unicode="&#x0108;" d="M412-12Q253-12 147.50 93.50Q42 199 42 355Q42 511 147.50 616.50Q253 722 412 722Q538 722 632.50 650.50Q727 579 754 472L628 472Q605 533 546 571Q487 609 412 609Q302 609 231 536Q160 463 160 355Q160 247 231 174Q302 101 412 101Q487 101 546 139Q605 177 628 238L754 238Q727 131 632.50 59.50Q538-12 412-12M237 766L237 858L407 938L577 858L577 766L407 846L237 766Z"  horiz-adv-x="785" vert-adv-y="1000"  />

      
      <glyph glyph-name="uni0109" unicode="&#x0109;" d="M300-10Q187-10 112.50 65.50Q38 141 38 250Q38 359 112.50 434.50Q187 510 300 510Q397 510 465.50 456Q534 402 554 317L438 317Q423 359 386.50 384.50Q350 410 300 410Q234 410 192 365Q150 320 150 250Q150 180 192 135Q234 90 300 90Q350 90 386.50 115.50Q423 141 438 183L554 183Q534 98 465.50 44Q397-10 300-10M302 756L468 656L468 563L302 662L136 563L136 656L302 756Z"  horiz-adv-x="584" vert-adv-y="1000"  />

      
      <glyph glyph-name="uni010A" unicode="&#x010A;" d="M412-12Q253-12 147.50 93.50Q42 199 42 355Q42 511 147.50 616.50Q253 722 412 722Q538 722 632.50 650.50Q727 579 754 472L628 472Q605 533 546 571Q487 609 412 609Q302 609 231 536Q160 463 160 355Q160 247 231 174Q302 101 412 101Q487 101 546 139Q605 177 628 238L754 238Q727 131 632.50 59.50Q538-12 412-12M407 779Q379 779 359.50 798.50Q340 818 340 845Q340 873 359.50 892.50Q379 912 407 912Q434 912 453.50 892.50Q473 873 473 845Q473 818 453.50 798.50Q434 779 407 779Z"  horiz-adv-x="785" vert-adv-y="1000"  />

      
      <glyph glyph-name="uni010B" unicode="&#x010B;" d="M300-10Q187-10 112.50 65.50Q38 141 38 250Q38 359 112.50 434.50Q187 510 300 510Q397 510 465.50 456Q534 402 554 317L438 317Q423 359 386.50 384.50Q350 410 300 410Q234 410 192 365Q150 320 150 250Q150 180 192 135Q234 90 300 90Q350 90 386.50 115.50Q423 141 438 183L554 183Q534 98 465.50 44Q397-10 300-10M302 587Q274 587 254.50 606.50Q235 626 235 653Q235 681 254.50 700.50Q274 720 302 720Q329 720 348.50 700.50Q368 681 368 653Q368 626 348.50 606.50Q329 587 302 587Z"  horiz-adv-x="584" vert-adv-y="1000"  />

      
      <glyph glyph-name="uni010C" unicode="&#x010C;" d="M412-12Q253-12 147.50 93.50Q42 199 42 355Q42 511 147.50 616.50Q253 722 412 722Q538 722 632.50 650.50Q727 579 754 472L628 472Q605 533 546 571Q487 609 412 609Q302 609 231 536Q160 463 160 355Q160 247 231 174Q302 101 412 101Q487 101 546 139Q605 177 628 238L754 238Q727 131 632.50 59.50Q538-12 412-12M407 766L237 846L237 938L407 858L577 938L577 846L407 766Z"  horiz-adv-x="785" vert-adv-y="1000"  />

      
      <glyph glyph-name="uni010D" unicode="&#x010D;" d="M300-10Q187-10 112.50 65.50Q38 141 38 250Q38 359 112.50 434.50Q187 510 300 510Q397 510 465.50 456Q534 402 554 317L438 317Q423 359 386.50 384.50Q350 410 300 410Q234 410 192 365Q150 320 150 250Q150 180 192 135Q234 90 300 90Q350 90 386.50 115.50Q423 141 438 183L554 183Q534 98 465.50 44Q397-10 300-10M302 563L136 662L136 756L302 656L468 756L468 662L302 563Z"  horiz-adv-x="584" vert-adv-y="1000"  />

      
      <glyph glyph-name="uni010E" unicode="&#x010E;" d="M87 0L87 710L305 710Q463 710 570 608Q677 506 677 355Q677 204 570 102Q463 0 305 0L87 0M204 109L305 109Q417 109 487.50 179Q558 249 558 355Q558 461 487.50 531Q417 601 305 601L204 601L204 109M340 766L170 846L170 938L340 858L510 938L510 846L340 766Z"  horiz-adv-x="719" vert-adv-y="1000"  />

      
      <glyph glyph-name="uni010F" unicode="&#x010F;" d="M279-10Q177-10 107.50 66Q38 142 38 250Q38 358 107.50 434Q177 510 279 510Q330 510 373 487.50Q416 465 439 433L439 750L549 750L549 0L439 0L439 67Q416 35 373 12.50Q330-10 279-10M192 136Q192 136 213 113Q234 90 299 90Q364 90 406 136Q448 182 448 250Q448 318 406 364Q364 410 299 410Q234 410 192 364Q150 318 150 250Q150 182 192 136M578 587L600 750L710 750L653 587L578 587Z"  horiz-adv-x="624" vert-adv-y="1000"  />

      
      <glyph glyph-name="uni0110" unicode="&#x0110;" d="M98 0L98 710L316 710Q474 710 581 608Q688 506 688 355Q688 204 581 102Q474 0 316 0L98 0M215 109L316 109Q428 109 498.50 179Q569 249 569 355Q569 461 498.50 531Q428 601 316 601L215 601L215 109M25 308L25 410L360 410L360 308L25 308Z"  horiz-adv-x="730" vert-adv-y="1000"  />

      
      <glyph glyph-name="uni0111" unicode="&#x0111;" d="M279-10Q177-10 107.50 66Q38 142 38 250Q38 358 107.50 434Q177 510 279 510Q330 510 373 487.50Q416 465 439 433L439 750L549 750L549 0L439 0L439 67Q416 35 373 12.50Q330-10 279-10M192 136Q192 136 213 113Q234 90 299 90Q364 90 406 136Q448 182 448 250Q448 318 406 364Q364 410 299 410Q234 410 192 364Q150 318 150 250Q150 182 192 136M616 572L286 572L286 650L616 650L616 572Z"  horiz-adv-x="624" vert-adv-y="1000"  />

      
      <glyph glyph-name="uni0112" unicode="&#x0112;" d="M87 0L87 710L514 710L514 598L204 598L204 416L454 416L454 304L204 304L204 112L514 112L514 0L87 0M134 798L134 880L466 880L466 798L134 798Z"  horiz-adv-x="562" vert-adv-y="1000"  />

      
      <glyph glyph-name="uni0113" unicode="&#x0113;" d="M295-10Q183-10 111 63.50Q39 137 39 250Q39 363 110 436.50Q181 510 296 510Q412 510 483 429.50Q554 349 546 223L148 223Q150 165 192 126Q234 87 299 87Q391 87 425 157L540 157Q517 84 452 37Q387-10 295-10M293 418Q239 418 200.50 387.50Q162 357 151 301L428 301Q416 359 379 388.50Q342 418 293 418M132 628L132 710L464 710L464 628L132 628Z"  horiz-adv-x="585" vert-adv-y="1000"  />

      
      <glyph glyph-name="uni0114" unicode="&#x0114;" d="M87 0L87 710L514 710L514 598L204 598L204 416L454 416L454 304L204 304L204 112L514 112L514 0L87 0M418.50 800.50Q418.50 800.50 394.75 777.75Q371 755 300 755Q229 755 181.50 800.50Q134 846 134 921L202 921Q202 875 229.50 849Q257 823 300 823Q343 823 370.50 849Q398 875 398 921L466 921Q466 846 418.50 800.50Z"  horiz-adv-x="562" vert-adv-y="1000"  />

      
      <glyph glyph-name="uni0115" unicode="&#x0115;" d="M295-10Q183-10 111 63.50Q39 137 39 250Q39 363 110 436.50Q181 510 296 510Q412 510 483 429.50Q554 349 546 223L148 223Q150 165 192 126Q234 87 299 87Q391 87 425 157L540 157Q517 84 452 37Q387-10 295-10M293 418Q239 418 200.50 387.50Q162 357 151 301L428 301Q416 359 379 388.50Q342 418 293 418M416.50 614.50Q416.50 614.50 392.75 591.75Q369 569 298 569Q227 569 179.50 614.50Q132 660 132 735L132 750L200 750L200 735Q200 688 227.50 662Q255 636 298 636Q341 636 368.50 662Q396 688 396 735L396 750L464 750L464 735Q464 660 416.50 614.50Z"  horiz-adv-x="585" vert-adv-y="1000"  />

      
      <glyph glyph-name="uni0116" unicode="&#x0116;" d="M87 0L87 710L514 710L514 598L204 598L204 416L454 416L454 304L204 304L204 112L514 112L514 0L87 0M300 779Q272 779 252.50 798.50Q233 818 233 845Q233 873 252.50 892.50Q272 912 300 912Q327 912 346.50 892.50Q366 873 366 845Q366 818 346.50 798.50Q327 779 300 779Z"  horiz-adv-x="562" vert-adv-y="1000"  />

      
      <glyph glyph-name="uni0117" unicode="&#x0117;" d="M295-10Q183-10 111 63.50Q39 137 39 250Q39 363 110 436.50Q181 510 296 510Q412 510 483 429.50Q554 349 546 223L148 223Q150 165 192 126Q234 87 299 87Q391 87 425 157L540 157Q517 84 452 37Q387-10 295-10M293 418Q239 418 200.50 387.50Q162 357 151 301L428 301Q416 359 379 388.50Q342 418 293 418M298 587Q270 587 250.50 606.50Q231 626 231 653Q231 681 250.50 700.50Q270 720 298 720Q325 720 344.50 700.50Q364 681 364 653Q364 626 344.50 606.50Q325 587 298 587Z"  horiz-adv-x="585" vert-adv-y="1000"  />

      
      <glyph glyph-name="uni0118" unicode="&#x0118;" d="M87 0L87 710L514 710L514 598L204 598L204 416L454 416L454 304L204 304L204 112L514 112L514 0L87 0M424-219Q379-219 350-193Q321-167 321-125Q321-60 397 0L514 0Q425-49 425-101Q425-130 461-130Q493-130 514-111L514-192Q481-219 424-219Z"  horiz-adv-x="562" vert-adv-y="1000"  />

      
      <glyph glyph-name="uni0119" unicode="&#x0119;" d="M425 157L540 157Q530 127 505 88Q431-32 431-92Q431-113 444-125.50Q457-138 479-138Q508-138 530-119L530-192Q495-219 442-219Q394-219 364-191Q334-163 334-119Q334-63 383 3Q340-10 295-10Q183-10 111 63.50Q39 137 39 250Q39 363 110 436.50Q181 510 296 510Q412 510 483 429.50Q554 349 546 223L148 223Q150 165 192 126Q234 87 299 87Q391 87 425 157M293 418Q239 418 200.50 387.50Q162 357 151 301L428 301Q416 359 379 388.50Q342 418 293 418Z"  horiz-adv-x="586" vert-adv-y="1000"  />

      
      <glyph glyph-name="uni011A" unicode="&#x011A;" d="M87 0L87 710L514 710L514 598L204 598L204 416L454 416L454 304L204 304L204 112L514 112L514 0L87 0M300 766L130 846L130 938L300 858L470 938L470 846L300 766Z"  horiz-adv-x="562" vert-adv-y="1000"  />

      
      <glyph glyph-name="uni011B" unicode="&#x011B;" d="M295-10Q183-10 111 63.50Q39 137 39 250Q39 363 110 436.50Q181 510 296 510Q412 510 483 429.50Q554 349 546 223L148 223Q150 165 192 126Q234 87 299 87Q391 87 425 157L540 157Q517 84 452 37Q387-10 295-10M293 418Q239 418 200.50 387.50Q162 357 151 301L428 301Q416 359 379 388.50Q342 418 293 418M298 563L132 662L132 756L298 656L464 756L464 662L298 563Z"  horiz-adv-x="585" vert-adv-y="1000"  />

      
      <glyph glyph-name="uni011C" unicode="&#x011C;" d="M413-12Q254-12 148 93.50Q42 199 42 355Q42 511 147.50 616.50Q253 722 412 722Q529 722 621 659Q713 596 748 500L615 500Q587 549 532.50 579Q478 609 412 609Q302 609 231 536Q160 463 160 355Q160 247 231 174Q302 101 413 101Q510 101 572 157Q634 213 646 305L403 305L403 415L766 415Q785 217 681.50 102.50Q578-12 413-12M242 766L242 858L412 938L582 858L582 766L412 846L242 766Z"  horiz-adv-x="811" vert-adv-y="1000"  />

      
      <glyph glyph-name="uni011D" unicode="&#x011D;" d="M300-219Q198-219 132.50-169Q67-119 57-39L165-39Q194-125 303-125Q362-125 400.50-86.50Q439-48 439 22L439 81Q415 47 372 25Q329 3 279 3Q178 3 108.50 76.50Q39 150 39 257Q39 363 108.50 436.50Q178 510 279 510Q329 510 372 488.50Q415 467 439 433L439 500L549 500L549 31Q549-93 478.50-156Q408-219 300-219M193 147.50Q193 147.50 214.50 125.75Q236 104 299 104Q362 104 405 147.50Q448 191 448 257Q448 323 405 366.50Q362 410 299 410Q236 410 193 366.50Q150 323 150 257Q150 191 193 147.50M313 756L479 656L479 563L313 662L147 563L147 656L313 756Z"  horiz-adv-x="623" vert-adv-y="1000"  />

      
      <glyph glyph-name="uni011E" unicode="&#x011E;" d="M413-12Q254-12 148 93.50Q42 199 42 355Q42 511 147.50 616.50Q253 722 412 722Q529 722 621 659Q713 596 748 500L615 500Q587 549 532.50 579Q478 609 412 609Q302 609 231 536Q160 463 160 355Q160 247 231 174Q302 101 413 101Q510 101 572 157Q634 213 646 305L403 305L403 415L766 415Q785 217 681.50 102.50Q578-12 413-12M530.50 800.50Q530.50 800.50 506.75 777.75Q483 755 412 755Q341 755 293.50 800.50Q246 846 246 921L314 921Q314 875 341.50 849Q369 823 412 823Q455 823 482.50 849Q510 875 510 921L578 921Q578 846 530.50 800.50Z"  horiz-adv-x="811" vert-adv-y="1000"  />

      
      <glyph glyph-name="uni011F" unicode="&#x011F;" d="M300-219Q198-219 132.50-169Q67-119 57-39L165-39Q194-125 303-125Q362-125 400.50-86.50Q439-48 439 22L439 81Q415 47 372 25Q329 3 279 3Q178 3 108.50 76.50Q39 150 39 257Q39 363 108.50 436.50Q178 510 279 510Q329 510 372 488.50Q415 467 439 433L439 500L549 500L549 31Q549-93 478.50-156Q408-219 300-219M193 147.50Q193 147.50 214.50 125.75Q236 104 299 104Q362 104 405 147.50Q448 191 448 257Q448 323 405 366.50Q362 410 299 410Q236 410 193 366.50Q150 323 150 257Q150 191 193 147.50M431.50 614.50Q431.50 614.50 407.75 591.75Q384 569 313 569Q242 569 194.50 614.50Q147 660 147 735L147 750L215 750L215 735Q215 688 242.50 662Q270 636 313 636Q356 636 383.50 662Q411 688 411 735L411 750L479 750L479 735Q479 660 431.50 614.50Z"  horiz-adv-x="623" vert-adv-y="1000"  />

      
      <glyph glyph-name="uni0120" unicode="&#x0120;" d="M413-12Q254-12 148 93.50Q42 199 42 355Q42 511 147.50 616.50Q253 722 412 722Q529 722 621 659Q713 596 748 500L615 500Q587 549 532.50 579Q478 609 412 609Q302 609 231 536Q160 463 160 355Q160 247 231 174Q302 101 413 101Q510 101 572 157Q634 213 646 305L403 305L403 415L766 415Q785 217 681.50 102.50Q578-12 413-12M412 779Q384 779 364.50 798.50Q345 818 345 845Q345 873 364.50 892.50Q384 912 412 912Q439 912 458.50 892.50Q478 873 478 845Q478 818 458.50 798.50Q439 779 412 779Z"  horiz-adv-x="811" vert-adv-y="1000"  />

      
      <glyph glyph-name="uni0121" unicode="&#x0121;" d="M300-219Q198-219 132.50-169Q67-119 57-39L165-39Q194-125 303-125Q362-125 400.50-86.50Q439-48 439 22L439 81Q415 47 372 25Q329 3 279 3Q178 3 108.50 76.50Q39 150 39 257Q39 363 108.50 436.50Q178 510 279 510Q329 510 372 488.50Q415 467 439 433L439 500L549 500L549 31Q549-93 478.50-156Q408-219 300-219M193 147.50Q193 147.50 214.50 125.75Q236 104 299 104Q362 104 405 147.50Q448 191 448 257Q448 323 405 366.50Q362 410 299 410Q236 410 193 366.50Q150 323 150 257Q150 191 193 147.50M313 587Q285 587 265.50 606.50Q246 626 246 653Q246 681 265.50 700.50Q285 720 313 720Q340 720 359.50 700.50Q379 681 379 653Q379 626 359.50 606.50Q340 587 313 587Z"  horiz-adv-x="623" vert-adv-y="1000"  />

      
      <glyph glyph-name="uni0122" unicode="&#x0122;" d="M413-12Q254-12 148 93.50Q42 199 42 355Q42 511 147.50 616.50Q253 722 412 722Q529 722 621 659Q713 596 748 500L615 500Q587 549 532.50 579Q478 609 412 609Q302 609 231 536Q160 463 160 355Q160 247 231 174Q302 101 413 101Q510 101 572 157Q634 213 646 305L403 305L403 415L766 415Q785 217 681.50 102.50Q578-12 413-12M345-287L384-197Q346-177 346-137Q346-110 365-90.50Q384-71 412-71Q439-71 458.50-90.50Q478-110 478-137Q478-159 465-178L397-287L345-287Z"  horiz-adv-x="811" vert-adv-y="1000"  />

      
      <glyph glyph-name="uni0123" unicode="&#x0123;" d="M300-219Q198-219 132.50-169Q67-119 57-39L165-39Q194-125 303-125Q362-125 400.50-86.50Q439-48 439 22L439 81Q415 47 372 25Q329 3 279 3Q178 3 108.50 76.50Q39 150 39 257Q39 363 108.50 436.50Q178 510 279 510Q329 510 372 488.50Q415 467 439 433L439 500L549 500L549 31Q549-93 478.50-156Q408-219 300-219M193 147.50Q193 147.50 214.50 125.75Q236 104 299 104Q362 104 405 147.50Q448 191 448 257Q448 323 405 366.50Q362 410 299 410Q236 410 193 366.50Q150 323 150 257Q150 191 193 147.50M359.50 607Q359.50 607 349.75 597Q340 587 313 587Q286 587 266.50 607Q247 627 247 654Q247 675 260 694L328 803L380 803L341 713Q379 693 379 654Q379 627 359.50 607Z"  horiz-adv-x="623" vert-adv-y="1000"  />

      
      <glyph glyph-name="uni0124" unicode="&#x0124;" d="M87 0L87 710L204 710L204 416L555 416L555 710L672 710L672 0L555 0L555 305L204 305L204 0L87 0M210 766L210 858L380 938L550 858L550 766L380 846L210 766Z"  horiz-adv-x="760" vert-adv-y="1000"  />

      
      <glyph glyph-name="uni0125" unicode="&#x0125;" d="M184 0L74 0L74 750L184 750L184 432Q231 510 336 510Q423 510 475 453Q527 396 527 301L527 0L417 0L417 283Q417 343 389 376.50Q361 410 313 410Q256 410 220 367Q184 324 184 246L184 0M143 766L143 858L313 938L483 858L483 766L313 846L143 766Z"  horiz-adv-x="594" vert-adv-y="1000"  />

      
      <glyph glyph-name="uni0126" unicode="&#x0126;" d="M98 0L98 710L215 710L215 416L566 416L566 710L683 710L683 0L566 0L566 305L215 305L215 0L98 0M25 522L25 607L756 607L756 522L25 522Z"  horiz-adv-x="781" vert-adv-y="1000"  />

      
      <glyph glyph-name="uni0127" unicode="&#x0127;" d="M184 0L74 0L74 750L184 750L184 432Q231 510 336 510Q423 510 475 453Q527 396 527 301L527 0L417 0L417 283Q417 343 389 376.50Q361 410 313 410Q256 410 220 367Q184 324 184 246L184 0M337 572L7 572L7 650L337 650L337 572Z"  horiz-adv-x="594" vert-adv-y="1000"  />

      
      <glyph glyph-name="uni0128" unicode="&#x0128;" d="M87 0L87 710L204 710L204 0L87 0M-34 782L-31 804Q-23 851 8 879Q39 907 81 907Q111 907 154.50 884.50Q198 862 211 862Q244 862 254 907L326 907L323 885Q315 838 284 810.50Q253 783 211 783Q180 783 136.50 805.50Q93 828 81 828Q49 828 37 782L-34 782Z"  horiz-adv-x="291" vert-adv-y="1000"  />

      
      <glyph glyph-name="uni0129" unicode="&#x0129;" d="M74 0L74 500L184 500L184 0L74 0M-52 583L-48 605Q-40 652-9.50 679.50Q21 707 63 707Q94 707 137.50 684.50Q181 662 193 662Q225 662 237 708L309 708L305 686Q297 639 266.50 611Q236 583 194 583Q163 583 119.50 605.50Q76 628 64 628Q46 628 36 617.50Q26 607 20 583L-52 583Z"  horiz-adv-x="258" vert-adv-y="1000"  />

      
      <glyph glyph-name="uni012A" unicode="&#x012A;" d="M87 0L87 710L204 710L204 0L87 0M-20 798L-20 880L312 880L312 798L-20 798Z"  horiz-adv-x="291" vert-adv-y="1000"  />

      
      <glyph glyph-name="uni012B" unicode="&#x012B;" d="M74 0L74 500L184 500L184 0L74 0M-37 628L-37 710L295 710L295 628L-37 628Z"  horiz-adv-x="258" vert-adv-y="1000"  />

      
      <glyph glyph-name="uni012C" unicode="&#x012C;" d="M87 0L87 710L204 710L204 0L87 0M264.50 800.50Q264.50 800.50 240.75 777.75Q217 755 146 755Q75 755 27.50 800.50Q-20 846-20 921L48 921Q48 875 75.50 849Q103 823 146 823Q189 823 216.50 849Q244 875 244 921L312 921Q312 846 264.50 800.50Z"  horiz-adv-x="291" vert-adv-y="1000"  />

      
      <glyph glyph-name="uni012D" unicode="&#x012D;" d="M74 0L74 500L184 500L184 0L74 0M247.50 614.50Q247.50 614.50 223.75 591.75Q200 569 129 569Q58 569 10.50 614.50Q-37 660-37 735L-37 750L31 750L31 735Q31 688 58.50 662Q86 636 129 636Q172 636 199.50 662Q227 688 227 735L227 750L295 750L295 735Q295 660 247.50 614.50Z"  horiz-adv-x="258" vert-adv-y="1000"  />

      
      <glyph glyph-name="uni012E" unicode="&#x012E;" d="M87 0L87 710L204 710L204 0L87 0M114-219Q69-219 40-193Q11-167 11-125Q11-60 87 0L204 0Q115-49 115-101Q115-130 151-130Q183-130 204-111L204-192Q171-219 114-219Z"  horiz-adv-x="291" vert-adv-y="1000"  />

      
      <glyph glyph-name="uni012F" unicode="&#x012F;" d="M129 609Q99 609 77 630.50Q55 652 55 683Q55 713 77 734.50Q99 756 129 756Q160 756 181 734.50Q202 713 202 683Q202 652 181 630.50Q160 609 129 609M74 0L74 500L184 500L184 0L74 0M97-219Q52-219 24.50-193Q-3-167-3-126Q-3-62 74 0L184 0Q94-50 94-104Q94-138 131-138Q159-138 184-119L184-192Q151-219 97-219Z"  horiz-adv-x="258" vert-adv-y="1000"  />

      
      <glyph glyph-name="uni0130" unicode="&#x0130;" d="M87 0L87 710L204 710L204 0L87 0M146 779Q118 779 98.50 798.50Q79 818 79 845Q79 873 98.50 892.50Q118 912 146 912Q173 912 192.50 892.50Q212 873 212 845Q212 818 192.50 798.50Q173 779 146 779Z"  horiz-adv-x="291" vert-adv-y="1000"  />

      
      <glyph glyph-name="uni0131" unicode="&#x0131;" d="M74 0L74 500L184 500L184 0L74 0Z"  horiz-adv-x="258" vert-adv-y="1000"  />

      
      <glyph glyph-name="uni0134" unicode="&#x0134;" d="M239-12Q146-12 83.50 42.50Q21 97 21 197L137 197Q137 150 167 123.50Q197 97 239 97Q282 97 310.50 124Q339 151 339 205L339 710L456 710L456 195Q456 91 394.50 39.50Q333-12 239-12M227 766L227 858L397 938L567 858L567 766L397 846L227 766Z"  horiz-adv-x="537" vert-adv-y="1000"  />

      
      <glyph glyph-name="uni0135" unicode="&#x0135;" d="M192 500L192-53Q192-133 144.50-176Q97-219 24-219Q-4-219-23-216L-23-120Q-9-122 4-122Q82-122 82-37L82 500L192 500M137 756L303 656L303 563L137 662L-29 563L-29 656L137 756Z"  horiz-adv-x="266" vert-adv-y="1000"  />

      
      <glyph glyph-name="uni0136" unicode="&#x0136;" d="M548 0L203 332L203 0L87 0L87 710L203 710L203 404L488 710L636 710L320 370L706 0L548 0M308-287L347-197Q309-177 309-137Q309-110 328-90.50Q347-71 375-71Q402-71 421.50-90.50Q441-110 441-137Q441-159 428-178L360-287L308-287Z"  horiz-adv-x="682" vert-adv-y="1000"  />

      
      <glyph glyph-name="uni0137" unicode="&#x0137;" d="M423 0L184 241L184 0L74 0L74 750L184 750L184 310L375 500L514 500L291 277L564 0L423 0M236-287L275-197Q237-177 237-137Q237-110 256-90.50Q275-71 303-71Q330-71 349.50-90.50Q369-110 369-137Q369-159 356-178L288-287L236-287Z"  horiz-adv-x="547" vert-adv-y="1000"  />

      
      <glyph glyph-name="uni0139" unicode="&#x0139;" d="M87 0L87 710L204 710L204 112L529 112L529 0L87 0M112 770L187 927L316 927L198 770L112 770Z"  horiz-adv-x="549" vert-adv-y="1000"  />

      
      <glyph glyph-name="uni013A" unicode="&#x013A;" d="M74 0L74 750L184 750L184 0L74 0M91 810L191 1000L324 1000L176 810L91 810Z"  horiz-adv-x="258" vert-adv-y="1000"  />

      
      <glyph glyph-name="uni013B" unicode="&#x013B;" d="M87 0L87 710L204 710L204 112L529 112L529 0L87 0M238-287L277-197Q239-177 239-137Q239-110 258-90.50Q277-71 305-71Q332-71 351.50-90.50Q371-110 371-137Q371-159 358-178L290-287L238-287Z"  horiz-adv-x="549" vert-adv-y="1000"  />

      
      <glyph glyph-name="uni013C" unicode="&#x013C;" d="M74 0L74 750L184 750L184 0L74 0M62-287L101-197Q63-177 63-137Q63-110 82-90.50Q101-71 129-71Q156-71 175.50-90.50Q195-110 195-137Q195-159 182-178L114-287L62-287Z"  horiz-adv-x="258" vert-adv-y="1000"  />

      
      <glyph glyph-name="uni013D" unicode="&#x013D;" d="M87 0L87 710L204 710L204 112L529 112L529 0L87 0M291 587L313 750L423 750L366 587L291 587Z"  horiz-adv-x="550" vert-adv-y="1000"  />

      
      <glyph glyph-name="uni013E" unicode="&#x013E;" d="M74 0L74 750L184 750L184 0L74 0M213 587L235 750L345 750L288 587L213 587Z"  horiz-adv-x="258" vert-adv-y="1000"  />

      
      <glyph glyph-name="uni013F" unicode="&#x013F;" d="M87 0L87 710L204 710L204 112L529 112L529 0L87 0M420 345Q392 345 372.50 364.50Q353 384 353 411Q353 439 372.50 458.50Q392 478 420 478Q447 478 466.50 458.50Q486 439 486 411Q486 384 466.50 364.50Q447 345 420 345Z"  horiz-adv-x="555" vert-adv-y="1000"  />

      
      <glyph glyph-name="uni0140" unicode="&#x0140;" d="M74 0L74 750L184 750L184 0L74 0M326 308Q298 308 278.50 327.50Q259 347 259 374Q259 402 278.50 421.50Q298 441 326 441Q353 441 372.50 421.50Q392 402 392 374Q392 347 372.50 327.50Q353 308 326 308Z"  horiz-adv-x="393" vert-adv-y="1000"  />

      
      <glyph glyph-name="uni0141" unicode="&#x0141;" d="M110 0L110 710L227 710L227 112L552 112L552 0L110 0M376 421L38 213L38 312L376 520L376 421Z"  horiz-adv-x="573" vert-adv-y="1000"  />

      
      <glyph glyph-name="uni0142" unicode="&#x0142;" d="M113 0L113 750L223 750L223 0L113 0M300 409L37 248L37 339L300 501L300 409Z"  horiz-adv-x="334" vert-adv-y="1000"  />

      
      <glyph glyph-name="uni0143" unicode="&#x0143;" d="M706 0L604 0L204 511L204 0L87 0L87 710L189 710L588 200L588 710L706 710L706 0M359 770L434 927L563 927L445 770L359 770Z"  horiz-adv-x="793" vert-adv-y="1000"  />

      
      <glyph glyph-name="uni0144" unicode="&#x0144;" d="M74 0L74 500L184 500L184 432Q231 510 336 510Q423 510 475 453Q527 396 527 301L527 0L417 0L417 283Q417 343 389 376.50Q361 410 313 410Q256 410 220 367Q184 324 184 246L184 0L74 0M262 560L362 750L495 750L347 560L262 560Z"  horiz-adv-x="594" vert-adv-y="1000"  />

      
      <glyph glyph-name="uni0145" unicode="&#x0145;" d="M706 0L604 0L204 511L204 0L87 0L87 710L189 710L588 200L588 710L706 710L706 0M331-287L370-197Q332-177 332-137Q332-110 351-90.50Q370-71 398-71Q425-71 444.50-90.50Q464-110 464-137Q464-159 451-178L383-287L331-287Z"  horiz-adv-x="793" vert-adv-y="1000"  />

      
      <glyph glyph-name="uni0146" unicode="&#x0146;" d="M74 0L74 500L184 500L184 432Q231 510 336 510Q423 510 475 453Q527 396 527 301L527 0L417 0L417 283Q417 343 389 376.50Q361 410 313 410Q256 410 220 367Q184 324 184 246L184 0L74 0M233-287L272-197Q234-177 234-137Q234-110 253-90.50Q272-71 300-71Q327-71 346.50-90.50Q366-110 366-137Q366-159 353-178L285-287L233-287Z"  horiz-adv-x="594" vert-adv-y="1000"  />

      
      <glyph glyph-name="uni0147" unicode="&#x0147;" d="M706 0L604 0L204 511L204 0L87 0L87 710L189 710L588 200L588 710L706 710L706 0M394 766L224 846L224 938L394 858L564 938L564 846L394 766Z"  horiz-adv-x="793" vert-adv-y="1000"  />

      
      <glyph glyph-name="uni0148" unicode="&#x0148;" d="M74 0L74 500L184 500L184 432Q231 510 336 510Q423 510 475 453Q527 396 527 301L527 0L417 0L417 283Q417 343 389 376.50Q361 410 313 410Q256 410 220 367Q184 324 184 246L184 0L74 0M300 563L134 662L134 756L300 656L466 756L466 662L300 563Z"  horiz-adv-x="594" vert-adv-y="1000"  />

      
      <glyph glyph-name="uni014A" unicode="&#x014A;" d="M706 710L706-53Q706-134 658-176.50Q610-219 534-219Q489-219 453-207L453-102Q482-111 513-111Q552-111 570-92Q588-73 588-27L588 20L204 511L204 0L87 0L87 710L189 710L588 200L588 710L706 710Z"  horiz-adv-x="793" vert-adv-y="1000"  />

      
      <glyph glyph-name="uni014B" unicode="&#x014B;" d="M74 0L74 500L184 500L184 432Q231 510 336 510Q423 510 475 453Q527 396 527 301L527-48Q527-129 479-171.50Q431-214 356-214Q324-214 297-209L297-111Q314-114 332-114Q376-114 396.50-95Q417-76 417-30L417 283Q417 343 389 376.50Q361 410 313 410Q256 410 220 367Q184 324 184 246L184 0L74 0Z"  horiz-adv-x="594" vert-adv-y="1000"  />

      
      <glyph glyph-name="uni014C" unicode="&#x014C;" d="M409 101Q513 101 585 175Q657 249 657 355Q657 461 585 535Q513 609 409 609Q304 609 232 535Q160 461 160 355Q160 249 232 175Q304 101 409 101M669 95Q669 95 615.50 41.50Q562-12 409-12Q256-12 149 94.50Q42 201 42 355Q42 509 149 615.50Q256 722 409 722Q562 722 669 615Q776 508 776 355Q776 202 669 95M243 798L243 880L575 880L575 798L243 798Z"  horiz-adv-x="817" vert-adv-y="1000"  />

      
      <glyph glyph-name="uni014D" unicode="&#x014D;" d="M486.50 65.50Q486.50 65.50 448.75 27.75Q411-10 300-10Q189-10 113.50 65.50Q38 141 38 250Q38 359 113.50 434.50Q189 510 300 510Q411 510 486.50 434.50Q562 359 562 250Q562 141 486.50 65.50M300 92Q365 92 407.50 137.50Q450 183 450 250Q450 317 407.50 362.50Q365 408 300 408Q234 408 191.50 362.50Q149 317 149 250Q149 183 191.50 137.50Q234 92 300 92M134 628L134 710L466 710L466 628L134 628Z"  horiz-adv-x="599" vert-adv-y="1000"  />

      
      <glyph glyph-name="uni014E" unicode="&#x014E;" d="M409 101Q513 101 585 175Q657 249 657 355Q657 461 585 535Q513 609 409 609Q304 609 232 535Q160 461 160 355Q160 249 232 175Q304 101 409 101M669 95Q669 95 615.50 41.50Q562-12 409-12Q256-12 149 94.50Q42 201 42 355Q42 509 149 615.50Q256 722 409 722Q562 722 669 615Q776 508 776 355Q776 202 669 95M527.50 800.50Q527.50 800.50 503.75 777.75Q480 755 409 755Q338 755 290.50 800.50Q243 846 243 921L311 921Q311 875 338.50 849Q366 823 409 823Q452 823 479.50 849Q507 875 507 921L575 921Q575 846 527.50 800.50Z"  horiz-adv-x="817" vert-adv-y="1000"  />

      
      <glyph glyph-name="uni014F" unicode="&#x014F;" d="M486.50 65.50Q486.50 65.50 448.75 27.75Q411-10 300-10Q189-10 113.50 65.50Q38 141 38 250Q38 359 113.50 434.50Q189 510 300 510Q411 510 486.50 434.50Q562 359 562 250Q562 141 486.50 65.50M300 92Q365 92 407.50 137.50Q450 183 450 250Q450 317 407.50 362.50Q365 408 300 408Q234 408 191.50 362.50Q149 317 149 250Q149 183 191.50 137.50Q234 92 300 92M418.50 614.50Q418.50 614.50 394.75 591.75Q371 569 300 569Q229 569 181.50 614.50Q134 660 134 735L134 750L202 750L202 735Q202 688 229.50 662Q257 636 300 636Q343 636 370.50 662Q398 688 398 735L398 750L466 750L466 735Q466 660 418.50 614.50Z"  horiz-adv-x="599" vert-adv-y="1000"  />

      
      <glyph glyph-name="uni0150" unicode="&#x0150;" d="M409 101Q513 101 585 175Q657 249 657 355Q657 461 585 535Q513 609 409 609Q304 609 232 535Q160 461 160 355Q160 249 232 175Q304 101 409 101M669 95Q669 95 615.50 41.50Q562-12 409-12Q256-12 149 94.50Q42 201 42 355Q42 509 149 615.50Q256 722 409 722Q562 722 669 615Q776 508 776 355Q776 202 669 95M462 770L530 927L650 927L534 770L462 770M288 770L355 927L476 927L360 770L288 770Z"  horiz-adv-x="817" vert-adv-y="1000"  />

      
      <glyph glyph-name="uni0151" unicode="&#x0151;" d="M486.50 65.50Q486.50 65.50 448.75 27.75Q411-10 300-10Q189-10 113.50 65.50Q38 141 38 250Q38 359 113.50 434.50Q189 510 300 510Q411 510 486.50 434.50Q562 359 562 250Q562 141 486.50 65.50M300 92Q365 92 407.50 137.50Q450 183 450 250Q450 317 407.50 362.50Q365 408 300 408Q234 408 191.50 362.50Q149 317 149 250Q149 183 191.50 137.50Q234 92 300 92M346 560L414 750L534 750L418 560L346 560M172 560L239 750L360 750L244 560L172 560Z"  horiz-adv-x="599" vert-adv-y="1000"  />

      
      <glyph glyph-name="uni0152" unicode="&#x0152;" d="M409 101Q513 101 585 175Q657 249 657 355Q657 461 585 535Q513 609 409 609Q304 609 232 535Q160 461 160 355Q160 249 232 175Q304 101 409 101M657 0L657 95Q566-12 409-12Q256-12 149 94.50Q42 201 42 355Q42 509 149 615.50Q256 722 409 722Q566 722 657 615L657 710L1084 710L1084 598L775 598L775 416L1024 416L1024 304L775 304L775 112L1084 112L1084 0L657 0Z"  horiz-adv-x="1132" vert-adv-y="1000"  />

      
      <glyph glyph-name="uni0153" unicode="&#x0153;" d="M300-10Q189-10 113.50 65.50Q38 141 38 250Q38 359 113.50 434.50Q189 510 300 510Q428 510 503 414Q575 510 708 510Q823 510 893.50 430Q964 350 958 223L560 223Q562 165 604 126Q646 87 710 87Q803 87 837 157L951 157Q928 84 863 37Q798-10 706-10Q577-10 503 85Q429-10 300-10M300 92Q365 92 407.50 137.50Q450 183 450 250Q450 317 407.50 362.50Q365 408 300 408Q234 408 191.50 362.50Q149 317 149 250Q149 183 191.50 137.50Q234 92 300 92M704 418Q651 418 612.50 387.50Q574 357 563 301L839 301Q828 359 790.50 388.50Q753 418 704 418Z"  horiz-adv-x="997" vert-adv-y="1000"  />

      
      <glyph glyph-name="uni0154" unicode="&#x0154;" d="M87 0L87 710L343 710Q441 710 499.50 653.50Q558 597 558 508Q558 433 516.50 384.50Q475 336 397 319L661 0L517 0L257 312L204 312L204 0L87 0M204 414L329 414Q381 414 411 438.50Q441 463 441 508Q441 553 411 577.50Q381 602 329 602L204 602L204 414M265 770L340 927L469 927L351 770L265 770Z"  horiz-adv-x="645" vert-adv-y="1000"  />

      
      <glyph glyph-name="uni0155" unicode="&#x0155;" d="M74 0L74 500L184 500L184 411Q198 453 235.50 479Q273 505 316 505Q342 505 359 501L359 388Q335 397 304 397Q254 397 219 356.50Q184 316 184 244L184 0L74 0M178 560L278 750L411 750L263 560L178 560Z"  horiz-adv-x="380" vert-adv-y="1000"  />

      
      <glyph glyph-name="uni0156" unicode="&#x0156;" d="M87 0L87 710L343 710Q441 710 499.50 653.50Q558 597 558 508Q558 433 516.50 384.50Q475 336 397 319L661 0L517 0L257 312L204 312L204 0L87 0M204 414L329 414Q381 414 411 438.50Q441 463 441 508Q441 553 411 577.50Q381 602 329 602L204 602L204 414M293-287L332-197Q294-177 294-137Q294-110 313-90.50Q332-71 360-71Q387-71 406.50-90.50Q426-110 426-137Q426-159 413-178L345-287L293-287Z"  horiz-adv-x="645" vert-adv-y="1000"  />

      
      <glyph glyph-name="uni0157" unicode="&#x0157;" d="M74 0L74 500L184 500L184 411Q198 453 235.50 479Q273 505 316 505Q342 505 359 501L359 388Q335 397 304 397Q254 397 219 356.50Q184 316 184 244L184 0L74 0M62-287L101-197Q63-177 63-137Q63-110 82-90.50Q101-71 129-71Q156-71 175.50-90.50Q195-110 195-137Q195-159 182-178L114-287L62-287Z"  horiz-adv-x="380" vert-adv-y="1000"  />

      
      <glyph glyph-name="uni0158" unicode="&#x0158;" d="M87 0L87 710L343 710Q441 710 499.50 653.50Q558 597 558 508Q558 433 516.50 384.50Q475 336 397 319L661 0L517 0L257 312L204 312L204 0L87 0M204 414L329 414Q381 414 411 438.50Q441 463 441 508Q441 553 411 577.50Q381 602 329 602L204 602L204 414M300 766L130 846L130 938L300 858L470 938L470 846L300 766Z"  horiz-adv-x="645" vert-adv-y="1000"  />

      
      </font>
</defs>
</svg>
