<?xml version="1.0" standalone="no"?>
  <!DOCTYPE svg PUBLIC "-//W3C//DTD SVG 1.1//EN" "http://www.w3.org/Graphics/SVG/1.1/DTD/svg11.dtd" >
  <svg>
  <metadata>
  Created by font-carrier
  </metadata>
  <defs>
  <font id="GolosText-SemiBold" horiz-adv-x="1234" vert-adv-y="1234" >
    <font-face
      
      font-family="Golos Text SemiBold"
      
      font-weight="400"
      
      font-stretch="normal"
      
      units-per-em="1000"
      
      ascent="980"
      
      descent="-220"
      
    />
      <missing-glyph />

      

      
      <glyph glyph-name="uni41" unicode="&#x41;" d="M10 0L270 700L419 700L680 0L522 0L468 143L209 143L156 0L10 0M255 267L423 267L339 510L255 267Z"  horiz-adv-x="689" vert-adv-y="1000"  />

      
      <glyph glyph-name="unic1" unicode="&#xc1;" d="M10 0L270 700L419 700L680 0L522 0L468 143L209 143L156 0L10 0M255 267L423 267L339 510L255 267M285 750L395 900L555 900L405 750L285 750Z"  horiz-adv-x="689" vert-adv-y="1000"  />

      
      <glyph glyph-name="uni0102" unicode="&#x0102;" d="M10 0L270 700L419 700L680 0L522 0L468 143L209 143L156 0L10 0M255 267L423 267L339 510L255 267M344 740Q280 740 237.50 759.50Q195 779 175 816.50Q155 854 155 910L281 910Q281 862 297 844Q313 826 344 826Q377 826 393 844Q409 862 409 910L535 910Q535 854 515 816.50Q495 779 453 759.50Q411 740 344 740Z"  horiz-adv-x="689" vert-adv-y="1000"  />

      
      <glyph glyph-name="unic2" unicode="&#xc2;" d="M10 0L270 700L419 700L680 0L522 0L468 143L209 143L156 0L10 0M255 267L423 267L339 510L255 267M165 750L275 900L415 900L525 750L405 750L344 811L285 750L165 750Z"  horiz-adv-x="689" vert-adv-y="1000"  />

      
      <glyph glyph-name="unic4" unicode="&#xc4;" d="M10 0L270 700L419 700L680 0L522 0L468 143L209 143L156 0L10 0M255 267L423 267L339 510L255 267M226 746Q191 746 168.50 768Q146 790 146 825Q146 860 168.50 882Q191 904 226 904Q261 904 283.50 882Q306 860 306 825Q306 790 283.50 768Q261 746 226 746M466 746Q431 746 408 768Q385 790 385 825Q385 860 408 882Q431 904 466 904Q501 904 523.50 882Q546 860 546 825Q546 790 523.50 768Q501 746 466 746Z"  horiz-adv-x="689" vert-adv-y="1000"  />

      
      <glyph glyph-name="unic0" unicode="&#xc0;" d="M10 0L270 700L419 700L680 0L522 0L468 143L209 143L156 0L10 0M255 267L423 267L339 510L255 267M285 750L135 900L295 900L405 750L285 750Z"  horiz-adv-x="689" vert-adv-y="1000"  />

      
      <glyph glyph-name="uni0100" unicode="&#x0100;" d="M10 0L270 700L419 700L680 0L522 0L468 143L209 143L156 0L10 0M255 267L423 267L339 510L255 267M185 788L185 892L505 892L505 788L185 788Z"  horiz-adv-x="689" vert-adv-y="1000"  />

      
      <glyph glyph-name="uni0104" unicode="&#x0104;" d="M10 0L270 700L419 700L680 0L522 0L468 143L209 143L156 0L10 0M255 267L423 267L339 510L255 267M626-212Q563-212 531.50-191Q500-170 500-124Q500-100 510.50-80Q521-60 537-44.50Q553-29 570-17.50Q587-6 601 0L680 0Q666-14 648-29Q630-44 617-61Q604-78 604-99Q604-115 614.50-124.50Q625-134 653-134Q663-134 668-133.50Q673-133 680-132L680-208Q667-210 658.50-211Q650-212 626-212Z"  horiz-adv-x="689" vert-adv-y="1000"  />

      
      <glyph glyph-name="unic5" unicode="&#xc5;" d="M10 0L270 700L419 700L680 0L522 0L468 143L209 143L156 0L10 0M255 267L423 267L339 510L255 267M345 730Q308 730 278.50 744.50Q249 759 232 785Q215 811 215 845Q215 879 232 905Q249 931 278.50 945.50Q308 960 345 960Q382 960 411 945.50Q440 931 457 905Q474 879 474 845Q474 811 457.50 785Q441 759 411 744.50Q381 730 345 730M345 810Q362 810 373.50 819.50Q385 829 385 845Q385 862 373.50 871Q362 880 345 880Q328 880 316 870.50Q304 861 304 845Q304 828 316 819Q328 810 345 810Z"  horiz-adv-x="689" vert-adv-y="1000"  />

      
      <glyph glyph-name="unic3" unicode="&#xc3;" d="M10 0L270 700L419 700L680 0L522 0L468 143L209 143L156 0L10 0M255 267L423 267L339 510L255 267M415 750Q380 750 357.50 761Q335 772 316.50 783.50Q298 795 275 795Q261 795 252 789Q243 783 236 775Q233 771 230 765.50Q227 760 225 755L155 795Q159 809 165 822.50Q171 836 179 847Q193 867 216.50 883.50Q240 900 274 900Q310 900 332.50 888.50Q355 877 374 866Q393 855 415 855Q428 855 437.50 861Q447 867 452 875Q457 880 460 885Q463 890 465 895L535 855Q531 840 525 826.50Q519 813 511 802Q497 782 473.50 766Q450 750 415 750Z"  horiz-adv-x="689" vert-adv-y="1000"  />

      
      <glyph glyph-name="unic6" unicode="&#xc6;" d="M10 0L420 700L950 700L950 576L611 576L611 420L920 420L920 300L611 300L611 124L950 124L950 0L459 0L459 143L250 143L166 0L10 0M322 267L459 267L459 515L322 267Z"  horiz-adv-x="1000" vert-adv-y="1000"  />

      
      <glyph glyph-name="uni42" unicode="&#x42;" d="M81 0L81 700L380 700Q498 700 553.50 650.50Q609 601 609 513Q609 459 582.50 420.50Q556 382 511 365Q571 351 605 308.50Q639 266 639 198Q639 138 614 93.50Q589 49 535 24.50Q481 0 393 0L81 0M230 114L366 114Q436 114 463 138Q490 162 490 209Q490 256 463.50 282.50Q437 309 365 309L230 309L230 114M230 411L350 411Q411 411 435.50 435Q460 459 460 500Q460 542 436 564Q412 586 351 586L230 586L230 411Z"  horiz-adv-x="680" vert-adv-y="1000"  />

      
      <glyph glyph-name="uni43" unicode="&#x43;" d="M365-12Q274-12 202.50 24.50Q131 61 90.50 139.50Q50 218 50 345L50 365Q50 457 74 522.50Q98 588 141.50 630Q185 672 242 692Q299 712 365 712Q424 712 475.50 697.50Q527 683 567 654Q607 625 631.50 579Q656 533 660 471L504 471Q493 530 456 558Q419 586 365 586Q323 586 287 565.50Q251 545 228.50 497Q206 449 206 365L206 345Q206 279 220 234.50Q234 190 257 163.50Q280 137 308 125.50Q336 114 365 114Q422 114 459 143.50Q496 173 504 229L660 229Q655 164 631 117.50Q607 71 568 42.50Q529 14 477 1Q425-12 365-12Z"  horiz-adv-x="699" vert-adv-y="1000"  />

      
      <glyph glyph-name="uni0106" unicode="&#x0106;" d="M365-12Q274-12 202.50 24.50Q131 61 90.50 139.50Q50 218 50 345L50 365Q50 457 74 522.50Q98 588 141.50 630Q185 672 242 692Q299 712 365 712Q424 712 475.50 697.50Q527 683 567 654Q607 625 631.50 579Q656 533 660 471L504 471Q493 530 456 558Q419 586 365 586Q323 586 287 565.50Q251 545 228.50 497Q206 449 206 365L206 345Q206 279 220 234.50Q234 190 257 163.50Q280 137 308 125.50Q336 114 365 114Q422 114 459 143.50Q496 173 504 229L660 229Q655 164 631 117.50Q607 71 568 42.50Q529 14 477 1Q425-12 365-12M290 750L400 900L560 900L410 750L290 750Z"  horiz-adv-x="699" vert-adv-y="1000"  />

      
      <glyph glyph-name="uni010C" unicode="&#x010C;" d="M365-12Q274-12 202.50 24.50Q131 61 90.50 139.50Q50 218 50 345L50 365Q50 457 74 522.50Q98 588 141.50 630Q185 672 242 692Q299 712 365 712Q424 712 475.50 697.50Q527 683 567 654Q607 625 631.50 579Q656 533 660 471L504 471Q493 530 456 558Q419 586 365 586Q323 586 287 565.50Q251 545 228.50 497Q206 449 206 365L206 345Q206 279 220 234.50Q234 190 257 163.50Q280 137 308 125.50Q336 114 365 114Q422 114 459 143.50Q496 173 504 229L660 229Q655 164 631 117.50Q607 71 568 42.50Q529 14 477 1Q425-12 365-12M280 750L170 900L290 900L349 839L410 900L530 900L420 750L280 750Z"  horiz-adv-x="699" vert-adv-y="1000"  />

      
      <glyph glyph-name="unic7" unicode="&#xc7;" d="M365-12Q274-12 202.50 24.50Q131 61 90.50 139.50Q50 218 50 345L50 365Q50 457 74 522.50Q98 588 141.50 630Q185 672 242 692Q299 712 365 712Q424 712 475.50 697.50Q527 683 567 654Q607 625 631.50 579Q656 533 660 471L504 471Q493 530 456 558Q419 586 365 586Q323 586 287 565.50Q251 545 228.50 497Q206 449 206 365L206 345Q206 279 220 234.50Q234 190 257 163.50Q280 137 308 125.50Q336 114 365 114Q422 114 459 143.50Q496 173 504 229L660 229Q655 164 631 117.50Q607 71 568 42.50Q529 14 477 1Q425-12 365-12M335-212Q318-212 305-211Q292-210 283-208Q278-207 273.50-206Q269-205 265-204L265-130L279-132Q286-133 295-133.50Q304-134 315-134Q342-134 350.50-126.50Q359-119 359-109Q359-98 350.50-90.50Q342-83 310-83L327 10L407 10L400-36Q437-45 450.50-67.50Q464-90 464-115Q464-159 434-185.50Q404-212 335-212Z"  horiz-adv-x="699" vert-adv-y="1000"  />

      
      <glyph glyph-name="uni010A" unicode="&#x010A;" d="M365-12Q274-12 202.50 24.50Q131 61 90.50 139.50Q50 218 50 345L50 365Q50 457 74 522.50Q98 588 141.50 630Q185 672 242 692Q299 712 365 712Q424 712 475.50 697.50Q527 683 567 654Q607 625 631.50 579Q656 533 660 471L504 471Q493 530 456 558Q419 586 365 586Q323 586 287 565.50Q251 545 228.50 497Q206 449 206 365L206 345Q206 279 220 234.50Q234 190 257 163.50Q280 137 308 125.50Q336 114 365 114Q422 114 459 143.50Q496 173 504 229L660 229Q655 164 631 117.50Q607 71 568 42.50Q529 14 477 1Q425-12 365-12M350 740Q312 740 288 763.50Q264 787 264 825Q264 863 288 886.50Q312 910 350 910Q388 910 412 886.50Q436 863 436 825Q436 787 412 763.50Q388 740 350 740Z"  horiz-adv-x="699" vert-adv-y="1000"  />

      
      <glyph glyph-name="uni44" unicode="&#x44;" d="M81 0L81 700L324 700Q430 700 505 662Q580 624 619.50 549.50Q659 475 659 365L659 345Q659 233 618 156Q577 79 499.50 39.50Q422 0 314 0L81 0M230 124L304 124Q359 124 404 145Q449 166 476.50 214.50Q504 263 504 345L504 365Q504 443 479 489.50Q454 536 410.50 556Q367 576 314 576L230 576L230 124Z"  horiz-adv-x="710" vert-adv-y="1000"  />

      
      <glyph glyph-name="unid0" unicode="&#xd0;" d="M105 0L105 303L25 303L25 407L105 407L105 700L350 700Q455 700 530 662Q605 624 645 549Q685 474 685 365L685 345Q685 233 644 156Q603 79 525.50 39.50Q448 0 340 0L105 0M255 124L330 124Q384 124 429.50 145Q475 166 502 214.50Q529 263 529 345L529 365Q529 443 503.50 489.50Q478 536 435 556Q392 576 340 576L255 576L255 407L395 407L395 303L255 303L255 124Z"  horiz-adv-x="734" vert-adv-y="1000"  />

      
      <glyph glyph-name="uni010E" unicode="&#x010E;" d="M81 0L81 700L324 700Q430 700 505 662Q580 624 619.50 549.50Q659 475 659 365L659 345Q659 233 618 156Q577 79 499.50 39.50Q422 0 314 0L81 0M230 124L304 124Q359 124 404 145Q449 166 476.50 214.50Q504 263 504 345L504 365Q504 443 479 489.50Q454 536 410.50 556Q367 576 314 576L230 576L230 124M285 750L175 900L295 900L354 839L415 900L535 900L425 750L285 750Z"  horiz-adv-x="710" vert-adv-y="1000"  />

      
      <glyph glyph-name="uni0110" unicode="&#x0110;" d="M105 0L105 303L25 303L25 407L105 407L105 700L350 700Q455 700 530 662Q605 624 645 549Q685 474 685 365L685 345Q685 233 644 156Q603 79 525.50 39.50Q448 0 340 0L105 0M255 124L330 124Q384 124 429.50 145Q475 166 502 214.50Q529 263 529 345L529 365Q529 443 503.50 489.50Q478 536 435 556Q392 576 340 576L255 576L255 407L395 407L395 303L255 303L255 124Z"  horiz-adv-x="734" vert-adv-y="1000"  />

      
      <glyph glyph-name="uni45" unicode="&#x45;" d="M81 0L81 700L569 700L569 576L231 576L231 420L539 420L539 300L231 300L231 124L569 124L569 0L81 0Z"  horiz-adv-x="620" vert-adv-y="1000"  />

      
      <glyph glyph-name="unic9" unicode="&#xc9;" d="M81 0L81 700L569 700L569 576L231 576L231 420L539 420L539 300L231 300L231 124L569 124L569 0L81 0M266 750L376 900L536 900L386 750L266 750Z"  horiz-adv-x="620" vert-adv-y="1000"  />

      
      <glyph glyph-name="uni011A" unicode="&#x011A;" d="M81 0L81 700L569 700L569 576L231 576L231 420L539 420L539 300L231 300L231 124L569 124L569 0L81 0M256 750L146 900L266 900L325 839L386 900L506 900L396 750L256 750Z"  horiz-adv-x="620" vert-adv-y="1000"  />

      
      <glyph glyph-name="unica" unicode="&#xca;" d="M81 0L81 700L569 700L569 576L231 576L231 420L539 420L539 300L231 300L231 124L569 124L569 0L81 0M146 750L256 900L396 900L506 750L386 750L325 811L266 750L146 750Z"  horiz-adv-x="620" vert-adv-y="1000"  />

      
      <glyph glyph-name="unicb" unicode="&#xcb;" d="M81 0L81 700L569 700L569 576L231 576L231 420L539 420L539 300L231 300L231 124L569 124L569 0L81 0M205 746Q170 746 147.50 768Q125 790 125 825Q125 860 147.50 882Q170 904 205 904Q240 904 262.50 882Q285 860 285 825Q285 790 262.50 768Q240 746 205 746M445 746Q410 746 387 768Q364 790 364 825Q364 860 387 882Q410 904 445 904Q480 904 502.50 882Q525 860 525 825Q525 790 502.50 768Q480 746 445 746Z"  horiz-adv-x="620" vert-adv-y="1000"  />

      
      <glyph glyph-name="uni0116" unicode="&#x0116;" d="M81 0L81 700L569 700L569 576L231 576L231 420L539 420L539 300L231 300L231 124L569 124L569 0L81 0M325 740Q287 740 263 763.50Q239 787 239 825Q239 863 263 886.50Q287 910 325 910Q363 910 387 886.50Q411 863 411 825Q411 787 387 763.50Q363 740 325 740Z"  horiz-adv-x="620" vert-adv-y="1000"  />

      
      <glyph glyph-name="unic8" unicode="&#xc8;" d="M81 0L81 700L569 700L569 576L231 576L231 420L539 420L539 300L231 300L231 124L569 124L569 0L81 0M266 750L116 900L276 900L386 750L266 750Z"  horiz-adv-x="620" vert-adv-y="1000"  />

      
      <glyph glyph-name="uni0112" unicode="&#x0112;" d="M81 0L81 700L569 700L569 576L231 576L231 420L539 420L539 300L231 300L231 124L569 124L569 0L81 0M166 788L166 892L486 892L486 788L166 788Z"  horiz-adv-x="620" vert-adv-y="1000"  />

      
      <glyph glyph-name="uni0118" unicode="&#x0118;" d="M81 0L81 700L569 700L569 576L231 576L231 420L539 420L539 300L231 300L231 124L569 124L569 0L81 0M516-212Q453-212 421.50-191Q390-170 390-124Q390-100 400.50-80Q411-60 427-44.50Q443-29 460-17.50Q477-6 491 0L570 0Q556-14 538-29Q520-44 507-61Q494-78 494-99Q494-115 504.50-124.50Q515-134 543-134Q553-134 558-133.50Q563-133 570-132L570-208Q557-210 548.50-211Q540-212 516-212Z"  horiz-adv-x="620" vert-adv-y="1000"  />

      
      <glyph glyph-name="uni46" unicode="&#x46;" d="M81 0L81 700L560 700L560 576L230 576L230 400L530 400L530 280L230 280L230 0L81 0Z"  horiz-adv-x="595" vert-adv-y="1000"  />

      
      <glyph glyph-name="uni47" unicode="&#x47;" d="M375-12Q282-12 208.50 24.50Q135 61 92.50 139.50Q50 218 50 345L50 365Q50 456 75.50 522Q101 588 146 630Q191 672 248.50 692Q306 712 370 712Q430 712 479.50 697.50Q529 683 567 654.50Q605 626 630 582.50Q655 539 665 481L509 481Q495 523 473 545.50Q451 568 424.50 576.50Q398 585 370 585Q326 585 288.50 564Q251 543 228.50 495Q206 447 206 365L206 345Q206 280 220 236Q234 192 258.50 165.50Q283 139 313 127Q343 115 375 115Q418 115 453 130Q488 145 510.50 177.50Q533 210 537 261L395 261L395 365L680 365L680 325Q680 238 658.50 174.50Q637 111 596.50 69.50Q556 28 500 8Q444-12 375-12Z"  horiz-adv-x="724" vert-adv-y="1000"  />

      
      <glyph glyph-name="uni011E" unicode="&#x011E;" d="M375-12Q282-12 208.50 24.50Q135 61 92.50 139.50Q50 218 50 345L50 365Q50 456 75.50 522Q101 588 146 630Q191 672 248.50 692Q306 712 370 712Q430 712 479.50 697.50Q529 683 567 654.50Q605 626 630 582.50Q655 539 665 481L509 481Q495 523 473 545.50Q451 568 424.50 576.50Q398 585 370 585Q326 585 288.50 564Q251 543 228.50 495Q206 447 206 365L206 345Q206 280 220 236Q234 192 258.50 165.50Q283 139 313 127Q343 115 375 115Q418 115 453 130Q488 145 510.50 177.50Q533 210 537 261L395 261L395 365L680 365L680 325Q680 238 658.50 174.50Q637 111 596.50 69.50Q556 28 500 8Q444-12 375-12Z"  horiz-adv-x="724" vert-adv-y="1000"  />

      
      <glyph glyph-name="uni0122" unicode="&#x0122;" d="M375-12Q282-12 208.50 24.50Q135 61 92.50 139.50Q50 218 50 345L50 365Q50 456 75.50 522Q101 588 146 630Q191 672 248.50 692Q306 712 370 712Q430 712 479.50 697.50Q529 683 567 654.50Q605 626 630 582.50Q655 539 665 481L509 481Q495 523 473 545.50Q451 568 424.50 576.50Q398 585 370 585Q326 585 288.50 564Q251 543 228.50 495Q206 447 206 365L206 345Q206 280 220 236Q234 192 258.50 165.50Q283 139 313 127Q343 115 375 115Q418 115 453 130Q488 145 510.50 177.50Q533 210 537 261L395 261L395 365L680 365L680 325Q680 238 658.50 174.50Q637 111 596.50 69.50Q556 28 500 8Q444-12 375-12M308-226L308-45L418-45L418-136L367-226L308-226Z"  horiz-adv-x="724" vert-adv-y="1000"  />

      
      <glyph glyph-name="uni0120" unicode="&#x0120;" d="M375-12Q282-12 208.50 24.50Q135 61 92.50 139.50Q50 218 50 345L50 365Q50 456 75.50 522Q101 588 146 630Q191 672 248.50 692Q306 712 370 712Q430 712 479.50 697.50Q529 683 567 654.50Q605 626 630 582.50Q655 539 665 481L509 481Q495 523 473 545.50Q451 568 424.50 576.50Q398 585 370 585Q326 585 288.50 564Q251 543 228.50 495Q206 447 206 365L206 345Q206 280 220 236Q234 192 258.50 165.50Q283 139 313 127Q343 115 375 115Q418 115 453 130Q488 145 510.50 177.50Q533 210 537 261L395 261L395 365L680 365L680 325Q680 238 658.50 174.50Q637 111 596.50 69.50Q556 28 500 8Q444-12 375-12M363 740Q325 740 301 763.50Q277 787 277 825Q277 863 301 886.50Q325 910 363 910Q401 910 425 886.50Q449 863 449 825Q449 787 425 763.50Q401 740 363 740Z"  horiz-adv-x="724" vert-adv-y="1000"  />

      
      <glyph glyph-name="uni48" unicode="&#x48;" d="M81 0L81 700L230 700L230 422L530 422L530 700L679 700L679 0L530 0L530 298L230 298L230 0L81 0Z"  horiz-adv-x="760" vert-adv-y="1000"  />

      
      <glyph glyph-name="uni0126" unicode="&#x0126;" d="M14 611L746 611L746 507L14 507L14 611M81 0L81 700L230 700L230 422L530 422L530 700L679 700L679 0L530 0L530 298L230 298L230 0L81 0Z"  horiz-adv-x="760" vert-adv-y="1000"  />

      
      <glyph glyph-name="uni49" unicode="&#x49;" d="M91 0L91 700L240 700L240 0L91 0Z"  horiz-adv-x="330" vert-adv-y="1000"  />

      
      <glyph glyph-name="uni0132" unicode="&#x0132;" d="M91 0L91 700L240 700L240 0L91 0M585-12Q511-12 461 15Q411 42 384 94Q357 146 355 220L497 220Q499 167 521 141Q543 115 585 115Q617 115 636.50 127.50Q656 140 665.50 170Q675 200 675 250L675 700L825 700L825 250Q825 156 795.50 98.50Q766 41 713 14.50Q660-12 585-12Z"  horiz-adv-x="905" vert-adv-y="1000"  />

      
      <glyph glyph-name="unicd" unicode="&#xcd;" d="M91 0L91 700L240 700L240 0L91 0M105 750L215 900L375 900L225 750L105 750Z"  horiz-adv-x="330" vert-adv-y="1000"  />

      
      <glyph glyph-name="unice" unicode="&#xce;" d="M91 0L91 700L240 700L240 0L91 0M-15 750L95 900L235 900L345 750L225 750L164 811L105 750L-15 750Z"  horiz-adv-x="330" vert-adv-y="1000"  />

      
      <glyph glyph-name="unicf" unicode="&#xcf;" d="M91 0L91 700L240 700L240 0L91 0M45 746Q10 746-12.50 768Q-35 790-35 825Q-35 860-12.50 882Q10 904 45 904Q80 904 102.50 882Q125 860 125 825Q125 790 102.50 768Q80 746 45 746M285 746Q250 746 227 768Q204 790 204 825Q204 860 227 882Q250 904 285 904Q320 904 342.50 882Q365 860 365 825Q365 790 342.50 768Q320 746 285 746Z"  horiz-adv-x="330" vert-adv-y="1000"  />

      
      <glyph glyph-name="uni0130" unicode="&#x0130;" d="M91 0L91 700L240 700L240 0L91 0M165 740Q127 740 103 763.50Q79 787 79 825Q79 863 103 886.50Q127 910 165 910Q203 910 227 886.50Q251 863 251 825Q251 787 227 763.50Q203 740 165 740Z"  horiz-adv-x="330" vert-adv-y="1000"  />

      
      <glyph glyph-name="unicc" unicode="&#xcc;" d="M91 0L91 700L240 700L240 0L91 0M105 750L-45 900L115 900L225 750L105 750Z"  horiz-adv-x="330" vert-adv-y="1000"  />

      
      <glyph glyph-name="uni012A" unicode="&#x012A;" d="M91 0L91 700L240 700L240 0L91 0M5 788L5 892L325 892L325 788L5 788Z"  horiz-adv-x="330" vert-adv-y="1000"  />

      
      <glyph glyph-name="uni012E" unicode="&#x012E;" d="M91 0L91 700L240 700L240 0L91 0M186-212Q123-212 91.50-191Q60-170 60-124Q60-100 70.50-80Q81-60 97-44.50Q113-29 130-17.50Q147-6 161 0L240 0Q226-14 208-29Q190-44 177-61Q164-78 164-99Q164-115 174.50-124.50Q185-134 213-134Q223-134 228-133.50Q233-133 240-132L240-208Q227-210 218.50-211Q210-212 186-212Z"  horiz-adv-x="330" vert-adv-y="1000"  />

      
      <glyph glyph-name="uni4a" unicode="&#x4a;" d="M255-12Q181-12 131 15Q81 42 54 94Q27 146 25 220L167 220Q169 167 191 141Q213 115 255 115Q287 115 306.50 127.50Q326 140 335.50 170Q345 200 345 250L345 700L495 700L495 250Q495 156 465.50 98.50Q436 41 383 14.50Q330-12 255-12Z"  horiz-adv-x="575" vert-adv-y="1000"  />

      
      <glyph glyph-name="uni4b" unicode="&#x4b;" d="M81 0L81 700L230 700L230 405L486 700L659 700L399 413L679 0L504 0L298 314L230 239L230 0L81 0Z"  horiz-adv-x="700" vert-adv-y="1000"  />

      
      <glyph glyph-name="uni0136" unicode="&#x0136;" d="M81 0L81 700L230 700L230 405L486 700L659 700L399 413L679 0L504 0L298 314L230 239L230 0L81 0M295-226L295-45L405-45L405-136L354-226L295-226Z"  horiz-adv-x="700" vert-adv-y="1000"  />

      
      <glyph glyph-name="uni4c" unicode="&#x4c;" d="M81 0L81 700L230 700L230 124L550 124L550 0L81 0Z"  horiz-adv-x="570" vert-adv-y="1000"  />

      
      <glyph glyph-name="uni0139" unicode="&#x0139;" d="M81 0L81 700L230 700L230 124L550 124L550 0L81 0M95 750L205 900L365 900L215 750L95 750Z"  horiz-adv-x="570" vert-adv-y="1000"  />

      
      <glyph glyph-name="uni013D" unicode="&#x013D;" d="M81 0L81 700L230 700L230 124L550 124L550 0L81 0M447 486L458 613L458 700L569 700L569 613L501 486L447 486Z"  horiz-adv-x="570" vert-adv-y="1000"  />

      
      <glyph glyph-name="uni013B" unicode="&#x013B;" d="M81 0L81 700L230 700L230 124L550 124L550 0L81 0M230-226L230-45L340-45L340-136L289-226L230-226Z"  horiz-adv-x="570" vert-adv-y="1000"  />

      
      <glyph glyph-name="uni0141" unicode="&#x0141;" d="M120 0L120 227L20 169L20 294L120 351L120 700L269 700L269 438L430 529L430 406L269 314L269 124L589 124L589 0L120 0Z"  horiz-adv-x="609" vert-adv-y="1000"  />

      
      <glyph glyph-name="uni4d" unicode="&#x4d;" d="M81 0L81 700L230 700L443 306L655 700L800 700L800 0L650 0L650 445L484 140L395 140L230 445L230 0L81 0Z"  horiz-adv-x="879" vert-adv-y="1000"  />

      
      <glyph glyph-name="uni4e" unicode="&#x4e;" d="M81 0L81 700L222 700L531 250L531 700L679 700L679 0L538 0L229 450L229 0L81 0Z"  horiz-adv-x="760" vert-adv-y="1000"  />

      
      <glyph glyph-name="uni0143" unicode="&#x0143;" d="M81 0L81 700L222 700L531 250L531 700L679 700L679 0L538 0L229 450L229 0L81 0M321 750L431 900L591 900L441 750L321 750Z"  horiz-adv-x="760" vert-adv-y="1000"  />

      
      <glyph glyph-name="uni0147" unicode="&#x0147;" d="M81 0L81 700L222 700L531 250L531 700L679 700L679 0L538 0L229 450L229 0L81 0M311 750L201 900L321 900L380 839L441 900L561 900L451 750L311 750Z"  horiz-adv-x="760" vert-adv-y="1000"  />

      
      <glyph glyph-name="uni0145" unicode="&#x0145;" d="M81 0L81 700L222 700L531 250L531 700L679 700L679 0L538 0L229 450L229 0L81 0M325-226L325-45L435-45L435-136L384-226L325-226Z"  horiz-adv-x="760" vert-adv-y="1000"  />

      
      <glyph glyph-name="unid1" unicode="&#xd1;" d="M81 0L81 700L222 700L531 250L531 700L679 700L679 0L538 0L229 450L229 0L81 0M451 750Q416 750 393.50 761Q371 772 352.50 783.50Q334 795 311 795Q297 795 288 789Q279 783 272 775Q269 771 266 765.50Q263 760 261 755L191 795Q195 809 201 822.50Q207 836 215 847Q229 867 252.50 883.50Q276 900 310 900Q346 900 368.50 888.50Q391 877 410 866Q429 855 451 855Q464 855 473.50 861Q483 867 488 875Q493 880 496 885Q499 890 501 895L571 855Q567 840 561 826.50Q555 813 547 802Q533 782 509.50 766Q486 750 451 750Z"  horiz-adv-x="760" vert-adv-y="1000"  />

      
      <glyph glyph-name="uni014A" unicode="&#x014A;" d="M500-212Q489-212 475-211.50Q461-211 450-209L450-97Q458-99 467.50-99.50Q477-100 485-100Q509-100 520.50-91Q532-82 535-58Q538-34 538 10L538 530L679 530L679 0Q679-84 663.50-130Q648-176 609-194Q570-212 500-212M81 0L81 700L222 700L531 250L531 700L679 700L679 0L538 0L229 450L229 0L81 0Z"  horiz-adv-x="760" vert-adv-y="1000"  />

      
      <glyph glyph-name="uni4f" unicode="&#x4f;" d="M380-12Q314-12 255 8Q196 28 149.50 70.50Q103 113 76.50 181Q50 249 50 345L50 365Q50 457 76.50 522.50Q103 588 149.50 630Q196 672 255 692Q314 712 380 712Q446 712 505 692Q564 672 610.50 630Q657 588 683.50 522.50Q710 457 710 365L710 345Q710 249 683.50 181Q657 113 610.50 70.50Q564 28 505 8Q446-12 380-12M380 114Q426 114 465.50 135.50Q505 157 529.50 207.50Q554 258 554 345L554 365Q554 447 529.50 495.50Q505 544 465.50 565Q426 586 380 586Q335 586 295 565Q255 544 230.50 495.50Q206 447 206 365L206 345Q206 258 230.50 207.50Q255 157 295 135.50Q335 114 380 114Z"  horiz-adv-x="759" vert-adv-y="1000"  />

      
      <glyph glyph-name="unid3" unicode="&#xd3;" d="M380-12Q314-12 255 8Q196 28 149.50 70.50Q103 113 76.50 181Q50 249 50 345L50 365Q50 457 76.50 522.50Q103 588 149.50 630Q196 672 255 692Q314 712 380 712Q446 712 505 692Q564 672 610.50 630Q657 588 683.50 522.50Q710 457 710 365L710 345Q710 249 683.50 181Q657 113 610.50 70.50Q564 28 505 8Q446-12 380-12M380 114Q426 114 465.50 135.50Q505 157 529.50 207.50Q554 258 554 345L554 365Q554 447 529.50 495.50Q505 544 465.50 565Q426 586 380 586Q335 586 295 565Q255 544 230.50 495.50Q206 447 206 365L206 345Q206 258 230.50 207.50Q255 157 295 135.50Q335 114 380 114M320 750L430 900L590 900L440 750L320 750Z"  horiz-adv-x="759" vert-adv-y="1000"  />

      
      <glyph glyph-name="unid4" unicode="&#xd4;" d="M380-12Q314-12 255 8Q196 28 149.50 70.50Q103 113 76.50 181Q50 249 50 345L50 365Q50 457 76.50 522.50Q103 588 149.50 630Q196 672 255 692Q314 712 380 712Q446 712 505 692Q564 672 610.50 630Q657 588 683.50 522.50Q710 457 710 365L710 345Q710 249 683.50 181Q657 113 610.50 70.50Q564 28 505 8Q446-12 380-12M380 114Q426 114 465.50 135.50Q505 157 529.50 207.50Q554 258 554 345L554 365Q554 447 529.50 495.50Q505 544 465.50 565Q426 586 380 586Q335 586 295 565Q255 544 230.50 495.50Q206 447 206 365L206 345Q206 258 230.50 207.50Q255 157 295 135.50Q335 114 380 114M200 750L310 900L450 900L560 750L440 750L379 811L320 750L200 750Z"  horiz-adv-x="759" vert-adv-y="1000"  />

      
      <glyph glyph-name="unid6" unicode="&#xd6;" d="M380-12Q314-12 255 8Q196 28 149.50 70.50Q103 113 76.50 181Q50 249 50 345L50 365Q50 457 76.50 522.50Q103 588 149.50 630Q196 672 255 692Q314 712 380 712Q446 712 505 692Q564 672 610.50 630Q657 588 683.50 522.50Q710 457 710 365L710 345Q710 249 683.50 181Q657 113 610.50 70.50Q564 28 505 8Q446-12 380-12M380 114Q426 114 465.50 135.50Q505 157 529.50 207.50Q554 258 554 345L554 365Q554 447 529.50 495.50Q505 544 465.50 565Q426 586 380 586Q335 586 295 565Q255 544 230.50 495.50Q206 447 206 365L206 345Q206 258 230.50 207.50Q255 157 295 135.50Q335 114 380 114M261 746Q226 746 203.50 768Q181 790 181 825Q181 860 203.50 882Q226 904 261 904Q296 904 318.50 882Q341 860 341 825Q341 790 318.50 768Q296 746 261 746M501 746Q466 746 443 768Q420 790 420 825Q420 860 443 882Q466 904 501 904Q536 904 558.50 882Q581 860 581 825Q581 790 558.50 768Q536 746 501 746Z"  horiz-adv-x="759" vert-adv-y="1000"  />

      
      <glyph glyph-name="unid2" unicode="&#xd2;" d="M380-12Q314-12 255 8Q196 28 149.50 70.50Q103 113 76.50 181Q50 249 50 345L50 365Q50 457 76.50 522.50Q103 588 149.50 630Q196 672 255 692Q314 712 380 712Q446 712 505 692Q564 672 610.50 630Q657 588 683.50 522.50Q710 457 710 365L710 345Q710 249 683.50 181Q657 113 610.50 70.50Q564 28 505 8Q446-12 380-12M380 114Q426 114 465.50 135.50Q505 157 529.50 207.50Q554 258 554 345L554 365Q554 447 529.50 495.50Q505 544 465.50 565Q426 586 380 586Q335 586 295 565Q255 544 230.50 495.50Q206 447 206 365L206 345Q206 258 230.50 207.50Q255 157 295 135.50Q335 114 380 114M320 750L170 900L330 900L440 750L320 750Z"  horiz-adv-x="759" vert-adv-y="1000"  />

      
      <glyph glyph-name="uni0150" unicode="&#x0150;" d="M380-12Q314-12 255 8Q196 28 149.50 70.50Q103 113 76.50 181Q50 249 50 345L50 365Q50 457 76.50 522.50Q103 588 149.50 630Q196 672 255 692Q314 712 380 712Q446 712 505 692Q564 672 610.50 630Q657 588 683.50 522.50Q710 457 710 365L710 345Q710 249 683.50 181Q657 113 610.50 70.50Q564 28 505 8Q446-12 380-12M380 114Q426 114 465.50 135.50Q505 157 529.50 207.50Q554 258 554 345L554 365Q554 447 529.50 495.50Q505 544 465.50 565Q426 586 380 586Q335 586 295 565Q255 544 230.50 495.50Q206 447 206 365L206 345Q206 258 230.50 207.50Q255 157 295 135.50Q335 114 380 114M253 750L362 900L487 900L354 750L253 750M420 750L554 900L682 900L521 750L420 750Z"  horiz-adv-x="759" vert-adv-y="1000"  />

      
      <glyph glyph-name="uni014C" unicode="&#x014C;" d="M380-12Q314-12 255 8Q196 28 149.50 70.50Q103 113 76.50 181Q50 249 50 345L50 365Q50 457 76.50 522.50Q103 588 149.50 630Q196 672 255 692Q314 712 380 712Q446 712 505 692Q564 672 610.50 630Q657 588 683.50 522.50Q710 457 710 365L710 345Q710 249 683.50 181Q657 113 610.50 70.50Q564 28 505 8Q446-12 380-12M380 114Q426 114 465.50 135.50Q505 157 529.50 207.50Q554 258 554 345L554 365Q554 447 529.50 495.50Q505 544 465.50 565Q426 586 380 586Q335 586 295 565Q255 544 230.50 495.50Q206 447 206 365L206 345Q206 258 230.50 207.50Q255 157 295 135.50Q335 114 380 114M220 788L220 892L540 892L540 788L220 788Z"  horiz-adv-x="759" vert-adv-y="1000"  />

      
      <glyph glyph-name="unid8" unicode="&#xd8;" d="M380-12Q326-12 275.50 1Q225 14 183 43L139-12L75 42L122 100Q88 143 69 203.50Q50 264 50 345L50 365Q50 457 76.50 522.50Q103 588 149.50 630Q196 672 255 692Q314 712 380 712Q434 712 484 699Q534 686 576 657L621 712L684 659L638 601Q671 559 690.50 501Q710 443 710 365L710 345Q710 249 683.50 181.50Q657 114 610.50 71Q564 28 505 8Q446-12 380-12M380 114Q426 114 465.50 135.50Q505 157 529.50 207.50Q554 258 554 345L554 365Q554 399 549 426.50Q544 454 536 477L272 151Q295 131 322.50 122.50Q350 114 380 114M380 586Q335 586 295 565Q255 544 230.50 495.50Q206 447 206 365L206 345Q206 308 210 278Q214 248 223 225L488 549Q465 569 437 577.50Q409 586 380 586Z"  horiz-adv-x="759" vert-adv-y="1000"  />

      
      <glyph glyph-name="unid5" unicode="&#xd5;" d="M380-12Q314-12 255 8Q196 28 149.50 70.50Q103 113 76.50 181Q50 249 50 345L50 365Q50 457 76.50 522.50Q103 588 149.50 630Q196 672 255 692Q314 712 380 712Q446 712 505 692Q564 672 610.50 630Q657 588 683.50 522.50Q710 457 710 365L710 345Q710 249 683.50 181Q657 113 610.50 70.50Q564 28 505 8Q446-12 380-12M380 114Q426 114 465.50 135.50Q505 157 529.50 207.50Q554 258 554 345L554 365Q554 447 529.50 495.50Q505 544 465.50 565Q426 586 380 586Q335 586 295 565Q255 544 230.50 495.50Q206 447 206 365L206 345Q206 258 230.50 207.50Q255 157 295 135.50Q335 114 380 114M450 750Q415 750 392.50 761Q370 772 351.50 783.50Q333 795 310 795Q296 795 287 789Q278 783 271 775Q268 771 265 765.50Q262 760 260 755L190 795Q194 809 200 822.50Q206 836 214 847Q228 867 251.50 883.50Q275 900 309 900Q345 900 367.50 888.50Q390 877 409 866Q428 855 450 855Q463 855 472.50 861Q482 867 487 875Q492 880 495 885Q498 890 500 895L570 855Q566 840 560 826.50Q554 813 546 802Q532 782 508.50 766Q485 750 450 750Z"  horiz-adv-x="759" vert-adv-y="1000"  />

      
      <glyph glyph-name="uni0152" unicode="&#x0152;" d="M375-12Q311-12 252.50 8Q194 28 148.50 71Q103 114 76.50 181.50Q50 249 50 345L50 365Q50 457 76.50 522.50Q103 588 148.50 630Q194 672 252.50 692Q311 712 375 712Q429 712 475.50 698Q522 684 560 651L560 700L1050 700L1050 576L711 576L711 422L1020 422L1020 298L711 298L711 124L1050 124L1050 0L560 0L560 49Q522 16 475.50 2Q429-12 375-12M380 114Q426 114 466 135.50Q506 157 530.50 207.50Q555 258 555 345L555 365Q555 447 530.50 495.50Q506 544 466 565Q426 586 380 586Q335 586 295 565Q255 544 230.50 495.50Q206 447 206 365L206 345Q206 258 230.50 207.50Q255 157 295 135.50Q335 114 380 114Z"  horiz-adv-x="1100" vert-adv-y="1000"  />

      
      <glyph glyph-name="uni50" unicode="&#x50;" d="M81 0L81 700L350 700Q445 700 507 671.50Q569 643 599 591.50Q629 540 629 470Q629 400 599 348.50Q569 297 507 268.50Q445 240 350 240L230 240L230 0L81 0M230 364L335 364Q415 364 447.50 391Q480 418 480 470Q480 521 447.50 548.50Q415 576 335 576L230 576L230 364Z"  horiz-adv-x="665" vert-adv-y="1000"  />

      
      <glyph glyph-name="unide" unicode="&#xde;" d="M81 0L81 700L230 700L230 590L350 590Q445 590 507 561.50Q569 533 599 481.50Q629 430 629 360Q629 290 599 238.50Q569 187 507 158.50Q445 130 350 130L230 130L230 0L81 0M230 254L335 254Q415 254 447.50 281Q480 308 480 360Q480 411 447.50 438.50Q415 466 335 466L230 466L230 254Z"  horiz-adv-x="665" vert-adv-y="1000"  />

      
      <glyph glyph-name="uni51" unicode="&#x51;" d="M380-12Q314-12 255 8Q196 28 149.50 71Q103 114 76.50 181.50Q50 249 50 345L50 365Q50 457 76.50 522.50Q103 588 149.50 630Q196 672 255 692Q314 712 380 712Q446 712 505 692Q564 672 610.50 630Q657 588 683.50 522.50Q710 457 710 365L710 345Q710 266 690.50 206.50Q671 147 640 104L700 45L625-30L560 33Q521 11 475-0.50Q429-12 380-12M380 114Q402 114 422 118.50Q442 123 461 133L360 235L435 310L531 213Q542 239 548 271Q554 303 554 345L554 365Q554 447 529.50 495.50Q505 544 465.50 565Q426 586 380 586Q335 586 295 565Q255 544 230.50 495.50Q206 447 206 365L206 345Q206 258 230.50 207.50Q255 157 295 135.50Q335 114 380 114Z"  horiz-adv-x="759" vert-adv-y="1000"  />

      
      <glyph glyph-name="uni52" unicode="&#x52;" d="M81 0L81 700L364 700Q452 700 510.50 672Q569 644 599 593.50Q629 543 629 475Q629 403 592 349.50Q555 296 479 272L649 0L476 0L329 256L230 256L230 0L81 0M230 374L335 374Q418 374 449 399.50Q480 425 480 475Q480 525 449 550.50Q418 576 335 576L230 576L230 374Z"  horiz-adv-x="690" vert-adv-y="1000"  />

      
      <glyph glyph-name="uni0154" unicode="&#x0154;" d="M81 0L81 700L364 700Q452 700 510.50 672Q569 644 599 593.50Q629 543 629 475Q629 403 592 349.50Q555 296 479 272L649 0L476 0L329 256L230 256L230 0L81 0M230 374L335 374Q418 374 449 399.50Q480 425 480 475Q480 525 449 550.50Q418 576 335 576L230 576L230 374M285 750L395 900L555 900L405 750L285 750Z"  horiz-adv-x="690" vert-adv-y="1000"  />

      
      <glyph glyph-name="uni0158" unicode="&#x0158;" d="M81 0L81 700L364 700Q452 700 510.50 672Q569 644 599 593.50Q629 543 629 475Q629 403 592 349.50Q555 296 479 272L649 0L476 0L329 256L230 256L230 0L81 0M230 374L335 374Q418 374 449 399.50Q480 425 480 475Q480 525 449 550.50Q418 576 335 576L230 576L230 374M275 750L165 900L285 900L344 839L405 900L525 900L415 750L275 750Z"  horiz-adv-x="690" vert-adv-y="1000"  />

      
      <glyph glyph-name="uni0156" unicode="&#x0156;" d="M81 0L81 700L364 700Q452 700 510.50 672Q569 644 599 593.50Q629 543 629 475Q629 403 592 349.50Q555 296 479 272L649 0L476 0L329 256L230 256L230 0L81 0M230 374L335 374Q418 374 449 399.50Q480 425 480 475Q480 525 449 550.50Q418 576 335 576L230 576L230 374M290-226L290-45L400-45L400-136L349-226L290-226Z"  horiz-adv-x="690" vert-adv-y="1000"  />

      
      <glyph glyph-name="uni53" unicode="&#x53;" d="M330-12Q237-12 175 14Q113 40 80.50 86.50Q48 133 45 195L195 195Q203 156 231.50 135Q260 114 330 114Q402 114 433.50 133.50Q465 153 465 189Q465 219 446.50 238Q428 257 390 270.50Q352 284 291 296Q220 310 169 335Q118 360 91.50 403Q65 446 65 512Q65 573 97.50 617.50Q130 662 189.50 687Q249 712 330 712Q418 712 474.50 687.50Q531 663 560.50 619Q590 575 595 515L446 515Q438 551 413 568.50Q388 586 330 586Q271 586 243 567Q215 548 215 516Q215 477 253.50 455Q292 433 375 417Q432 406 476.50 390Q521 374 552 348.50Q583 323 599 287Q615 251 615 200Q615 136 581.50 88Q548 40 484.50 14Q421-12 330-12Z"  horiz-adv-x="659" vert-adv-y="1000"  />

      
      <glyph glyph-name="uni015A" unicode="&#x015A;" d="M330-12Q237-12 175 14Q113 40 80.50 86.50Q48 133 45 195L195 195Q203 156 231.50 135Q260 114 330 114Q402 114 433.50 133.50Q465 153 465 189Q465 219 446.50 238Q428 257 390 270.50Q352 284 291 296Q220 310 169 335Q118 360 91.50 403Q65 446 65 512Q65 573 97.50 617.50Q130 662 189.50 687Q249 712 330 712Q418 712 474.50 687.50Q531 663 560.50 619Q590 575 595 515L446 515Q438 551 413 568.50Q388 586 330 586Q271 586 243 567Q215 548 215 516Q215 477 253.50 455Q292 433 375 417Q432 406 476.50 390Q521 374 552 348.50Q583 323 599 287Q615 251 615 200Q615 136 581.50 88Q548 40 484.50 14Q421-12 330-12M270 750L380 900L540 900L390 750L270 750Z"  horiz-adv-x="659" vert-adv-y="1000"  />

      
      <glyph glyph-name="uni0160" unicode="&#x0160;" d="M330-12Q237-12 175 14Q113 40 80.50 86.50Q48 133 45 195L195 195Q203 156 231.50 135Q260 114 330 114Q402 114 433.50 133.50Q465 153 465 189Q465 219 446.50 238Q428 257 390 270.50Q352 284 291 296Q220 310 169 335Q118 360 91.50 403Q65 446 65 512Q65 573 97.50 617.50Q130 662 189.50 687Q249 712 330 712Q418 712 474.50 687.50Q531 663 560.50 619Q590 575 595 515L446 515Q438 551 413 568.50Q388 586 330 586Q271 586 243 567Q215 548 215 516Q215 477 253.50 455Q292 433 375 417Q432 406 476.50 390Q521 374 552 348.50Q583 323 599 287Q615 251 615 200Q615 136 581.50 88Q548 40 484.50 14Q421-12 330-12M260 750L150 900L270 900L329 839L390 900L510 900L400 750L260 750Z"  horiz-adv-x="659" vert-adv-y="1000"  />

      
      <glyph glyph-name="uni015E" unicode="&#x015E;" d="M330-12Q237-12 175 14Q113 40 80.50 86.50Q48 133 45 195L195 195Q203 156 231.50 135Q260 114 330 114Q402 114 433.50 133.50Q465 153 465 189Q465 219 446.50 238Q428 257 390 270.50Q352 284 291 296Q220 310 169 335Q118 360 91.50 403Q65 446 65 512Q65 573 97.50 617.50Q130 662 189.50 687Q249 712 330 712Q418 712 474.50 687.50Q531 663 560.50 619Q590 575 595 515L446 515Q438 551 413 568.50Q388 586 330 586Q271 586 243 567Q215 548 215 516Q215 477 253.50 455Q292 433 375 417Q432 406 476.50 390Q521 374 552 348.50Q583 323 599 287Q615 251 615 200Q615 136 581.50 88Q548 40 484.50 14Q421-12 330-12M315-212Q298-212 285-211Q272-210 263-208Q258-207 253.50-206Q249-205 245-204L245-130L259-132Q266-133 275-133.50Q284-134 295-134Q322-134 330.50-126.50Q339-119 339-109Q339-98 330.50-90.50Q322-83 290-83L307 10L387 10L380-36Q417-45 430.50-67.50Q444-90 444-115Q444-159 414-185.50Q384-212 315-212Z"  horiz-adv-x="659" vert-adv-y="1000"  />

      
      <glyph glyph-name="uni0218" unicode="&#x0218;" d="M330-12Q237-12 175 14Q113 40 80.50 86.50Q48 133 45 195L195 195Q203 156 231.50 135Q260 114 330 114Q402 114 433.50 133.50Q465 153 465 189Q465 219 446.50 238Q428 257 390 270.50Q352 284 291 296Q220 310 169 335Q118 360 91.50 403Q65 446 65 512Q65 573 97.50 617.50Q130 662 189.50 687Q249 712 330 712Q418 712 474.50 687.50Q531 663 560.50 619Q590 575 595 515L446 515Q438 551 413 568.50Q388 586 330 586Q271 586 243 567Q215 548 215 516Q215 477 253.50 455Q292 433 375 417Q432 406 476.50 390Q521 374 552 348.50Q583 323 599 287Q615 251 615 200Q615 136 581.50 88Q548 40 484.50 14Q421-12 330-12M275-226L275-45L385-45L385-136L334-226L275-226Z"  horiz-adv-x="659" vert-adv-y="1000"  />

      
      <glyph glyph-name="uni1E9E" unicode="&#x1E9E;" d="M351 710Q415 710 463 694.50Q511 679 544.50 650Q578 621 598 581Q618 541 625 496L501 387Q551 380 583 357Q615 334 630.50 297Q646 260 646 210Q646 158 630 119.50Q614 81 584 54Q554 27 510.50 13.50Q467 0 412 0L350 0L350 121L392 121Q446 121 470.50 146.50Q495 172 495 214Q495 261 467 282Q439 303 384 303L341 303L341 385L476 506Q469 540 442 562Q415 584 365 584Q293 584 258.50 541.50Q224 499 224 418L224 0L73 0L73 435Q73 522 107 584Q141 646 203.50 678Q266 710 351 710Z"  horiz-adv-x="686" vert-adv-y="1000"  />

      
      <glyph glyph-name="uni54" unicode="&#x54;" d="M245 0L245 576L20 576L20 700L619 700L619 576L394 576L394 0L245 0Z"  horiz-adv-x="639" vert-adv-y="1000"  />

      
      <glyph glyph-name="uni0164" unicode="&#x0164;" d="M245 0L245 576L20 576L20 700L619 700L619 576L394 576L394 0L245 0M250 750L140 900L260 900L319 839L380 900L500 900L390 750L250 750Z"  horiz-adv-x="639" vert-adv-y="1000"  />

      
      <glyph glyph-name="uni021A" unicode="&#x021A;" d="M245 0L245 576L20 576L20 700L619 700L619 576L394 576L394 0L245 0M265-226L265-45L375-45L375-136L324-226L265-226Z"  horiz-adv-x="639" vert-adv-y="1000"  />

      
      <glyph glyph-name="uni55" unicode="&#x55;" d="M365-12Q275-12 209 20Q143 52 107 117Q71 182 71 280L71 700L220 700L220 294Q220 204 255 159Q290 114 365 114Q440 114 475 159Q510 204 510 293L510 700L659 700L659 280Q659 182 623.50 117Q588 52 522 20Q456-12 365-12Z"  horiz-adv-x="730" vert-adv-y="1000"  />

      
      <glyph glyph-name="unida" unicode="&#xda;" d="M365-12Q275-12 209 20Q143 52 107 117Q71 182 71 280L71 700L220 700L220 294Q220 204 255 159Q290 114 365 114Q440 114 475 159Q510 204 510 293L510 700L659 700L659 280Q659 182 623.50 117Q588 52 522 20Q456-12 365-12M306 750L416 900L576 900L426 750L306 750Z"  horiz-adv-x="730" vert-adv-y="1000"  />

      
      <glyph glyph-name="uni016C" unicode="&#x016C;" d="M365-12Q275-12 209 20Q143 52 107 117Q71 182 71 280L71 700L220 700L220 294Q220 204 255 159Q290 114 365 114Q440 114 475 159Q510 204 510 293L510 700L659 700L659 280Q659 182 623.50 117Q588 52 522 20Q456-12 365-12Z"  horiz-adv-x="730" vert-adv-y="1000"  />

      
      <glyph glyph-name="unidb" unicode="&#xdb;" d="M365-12Q275-12 209 20Q143 52 107 117Q71 182 71 280L71 700L220 700L220 294Q220 204 255 159Q290 114 365 114Q440 114 475 159Q510 204 510 293L510 700L659 700L659 280Q659 182 623.50 117Q588 52 522 20Q456-12 365-12M186 750L296 900L436 900L546 750L426 750L365 811L306 750L186 750Z"  horiz-adv-x="730" vert-adv-y="1000"  />

      
      <glyph glyph-name="unidc" unicode="&#xdc;" d="M365-12Q275-12 209 20Q143 52 107 117Q71 182 71 280L71 700L220 700L220 294Q220 204 255 159Q290 114 365 114Q440 114 475 159Q510 204 510 293L510 700L659 700L659 280Q659 182 623.50 117Q588 52 522 20Q456-12 365-12M245 746Q210 746 187.50 768Q165 790 165 825Q165 860 187.50 882Q210 904 245 904Q280 904 302.50 882Q325 860 325 825Q325 790 302.50 768Q280 746 245 746M485 746Q450 746 427 768Q404 790 404 825Q404 860 427 882Q450 904 485 904Q520 904 542.50 882Q565 860 565 825Q565 790 542.50 768Q520 746 485 746Z"  horiz-adv-x="730" vert-adv-y="1000"  />

      
      <glyph glyph-name="unid9" unicode="&#xd9;" d="M365-12Q275-12 209 20Q143 52 107 117Q71 182 71 280L71 700L220 700L220 294Q220 204 255 159Q290 114 365 114Q440 114 475 159Q510 204 510 293L510 700L659 700L659 280Q659 182 623.50 117Q588 52 522 20Q456-12 365-12M306 750L156 900L316 900L426 750L306 750Z"  horiz-adv-x="730" vert-adv-y="1000"  />

      
      <glyph glyph-name="uni0170" unicode="&#x0170;" d="M365-12Q275-12 209 20Q143 52 107 117Q71 182 71 280L71 700L220 700L220 294Q220 204 255 159Q290 114 365 114Q440 114 475 159Q510 204 510 293L510 700L659 700L659 280Q659 182 623.50 117Q588 52 522 20Q456-12 365-12M238 750L347 900L472 900L339 750L238 750M405 750L539 900L667 900L506 750L405 750Z"  horiz-adv-x="730" vert-adv-y="1000"  />

      
      <glyph glyph-name="uni016A" unicode="&#x016A;" d="M365-12Q275-12 209 20Q143 52 107 117Q71 182 71 280L71 700L220 700L220 294Q220 204 255 159Q290 114 365 114Q440 114 475 159Q510 204 510 293L510 700L659 700L659 280Q659 182 623.50 117Q588 52 522 20Q456-12 365-12M206 788L206 892L526 892L526 788L206 788Z"  horiz-adv-x="730" vert-adv-y="1000"  />

      
      <glyph glyph-name="uni0172" unicode="&#x0172;" d="M365-12Q275-12 209 20Q143 52 107 117Q71 182 71 280L71 700L220 700L220 294Q220 204 255 159Q290 114 365 114Q440 114 475 159Q510 204 510 293L510 700L659 700L659 280Q659 182 623.50 117Q588 52 522 20Q456-12 365-12M415-212Q352-212 320.50-191Q289-170 289-124Q289-100 299.50-80Q310-60 326-44.50Q342-29 359-17.50Q376-6 390 0L469 0Q455-14 437-29Q419-44 406-61Q393-78 393-99Q393-115 403.50-124.50Q414-134 442-134Q452-134 457-133.50Q462-133 469-132L469-208Q456-210 447.50-211Q439-212 415-212Z"  horiz-adv-x="730" vert-adv-y="1000"  />

      
      <glyph glyph-name="uni016E" unicode="&#x016E;" d="M365-12Q275-12 209 20Q143 52 107 117Q71 182 71 280L71 700L220 700L220 294Q220 204 255 159Q290 114 365 114Q440 114 475 159Q510 204 510 293L510 700L659 700L659 280Q659 182 623.50 117Q588 52 522 20Q456-12 365-12M365 730Q328 730 298.50 744.50Q269 759 252 785Q235 811 235 845Q235 879 252 905Q269 931 298.50 945.50Q328 960 365 960Q402 960 431 945.50Q460 931 477 905Q494 879 494 845Q494 811 477.50 785Q461 759 431 744.50Q401 730 365 730M365 810Q382 810 393.50 819.50Q405 829 405 845Q405 862 393.50 871Q382 880 365 880Q348 880 336 870.50Q324 861 324 845Q324 828 336 819Q348 810 365 810Z"  horiz-adv-x="730" vert-adv-y="1000"  />

      
      <glyph glyph-name="uni56" unicode="&#x56;" d="M275 0L10 700L172 700L356 180L530 700L680 700L424 0L275 0Z"  horiz-adv-x="689" vert-adv-y="1000"  />

      
      <glyph glyph-name="uni57" unicode="&#x57;" d="M200 0L20 700L176 700L285 206L420 700L560 700L698 204L816 700L960 700L779 0L630 0L485 500L349 0L200 0Z"  horiz-adv-x="979" vert-adv-y="1000"  />

      
      <glyph glyph-name="uni1E82" unicode="&#x1E82;" d="M200 0L20 700L176 700L285 206L420 700L560 700L698 204L816 700L960 700L779 0L630 0L485 500L349 0L200 0M430 750L540 900L700 900L550 750L430 750Z"  horiz-adv-x="979" vert-adv-y="1000"  />

      
      <glyph glyph-name="uni0174" unicode="&#x0174;" d="M200 0L20 700L176 700L285 206L420 700L560 700L698 204L816 700L960 700L779 0L630 0L485 500L349 0L200 0M310 750L420 900L560 900L670 750L550 750L489 811L430 750L310 750Z"  horiz-adv-x="979" vert-adv-y="1000"  />

      
      <glyph glyph-name="uni1E84" unicode="&#x1E84;" d="M200 0L20 700L176 700L285 206L420 700L560 700L698 204L816 700L960 700L779 0L630 0L485 500L349 0L200 0M371 746Q336 746 313.50 768Q291 790 291 825Q291 860 313.50 882Q336 904 371 904Q406 904 428.50 882Q451 860 451 825Q451 790 428.50 768Q406 746 371 746M611 746Q576 746 553 768Q530 790 530 825Q530 860 553 882Q576 904 611 904Q646 904 668.50 882Q691 860 691 825Q691 790 668.50 768Q646 746 611 746Z"  horiz-adv-x="979" vert-adv-y="1000"  />

      
      <glyph glyph-name="uni1E80" unicode="&#x1E80;" d="M200 0L20 700L176 700L285 206L420 700L560 700L698 204L816 700L960 700L779 0L630 0L485 500L349 0L200 0M430 750L280 900L440 900L550 750L430 750Z"  horiz-adv-x="979" vert-adv-y="1000"  />

      
      <glyph glyph-name="uni58" unicode="&#x58;" d="M20 0L255 365L30 700L198 700L352 471L507 700L670 700L447 368L680 0L511 0L348 262L186 0L20 0Z"  horiz-adv-x="700" vert-adv-y="1000"  />

      
      <glyph glyph-name="uni59" unicode="&#x59;" d="M275 0L275 267L10 700L185 700L353 419L510 700L670 700L425 267L425 0L275 0Z"  horiz-adv-x="680" vert-adv-y="1000"  />

      
      <glyph glyph-name="unidd" unicode="&#xdd;" d="M275 0L275 267L10 700L185 700L353 419L510 700L670 700L425 267L425 0L275 0M280 750L390 900L550 900L400 750L280 750Z"  horiz-adv-x="680" vert-adv-y="1000"  />

      
      <glyph glyph-name="uni0176" unicode="&#x0176;" d="M275 0L275 267L10 700L185 700L353 419L510 700L670 700L425 267L425 0L275 0M160 750L270 900L410 900L520 750L400 750L339 811L280 750L160 750Z"  horiz-adv-x="680" vert-adv-y="1000"  />

      
      <glyph glyph-name="uni0178" unicode="&#x0178;" d="M275 0L275 267L10 700L185 700L353 419L510 700L670 700L425 267L425 0L275 0M220 746Q185 746 162.50 768Q140 790 140 825Q140 860 162.50 882Q185 904 220 904Q255 904 277.50 882Q300 860 300 825Q300 790 277.50 768Q255 746 220 746M460 746Q425 746 402 768Q379 790 379 825Q379 860 402 882Q425 904 460 904Q495 904 517.50 882Q540 860 540 825Q540 790 517.50 768Q495 746 460 746Z"  horiz-adv-x="680" vert-adv-y="1000"  />

      
      <glyph glyph-name="uni1EF2" unicode="&#x1EF2;" d="M275 0L275 267L10 700L185 700L353 419L510 700L670 700L425 267L425 0L275 0M280 750L130 900L290 900L400 750L280 750Z"  horiz-adv-x="680" vert-adv-y="1000"  />

      
      <glyph glyph-name="uni5a" unicode="&#x5a;" d="M35 0L35 109L395 576L45 576L45 700L575 700L575 591L215 124L585 124L585 0L35 0Z"  horiz-adv-x="619" vert-adv-y="1000"  />

      
      <glyph glyph-name="uni0179" unicode="&#x0179;" d="M35 0L35 109L395 576L45 576L45 700L575 700L575 591L215 124L585 124L585 0L35 0M250 750L360 900L520 900L370 750L250 750Z"  horiz-adv-x="619" vert-adv-y="1000"  />

      
      <glyph glyph-name="uni017D" unicode="&#x017D;" d="M35 0L35 109L395 576L45 576L45 700L575 700L575 591L215 124L585 124L585 0L35 0M240 750L130 900L250 900L309 839L370 900L490 900L380 750L240 750Z"  horiz-adv-x="619" vert-adv-y="1000"  />

      
      <glyph glyph-name="uni017B" unicode="&#x017B;" d="M35 0L35 109L395 576L45 576L45 700L575 700L575 591L215 124L585 124L585 0L35 0M310 740Q272 740 248 763.50Q224 787 224 825Q224 863 248 886.50Q272 910 310 910Q348 910 372 886.50Q396 863 396 825Q396 787 372 763.50Q348 740 310 740Z"  horiz-adv-x="619" vert-adv-y="1000"  />

      
      <glyph glyph-name="uni61" unicode="&#x61;" d="M219-12Q162-12 122 9.50Q82 31 61 69Q40 107 40 155Q40 235 87.50 275Q135 315 230 315L388 315L388 340Q388 392 364.50 413Q341 434 290 434Q245 434 225 418.50Q205 403 202 380L70 380Q73 426 99.50 462.50Q126 499 175.50 520.50Q225 542 295 542Q363 542 413.50 522Q464 502 492 457.50Q520 413 520 338L520 135Q520 93 521.50 61.50Q523 30 527 0L404 0Q400 22 399.50 33.50Q399 45 399 68Q378 36 333 12Q288-12 219-12M260 90Q292 90 321.50 101.50Q351 113 369.50 137.50Q388 162 388 200L388 225L255 225Q217 225 195.50 207.50Q174 190 174 160Q174 128 196 109Q218 90 260 90Z"  horiz-adv-x="575" vert-adv-y="1000"  />

      
      <glyph glyph-name="unie1" unicode="&#xe1;" d="M219-12Q162-12 122 9.50Q82 31 61 69Q40 107 40 155Q40 235 87.50 275Q135 315 230 315L388 315L388 340Q388 392 364.50 413Q341 434 290 434Q245 434 225 418.50Q205 403 202 380L70 380Q73 426 99.50 462.50Q126 499 175.50 520.50Q225 542 295 542Q363 542 413.50 522Q464 502 492 457.50Q520 413 520 338L520 135Q520 93 521.50 61.50Q523 30 527 0L404 0Q400 22 399.50 33.50Q399 45 399 68Q378 36 333 12Q288-12 219-12M260 90Q292 90 321.50 101.50Q351 113 369.50 137.50Q388 162 388 200L388 225L255 225Q217 225 195.50 207.50Q174 190 174 160Q174 128 196 109Q218 90 260 90M240 580L350 740L500 740L350 580L240 580Z"  horiz-adv-x="575" vert-adv-y="1000"  />

      
      <glyph glyph-name="uni0103" unicode="&#x0103;" d="M219-12Q162-12 122 9.50Q82 31 61 69Q40 107 40 155Q40 235 87.50 275Q135 315 230 315L388 315L388 340Q388 392 364.50 413Q341 434 290 434Q245 434 225 418.50Q205 403 202 380L70 380Q73 426 99.50 462.50Q126 499 175.50 520.50Q225 542 295 542Q363 542 413.50 522Q464 502 492 457.50Q520 413 520 338L520 135Q520 93 521.50 61.50Q523 30 527 0L404 0Q400 22 399.50 33.50Q399 45 399 68Q378 36 333 12Q288-12 219-12M260 90Q292 90 321.50 101.50Q351 113 369.50 137.50Q388 162 388 200L388 225L255 225Q217 225 195.50 207.50Q174 190 174 160Q174 128 196 109Q218 90 260 90M295 585Q206 585 165.50 623Q125 661 125 735L242 735Q242 696 255 680.50Q268 665 294 665Q322 665 336 680.50Q350 696 350 735L465 735Q465 661 424 623Q383 585 295 585Z"  horiz-adv-x="575" vert-adv-y="1000"  />

      
      <glyph glyph-name="unie2" unicode="&#xe2;" d="M219-12Q162-12 122 9.50Q82 31 61 69Q40 107 40 155Q40 235 87.50 275Q135 315 230 315L388 315L388 340Q388 392 364.50 413Q341 434 290 434Q245 434 225 418.50Q205 403 202 380L70 380Q73 426 99.50 462.50Q126 499 175.50 520.50Q225 542 295 542Q363 542 413.50 522Q464 502 492 457.50Q520 413 520 338L520 135Q520 93 521.50 61.50Q523 30 527 0L404 0Q400 22 399.50 33.50Q399 45 399 68Q378 36 333 12Q288-12 219-12M260 90Q292 90 321.50 101.50Q351 113 369.50 137.50Q388 162 388 200L388 225L255 225Q217 225 195.50 207.50Q174 190 174 160Q174 128 196 109Q218 90 260 90M120 580L230 740L360 740L470 580L360 580L294 650L230 580L120 580Z"  horiz-adv-x="575" vert-adv-y="1000"  />

      
      <glyph glyph-name="unie4" unicode="&#xe4;" d="M219-12Q162-12 122 9.50Q82 31 61 69Q40 107 40 155Q40 235 87.50 275Q135 315 230 315L388 315L388 340Q388 392 364.50 413Q341 434 290 434Q245 434 225 418.50Q205 403 202 380L70 380Q73 426 99.50 462.50Q126 499 175.50 520.50Q225 542 295 542Q363 542 413.50 522Q464 502 492 457.50Q520 413 520 338L520 135Q520 93 521.50 61.50Q523 30 527 0L404 0Q400 22 399.50 33.50Q399 45 399 68Q378 36 333 12Q288-12 219-12M260 90Q292 90 321.50 101.50Q351 113 369.50 137.50Q388 162 388 200L388 225L255 225Q217 225 195.50 207.50Q174 190 174 160Q174 128 196 109Q218 90 260 90M189 586Q157 586 136 607Q115 628 115 660Q115 692 136 713Q157 734 189 734Q221 734 242 713Q263 692 263 660Q263 628 242 607Q221 586 189 586M401 586Q369 586 348 607Q327 628 327 660Q327 692 348 713Q369 734 401 734Q433 734 454 713Q475 692 475 660Q475 628 454 607Q433 586 401 586Z"  horiz-adv-x="575" vert-adv-y="1000"  />

      
      <glyph glyph-name="unie0" unicode="&#xe0;" d="M219-12Q162-12 122 9.50Q82 31 61 69Q40 107 40 155Q40 235 87.50 275Q135 315 230 315L388 315L388 340Q388 392 364.50 413Q341 434 290 434Q245 434 225 418.50Q205 403 202 380L70 380Q73 426 99.50 462.50Q126 499 175.50 520.50Q225 542 295 542Q363 542 413.50 522Q464 502 492 457.50Q520 413 520 338L520 135Q520 93 521.50 61.50Q523 30 527 0L404 0Q400 22 399.50 33.50Q399 45 399 68Q378 36 333 12Q288-12 219-12M260 90Q292 90 321.50 101.50Q351 113 369.50 137.50Q388 162 388 200L388 225L255 225Q217 225 195.50 207.50Q174 190 174 160Q174 128 196 109Q218 90 260 90M240 580L90 740L240 740L350 580L240 580Z"  horiz-adv-x="575" vert-adv-y="1000"  />

      
      <glyph glyph-name="uni0101" unicode="&#x0101;" d="M219-12Q162-12 122 9.50Q82 31 61 69Q40 107 40 155Q40 235 87.50 275Q135 315 230 315L388 315L388 340Q388 392 364.50 413Q341 434 290 434Q245 434 225 418.50Q205 403 202 380L70 380Q73 426 99.50 462.50Q126 499 175.50 520.50Q225 542 295 542Q363 542 413.50 522Q464 502 492 457.50Q520 413 520 338L520 135Q520 93 521.50 61.50Q523 30 527 0L404 0Q400 22 399.50 33.50Q399 45 399 68Q378 36 333 12Q288-12 219-12M260 90Q292 90 321.50 101.50Q351 113 369.50 137.50Q388 162 388 200L388 225L255 225Q217 225 195.50 207.50Q174 190 174 160Q174 128 196 109Q218 90 260 90M145 615L145 705L445 705L445 615L145 615Z"  horiz-adv-x="575" vert-adv-y="1000"  />

      
      <glyph glyph-name="uni0105" unicode="&#x0105;" d="M219-12Q162-12 122 9.50Q82 31 61 69Q40 107 40 155Q40 235 87.50 275Q135 315 230 315L388 315L388 340Q388 392 364.50 413Q341 434 290 434Q245 434 225 418.50Q205 403 202 380L70 380Q73 426 99.50 462.50Q126 499 175.50 520.50Q225 542 295 542Q363 542 413.50 522Q464 502 492 457.50Q520 413 520 338L520 135Q520 93 521.50 61.50Q523 30 527 0L404 0Q400 22 399.50 33.50Q399 45 399 68Q378 36 333 12Q288-12 219-12M260 90Q292 90 321.50 101.50Q351 113 369.50 137.50Q388 162 388 200L388 225L255 225Q217 225 195.50 207.50Q174 190 174 160Q174 128 196 109Q218 90 260 90M473-212Q410-212 378.50-191Q347-170 347-124Q347-100 357.50-80Q368-60 384-44.50Q400-29 417-17.50Q434-6 448 0L527 0Q513-14 495-29Q477-44 464-61Q451-78 451-99Q451-115 461.50-124.50Q472-134 500-134Q510-134 515-133.50Q520-133 527-132L527-208Q514-210 505.50-211Q497-212 473-212Z"  horiz-adv-x="575" vert-adv-y="1000"  />

      
      <glyph glyph-name="unie5" unicode="&#xe5;" d="M219-12Q162-12 122 9.50Q82 31 61 69Q40 107 40 155Q40 235 87.50 275Q135 315 230 315L388 315L388 340Q388 392 364.50 413Q341 434 290 434Q245 434 225 418.50Q205 403 202 380L70 380Q73 426 99.50 462.50Q126 499 175.50 520.50Q225 542 295 542Q363 542 413.50 522Q464 502 492 457.50Q520 413 520 338L520 135Q520 93 521.50 61.50Q523 30 527 0L404 0Q400 22 399.50 33.50Q399 45 399 68Q378 36 333 12Q288-12 219-12M260 90Q292 90 321.50 101.50Q351 113 369.50 137.50Q388 162 388 200L388 225L255 225Q217 225 195.50 207.50Q174 190 174 160Q174 128 196 109Q218 90 260 90M295 565Q242 565 206 598Q170 631 170 680Q170 728 206 761.50Q242 795 295 795Q348 795 383.50 762Q419 729 419 680Q419 632 383.50 598.50Q348 565 295 565M295 643Q311 643 321.50 653Q332 663 332 680Q332 697 321.50 707Q311 717 295 717Q278 717 267.50 707Q257 697 257 680Q257 663 267.50 653Q278 643 295 643Z"  horiz-adv-x="575" vert-adv-y="1000"  />

      
      <glyph glyph-name="unie3" unicode="&#xe3;" d="M219-12Q162-12 122 9.50Q82 31 61 69Q40 107 40 155Q40 235 87.50 275Q135 315 230 315L388 315L388 340Q388 392 364.50 413Q341 434 290 434Q245 434 225 418.50Q205 403 202 380L70 380Q73 426 99.50 462.50Q126 499 175.50 520.50Q225 542 295 542Q363 542 413.50 522Q464 502 492 457.50Q520 413 520 338L520 135Q520 93 521.50 61.50Q523 30 527 0L404 0Q400 22 399.50 33.50Q399 45 399 68Q378 36 333 12Q288-12 219-12M260 90Q292 90 321.50 101.50Q351 113 369.50 137.50Q388 162 388 200L388 225L255 225Q217 225 195.50 207.50Q174 190 174 160Q174 128 196 109Q218 90 260 90M405 725L465 690Q461 676 455.50 663.50Q450 651 442 640Q429 621 408 605.50Q387 590 354 590Q324 590 303.50 601Q283 612 267.50 623.50Q252 635 234 635Q221 635 212 629Q203 623 197 615Q193 611 190 605.50Q187 600 185 595L125 630Q129 644 134.50 656.50Q140 669 148 680Q161 699 182 714.50Q203 730 234 730Q264 730 284 718.50Q304 707 320.50 696Q337 685 354 685Q367 685 377 691Q387 697 393 705Q397 710 400 715Q403 720 405 725Z"  horiz-adv-x="575" vert-adv-y="1000"  />

      
      <glyph glyph-name="unie6" unicode="&#xe6;" d="M219-12Q163-12 122.50 9.50Q82 31 61 69Q40 107 40 155Q40 235 87.50 274.50Q135 314 230 314L388 314L388 341Q388 392 364.50 413Q341 434 290 434Q245 434 225 418.50Q205 403 202 380L70 380Q73 426 99.50 462.50Q126 499 175.50 520.50Q225 542 295 542Q355 542 397 523.50Q439 505 468 470Q495 502 538.50 522Q582 542 645 542Q770 542 835 476Q900 410 900 285L900 223L525 223Q527 179 545.50 151Q564 123 593 109.50Q622 96 655 96Q706 96 732 111Q758 126 769 155L890 155Q874 72 811 30Q748-12 655-12Q586-12 532.50 12.50Q479 37 450 88Q421 39 362.50 13.50Q304-12 219-12M260 90Q292 90 321.50 101.50Q351 113 369.50 137.50Q388 162 388 200L388 224L255 224Q217 224 195.50 207Q174 190 174 160Q174 128 195.50 109Q217 90 260 90M650 434Q619 434 591 423Q563 412 545 386.50Q527 361 525 317L772 317Q771 364 754.50 389Q738 414 711 424Q684 434 650 434Z"  horiz-adv-x="935" vert-adv-y="1000"  />

      
      <glyph glyph-name="uni62" unicode="&#x62;" d="M355-12Q289-12 246 15Q203 42 183 78L183 0L61 0L61 700L192 700L192 457Q217 495 258.50 518.50Q300 542 355 542Q461 542 520.50 476.50Q580 411 580 280L580 260Q580 169 552.50 108.50Q525 48 475 18Q425-12 355-12M324 100Q376 100 411 139.50Q446 179 446 260L446 280Q446 355 412.50 392.50Q379 430 324 430Q286 430 256 415.50Q226 401 209 372.50Q192 344 192 300L192 240Q192 193 208.50 161.50Q225 130 255 115Q285 100 324 100Z"  horiz-adv-x="615" vert-adv-y="1000"  />

      
      <glyph glyph-name="uni63" unicode="&#x63;" d="M295-12Q222-12 163 18.50Q104 49 69.50 109.50Q35 170 35 260L35 280Q35 366 71 424Q107 482 166 512Q225 542 295 542Q370 542 422 517Q474 492 502.50 448Q531 404 535 351L401 351Q393 387 368.50 408.50Q344 430 295 430Q261 430 232.50 414Q204 398 186.50 365Q169 332 169 280L169 260Q169 204 185.50 168.50Q202 133 230.50 116.50Q259 100 295 100Q334 100 362.50 120.50Q391 141 401 179L535 179Q529 122 497 78Q465 34 412.50 11Q360-12 295-12Z"  horiz-adv-x="564" vert-adv-y="1000"  />

      
      <glyph glyph-name="uni0107" unicode="&#x0107;" d="M295-12Q222-12 163 18.50Q104 49 69.50 109.50Q35 170 35 260L35 280Q35 366 71 424Q107 482 166 512Q225 542 295 542Q370 542 422 517Q474 492 502.50 448Q531 404 535 351L401 351Q393 387 368.50 408.50Q344 430 295 430Q261 430 232.50 414Q204 398 186.50 365Q169 332 169 280L169 260Q169 204 185.50 168.50Q202 133 230.50 116.50Q259 100 295 100Q334 100 362.50 120.50Q391 141 401 179L535 179Q529 122 497 78Q465 34 412.50 11Q360-12 295-12M228 580L338 740L488 740L338 580L228 580Z"  horiz-adv-x="564" vert-adv-y="1000"  />

      
      <glyph glyph-name="uni010D" unicode="&#x010D;" d="M295-12Q222-12 163 18.50Q104 49 69.50 109.50Q35 170 35 260L35 280Q35 366 71 424Q107 482 166 512Q225 542 295 542Q370 542 422 517Q474 492 502.50 448Q531 404 535 351L401 351Q393 387 368.50 408.50Q344 430 295 430Q261 430 232.50 414Q204 398 186.50 365Q169 332 169 280L169 260Q169 204 185.50 168.50Q202 133 230.50 116.50Q259 100 295 100Q334 100 362.50 120.50Q391 141 401 179L535 179Q529 122 497 78Q465 34 412.50 11Q360-12 295-12M218 580L108 740L218 740L282 670L348 740L458 740L348 580L218 580Z"  horiz-adv-x="564" vert-adv-y="1000"  />

      
      <glyph glyph-name="unie7" unicode="&#xe7;" d="M295-12Q222-12 163 18.50Q104 49 69.50 109.50Q35 170 35 260L35 280Q35 366 71 424Q107 482 166 512Q225 542 295 542Q370 542 422 517Q474 492 502.50 448Q531 404 535 351L401 351Q393 387 368.50 408.50Q344 430 295 430Q261 430 232.50 414Q204 398 186.50 365Q169 332 169 280L169 260Q169 204 185.50 168.50Q202 133 230.50 116.50Q259 100 295 100Q334 100 362.50 120.50Q391 141 401 179L535 179Q529 122 497 78Q465 34 412.50 11Q360-12 295-12M270-212Q253-212 240-211Q227-210 218-208Q213-207 208.50-206Q204-205 200-204L200-132L214-134Q221-135 230-135.50Q239-136 250-136Q277-136 286.50-127.50Q296-119 296-110Q296-98 287-89.50Q278-81 247-81L264 10L340 10L333-36Q371-45 385-67.50Q399-90 399-115Q399-159 369-185.50Q339-212 270-212Z"  horiz-adv-x="564" vert-adv-y="1000"  />

      
      <glyph glyph-name="uni010B" unicode="&#x010B;" d="M295-12Q222-12 163 18.50Q104 49 69.50 109.50Q35 170 35 260L35 280Q35 366 71 424Q107 482 166 512Q225 542 295 542Q370 542 422 517Q474 492 502.50 448Q531 404 535 351L401 351Q393 387 368.50 408.50Q344 430 295 430Q261 430 232.50 414Q204 398 186.50 365Q169 332 169 280L169 260Q169 204 185.50 168.50Q202 133 230.50 116.50Q259 100 295 100Q334 100 362.50 120.50Q391 141 401 179L535 179Q529 122 497 78Q465 34 412.50 11Q360-12 295-12M283 581Q248 581 225.50 603Q203 625 203 660Q203 695 225.50 717Q248 739 282 739Q318 739 340.50 717Q363 695 363 660Q363 625 340.50 603Q318 581 283 581Z"  horiz-adv-x="564" vert-adv-y="1000"  />

      
      <glyph glyph-name="uni64" unicode="&#x64;" d="M260-12Q191-12 140.50 18Q90 48 62.50 108.50Q35 169 35 260L35 280Q35 366 62.50 424Q90 482 141 512Q192 542 260 542Q315 542 356.50 518.50Q398 495 423 456L423 700L554 700L554 0L432 0L432 78Q412 42 369 15Q326-12 260-12M291 100Q331 100 360.50 115Q390 130 406.50 161.50Q423 193 423 240L423 300Q423 344 406 372.50Q389 401 359 415.50Q329 430 291 430Q237 430 203 392.50Q169 355 169 280L169 260Q169 178 204 139Q239 100 291 100Z"  horiz-adv-x="615" vert-adv-y="1000"  />

      
      <glyph glyph-name="unif0" unicode="&#xf0;" d="M300-12Q233-12 172 17.50Q111 47 73 105.50Q35 164 35 250L35 270Q35 331 56.50 378Q78 425 114 457Q150 489 193.50 505.50Q237 522 280 522Q315 522 346 514.50Q377 507 404 492Q381 531 350 559Q319 587 276 607L250 558L188 587L212 633Q194 639 174.50 645Q155 651 134 657L168 753Q193 746 216.50 739Q240 732 261 724L286 770L348 740L325 698Q415 654 467.50 594Q520 534 542.50 457.50Q565 381 565 290L565 270Q565 174 527 111.50Q489 49 428.50 18.50Q368-12 300-12M300 98Q336 98 365.50 115Q395 132 413 166Q431 200 431 250L431 270Q431 316 413 347.50Q395 379 365.50 395.50Q336 412 300 412Q265 412 235 395.50Q205 379 187 347.50Q169 316 169 270L169 250Q169 200 187 166Q205 132 235 115Q265 98 300 98Z"  horiz-adv-x="605" vert-adv-y="1000"  />

      
      <glyph glyph-name="uni010F" unicode="&#x010F;" d="M260-12Q191-12 140.50 18Q90 48 62.50 108.50Q35 169 35 260L35 280Q35 366 62.50 424Q90 482 141 512Q192 542 260 542Q315 542 356.50 518.50Q398 495 423 456L423 700L554 700L554 0L432 0L432 78Q412 42 369 15Q326-12 260-12M291 100Q331 100 360.50 115Q390 130 406.50 161.50Q423 193 423 240L423 300Q423 344 406 372.50Q389 401 359 415.50Q329 430 291 430Q237 430 203 392.50Q169 355 169 280L169 260Q169 178 204 139Q239 100 291 100M626 486L637 613L637 700L748 700L748 613L680 486L626 486Z"  horiz-adv-x="615" vert-adv-y="1000"  />

      
      <glyph glyph-name="uni0111" unicode="&#x0111;" d="M283 643L654 643L654 573L283 573L283 643M260-12Q191-12 140.50 18Q90 48 62.50 108.50Q35 169 35 260L35 280Q35 366 62.50 424Q90 482 141 512Q192 542 260 542Q315 542 356.50 518.50Q398 495 423 456L423 700L554 700L554 0L432 0L432 78Q412 42 369 15Q326-12 260-12M291 100Q331 100 360.50 115Q390 130 406.50 161.50Q423 193 423 240L423 300Q423 344 406 372.50Q389 401 359 415.50Q329 430 291 430Q237 430 203 392.50Q169 355 169 280L169 260Q169 178 204 139Q239 100 291 100Z"  horiz-adv-x="615" vert-adv-y="1000"  />

      
      <glyph glyph-name="uni65" unicode="&#x65;" d="M300-12Q228-12 167.50 17.50Q107 47 71 107.50Q35 168 35 260L35 280Q35 368 69.50 426Q104 484 162 513Q220 542 290 542Q415 542 480 476Q545 410 545 285L545 229L170 229Q172 182 190.50 152.50Q209 123 238 109.50Q267 96 300 96Q351 96 377 111Q403 126 414 155L535 155Q519 72 456 30Q393-12 300-12M295 434Q264 434 235 424Q206 414 189 388.50Q172 363 170 321L417 321Q416 366 399.50 390.50Q383 415 356 424.50Q329 434 295 434Z"  horiz-adv-x="580" vert-adv-y="1000"  />

      
      <glyph glyph-name="unie9" unicode="&#xe9;" d="M300-12Q228-12 167.50 17.50Q107 47 71 107.50Q35 168 35 260L35 280Q35 368 69.50 426Q104 484 162 513Q220 542 290 542Q415 542 480 476Q545 410 545 285L545 229L170 229Q172 182 190.50 152.50Q209 123 238 109.50Q267 96 300 96Q351 96 377 111Q403 126 414 155L535 155Q519 72 456 30Q393-12 300-12M295 434Q264 434 235 424Q206 414 189 388.50Q172 363 170 321L417 321Q416 366 399.50 390.50Q383 415 356 424.50Q329 434 295 434M236 580L346 740L496 740L346 580L236 580Z"  horiz-adv-x="580" vert-adv-y="1000"  />

      
      <glyph glyph-name="uni011B" unicode="&#x011B;" d="M300-12Q228-12 167.50 17.50Q107 47 71 107.50Q35 168 35 260L35 280Q35 368 69.50 426Q104 484 162 513Q220 542 290 542Q415 542 480 476Q545 410 545 285L545 229L170 229Q172 182 190.50 152.50Q209 123 238 109.50Q267 96 300 96Q351 96 377 111Q403 126 414 155L535 155Q519 72 456 30Q393-12 300-12M295 434Q264 434 235 424Q206 414 189 388.50Q172 363 170 321L417 321Q416 366 399.50 390.50Q383 415 356 424.50Q329 434 295 434M226 580L116 740L226 740L290 670L356 740L466 740L356 580L226 580Z"  horiz-adv-x="580" vert-adv-y="1000"  />

      
      <glyph glyph-name="uniea" unicode="&#xea;" d="M300-12Q228-12 167.50 17.50Q107 47 71 107.50Q35 168 35 260L35 280Q35 368 69.50 426Q104 484 162 513Q220 542 290 542Q415 542 480 476Q545 410 545 285L545 229L170 229Q172 182 190.50 152.50Q209 123 238 109.50Q267 96 300 96Q351 96 377 111Q403 126 414 155L535 155Q519 72 456 30Q393-12 300-12M295 434Q264 434 235 424Q206 414 189 388.50Q172 363 170 321L417 321Q416 366 399.50 390.50Q383 415 356 424.50Q329 434 295 434M116 580L226 740L356 740L466 580L356 580L290 650L226 580L116 580Z"  horiz-adv-x="580" vert-adv-y="1000"  />

      
      <glyph glyph-name="unieb" unicode="&#xeb;" d="M300-12Q228-12 167.50 17.50Q107 47 71 107.50Q35 168 35 260L35 280Q35 368 69.50 426Q104 484 162 513Q220 542 290 542Q415 542 480 476Q545 410 545 285L545 229L170 229Q172 182 190.50 152.50Q209 123 238 109.50Q267 96 300 96Q351 96 377 111Q403 126 414 155L535 155Q519 72 456 30Q393-12 300-12M295 434Q264 434 235 424Q206 414 189 388.50Q172 363 170 321L417 321Q416 366 399.50 390.50Q383 415 356 424.50Q329 434 295 434M185 586Q153 586 132 607Q111 628 111 660Q111 692 132 713Q153 734 185 734Q217 734 238 713Q259 692 259 660Q259 628 238 607Q217 586 185 586M397 586Q365 586 344 607Q323 628 323 660Q323 692 344 713Q365 734 397 734Q429 734 450 713Q471 692 471 660Q471 628 450 607Q429 586 397 586Z"  horiz-adv-x="580" vert-adv-y="1000"  />

      
      <glyph glyph-name="uni0117" unicode="&#x0117;" d="M300-12Q228-12 167.50 17.50Q107 47 71 107.50Q35 168 35 260L35 280Q35 368 69.50 426Q104 484 162 513Q220 542 290 542Q415 542 480 476Q545 410 545 285L545 229L170 229Q172 182 190.50 152.50Q209 123 238 109.50Q267 96 300 96Q351 96 377 111Q403 126 414 155L535 155Q519 72 456 30Q393-12 300-12M295 434Q264 434 235 424Q206 414 189 388.50Q172 363 170 321L417 321Q416 366 399.50 390.50Q383 415 356 424.50Q329 434 295 434M291 581Q256 581 233.50 603Q211 625 211 660Q211 695 233.50 717Q256 739 290 739Q326 739 348.50 717Q371 695 371 660Q371 625 348.50 603Q326 581 291 581Z"  horiz-adv-x="580" vert-adv-y="1000"  />

      
      <glyph glyph-name="unie8" unicode="&#xe8;" d="M300-12Q228-12 167.50 17.50Q107 47 71 107.50Q35 168 35 260L35 280Q35 368 69.50 426Q104 484 162 513Q220 542 290 542Q415 542 480 476Q545 410 545 285L545 229L170 229Q172 182 190.50 152.50Q209 123 238 109.50Q267 96 300 96Q351 96 377 111Q403 126 414 155L535 155Q519 72 456 30Q393-12 300-12M295 434Q264 434 235 424Q206 414 189 388.50Q172 363 170 321L417 321Q416 366 399.50 390.50Q383 415 356 424.50Q329 434 295 434M236 580L86 740L236 740L346 580L236 580Z"  horiz-adv-x="580" vert-adv-y="1000"  />

      
      <glyph glyph-name="uni0113" unicode="&#x0113;" d="M300-12Q228-12 167.50 17.50Q107 47 71 107.50Q35 168 35 260L35 280Q35 368 69.50 426Q104 484 162 513Q220 542 290 542Q415 542 480 476Q545 410 545 285L545 229L170 229Q172 182 190.50 152.50Q209 123 238 109.50Q267 96 300 96Q351 96 377 111Q403 126 414 155L535 155Q519 72 456 30Q393-12 300-12M295 434Q264 434 235 424Q206 414 189 388.50Q172 363 170 321L417 321Q416 366 399.50 390.50Q383 415 356 424.50Q329 434 295 434M141 615L141 705L441 705L441 615L141 615Z"  horiz-adv-x="580" vert-adv-y="1000"  />

      
      <glyph glyph-name="uni0119" unicode="&#x0119;" d="M300-12Q228-12 167.50 17.50Q107 47 71 107.50Q35 168 35 260L35 280Q35 368 69.50 426Q104 484 162 513Q220 542 290 542Q415 542 480 476Q545 410 545 285L545 229L170 229Q172 182 190.50 152.50Q209 123 238 109.50Q267 96 300 96Q351 96 377 111Q403 126 414 155L535 155Q519 72 456 30Q393-12 300-12M295 434Q264 434 235 424Q206 414 189 388.50Q172 363 170 321L417 321Q416 366 399.50 390.50Q383 415 356 424.50Q329 434 295 434M338-212Q275-212 243.50-191Q212-170 212-124Q212-100 222.50-80Q233-60 249-44.50Q265-29 282-17.50Q299-6 313 0L392 0Q378-14 360-29Q342-44 329-61Q316-78 316-99Q316-115 326.50-124.50Q337-134 365-134Q375-134 380-133.50Q385-133 392-132L392-208Q379-210 370.50-211Q362-212 338-212Z"  horiz-adv-x="580" vert-adv-y="1000"  />

      
      <glyph glyph-name="uni66" unicode="&#x66;" d="M91 0L91 420L25 420L25 530L91 530L91 550Q91 601 109 635.50Q127 670 168.50 688Q210 706 280 706Q295 706 317.50 705.50Q340 705 355 703L355 591Q340 593 322.50 593.50Q305 594 290 594Q252 594 237 581.50Q222 569 222 540L222 530L345 530L345 420L222 420L222 0L91 0Z"  horiz-adv-x="365" vert-adv-y="1000"  />

      
      <glyph glyph-name="uni67" unicode="&#x67;" d="M290-212Q206-212 156-191.50Q106-171 82.50-135Q59-99 55-50L189-50Q195-71 216-89.50Q237-108 290-108Q357-108 390-76Q423-44 423 20L423 84Q398 45 356 21.50Q314-2 260-2Q191-2 140.50 28Q90 58 62.50 117.50Q35 177 35 265L35 285Q35 368 62.50 425Q90 482 141 512Q192 542 260 542Q326 542 369 515Q412 488 432 452L432 530L554 530L554 30Q554-88 489-150Q424-212 290-212M291 110Q331 110 360.50 124.50Q390 139 406.50 170Q423 201 423 245L423 305Q423 347 406 374Q389 401 359 415.50Q329 430 291 430Q237 430 203 393.50Q169 357 169 285L169 265Q169 188 204 149Q239 110 291 110Z"  horiz-adv-x="615" vert-adv-y="1000"  />

      
      <glyph glyph-name="uni011F" unicode="&#x011F;" d="M290-212Q206-212 156-191.50Q106-171 82.50-135Q59-99 55-50L189-50Q195-71 216-89.50Q237-108 290-108Q357-108 390-76Q423-44 423 20L423 84Q398 45 356 21.50Q314-2 260-2Q191-2 140.50 28Q90 58 62.50 117.50Q35 177 35 265L35 285Q35 368 62.50 425Q90 482 141 512Q192 542 260 542Q326 542 369 515Q412 488 432 452L432 530L554 530L554 30Q554-88 489-150Q424-212 290-212M291 110Q331 110 360.50 124.50Q390 139 406.50 170Q423 201 423 245L423 305Q423 347 406 374Q389 401 359 415.50Q329 430 291 430Q237 430 203 393.50Q169 357 169 285L169 265Q169 188 204 149Q239 110 291 110Z"  horiz-adv-x="615" vert-adv-y="1000"  />

      
      <glyph glyph-name="uni0123" unicode="&#x0123;" d="M290-212Q206-212 156-191.50Q106-171 82.50-135Q59-99 55-50L189-50Q195-71 216-89.50Q237-108 290-108Q357-108 390-76Q423-44 423 20L423 84Q398 45 356 21.50Q314-2 260-2Q191-2 140.50 28Q90 58 62.50 117.50Q35 177 35 265L35 285Q35 368 62.50 425Q90 482 141 512Q192 542 260 542Q326 542 369 515Q412 488 432 452L432 530L554 530L554 30Q554-88 489-150Q424-212 290-212M291 110Q331 110 360.50 124.50Q390 139 406.50 170Q423 201 423 245L423 305Q423 347 406 374Q389 401 359 415.50Q329 430 291 430Q237 430 203 393.50Q169 357 169 285L169 265Q169 188 204 149Q239 110 291 110M363 794L363 613L253 613L253 704L304 794L363 794Z"  horiz-adv-x="615" vert-adv-y="1000"  />

      
      <glyph glyph-name="uni0121" unicode="&#x0121;" d="M290-212Q206-212 156-191.50Q106-171 82.50-135Q59-99 55-50L189-50Q195-71 216-89.50Q237-108 290-108Q357-108 390-76Q423-44 423 20L423 84Q398 45 356 21.50Q314-2 260-2Q191-2 140.50 28Q90 58 62.50 117.50Q35 177 35 265L35 285Q35 368 62.50 425Q90 482 141 512Q192 542 260 542Q326 542 369 515Q412 488 432 452L432 530L554 530L554 30Q554-88 489-150Q424-212 290-212M291 110Q331 110 360.50 124.50Q390 139 406.50 170Q423 201 423 245L423 305Q423 347 406 374Q389 401 359 415.50Q329 430 291 430Q237 430 203 393.50Q169 357 169 285L169 265Q169 188 204 149Q239 110 291 110M309 581Q274 581 251.50 603Q229 625 229 660Q229 695 251.50 717Q274 739 308 739Q344 739 366.50 717Q389 695 389 660Q389 625 366.50 603Q344 581 309 581Z"  horiz-adv-x="615" vert-adv-y="1000"  />

      
      <glyph glyph-name="uni68" unicode="&#x68;" d="M61 0L61 700L192 700L192 457Q204 477 225.50 496.50Q247 516 279.50 529Q312 542 358 542Q455 542 502.50 490Q550 438 550 340L550 0L418 0L418 309Q418 368 393.50 399Q369 430 310 430Q268 430 242 413Q216 396 204 368.50Q192 341 192 309L192 0L61 0Z"  horiz-adv-x="605" vert-adv-y="1000"  />

      
      <glyph glyph-name="uni0127" unicode="&#x0127;" d="M-15 643L356 643L356 573L-15 573L-15 643M79 0L79 700L211 700L211 457Q224 477 245 496.50Q266 516 298.50 529Q331 542 376 542Q474 542 521.50 490Q569 438 569 340L569 0L437 0L437 309Q437 368 412.50 399Q388 430 329 430Q287 430 261 413Q235 396 223 368.50Q211 341 211 309L211 0L79 0Z"  horiz-adv-x="624" vert-adv-y="1000"  />

      
      <glyph glyph-name="uni69" unicode="&#x69;" d="M71 0L71 530L202 530L202 0L71 0M136 581Q101 581 78.50 603Q56 625 56 660Q56 695 78.50 717Q101 739 135 739Q171 739 193.50 717Q216 695 216 660Q216 625 193.50 603Q171 581 136 581Z"  horiz-adv-x="271" vert-adv-y="1000"  />

      
      <glyph glyph-name="uni0131" unicode="&#x0131;" d="M71 0L71 530L202 530L202 0L71 0Z"  horiz-adv-x="271" vert-adv-y="1000"  />

      
      <glyph glyph-name="unied" unicode="&#xed;" d="M71 0L71 530L202 530L202 0L71 0M81 580L191 740L341 740L191 580L81 580Z"  horiz-adv-x="271" vert-adv-y="1000"  />

      
      <glyph glyph-name="uniee" unicode="&#xee;" d="M71 0L71 530L202 530L202 0L71 0M-39 580L71 740L201 740L311 580L201 580L135 650L71 580L-39 580Z"  horiz-adv-x="271" vert-adv-y="1000"  />

      
      <glyph glyph-name="unief" unicode="&#xef;" d="M71 0L71 530L202 530L202 0L71 0M30 586Q-2 586-23 607Q-44 628-44 660Q-44 692-23 713Q-2 734 30 734Q62 734 83 713Q104 692 104 660Q104 628 83 607Q62 586 30 586M242 586Q210 586 189 607Q168 628 168 660Q168 692 189 713Q210 734 242 734Q274 734 295 713Q316 692 316 660Q316 628 295 607Q274 586 242 586Z"  horiz-adv-x="271" vert-adv-y="1000"  />

      
      <glyph glyph-name="uniec" unicode="&#xec;" d="M71 0L71 530L202 530L202 0L71 0M81 580L-69 740L81 740L191 580L81 580Z"  horiz-adv-x="271" vert-adv-y="1000"  />

      
      <glyph glyph-name="uni0133" unicode="&#x0133;" d="M71 0L71 530L202 530L202 0L71 0M136 581Q101 581 78.50 603Q56 625 56 660Q56 695 78.50 717Q101 739 135 739Q171 739 193.50 717Q216 695 216 660Q216 625 193.50 603Q171 581 136 581M292-212Q281-212 267-211.50Q253-211 242-209L242-97Q250-99 259.50-99.50Q269-100 277-100Q302-100 316-91.50Q330-83 336-58.50Q342-34 342 10L342 530L473 530L473 0Q473-84 457-130Q441-176 402-194Q363-212 292-212M408 581Q373 581 350.50 603Q328 625 328 660Q328 695 350.50 717Q373 739 407 739Q443 739 465.50 717Q488 695 488 660Q488 625 465.50 603Q443 581 408 581Z"  horiz-adv-x="544" vert-adv-y="1000"  />

      
      <glyph glyph-name="uni012B" unicode="&#x012B;" d="M71 0L71 530L202 530L202 0L71 0M-14 615L-14 705L286 705L286 615L-14 615Z"  horiz-adv-x="271" vert-adv-y="1000"  />

      
      <glyph glyph-name="uni012F" unicode="&#x012F;" d="M71 0L71 530L202 530L202 0L71 0M136 581Q101 581 78.50 603Q56 625 56 660Q56 695 78.50 717Q101 739 135 739Q171 739 193.50 717Q216 695 216 660Q216 625 193.50 603Q171 581 136 581M148-212Q85-212 53.50-191Q22-170 22-124Q22-100 32.50-80Q43-60 59-44.50Q75-29 92-17.50Q109-6 123 0L202 0Q188-14 170-29Q152-44 139-61Q126-78 126-99Q126-115 136.50-124.50Q147-134 175-134Q185-134 190-133.50Q195-133 202-132L202-208Q189-210 180.50-211Q172-212 148-212Z"  horiz-adv-x="271" vert-adv-y="1000"  />

      
      <glyph glyph-name="uni6a" unicode="&#x6a;" d="M21-212Q10-212-4-211.50Q-18-211-29-209L-29-97Q-21-99-11.50-99.50Q-2-100 6-100Q31-100 45-91.50Q59-83 65-58.50Q71-34 71 10L71 530L202 530L202 0Q202-84 186-130Q170-176 131-194Q92-212 21-212M136 581Q101 581 78.50 603Q56 625 56 660Q56 695 78.50 717Q101 739 135 739Q171 739 193.50 717Q216 695 216 660Q216 625 193.50 603Q171 581 136 581Z"  horiz-adv-x="271" vert-adv-y="1000"  />

      
      <glyph glyph-name="uni0237" unicode="&#x0237;" d="M21-212Q10-212-4-211.50Q-18-211-29-209L-29-97Q-21-99-11.50-99.50Q-2-100 6-100Q31-100 45-91.50Q59-83 65-58.50Q71-34 71 10L71 530L202 530L202 0Q202-84 186-130Q170-176 131-194Q92-212 21-212Z"  horiz-adv-x="271" vert-adv-y="1000"  />

      
      <glyph glyph-name="uni6b" unicode="&#x6b;" d="M61 0L61 700L192 700L192 312L388 530L539 530L336 303L559 0L407 0L251 216L192 153L192 0L61 0Z"  horiz-adv-x="575" vert-adv-y="1000"  />

      
      <glyph glyph-name="uni0137" unicode="&#x0137;" d="M61 0L61 700L192 700L192 312L388 530L539 530L336 303L559 0L407 0L251 216L192 153L192 0L61 0M233-226L233-45L343-45L343-136L292-226L233-226Z"  horiz-adv-x="575" vert-adv-y="1000"  />

      
      <glyph glyph-name="uni6c" unicode="&#x6c;" d="M240-6Q179-6 140.50 10.50Q102 27 84 66.50Q66 106 66 177L66 700L197 700L197 193Q197 142 211.50 124Q226 106 269 106Q280 106 288 106.50Q296 107 304 108L304-2Q299-4 287-5Q275-6 262-6Q249-6 240-6Z"  horiz-adv-x="330" vert-adv-y="1000"  />

      
      <glyph glyph-name="uni013A" unicode="&#x013A;" d="M240-6Q179-6 140.50 10.50Q102 27 84 66.50Q66 106 66 177L66 700L197 700L197 193Q197 142 211.50 124Q226 106 269 106Q280 106 288 106.50Q296 107 304 108L304-2Q299-4 287-5Q275-6 262-6Q249-6 240-6M71 750L181 900L341 900L191 750L71 750Z"  horiz-adv-x="330" vert-adv-y="1000"  />

      
      <glyph glyph-name="uni013E" unicode="&#x013E;" d="M240-6Q179-6 140.50 10.50Q102 27 84 66.50Q66 106 66 177L66 700L197 700L197 193Q197 142 211.50 124Q226 106 269 106Q280 106 288 106.50Q296 107 304 108L304-2Q299-4 287-5Q275-6 262-6Q249-6 240-6M268 486L279 613L279 700L390 700L390 613L322 486L268 486Z"  horiz-adv-x="330" vert-adv-y="1000"  />

      
      <glyph glyph-name="uni013C" unicode="&#x013C;" d="M240-6Q179-6 140.50 10.50Q102 27 84 66.50Q66 106 66 177L66 700L197 700L197 193Q197 142 211.50 124Q226 106 269 106Q280 106 288 106.50Q296 107 304 108L304-2Q299-4 287-5Q275-6 262-6Q249-6 240-6M110-226L110-45L220-45L220-136L169-226L110-226Z"  horiz-adv-x="330" vert-adv-y="1000"  />

      
      <glyph glyph-name="uni0142" unicode="&#x0142;" d="M274-6Q229-6 196 3Q163 12 141.50 32.50Q120 53 110 88.50Q100 124 100 177L100 279L20 233L20 357L100 403L100 700L232 700L232 478L340 542L340 417L232 355L232 193Q232 142 247 124Q262 106 305 106Q316 106 324 106.50Q332 107 340 108L340-3Q335-4 323-5Q311-6 298-6Q285-6 274-6Z"  horiz-adv-x="375" vert-adv-y="1000"  />

      
      <glyph glyph-name="uni6d" unicode="&#x6d;" d="M61 0L61 530L181 530L181 451Q199 486 239.50 514Q280 542 333 542Q397 542 433.50 516Q470 490 485 447Q507 489 548.50 515.50Q590 542 647 542Q731 542 775.50 493Q820 444 820 345L820 0L688 0L688 315Q688 378 667.50 404Q647 430 602 430Q576 430 554 416.50Q532 403 518.50 377Q505 351 505 315L505 0L374 0L374 315Q374 378 353.50 404Q333 430 288 430Q262 430 239.50 416.50Q217 403 204.50 377Q192 351 192 315L192 0L61 0Z"  horiz-adv-x="875" vert-adv-y="1000"  />

      
      <glyph glyph-name="uni6e" unicode="&#x6e;" d="M61 0L61 530L181 530L181 452Q201 488 243 515Q285 542 358 542Q455 542 502.50 490Q550 438 550 340L550 0L418 0L418 310Q418 369 393.50 399.50Q369 430 310 430Q268 430 242 413Q216 396 204 369Q192 342 192 310L192 0L61 0Z"  horiz-adv-x="605" vert-adv-y="1000"  />

      
      <glyph glyph-name="uni0144" unicode="&#x0144;" d="M61 0L61 530L181 530L181 452Q201 488 243 515Q285 542 358 542Q455 542 502.50 490Q550 438 550 340L550 0L418 0L418 310Q418 369 393.50 399.50Q369 430 310 430Q268 430 242 413Q216 396 204 369Q192 342 192 310L192 0L61 0M248 580L358 740L508 740L358 580L248 580Z"  horiz-adv-x="605" vert-adv-y="1000"  />

      
      <glyph glyph-name="uni0148" unicode="&#x0148;" d="M61 0L61 530L181 530L181 452Q201 488 243 515Q285 542 358 542Q455 542 502.50 490Q550 438 550 340L550 0L418 0L418 310Q418 369 393.50 399.50Q369 430 310 430Q268 430 242 413Q216 396 204 369Q192 342 192 310L192 0L61 0M238 580L128 740L238 740L302 670L368 740L478 740L368 580L238 580Z"  horiz-adv-x="605" vert-adv-y="1000"  />

      
      <glyph glyph-name="uni0146" unicode="&#x0146;" d="M61 0L61 530L181 530L181 452Q201 488 243 515Q285 542 358 542Q455 542 502.50 490Q550 438 550 340L550 0L418 0L418 310Q418 369 393.50 399.50Q369 430 310 430Q268 430 242 413Q216 396 204 369Q192 342 192 310L192 0L61 0M248-226L248-45L358-45L358-136L307-226L248-226Z"  horiz-adv-x="605" vert-adv-y="1000"  />

      
      <glyph glyph-name="unif1" unicode="&#xf1;" d="M61 0L61 530L181 530L181 452Q201 488 243 515Q285 542 358 542Q455 542 502.50 490Q550 438 550 340L550 0L418 0L418 310Q418 369 393.50 399.50Q369 430 310 430Q268 430 242 413Q216 396 204 369Q192 342 192 310L192 0L61 0M413 725L473 690Q469 676 463.50 663.50Q458 651 450 640Q437 621 416 605.50Q395 590 362 590Q332 590 311.50 601Q291 612 275.50 623.50Q260 635 242 635Q229 635 220 629Q211 623 205 615Q201 611 198 605.50Q195 600 193 595L133 630Q137 644 142.50 656.50Q148 669 156 680Q169 699 190 714.50Q211 730 242 730Q272 730 292 718.50Q312 707 328.50 696Q345 685 362 685Q375 685 385 691Q395 697 401 705Q405 710 408 715Q411 720 413 725Z"  horiz-adv-x="605" vert-adv-y="1000"  />

      
      <glyph glyph-name="uni014B" unicode="&#x014B;" d="M370-212Q359-212 345-211.50Q331-211 320-209L320-97Q328-99 337.50-99.50Q347-100 355-100Q379-100 393-91.50Q407-83 412.50-58.50Q418-34 418 10L418 130L550 130L550-1Q550-83 534-129.50Q518-176 479-194Q440-212 370-212M61 0L61 530L181 530L181 452Q201 488 243 515Q285 542 358 542Q455 542 502.50 490Q550 438 550 340L550 0L418 0L418 310Q418 369 393.50 399.50Q369 430 310 430Q268 430 242 413Q216 396 204 368.50Q192 341 192 310L192 0L61 0Z"  horiz-adv-x="606" vert-adv-y="1000"  />

      
      <glyph glyph-name="uni6f" unicode="&#x6f;" d="M300-12Q228-12 167.50 17.50Q107 47 71 107.50Q35 168 35 260L35 280Q35 367 71 425Q107 483 167.50 512.50Q228 542 300 542Q372 542 432.50 512.50Q493 483 529 425Q565 367 565 280L565 260Q565 170 529 109.50Q493 49 432.50 18.50Q372-12 300-12M300 100Q338 100 367.50 117.50Q397 135 414 171Q431 207 431 260L431 280Q431 329 414 362Q397 395 367.50 412.50Q338 430 300 430Q262 430 232.50 412.50Q203 395 186 362Q169 329 169 280L169 260Q169 206 186 170.50Q203 135 232.50 117.50Q262 100 300 100Z"  horiz-adv-x="600" vert-adv-y="1000"  />

      
      <glyph glyph-name="unif3" unicode="&#xf3;" d="M300-12Q228-12 167.50 17.50Q107 47 71 107.50Q35 168 35 260L35 280Q35 367 71 425Q107 483 167.50 512.50Q228 542 300 542Q372 542 432.50 512.50Q493 483 529 425Q565 367 565 280L565 260Q565 170 529 109.50Q493 49 432.50 18.50Q372-12 300-12M300 100Q338 100 367.50 117.50Q397 135 414 171Q431 207 431 260L431 280Q431 329 414 362Q397 395 367.50 412.50Q338 430 300 430Q262 430 232.50 412.50Q203 395 186 362Q169 329 169 280L169 260Q169 206 186 170.50Q203 135 232.50 117.50Q262 100 300 100M246 580L356 740L506 740L356 580L246 580Z"  horiz-adv-x="600" vert-adv-y="1000"  />

      
      <glyph glyph-name="unif4" unicode="&#xf4;" d="M300-12Q228-12 167.50 17.50Q107 47 71 107.50Q35 168 35 260L35 280Q35 367 71 425Q107 483 167.50 512.50Q228 542 300 542Q372 542 432.50 512.50Q493 483 529 425Q565 367 565 280L565 260Q565 170 529 109.50Q493 49 432.50 18.50Q372-12 300-12M300 100Q338 100 367.50 117.50Q397 135 414 171Q431 207 431 260L431 280Q431 329 414 362Q397 395 367.50 412.50Q338 430 300 430Q262 430 232.50 412.50Q203 395 186 362Q169 329 169 280L169 260Q169 206 186 170.50Q203 135 232.50 117.50Q262 100 300 100M126 580L236 740L366 740L476 580L366 580L300 650L236 580L126 580Z"  horiz-adv-x="600" vert-adv-y="1000"  />

      
      <glyph glyph-name="unif6" unicode="&#xf6;" d="M300-12Q228-12 167.50 17.50Q107 47 71 107.50Q35 168 35 260L35 280Q35 367 71 425Q107 483 167.50 512.50Q228 542 300 542Q372 542 432.50 512.50Q493 483 529 425Q565 367 565 280L565 260Q565 170 529 109.50Q493 49 432.50 18.50Q372-12 300-12M300 100Q338 100 367.50 117.50Q397 135 414 171Q431 207 431 260L431 280Q431 329 414 362Q397 395 367.50 412.50Q338 430 300 430Q262 430 232.50 412.50Q203 395 186 362Q169 329 169 280L169 260Q169 206 186 170.50Q203 135 232.50 117.50Q262 100 300 100M195 586Q163 586 142 607Q121 628 121 660Q121 692 142 713Q163 734 195 734Q227 734 248 713Q269 692 269 660Q269 628 248 607Q227 586 195 586M407 586Q375 586 354 607Q333 628 333 660Q333 692 354 713Q375 734 407 734Q439 734 460 713Q481 692 481 660Q481 628 460 607Q439 586 407 586Z"  horiz-adv-x="600" vert-adv-y="1000"  />

      
      <glyph glyph-name="unif2" unicode="&#xf2;" d="M300-12Q228-12 167.50 17.50Q107 47 71 107.50Q35 168 35 260L35 280Q35 367 71 425Q107 483 167.50 512.50Q228 542 300 542Q372 542 432.50 512.50Q493 483 529 425Q565 367 565 280L565 260Q565 170 529 109.50Q493 49 432.50 18.50Q372-12 300-12M300 100Q338 100 367.50 117.50Q397 135 414 171Q431 207 431 260L431 280Q431 329 414 362Q397 395 367.50 412.50Q338 430 300 430Q262 430 232.50 412.50Q203 395 186 362Q169 329 169 280L169 260Q169 206 186 170.50Q203 135 232.50 117.50Q262 100 300 100M246 580L96 740L246 740L356 580L246 580Z"  horiz-adv-x="600" vert-adv-y="1000"  />

      
      <glyph glyph-name="uni0151" unicode="&#x0151;" d="M300-12Q228-12 167.50 17.50Q107 47 71 107.50Q35 168 35 260L35 280Q35 367 71 425Q107 483 167.50 512.50Q228 542 300 542Q372 542 432.50 512.50Q493 483 529 425Q565 367 565 280L565 260Q565 170 529 109.50Q493 49 432.50 18.50Q372-12 300-12M300 100Q338 100 367.50 117.50Q397 135 414 171Q431 207 431 260L431 280Q431 329 414 362Q397 395 367.50 412.50Q338 430 300 430Q262 430 232.50 412.50Q203 395 186 362Q169 329 169 280L169 260Q169 206 186 170.50Q203 135 232.50 117.50Q262 100 300 100M232 580L134 580L218 740L355 740L232 580M445 580L342 580L465 740L608 740L445 580Z"  horiz-adv-x="600" vert-adv-y="1000"  />

      
      <glyph glyph-name="uni014D" unicode="&#x014D;" d="M300-12Q228-12 167.50 17.50Q107 47 71 107.50Q35 168 35 260L35 280Q35 367 71 425Q107 483 167.50 512.50Q228 542 300 542Q372 542 432.50 512.50Q493 483 529 425Q565 367 565 280L565 260Q565 170 529 109.50Q493 49 432.50 18.50Q372-12 300-12M300 100Q338 100 367.50 117.50Q397 135 414 171Q431 207 431 260L431 280Q431 329 414 362Q397 395 367.50 412.50Q338 430 300 430Q262 430 232.50 412.50Q203 395 186 362Q169 329 169 280L169 260Q169 206 186 170.50Q203 135 232.50 117.50Q262 100 300 100M151 615L151 705L451 705L451 615L151 615Z"  horiz-adv-x="600" vert-adv-y="1000"  />

      
      <glyph glyph-name="unif8" unicode="&#xf8;" d="M300-12Q211-12 145 30L110-12L60 30L96 74Q67 107 51 153Q35 199 35 260L35 280Q35 367 71 425Q107 483 167.50 512.50Q228 542 300 542Q388 542 454 500L490 542L540 500L504 457Q533 424 549 380.50Q565 337 565 280L565 260Q565 170 529 109.50Q493 49 432.50 18.50Q372-12 300-12M300 100Q338 100 367.50 117.50Q397 135 414 171Q431 207 431 260L431 280Q431 300 428 319Q425 338 417 354L224 122Q240 112 259 106Q278 100 300 100M300 430Q262 430 232.50 412.50Q203 395 186 362Q169 329 169 280L169 260Q169 235 172.50 214Q176 193 183 177L376 406Q360 418 341 424Q322 430 300 430Z"  horiz-adv-x="600" vert-adv-y="1000"  />

      
      <glyph glyph-name="unif5" unicode="&#xf5;" d="M300-12Q228-12 167.50 17.50Q107 47 71 107.50Q35 168 35 260L35 280Q35 367 71 425Q107 483 167.50 512.50Q228 542 300 542Q372 542 432.50 512.50Q493 483 529 425Q565 367 565 280L565 260Q565 170 529 109.50Q493 49 432.50 18.50Q372-12 300-12M300 100Q338 100 367.50 117.50Q397 135 414 171Q431 207 431 260L431 280Q431 329 414 362Q397 395 367.50 412.50Q338 430 300 430Q262 430 232.50 412.50Q203 395 186 362Q169 329 169 280L169 260Q169 206 186 170.50Q203 135 232.50 117.50Q262 100 300 100M411 725L471 690Q467 676 461.50 663.50Q456 651 448 640Q435 621 414 605.50Q393 590 360 590Q330 590 309.50 601Q289 612 273.50 623.50Q258 635 240 635Q227 635 218 629Q209 623 203 615Q199 611 196 605.50Q193 600 191 595L131 630Q135 644 140.50 656.50Q146 669 154 680Q167 699 188 714.50Q209 730 240 730Q270 730 290 718.50Q310 707 326.50 696Q343 685 360 685Q373 685 383 691Q393 697 399 705Q403 710 406 715Q409 720 411 725Z"  horiz-adv-x="600" vert-adv-y="1000"  />

      
      <glyph glyph-name="uni0153" unicode="&#x0153;" d="M300-12Q228-12 167.50 17.50Q107 47 71 107.50Q35 168 35 260L35 280Q35 367 71 425Q107 483 167.50 512.50Q228 542 300 542Q361 542 412 520.50Q463 499 498 457Q531 500 580.50 521Q630 542 691 542Q815 542 880 476Q945 410 945 285L945 229L570 229Q572 182 590.50 152.50Q609 123 638 109.50Q667 96 701 96Q751 96 777 111Q803 126 814 155L935 155Q919 72 856 30Q793-12 701-12Q637-12 585.50 9.50Q534 31 499 77Q464 31 413 9.50Q362-12 300-12M300 100Q338 100 367.50 117.50Q397 135 414 171Q431 207 431 260L431 280Q431 329 414 362Q397 395 367.50 412.50Q338 430 300 430Q262 430 232.50 412.50Q203 395 186 362Q169 329 169 280L169 260Q169 206 186 170.50Q203 135 232.50 117.50Q262 100 300 100M696 434Q664 434 636 424Q608 414 590 388.50Q572 363 570 321L817 321Q816 366 799.50 390.50Q783 415 756 424.50Q729 434 696 434Z"  horiz-adv-x="981" vert-adv-y="1000"  />

      
      <glyph glyph-name="uni70" unicode="&#x70;" d="M61-200L61 530L183 530L183 452Q203 488 246 515Q289 542 355 542Q461 542 520.50 476.50Q580 411 580 280L580 260Q580 169 552.50 108.50Q525 48 475 18Q425-12 355-12Q301-12 259.50 11.50Q218 35 192 73L192-200L61-200M324 100Q376 100 411 139.50Q446 179 446 260L446 280Q446 355 412.50 392.50Q379 430 324 430Q286 430 256 415.50Q226 401 209 372.50Q192 344 192 300L192 240Q192 193 208.50 161.50Q225 130 255 115Q285 100 324 100Z"  horiz-adv-x="615" vert-adv-y="1000"  />

      
      <glyph glyph-name="unife" unicode="&#xfe;" d="M61-200L61 700L192 700L192 457Q217 495 258.50 518.50Q300 542 355 542Q461 542 520.50 476.50Q580 411 580 280L580 260Q580 169 552.50 108.50Q525 48 475 18Q425-12 355-12Q301-12 259.50 11.50Q218 35 192 73L192-200L61-200M324 100Q376 100 411 139.50Q446 179 446 260L446 280Q446 355 412.50 392.50Q379 430 324 430Q286 430 256 415.50Q226 401 209 372Q192 343 192 299L192 239Q192 193 208.50 162Q225 131 255 115.50Q285 100 324 100Z"  horiz-adv-x="615" vert-adv-y="1000"  />

      
      <glyph glyph-name="uni71" unicode="&#x71;" d="M423-200L423 74Q398 35 356 11.50Q314-12 260-12Q191-12 140.50 18Q90 48 62.50 108.50Q35 169 35 260L35 280Q35 366 62.50 424Q90 482 141 512Q192 542 260 542Q326 542 369 515Q412 488 432 452L432 530L554 530L554-200L423-200M291 100Q331 100 360.50 115Q390 130 406.50 161.50Q423 193 423 240L423 300Q423 344 406 372.50Q389 401 359 415.50Q329 430 291 430Q237 430 203 393Q169 356 169 280L169 260Q169 178 204 139Q239 100 291 100Z"  horiz-adv-x="615" vert-adv-y="1000"  />

      
      <glyph glyph-name="uni72" unicode="&#x72;" d="M61 0L61 530L181 530L181 451Q192 474 211 494Q230 514 258 528Q286 542 320 542Q339 542 352.50 540Q366 538 370 536L370 419Q360 423 344.50 426.50Q329 430 303 430Q263 430 238.50 413Q214 396 203 368.50Q192 341 192 309L192 0L61 0Z"  horiz-adv-x="390" vert-adv-y="1000"  />

      
      <glyph glyph-name="uni0155" unicode="&#x0155;" d="M61 0L61 530L181 530L181 451Q192 474 211 494Q230 514 258 528Q286 542 320 542Q339 542 352.50 540Q366 538 370 536L370 419Q360 423 344.50 426.50Q329 430 303 430Q263 430 238.50 413Q214 396 203 368.50Q192 341 192 309L192 0L61 0M141 580L251 740L401 740L251 580L141 580Z"  horiz-adv-x="390" vert-adv-y="1000"  />

      
      <glyph glyph-name="uni0159" unicode="&#x0159;" d="M61 0L61 530L181 530L181 451Q192 474 211 494Q230 514 258 528Q286 542 320 542Q339 542 352.50 540Q366 538 370 536L370 419Q360 423 344.50 426.50Q329 430 303 430Q263 430 238.50 413Q214 396 203 368.50Q192 341 192 309L192 0L61 0M131 580L21 740L131 740L195 670L261 740L371 740L261 580L131 580Z"  horiz-adv-x="390" vert-adv-y="1000"  />

      
      <glyph glyph-name="uni0157" unicode="&#x0157;" d="M61 0L61 530L181 530L181 451Q192 474 211 494Q230 514 258 528Q286 542 320 542Q339 542 352.50 540Q366 538 370 536L370 419Q360 423 344.50 426.50Q329 430 303 430Q263 430 238.50 413Q214 396 203 368.50Q192 341 192 309L192 0L61 0M71-226L71-45L181-45L181-136L130-226L71-226Z"  horiz-adv-x="390" vert-adv-y="1000"  />

      
      <glyph glyph-name="uni73" unicode="&#x73;" d="M275-12Q210-12 166 1.50Q122 15 93.50 38.50Q65 62 51.50 92Q38 122 35 155L167 155Q172 129 198 112.50Q224 96 275 96Q333 96 358 112Q383 128 383 153Q383 171 372 182.50Q361 194 333 202.50Q305 211 254 220Q210 226 173.50 236.50Q137 247 109 266Q81 285 65.50 313.50Q50 342 50 383Q50 427 76.50 463Q103 499 153.50 520.50Q204 542 275 542Q352 542 398 518Q444 494 467 456Q490 418 495 375L363 375Q355 404 332 419Q309 434 275 434Q225 434 203.50 418.50Q182 403 182 380Q182 356 205.50 343Q229 330 302 320Q347 314 385.50 302.50Q424 291 453 272Q482 253 498.50 224.50Q515 196 515 155Q515 106 488.50 68.50Q462 31 408.50 9.50Q355-12 275-12Z"  horiz-adv-x="549" vert-adv-y="1000"  />

      
      <glyph glyph-name="uni015B" unicode="&#x015B;" d="M275-12Q210-12 166 1.50Q122 15 93.50 38.50Q65 62 51.50 92Q38 122 35 155L167 155Q172 129 198 112.50Q224 96 275 96Q333 96 358 112Q383 128 383 153Q383 171 372 182.50Q361 194 333 202.50Q305 211 254 220Q210 226 173.50 236.50Q137 247 109 266Q81 285 65.50 313.50Q50 342 50 383Q50 427 76.50 463Q103 499 153.50 520.50Q204 542 275 542Q352 542 398 518Q444 494 467 456Q490 418 495 375L363 375Q355 404 332 419Q309 434 275 434Q225 434 203.50 418.50Q182 403 182 380Q182 356 205.50 343Q229 330 302 320Q347 314 385.50 302.50Q424 291 453 272Q482 253 498.50 224.50Q515 196 515 155Q515 106 488.50 68.50Q462 31 408.50 9.50Q355-12 275-12M220 580L330 740L480 740L330 580L220 580Z"  horiz-adv-x="549" vert-adv-y="1000"  />

      
      <glyph glyph-name="uni0161" unicode="&#x0161;" d="M275-12Q210-12 166 1.50Q122 15 93.50 38.50Q65 62 51.50 92Q38 122 35 155L167 155Q172 129 198 112.50Q224 96 275 96Q333 96 358 112Q383 128 383 153Q383 171 372 182.50Q361 194 333 202.50Q305 211 254 220Q210 226 173.50 236.50Q137 247 109 266Q81 285 65.50 313.50Q50 342 50 383Q50 427 76.50 463Q103 499 153.50 520.50Q204 542 275 542Q352 542 398 518Q444 494 467 456Q490 418 495 375L363 375Q355 404 332 419Q309 434 275 434Q225 434 203.50 418.50Q182 403 182 380Q182 356 205.50 343Q229 330 302 320Q347 314 385.50 302.50Q424 291 453 272Q482 253 498.50 224.50Q515 196 515 155Q515 106 488.50 68.50Q462 31 408.50 9.50Q355-12 275-12M210 580L100 740L210 740L274 670L340 740L450 740L340 580L210 580Z"  horiz-adv-x="549" vert-adv-y="1000"  />

      
      <glyph glyph-name="uni015F" unicode="&#x015F;" d="M275-12Q210-12 166 1.50Q122 15 93.50 38.50Q65 62 51.50 92Q38 122 35 155L167 155Q172 129 198 112.50Q224 96 275 96Q333 96 358 112Q383 128 383 153Q383 171 372 182.50Q361 194 333 202.50Q305 211 254 220Q210 226 173.50 236.50Q137 247 109 266Q81 285 65.50 313.50Q50 342 50 383Q50 427 76.50 463Q103 499 153.50 520.50Q204 542 275 542Q352 542 398 518Q444 494 467 456Q490 418 495 375L363 375Q355 404 332 419Q309 434 275 434Q225 434 203.50 418.50Q182 403 182 380Q182 356 205.50 343Q229 330 302 320Q347 314 385.50 302.50Q424 291 453 272Q482 253 498.50 224.50Q515 196 515 155Q515 106 488.50 68.50Q462 31 408.50 9.50Q355-12 275-12M262-212Q245-212 232-211Q219-210 210-208Q205-207 200.50-206Q196-205 192-204L192-132L206-134Q213-135 222-135.50Q231-136 242-136Q269-136 278.50-127.50Q288-119 288-110Q288-98 279-89.50Q270-81 239-81L256 10L332 10L325-36Q363-45 377-67.50Q391-90 391-115Q391-159 361-185.50Q331-212 262-212Z"  horiz-adv-x="549" vert-adv-y="1000"  />

      
      <glyph glyph-name="uni0219" unicode="&#x0219;" d="M275-12Q210-12 166 1.50Q122 15 93.50 38.50Q65 62 51.50 92Q38 122 35 155L167 155Q172 129 198 112.50Q224 96 275 96Q333 96 358 112Q383 128 383 153Q383 171 372 182.50Q361 194 333 202.50Q305 211 254 220Q210 226 173.50 236.50Q137 247 109 266Q81 285 65.50 313.50Q50 342 50 383Q50 427 76.50 463Q103 499 153.50 520.50Q204 542 275 542Q352 542 398 518Q444 494 467 456Q490 418 495 375L363 375Q355 404 332 419Q309 434 275 434Q225 434 203.50 418.50Q182 403 182 380Q182 356 205.50 343Q229 330 302 320Q347 314 385.50 302.50Q424 291 453 272Q482 253 498.50 224.50Q515 196 515 155Q515 106 488.50 68.50Q462 31 408.50 9.50Q355-12 275-12M220-226L220-45L330-45L330-136L279-226L220-226Z"  horiz-adv-x="549" vert-adv-y="1000"  />

      
      <glyph glyph-name="unidf" unicode="&#xdf;" d="M61 0L61 475Q61 590 120 651Q179 712 290 712Q363 712 411.50 689Q460 666 484.50 626Q509 586 509 535Q509 484 483 444Q457 404 409 387Q460 379 491 353.50Q522 328 535.50 292.50Q549 257 549 215L549 205Q549 135 524.50 88Q500 41 446 17.50Q392-6 305-6Q294-6 280-5.50Q266-5 255-3L255 108Q266 106 280 105.50Q294 105 305 105Q361 105 389.50 132.50Q418 160 418 213L418 223Q418 274 388 302Q358 330 295 330L275 330L275 430L290 430Q328 430 353 451Q378 472 378 515Q378 559 356 579.50Q334 600 290 600Q242 600 217 569Q192 538 192 475L192 0L61 0Z"  horiz-adv-x="590" vert-adv-y="1000"  />

      
      <glyph glyph-name="uni74" unicode="&#x74;" d="M275-6Q213-6 173 11.50Q133 29 114.50 68Q96 107 96 169L96 420L25 420L25 530L96 530L96 650L227 650L227 530L355 530L355 420L227 420L227 190Q227 145 243.50 125.50Q260 106 305 106Q335 106 365 109L365-1Q346-3 325.50-4.50Q305-6 275-6Z"  horiz-adv-x="400" vert-adv-y="1000"  />

      
      <glyph glyph-name="uni0165" unicode="&#x0165;" d="M275-6Q213-6 173 11.50Q133 29 114.50 68Q96 107 96 169L96 420L25 420L25 530L96 530L96 650L227 650L227 530L355 530L355 420L227 420L227 190Q227 145 243.50 125.50Q260 106 305 106Q335 106 365 109L365-1Q346-3 325.50-4.50Q305-6 275-6M285 595L296 722L296 809L407 809L407 722L339 595L285 595Z"  horiz-adv-x="400" vert-adv-y="1000"  />

      
      <glyph glyph-name="uni021B" unicode="&#x021B;" d="M275-6Q213-6 173 11.50Q133 29 114.50 68Q96 107 96 169L96 420L25 420L25 530L96 530L96 650L227 650L227 530L355 530L355 420L227 420L227 190Q227 145 243.50 125.50Q260 106 305 106Q335 106 365 109L365-1Q346-3 325.50-4.50Q305-6 275-6M145-226L145-45L255-45L255-136L204-226L145-226Z"  horiz-adv-x="400" vert-adv-y="1000"  />

      
      <glyph glyph-name="uni75" unicode="&#x75;" d="M242-12Q150-12 103 40.50Q56 93 56 203L56 530L187 530L187 221Q187 161 210.50 130.50Q234 100 290 100Q330 100 354.50 117Q379 134 391 161Q403 188 403 221L403 530L535 530L535 0L413 0L413 79Q394 42 352.50 15Q311-12 242-12Z"  horiz-adv-x="595" vert-adv-y="1000"  />

      
      <glyph glyph-name="unifa" unicode="&#xfa;" d="M242-12Q150-12 103 40.50Q56 93 56 203L56 530L187 530L187 221Q187 161 210.50 130.50Q234 100 290 100Q330 100 354.50 117Q379 134 391 161Q403 188 403 221L403 530L535 530L535 0L413 0L413 79Q394 42 352.50 15Q311-12 242-12M243 580L353 740L503 740L353 580L243 580Z"  horiz-adv-x="595" vert-adv-y="1000"  />

      
      <glyph glyph-name="uni016D" unicode="&#x016D;" d="M242-12Q150-12 103 40.50Q56 93 56 203L56 530L187 530L187 221Q187 161 210.50 130.50Q234 100 290 100Q330 100 354.50 117Q379 134 391 161Q403 188 403 221L403 530L535 530L535 0L413 0L413 79Q394 42 352.50 15Q311-12 242-12M298 585Q209 585 168.50 623Q128 661 128 735L245 735Q245 696 258 680.50Q271 665 297 665Q325 665 339 680.50Q353 696 353 735L468 735Q468 661 427 623Q386 585 298 585Z"  horiz-adv-x="595" vert-adv-y="1000"  />

      
      <glyph glyph-name="unifb" unicode="&#xfb;" d="M242-12Q150-12 103 40.50Q56 93 56 203L56 530L187 530L187 221Q187 161 210.50 130.50Q234 100 290 100Q330 100 354.50 117Q379 134 391 161Q403 188 403 221L403 530L535 530L535 0L413 0L413 79Q394 42 352.50 15Q311-12 242-12M123 580L233 740L363 740L473 580L363 580L297 650L233 580L123 580Z"  horiz-adv-x="595" vert-adv-y="1000"  />

      
      <glyph glyph-name="unifc" unicode="&#xfc;" d="M242-12Q150-12 103 40.50Q56 93 56 203L56 530L187 530L187 221Q187 161 210.50 130.50Q234 100 290 100Q330 100 354.50 117Q379 134 391 161Q403 188 403 221L403 530L535 530L535 0L413 0L413 79Q394 42 352.50 15Q311-12 242-12M192 586Q160 586 139 607Q118 628 118 660Q118 692 139 713Q160 734 192 734Q224 734 245 713Q266 692 266 660Q266 628 245 607Q224 586 192 586M404 586Q372 586 351 607Q330 628 330 660Q330 692 351 713Q372 734 404 734Q436 734 457 713Q478 692 478 660Q478 628 457 607Q436 586 404 586Z"  horiz-adv-x="595" vert-adv-y="1000"  />

      
      <glyph glyph-name="unif9" unicode="&#xf9;" d="M242-12Q150-12 103 40.50Q56 93 56 203L56 530L187 530L187 221Q187 161 210.50 130.50Q234 100 290 100Q330 100 354.50 117Q379 134 391 161Q403 188 403 221L403 530L535 530L535 0L413 0L413 79Q394 42 352.50 15Q311-12 242-12M243 580L93 740L243 740L353 580L243 580Z"  horiz-adv-x="595" vert-adv-y="1000"  />

      
      <glyph glyph-name="uni0171" unicode="&#x0171;" d="M242-12Q150-12 103 40.50Q56 93 56 203L56 530L187 530L187 221Q187 161 210.50 130.50Q234 100 290 100Q330 100 354.50 117Q379 134 391 161Q403 188 403 221L403 530L535 530L535 0L413 0L413 79Q394 42 352.50 15Q311-12 242-12M230 580L132 580L216 740L353 740L230 580M443 580L340 580L463 740L606 740L443 580Z"  horiz-adv-x="595" vert-adv-y="1000"  />

      
      <glyph glyph-name="uni016B" unicode="&#x016B;" d="M242-12Q150-12 103 40.50Q56 93 56 203L56 530L187 530L187 221Q187 161 210.50 130.50Q234 100 290 100Q330 100 354.50 117Q379 134 391 161Q403 188 403 221L403 530L535 530L535 0L413 0L413 79Q394 42 352.50 15Q311-12 242-12M148 615L148 705L448 705L448 615L148 615Z"  horiz-adv-x="595" vert-adv-y="1000"  />

      
      </font>
</defs>
</svg>
